<?xml version="1.0"?>
<!-- Generated by SVGo and Plotinum VG -->
<svg width="597.38pt" height="326.62pt" viewBox="0 0 597.38 326.62"
	xmlns="http://www.w3.org/2000/svg"
	xmlns:xlink="http://www.w3.org/1999/xlink">
<g transform="scale(1, -1) translate(0, -326.62)">
<text x="253.67" y="-316.9" transform="scale(1, -1)"
	style="font-family:Liberation Sans;font-variant:normal;font-weight:normal;font-style:normal;font-size:12px">Kinase Time Plot</text>
<text x="304.62" y="-3.6797" transform="scale(1, -1)"
	style="font-family:Liberation Sans;font-variant:normal;font-weight:normal;font-style:normal;font-size:12px">Time</text>
<text x="35.314" y="-16.473" transform="scale(1, -1)"
	style="font-family:Liberation Sans;font-variant:normal;font-weight:normal;font-style:normal;font-size:10px">0</text>
<text x="203.43" y="-16.473" transform="scale(1, -1)"
	style="font-family:Liberation Sans;font-variant:normal;font-weight:normal;font-style:normal;font-size:10px">3</text>
<text x="371.55" y="-16.473" transform="scale(1, -1)"
	style="font-family:Liberation Sans;font-variant:normal;font-weight:normal;font-style:normal;font-size:10px">6</text>
<text x="539.67" y="-16.473" transform="scale(1, -1)"
	style="font-family:Liberation Sans;font-variant:normal;font-weight:normal;font-style:normal;font-size:10px">9</text>
<path d="M38.095,24.578L38.095,32.578" style="fill:none;stroke:#000000;stroke-width:0.5" />
<path d="M206.22,24.578L206.22,32.578" style="fill:none;stroke:#000000;stroke-width:0.5" />
<path d="M374.34,24.578L374.34,32.578" style="fill:none;stroke:#000000;stroke-width:0.5" />
<path d="M542.46,24.578L542.46,32.578" style="fill:none;stroke:#000000;stroke-width:0.5" />
<path d="M94.135,28.578L94.135,32.578" style="fill:none;stroke:#000000;stroke-width:0.5" />
<path d="M150.17,28.578L150.17,32.578" style="fill:none;stroke:#000000;stroke-width:0.5" />
<path d="M262.26,28.578L262.26,32.578" style="fill:none;stroke:#000000;stroke-width:0.5" />
<path d="M318.3,28.578L318.3,32.578" style="fill:none;stroke:#000000;stroke-width:0.5" />
<path d="M430.38,28.578L430.38,32.578" style="fill:none;stroke:#000000;stroke-width:0.5" />
<path d="M486.42,28.578L486.42,32.578" style="fill:none;stroke:#000000;stroke-width:0.5" />
<path d="M38.095,32.578L597.38,32.578" style="fill:none;stroke:#000000;stroke-width:0.5" />
<g transform="rotate(90)">
<text x="152.45" y="9.7266" transform="scale(1, -1)"
	style="font-family:Liberation Sans;font-variant:normal;font-weight:normal;font-style:normal;font-size:12px">PreSpike</text>
</g>
<text x="15.949" y="-37.852" transform="scale(1, -1)"
	style="font-family:Liberation Sans;font-variant:normal;font-weight:normal;font-style:normal;font-size:10px">0</text>
<text x="15.949" y="-152.58" transform="scale(1, -1)"
	style="font-family:Liberation Sans;font-variant:normal;font-weight:normal;font-style:normal;font-size:10px">4</text>
<text x="15.949" y="-267.31" transform="scale(1, -1)"
	style="font-family:Liberation Sans;font-variant:normal;font-weight:normal;font-style:normal;font-size:10px">8</text>
<path d="M24.289,40.371L32.289,40.371" style="fill:none;stroke:#000000;stroke-width:0.5" />
<path d="M24.289,155.1L32.289,155.1" style="fill:none;stroke:#000000;stroke-width:0.5" />
<path d="M24.289,269.83L32.289,269.83" style="fill:none;stroke:#000000;stroke-width:0.5" />
<path d="M28.289,69.053L32.289,69.053" style="fill:none;stroke:#000000;stroke-width:0.5" />
<path d="M28.289,97.735L32.289,97.735" style="fill:none;stroke:#000000;stroke-width:0.5" />
<path d="M28.289,126.42L32.289,126.42" style="fill:none;stroke:#000000;stroke-width:0.5" />
<path d="M28.289,183.78L32.289,183.78" style="fill:none;stroke:#000000;stroke-width:0.5" />
<path d="M28.289,212.46L32.289,212.46" style="fill:none;stroke:#000000;stroke-width:0.5" />
<path d="M28.289,241.14L32.289,241.14" style="fill:none;stroke:#000000;stroke-width:0.5" />
<path d="M28.289,298.51L32.289,298.51" style="fill:none;stroke:#000000;stroke-width:0.5" />
<path d="M32.289,40.371L32.289,313.22" style="fill:none;stroke:#000000;stroke-width:0.5" />
<path d="M38.095,40.371L38.655,40.371L39.216,40.371L39.776,40.371L40.336,40.371L40.897,40.371L41.457,40.371L42.018,69.053L42.578,40.371L43.138,40.371L43.699,40.371L44.259,40.371L44.82,40.371L45.38,40.371L45.94,40.371L46.501,40.371L47.061,69.053L47.622,40.371L48.182,40.371L48.742,40.371L49.303,40.371L49.863,40.371L50.424,40.371L50.984,40.371L51.544,40.371L52.105,40.371L52.665,40.371L53.226,40.371L53.786,40.371L54.346,40.371L54.907,40.371L55.467,40.371L56.028,40.371L56.588,40.371L57.148,40.371L57.709,40.371L58.269,40.371L58.83,40.371L59.39,40.371L59.95,40.371L60.511,40.371L61.071,40.371L61.632,40.371L62.192,40.371L62.752,40.371L63.313,40.371L63.873,40.371L64.434,40.371L64.994,40.371L65.554,40.371L66.115,40.371L66.675,40.371L67.236,40.371L67.796,40.371L68.356,40.371L68.917,40.371L69.477,40.371L70.038,40.371L70.598,40.371L71.158,40.371L71.719,40.371L72.279,40.371L72.84,40.371L73.4,40.371L73.96,40.371L74.521,40.371L75.081,40.371L75.642,40.371L76.202,40.371L76.762,40.371L77.323,40.371L77.883,40.371L78.444,40.371L79.004,40.371L79.564,40.371L80.125,40.371L80.685,40.371L81.246,40.371L81.806,40.371L82.366,40.371L82.927,40.371L83.487,40.371L84.048,40.371L84.608,40.371L85.168,40.371L85.729,40.371L86.289,40.371L86.85,40.371L87.41,40.371L87.97,40.371L88.531,40.371L89.091,40.371L89.652,40.371L90.212,40.371L90.772,40.371L91.333,40.371L91.893,40.371L92.454,40.371L93.014,40.371L93.574,40.371L94.135,40.371L94.695,40.371L95.256,40.371L95.816,40.371L96.376,40.371L96.937,40.371L97.497,40.371L98.058,40.371L98.618,40.371L99.178,40.371L99.739,40.371L100.3,40.371L100.86,40.371L101.42,40.371L101.98,40.371L102.54,40.371L103.1,40.371L103.66,40.371L104.22,40.371L104.78,40.371L105.34,40.371L105.9,40.371L106.46,40.371L107.02,40.371L107.58,40.371L108.14,40.371L108.71,40.371L109.27,40.371L109.83,40.371L110.39,40.371L110.95,40.371L111.51,40.371L112.07,40.371L112.63,40.371L113.19,40.371L113.75,40.371L114.31,40.371L114.87,40.371L115.43,40.371L115.99,40.371L116.55,40.371L117.11,40.371L117.67,40.371L118.23,40.371L118.79,40.371L119.35,40.371L119.91,40.371L120.47,40.371L121.03,40.371L121.59,40.371L122.15,40.371L122.72,40.371L123.28,40.371L123.84,40.371L124.4,40.371L124.96,40.371L125.52,40.371L126.08,40.371L126.64,40.371L127.2,40.371L127.76,40.371L128.32,40.371L128.88,40.371L129.44,40.371L130,40.371L130.56,40.371L131.12,40.371L131.68,40.371L132.24,40.371L132.8,40.371L133.36,40.371L133.92,40.371L134.48,40.371L135.04,40.371L135.6,40.371L136.16,40.371L136.73,40.371L137.29,40.371L137.85,40.371L138.41,40.371L138.97,40.371L139.53,40.371L140.09,40.371L140.65,40.371L141.21,40.371L141.77,40.371L142.33,40.371L142.89,40.371L143.45,40.371L144.01,40.371L144.57,40.371L145.13,40.371L145.69,40.371L146.25,40.371L146.81,40.371L147.37,40.371L147.93,40.371L148.49,40.371L149.05,40.371L149.61,40.371L150.17,40.371L150.74,40.371L151.3,40.371L151.86,40.371L152.42,40.371L152.98,40.371L153.54,40.371L154.1,40.371L154.66,40.371L155.22,40.371L155.78,40.371L156.34,40.371L156.9,40.371L157.46,40.371L158.02,40.371L158.58,40.371L159.14,40.371L159.7,40.371L160.26,40.371L160.82,40.371L161.38,40.371L161.94,40.371L162.5,40.371L163.06,40.371L163.62,40.371L164.18,40.371L164.75,40.371L165.31,40.371L165.87,40.371L166.43,40.371L166.99,40.371L167.55,40.371L168.11,40.371L168.67,40.371L169.23,40.371L169.79,40.371L170.35,40.371L170.91,40.371L171.47,40.371L172.03,40.371L172.59,40.371L173.15,40.371L173.71,40.371L174.27,40.371L174.83,40.371L175.39,40.371L175.95,40.371L176.51,40.371L177.07,40.371L177.63,40.371L178.19,40.371L178.76,40.371L179.32,40.371L179.88,40.371L180.44,40.371L181,40.371L181.56,40.371L182.12,40.371L182.68,40.371L183.24,40.371L183.8,40.371L184.36,40.371L184.92,40.371L185.48,40.371L186.04,40.371L186.6,40.371L187.16,40.371L187.72,40.371L188.28,40.371L188.84,40.371L189.4,40.371L189.96,40.371L190.52,40.371L191.08,40.371L191.64,40.371L192.21,40.371L192.77,40.371L193.33,40.371L193.89,40.371L194.45,40.371L195.01,40.371L195.57,40.371L196.13,40.371L196.69,40.371L197.25,40.371L197.81,40.371L198.37,40.371L198.93,40.371L199.49,40.371L200.05,40.371L200.61,40.371L201.17,40.371L201.73,40.371L202.29,40.371L202.85,40.371L203.41,40.371L203.97,40.371L204.53,40.371L205.09,40.371L205.65,40.371L206.22,40.371L206.78,40.371L207.34,40.371L207.9,40.371L208.46,40.371L209.02,40.371L209.58,40.371L210.14,40.371L210.7,40.371L211.26,40.371L211.82,40.371L212.38,40.371L212.94,40.371L213.5,40.371L214.06,40.371L214.62,40.371L215.18,40.371L215.74,40.371L216.3,40.371L216.86,40.371L217.42,40.371L217.98,40.371L218.54,40.371L219.1,40.371L219.66,40.371L220.23,40.371L220.79,40.371L221.35,40.371L221.91,40.371L222.47,40.371L223.03,40.371L223.59,40.371L224.15,40.371L224.71,40.371L225.27,40.371L225.83,40.371L226.39,40.371L226.95,40.371L227.51,40.371L228.07,40.371L228.63,40.371L229.19,40.371L229.75,40.371L230.31,40.371L230.87,40.371L231.43,40.371L231.99,40.371L232.55,40.371L233.11,40.371L233.67,40.371L234.24,40.371L234.8,40.371L235.36,40.371L235.92,40.371L236.48,40.371L237.04,40.371L237.6,40.371L238.16,40.371L238.72,40.371L239.28,40.371L239.84,40.371L240.4,40.371L240.96,40.371L241.52,40.371L242.08,40.371L242.64,40.371L243.2,40.371L243.76,40.371L244.32,40.371L244.88,40.371L245.44,40.371L246,40.371L246.56,40.371L247.12,40.371L247.68,40.371L248.25,40.371L248.81,40.371L249.37,40.371L249.93,40.371L250.49,40.371L251.05,40.371L251.61,40.371L252.17,40.371L252.73,40.371L253.29,40.371L253.85,40.371L254.41,40.371L254.97,40.371L255.53,40.371L256.09,40.371L256.65,40.371L257.21,40.371L257.77,40.371L258.33,40.371L258.89,40.371L259.45,40.371L260.01,40.371L260.57,40.371L261.13,40.371L261.69,40.371L262.26,40.371L262.82,40.371L263.38,40.371L263.94,40.371L264.5,40.371L265.06,40.371L265.62,40.371L266.18,40.371L266.74,40.371L267.3,40.371L267.86,40.371L268.42,40.371L268.98,40.371L269.54,40.371L270.1,40.371L270.66,40.371L271.22,40.371L271.78,69.053L272.34,40.371L272.9,40.371L273.46,40.371L274.02,40.371L274.58,40.371L275.14,40.371L275.7,40.371L276.27,40.371L276.83,40.371L277.39,40.371L277.95,40.371L278.51,40.371L279.07,40.371L279.63,40.371L280.19,40.371L280.75,40.371L281.31,40.371L281.87,40.371L282.43,40.371L282.99,40.371L283.55,40.371L284.11,40.371L284.67,40.371L285.23,40.371L285.79,40.371L286.35,40.371L286.91,40.371L287.47,40.371L288.03,40.371L288.59,40.371L289.15,40.371L289.71,40.371L290.28,40.371L290.84,40.371L291.4,40.371L291.96,40.371L292.52,40.371L293.08,40.371L293.64,40.371L294.2,40.371L294.76,40.371L295.32,40.371L295.88,40.371L296.44,40.371L297,40.371L297.56,40.371L298.12,40.371L298.68,40.371L299.24,40.371L299.8,40.371L300.36,40.371L300.92,40.371L301.48,40.371L302.04,40.371L302.6,40.371L303.16,40.371L303.72,40.371L304.29,40.371L304.85,40.371L305.41,40.371L305.97,40.371L306.53,40.371L307.09,40.371L307.65,40.371L308.21,40.371L308.77,40.371L309.33,40.371L309.89,40.371L310.45,40.371L311.01,40.371L311.57,40.371L312.13,40.371L312.69,40.371L313.25,40.371L313.81,40.371L314.37,40.371L314.93,40.371L315.49,40.371L316.05,40.371L316.61,40.371L317.17,40.371L317.73,40.371L318.3,40.371L318.86,40.371L319.42,40.371L319.98,40.371L320.54,40.371L321.1,40.371L321.66,69.053L322.22,40.371L322.78,69.053L323.34,40.371L323.9,40.371L324.46,40.371L325.02,40.371L325.58,40.371L326.14,40.371L326.7,40.371L327.26,40.371L327.82,40.371L328.38,40.371L328.94,40.371L329.5,40.371L330.06,40.371L330.62,40.371L331.18,40.371L331.74,40.371L332.31,40.371L332.87,40.371L333.43,40.371L333.99,40.371L334.55,40.371L335.11,40.371L335.67,40.371L336.23,40.371L336.79,40.371L337.35,40.371L337.91,40.371L338.47,40.371L339.03,40.371L339.59,40.371L340.15,40.371L340.71,40.371L341.27,40.371L341.83,40.371L342.39,40.371L342.95,40.371L343.51,40.371L344.07,40.371L344.63,40.371L345.19,40.371L345.75,40.371L346.32,40.371L346.88,40.371L347.44,40.371L348,40.371L348.56,40.371L349.12,40.371L349.68,40.371L350.24,40.371L350.8,40.371L351.36,40.371L351.92,40.371L352.48,40.371L353.04,40.371L353.6,40.371L354.16,40.371L354.72,40.371L355.28,40.371L355.84,40.371L356.4,40.371L356.96,40.371L357.52,40.371L358.08,40.371L358.64,40.371L359.2,40.371L359.76,40.371L360.33,40.371L360.89,40.371L361.45,40.371L362.01,40.371L362.57,40.371L363.13,40.371L363.69,40.371L364.25,40.371L364.81,40.371L365.37,40.371L365.93,40.371L366.49,40.371L367.05,40.371L367.61,40.371L368.17,40.371L368.73,40.371L369.29,40.371L369.85,40.371L370.41,40.371L370.97,40.371L371.53,40.371L372.09,40.371L372.65,40.371L373.21,40.371L373.77,40.371L374.34,40.371L374.9,40.371L375.46,40.371L376.02,40.371L376.58,69.053L377.14,40.371L377.7,40.371L378.26,40.371L378.82,40.371L379.38,40.371L379.94,40.371L380.5,40.371L381.06,40.371L381.62,40.371L382.18,40.371L382.74,40.371L383.3,40.371L383.86,40.371L384.42,40.371L384.98,40.371L385.54,40.371L386.1,40.371L386.66,40.371L387.22,40.371L387.78,40.371L388.35,40.371L388.91,40.371L389.47,40.371L390.03,40.371L390.59,40.371L391.15,40.371L391.71,40.371L392.27,40.371L392.83,40.371L393.39,40.371L393.95,40.371L394.51,40.371L395.07,40.371L395.63,40.371L396.19,40.371L396.75,40.371L397.31,40.371L397.87,40.371L398.43,40.371L398.99,40.371L399.55,40.371L400.11,40.371L400.67,40.371L401.23,40.371L401.8,40.371L402.36,40.371L402.92,40.371L403.48,40.371L404.04,40.371L404.6,40.371L405.16,40.371L405.72,40.371L406.28,40.371L406.84,40.371L407.4,40.371L407.96,40.371L408.52,40.371L409.08,40.371L409.64,40.371L410.2,40.371L410.76,40.371L411.32,40.371L411.88,40.371L412.44,40.371L413,40.371L413.56,40.371L414.12,40.371L414.68,40.371L415.24,40.371L415.81,40.371L416.37,40.371L416.93,40.371L417.49,40.371L418.05,40.371L418.61,40.371L419.17,40.371L419.73,40.371L420.29,40.371L420.85,40.371L421.41,40.371L421.97,40.371L422.53,40.371L423.09,40.371L423.65,40.371L424.21,40.371L424.77,40.371L425.33,40.371L425.89,40.371L426.45,40.371L427.01,40.371L427.57,40.371L428.13,40.371L428.69,40.371L429.25,40.371L429.82,40.371L430.38,40.371L430.94,40.371L431.5,40.371L432.06,40.371L432.62,40.371L433.18,40.371L433.74,40.371L434.3,40.371L434.86,40.371L435.42,40.371L435.98,40.371L436.54,40.371L437.1,40.371L437.66,40.371L438.22,40.371L438.78,40.371L439.34,40.371L439.9,40.371L440.46,40.371L441.02,40.371L441.58,40.371L442.14,40.371L442.7,40.371L443.26,40.371L443.83,40.371L444.39,40.371L444.95,40.371L445.51,40.371L446.07,40.371L446.63,40.371L447.19,40.371L447.75,40.371L448.31,40.371L448.87,40.371L449.43,40.371L449.99,40.371L450.55,40.371L451.11,40.371L451.67,40.371L452.23,40.371L452.79,40.371L453.35,40.371L453.91,40.371L454.47,40.371L455.03,40.371L455.59,40.371L456.15,40.371L456.71,40.371L457.27,40.371L457.84,40.371L458.4,40.371L458.96,40.371L459.52,40.371L460.08,40.371L460.64,40.371L461.2,40.371L461.76,40.371L462.32,40.371L462.88,40.371L463.44,40.371L464,40.371L464.56,40.371L465.12,40.371L465.68,40.371L466.24,40.371L466.8,40.371L467.36,40.371L467.92,40.371L468.48,40.371L469.04,40.371L469.6,40.371L470.16,40.371L470.72,40.371L471.28,40.371L471.85,40.371L472.41,40.371L472.97,40.371L473.53,40.371L474.09,40.371L474.65,40.371L475.21,40.371L475.77,40.371L476.33,40.371L476.89,40.371L477.45,40.371L478.01,40.371L478.57,40.371L479.13,40.371L479.69,40.371L480.25,40.371L480.81,40.371L481.37,40.371L481.93,40.371L482.49,40.371L483.05,40.371L483.61,40.371L484.17,40.371L484.73,40.371L485.29,40.371L485.86,40.371L486.42,40.371L486.98,40.371L487.54,40.371L488.1,40.371L488.66,40.371L489.22,40.371L489.78,40.371L490.34,40.371L490.9,40.371L491.46,40.371L492.02,40.371L492.58,40.371L493.14,40.371L493.7,40.371L494.26,40.371L494.82,40.371L495.38,40.371L495.94,40.371L496.5,40.371L497.06,40.371L497.62,40.371L498.18,40.371L498.74,40.371L499.3,40.371L499.87,40.371L500.43,40.371L500.99,40.371L501.55,40.371L502.11,40.371L502.67,40.371L503.23,40.371L503.79,40.371L504.35,40.371L504.91,40.371L505.47,40.371L506.03,40.371L506.59,40.371L507.15,40.371L507.71,40.371L508.27,40.371L508.83,40.371L509.39,40.371L509.95,40.371L510.51,40.371L511.07,40.371L511.63,40.371L512.19,40.371L512.75,40.371L513.31,40.371L513.88,40.371L514.44,40.371L515,40.371L515.56,40.371L516.12,40.371L516.68,40.371L517.24,40.371L517.8,40.371L518.36,40.371L518.92,40.371L519.48,40.371L520.04,40.371L520.6,40.371L521.16,40.371L521.72,40.371L522.28,40.371L522.84,40.371L523.4,40.371L523.96,40.371L524.52,40.371L525.08,40.371L525.64,40.371L526.2,40.371L526.76,40.371L527.32,40.371L527.89,40.371L528.45,40.371L529.01,40.371L529.57,40.371L530.13,40.371L530.69,40.371L531.25,40.371L531.81,40.371L532.37,40.371L532.93,40.371L533.49,40.371L534.05,40.371L534.61,40.371L535.17,40.371L535.73,40.371L536.29,40.371L536.85,40.371L537.41,40.371L537.97,40.371L538.53,40.371L539.09,40.371L539.65,40.371L540.21,40.371L540.77,40.371L541.33,40.371L541.9,40.371L542.46,40.371L543.02,40.371L543.58,40.371L544.14,40.371L544.7,40.371L545.26,40.371L545.82,40.371L546.38,40.371L546.94,40.371L547.5,40.371L548.06,40.371L548.62,40.371L549.18,40.371L549.74,40.371L550.3,40.371L550.86,40.371L551.42,40.371L551.98,40.371L552.54,40.371L553.1,40.371L553.66,40.371L554.22,40.371L554.78,40.371L555.34,40.371L555.91,40.371L556.47,40.371L557.03,40.371L557.59,40.371L558.15,40.371L558.71,40.371L559.27,40.371L559.83,40.371L560.39,40.371L560.95,40.371L561.51,40.371L562.07,40.371L562.63,40.371L563.19,40.371L563.75,40.371L564.31,40.371L564.87,40.371L565.43,40.371L565.99,40.371L566.55,40.371L567.11,40.371L567.67,40.371L568.23,40.371L568.79,40.371L569.35,40.371L569.92,40.371L570.48,40.371L571.04,40.371L571.6,40.371L572.16,40.371L572.72,40.371L573.28,40.371L573.84,40.371L574.4,40.371L574.96,40.371L575.52,40.371L576.08,40.371L576.64,40.371L577.2,40.371L577.76,40.371L578.32,40.371L578.88,40.371L579.44,40.371L580,40.371L580.56,40.371L581.12,40.371L581.68,40.371L582.24,40.371L582.8,40.371L583.36,40.371L583.93,40.371L584.49,40.371L585.05,40.371L585.61,40.371L586.17,40.371L586.73,40.371L587.29,40.371L587.85,40.371L588.41,40.371L588.97,40.371L589.53,40.371L590.09,40.371L590.65,40.371L591.21,40.371L591.77,40.371L592.33,40.371L592.89,40.371L593.45,40.371L594.01,40.371L594.57,40.371L595.13,40.371L595.69,40.371L596.25,40.371L596.81,40.371L597.38,40.371" style="fill:none;stroke:#A52A2A" />
<path d="M38.095,40.381L38.655,40.475L39.216,41.345L39.776,43.509L40.336,50.455L40.897,56.921L41.457,63.24L42.018,66.528L42.578,72.087L43.138,74.744L43.699,77.529L44.259,78.697L44.82,79.479L45.38,83.685L45.94,87.857L46.501,90.738L47.061,92.854L47.622,96.994L48.182,100.12L48.742,102.37L49.303,104.74L49.863,105.26L50.424,105.48L50.984,105.6L51.544,105.65L52.105,105.66L52.665,105.65L53.226,105.61L53.786,105.56L54.346,105.49L54.907,105.42L55.467,105.35L56.028,105.27L56.588,105.18L57.148,105.1L57.709,105.01L58.269,104.92L58.83,104.83L59.39,104.75L59.95,104.66L60.511,104.57L61.071,104.48L61.632,104.39L62.192,104.3L62.752,104.21L63.313,104.12L63.873,104.03L64.434,103.94L64.994,103.85L65.554,103.77L66.115,103.68L66.675,103.59L67.236,103.5L67.796,103.41L68.356,103.33L68.917,103.24L69.477,103.15L70.038,103.07L70.598,102.98L71.158,102.89L71.719,102.81L72.279,102.72L72.84,102.63L73.4,102.55L73.96,102.46L74.521,102.37L75.081,102.29L75.642,102.2L76.202,102.12L76.762,102.03L77.323,101.94L77.883,101.86L78.444,101.77L79.004,101.69L79.564,101.6L80.125,101.51L80.685,101.43L81.246,101.34L81.806,101.26L82.366,101.17L82.927,101.09L83.487,101L84.048,100.91L84.608,100.83L85.168,100.74L85.729,100.66L86.289,100.57L86.85,100.49L87.41,100.4L87.97,100.31L88.531,100.23L89.091,100.14L89.652,100.06L90.212,99.973L90.772,99.887L91.333,99.801L91.893,99.716L92.454,99.63L93.014,99.545L93.574,99.459L94.135,99.368L94.695,99.51L95.256,101.77L95.816,109.23L96.376,114.2L96.937,119.11L97.497,123.42L98.058,126.81L98.618,130.99L99.178,133.82L99.739,136.47L100.3,137.52L100.86,138.61L101.42,142.68L101.98,145.71L102.54,147.74L103.1,149.11L103.66,151.12L104.22,155.1L104.78,158.33L105.34,160.7L105.9,161.15L106.46,161.29L107.02,161.3L107.58,161.22L108.14,161.1L108.71,160.93L109.27,160.73L109.83,160.52L110.39,160.29L110.95,160.04L111.51,159.8L112.07,159.54L112.63,159.28L113.19,159.02L113.75,158.76L114.31,158.49L114.87,158.23L115.43,157.96L115.99,157.7L116.55,157.44L117.11,157.17L117.67,156.91L118.23,156.65L118.79,156.38L119.35,156.12L119.91,155.86L120.47,155.6L121.03,155.34L121.59,155.08L122.15,154.83L122.72,154.57L123.28,154.31L123.84,154.06L124.4,153.8L124.96,153.55L125.52,153.29L126.08,153.04L126.64,152.79L127.2,152.54L127.76,152.29L128.32,152.04L128.88,151.79L129.44,151.54L130,151.29L130.56,151.04L131.12,150.79L131.68,150.55L132.24,150.3L132.8,150.05L133.36,149.81L133.92,149.57L134.48,149.32L135.04,149.08L135.6,148.83L136.16,148.59L136.73,148.35L137.29,148.11L137.85,147.87L138.41,147.63L138.97,147.39L139.53,147.15L140.09,146.91L140.65,146.67L141.21,146.43L141.77,146.19L142.33,145.96L142.89,145.72L143.45,145.48L144.01,145.25L144.57,145.01L145.13,144.78L145.69,144.54L146.25,144.31L146.81,144.08L147.37,143.84L147.93,143.61L148.49,143.38L149.05,143.15L149.61,142.91L150.17,142.67L150.74,142.89L151.3,144.37L151.86,151.8L152.42,158.7L152.98,163.39L153.54,167.4L154.1,170.48L154.66,173.67L155.22,176.75L155.78,179.57L156.34,180.6L156.9,181.92L157.46,185.52L158.02,188.07L158.58,189.73L159.14,192.02L159.7,195.34L160.26,197.59L160.82,199.03L161.38,199.82L161.94,199.84L162.5,199.7L163.06,199.48L163.62,199.2L164.18,198.89L164.75,198.56L165.31,198.2L165.87,197.84L166.43,197.46L166.99,197.08L167.55,196.69L168.11,196.3L168.67,195.91L169.23,195.52L169.79,195.13L170.35,194.74L170.91,194.35L171.47,193.96L172.03,193.57L172.59,193.18L173.15,192.79L173.71,192.4L174.27,192.02L174.83,191.63L175.39,191.25L175.95,190.87L176.51,190.48L177.07,190.1L177.63,189.73L178.19,189.35L178.76,188.97L179.32,188.6L179.88,188.22L180.44,187.85L181,187.48L181.56,187.11L182.12,186.74L182.68,186.37L183.24,186L183.8,185.63L184.36,185.27L184.92,184.9L185.48,184.54L186.04,184.17L186.6,183.81L187.16,183.45L187.72,183.09L188.28,182.73L188.84,182.37L189.4,182.02L189.96,181.66L190.52,181.3L191.08,180.95L191.64,180.6L192.21,180.24L192.77,179.89L193.33,179.54L193.89,179.19L194.45,178.84L195.01,178.49L195.57,178.15L196.13,177.8L196.69,177.45L197.25,177.11L197.81,176.76L198.37,176.42L198.93,176.08L199.49,175.74L200.05,175.39L200.61,175.05L201.17,174.72L201.73,174.38L202.29,174.04L202.85,173.7L203.41,173.37L203.97,173.03L204.53,172.7L205.09,172.36L205.65,172.03L206.22,171.68L206.78,172.66L207.34,183.39L207.9,190.6L208.46,196.85L209.02,200.42L209.58,204.59L210.14,207.44L210.7,209.79L211.26,213.65L211.82,215.28L212.38,216.14L212.94,219.08L213.5,221.74L214.06,223.44L214.62,224.49L215.18,225.52L215.74,229.42L216.3,232.42L216.86,235.27L217.42,235.99L217.98,235.96L218.54,235.74L219.1,235.44L219.66,235.07L220.23,234.65L220.79,234.21L221.35,233.75L221.91,233.27L222.47,232.77L223.03,232.28L223.59,231.77L224.15,231.27L224.71,230.76L225.27,230.25L225.83,229.73L226.39,229.22L226.95,228.71L227.51,228.2L228.07,227.7L228.63,227.19L229.19,226.68L229.75,226.18L230.31,225.68L230.87,225.18L231.43,224.68L231.99,224.18L232.55,223.68L233.11,223.19L233.67,222.69L234.24,222.2L234.8,221.71L235.36,221.22L235.92,220.74L236.48,220.25L237.04,219.77L237.6,219.28L238.16,218.8L238.72,218.32L239.28,217.84L239.84,217.37L240.4,216.89L240.96,216.42L241.52,215.94L242.08,215.47L242.64,215L243.2,214.53L243.76,214.07L244.32,213.6L244.88,213.14L245.44,212.67L246,212.21L246.56,211.75L247.12,211.29L247.68,210.83L248.25,210.37L248.81,209.92L249.37,209.46L249.93,209.01L250.49,208.56L251.05,208.11L251.61,207.66L252.17,207.21L252.73,206.76L253.29,206.31L253.85,205.87L254.41,205.42L254.97,204.98L255.53,204.54L256.09,204.1L256.65,203.66L257.21,203.22L257.77,202.79L258.33,202.35L258.89,201.91L259.45,201.48L260.01,201.05L260.57,200.62L261.13,200.19L261.69,199.76L262.26,199.31L262.82,199.47L263.38,206.78L263.94,211.03L264.5,217.35L265.06,221.6L265.62,225.43L266.18,229.65L266.74,232.14L267.3,234.62L267.86,237.42L268.42,239L268.98,239.92L269.54,240.79L270.1,244.37L270.66,246.96L271.22,248.58L271.78,249.68L272.34,253.12L272.9,255.77L273.46,258.35L274.02,258.55L274.58,258.37L275.14,258.05L275.7,257.64L276.27,257.17L276.83,256.67L277.39,256.14L277.95,255.59L278.51,255.03L279.07,254.46L279.63,253.88L280.19,253.3L280.75,252.72L281.31,252.13L281.87,251.55L282.43,250.96L282.99,250.38L283.55,249.8L284.11,249.22L284.67,248.64L285.23,248.06L285.79,247.48L286.35,246.9L286.91,246.33L287.47,245.76L288.03,245.19L288.59,244.62L289.15,244.06L289.71,243.49L290.28,242.93L290.84,242.37L291.4,241.81L291.96,241.25L292.52,240.7L293.08,240.14L293.64,239.59L294.2,239.04L294.76,238.49L295.32,237.95L295.88,237.4L296.44,236.86L297,236.32L297.56,235.78L298.12,235.24L298.68,234.7L299.24,234.17L299.8,233.63L300.36,233.1L300.92,232.57L301.48,232.04L302.04,231.51L302.6,230.99L303.16,230.46L303.72,229.94L304.29,229.42L304.85,228.9L305.41,228.38L305.97,227.86L306.53,227.34L307.09,226.83L307.65,226.32L308.21,225.8L308.77,225.29L309.33,224.78L309.89,224.28L310.45,223.77L311.01,223.27L311.57,222.76L312.13,222.26L312.69,221.76L313.25,221.26L313.81,220.76L314.37,220.27L314.93,219.77L315.49,219.28L316.05,218.78L316.61,218.29L317.17,217.8L317.73,217.26L318.3,216.82L318.86,226.75L319.42,238.25L319.98,245.71L320.54,249.75L321.1,255.27L321.66,257.74L322.22,262.95L322.78,265.07L323.34,269.19L323.9,270.61L324.46,271.39L325.02,271.71L325.58,275L326.14,277.74L326.7,279.46L327.26,280.46L327.82,282.88L328.38,285.81L328.94,288.6L329.5,289.32L330.06,289.16L330.62,288.79L331.18,288.31L331.74,287.76L332.31,287.17L332.87,286.55L333.43,285.9L333.99,285.25L334.55,284.58L335.11,283.9L335.67,283.22L336.23,282.53L336.79,281.85L337.35,281.16L337.91,280.48L338.47,279.79L339.03,279.11L339.59,278.43L340.15,277.75L340.71,277.07L341.27,276.39L341.83,275.72L342.39,275.04L342.95,274.37L343.51,273.71L344.07,273.04L344.63,272.38L345.19,271.72L345.75,271.06L346.32,270.4L346.88,269.75L347.44,269.09L348,268.44L348.56,267.79L349.12,267.15L349.68,266.5L350.24,265.86L350.8,265.22L351.36,264.58L351.92,263.94L352.48,263.31L353.04,262.68L353.6,262.05L354.16,261.42L354.72,260.79L355.28,260.17L355.84,259.54L356.4,258.92L356.96,258.3L357.52,257.68L358.08,257.07L358.64,256.45L359.2,255.84L359.76,255.23L360.33,254.62L360.89,254.01L361.45,253.41L362.01,252.81L362.57,252.2L363.13,251.6L363.69,251.01L364.25,250.41L364.81,249.81L365.37,249.22L365.93,248.63L366.49,248.04L367.05,247.45L367.61,246.86L368.17,246.28L368.73,245.69L369.29,245.11L369.85,244.53L370.41,243.95L370.97,243.38L371.53,242.8L372.09,242.23L372.65,241.66L373.21,241.08L373.77,240.46L374.34,240.12L374.9,240.01L375.46,246.98L376.02,252.67L376.58,257.12L377.14,262.93L377.7,265.37L378.26,268.43L378.82,270.81L379.38,273.96L379.94,275.72L380.5,276.82L381.06,277.36L381.62,277.96L382.18,281.68L382.74,284.39L383.3,286.06L383.86,288.63L384.42,291.32L384.98,293.58L385.54,294.71L386.1,294.53L386.66,294.11L387.22,293.59L387.78,293L388.35,292.38L388.91,291.72L389.47,291.05L390.03,290.37L390.59,289.67L391.15,288.97L391.71,288.27L392.27,287.56L392.83,286.86L393.39,286.15L393.95,285.45L394.51,284.74L395.07,284.04L395.63,283.34L396.19,282.64L396.75,281.94L397.31,281.24L397.87,280.55L398.43,279.86L398.99,279.17L399.55,278.48L400.11,277.8L400.67,277.12L401.23,276.44L401.8,275.76L402.36,275.08L402.92,274.41L403.48,273.74L404.04,273.07L404.6,272.4L405.16,271.74L405.72,271.08L406.28,270.42L406.84,269.76L407.4,269.1L407.96,268.45L408.52,267.79L409.08,267.14L409.64,266.5L410.2,265.85L410.76,265.21L411.32,264.56L411.88,263.92L412.44,263.29L413,262.65L413.56,262.01L414.12,261.38L414.68,260.75L415.24,260.12L415.81,259.49L416.37,258.87L416.93,258.25L417.49,257.62L418.05,257L418.61,256.39L419.17,255.77L419.73,255.15L420.29,254.54L420.85,253.93L421.41,253.32L421.97,252.71L422.53,252.11L423.09,251.5L423.65,250.9L424.21,250.3L424.77,249.7L425.33,249.1L425.89,248.51L426.45,247.91L427.01,247.32L427.57,246.73L428.13,246.14L428.69,245.56L429.25,244.97L429.82,244.34L430.38,244.19L430.94,249.07L431.5,254.94L432.06,259.5L432.62,263.15L433.18,267.58L433.74,270.55L434.3,273.53L434.86,276.15L435.42,278L435.98,278.52L436.54,280.33L437.1,283.16L437.66,284.98L438.22,286.03L438.78,286.57L439.34,289.58L439.9,292.46L440.46,294.55L441.02,297.14L441.58,297.8L442.14,297.88L442.7,297.68L443.26,297.31L443.83,296.83L444.39,296.27L444.95,295.66L445.51,295.02L446.07,294.35L446.63,293.66L447.19,292.97L447.75,292.26L448.31,291.55L448.87,290.84L449.43,290.13L449.99,289.41L450.55,288.7L451.11,287.99L451.67,287.27L452.23,286.56L452.79,285.86L453.35,285.15L453.91,284.45L454.47,283.74L455.03,283.04L455.59,282.35L456.15,281.65L456.71,280.96L457.27,280.27L457.84,279.58L458.4,278.89L458.96,278.21L459.52,277.53L460.08,276.85L460.64,276.17L461.2,275.5L461.76,274.82L462.32,274.15L462.88,273.48L463.44,272.82L464,272.15L464.56,271.49L465.12,270.83L465.68,270.17L466.24,269.51L466.8,268.86L467.36,268.21L467.92,267.56L468.48,266.91L469.04,266.26L469.6,265.62L470.16,264.97L470.72,264.33L471.28,263.69L471.85,263.05L472.41,262.42L472.97,261.79L473.53,261.15L474.09,260.52L474.65,259.9L475.21,259.27L475.77,258.64L476.33,258.02L476.89,257.4L477.45,256.78L478.01,256.16L478.57,255.55L479.13,254.93L479.69,254.32L480.25,253.71L480.81,253.1L481.37,252.49L481.93,251.89L482.49,251.29L483.05,250.68L483.61,250.08L484.17,249.48L484.73,248.89L485.29,248.29L485.86,247.66L486.42,247.59L486.98,252.58L487.54,257.45L488.1,262.27L488.66,265.54L489.22,268.76L489.78,272.12L490.34,274.53L490.9,277.72L491.46,280.49L492.02,281.48L492.58,281.93L493.14,283.82L493.7,286.91L494.26,288.92L494.82,290.1L495.38,292.92L495.94,295.34L496.5,296.82L497.06,297.37L497.62,297.11L498.18,296.67L498.74,296.14L499.3,295.55L499.87,294.91L500.43,294.25L500.99,293.58L501.55,292.88L502.11,292.18L502.67,291.47L503.23,290.76L503.79,290.04L504.35,289.33L504.91,288.61L505.47,287.9L506.03,287.18L506.59,286.47L507.15,285.76L507.71,285.05L508.27,284.35L508.83,283.64L509.39,282.94L509.95,282.24L510.51,281.54L511.07,280.84L511.63,280.15L512.19,279.46L512.75,278.77L513.31,278.08L513.88,277.4L514.44,276.71L515,276.03L515.56,275.36L516.12,274.68L516.68,274.01L517.24,273.34L517.8,272.67L518.36,272L518.92,271.33L519.48,270.67L520.04,270.01L520.6,269.35L521.16,268.69L521.72,268.04L522.28,267.38L522.84,266.73L523.4,266.08L523.96,265.44L524.52,264.79L525.08,264.15L525.64,263.5L526.2,262.86L526.76,262.23L527.32,261.59L527.89,260.96L528.45,260.32L529.01,259.69L529.57,259.07L530.13,258.44L530.69,257.81L531.25,257.19L531.81,256.57L532.37,255.95L532.93,255.33L533.49,254.72L534.05,254.1L534.61,253.49L535.17,252.88L535.73,252.27L536.29,251.66L536.85,251.06L537.41,250.45L537.97,249.85L538.53,249.25L539.09,248.65L539.65,248.05L540.21,247.46L540.77,246.87L541.33,246.27L541.9,245.65L542.46,246.17L543.02,253.63L543.58,258.55L544.14,263.31L544.7,267.02L545.26,270.13L545.82,273.37L546.38,275.84L546.94,279.27L547.5,281.55L548.06,282.81L548.62,284.98L549.18,286.94L549.74,288.07L550.3,288.63L550.86,290.22L551.42,293.42L551.98,295.62L552.54,297.28L553.1,298.22L553.66,297.95L554.22,297.49L554.78,296.93L555.34,296.32L555.91,295.68L556.47,295.01L557.03,294.32L557.59,293.62L558.15,292.91L558.71,292.2L559.27,291.48L559.83,290.77L560.39,290.05L560.95,289.33L561.51,288.61L562.07,287.89L562.63,287.18L563.19,286.46L563.75,285.75L564.31,285.04L564.87,284.33L565.43,283.63L565.99,282.92L566.55,282.22L567.11,281.52L567.67,280.83L568.23,280.13L568.79,279.44L569.35,278.75L569.92,278.06L570.48,277.38L571.04,276.7L571.6,276.02L572.16,275.34L572.72,274.66L573.28,273.99L573.84,273.32L574.4,272.65L574.96,271.98L575.52,271.32L576.08,270.65L576.64,269.99L577.2,269.33L577.76,268.67L578.32,268.02L578.88,267.37L579.44,266.71L580,266.06L580.56,265.42L581.12,264.77L581.68,264.13L582.24,263.49L582.8,262.85L583.36,262.21L583.93,261.57L584.49,260.94L585.05,260.31L585.61,259.68L586.17,259.05L586.73,258.42L587.29,257.8L587.85,257.17L588.41,256.55L588.97,255.93L589.53,255.32L590.09,254.7L590.65,254.09L591.21,253.47L591.77,252.86L592.33,252.25L592.89,251.65L593.45,251.04L594.01,250.44L594.57,249.84L595.13,249.24L595.69,248.64L596.25,248.04L596.81,247.44L597.38,246.85" style="fill:none;stroke:#7FFF00" />
<path d="M38.095,40.381L38.655,40.484L39.216,41.433L39.776,43.793L40.336,51.368L40.897,58.413L41.457,65.297L42.018,68.87L42.578,74.918L43.138,77.8L43.699,80.818L44.259,82.073L44.82,82.904L45.38,87.471L45.94,91.998L46.501,95.116L47.061,97.397L47.622,101.88L48.182,105.26L48.742,107.69L49.303,110.24L49.863,110.77L50.424,110.98L50.984,111.07L51.544,111.09L52.105,111.07L52.665,111.02L53.226,110.95L53.786,110.86L54.346,110.76L54.907,110.65L55.467,110.53L56.028,110.41L56.588,110.29L57.148,110.16L57.709,110.04L58.269,109.91L58.83,109.78L59.39,109.65L59.95,109.52L60.511,109.39L61.071,109.26L61.632,109.14L62.192,109.01L62.752,108.88L63.313,108.75L63.873,108.63L64.434,108.5L64.994,108.37L65.554,108.25L66.115,108.12L66.675,108L67.236,107.87L67.796,107.75L68.356,107.62L68.917,107.5L69.477,107.38L70.038,107.25L70.598,107.13L71.158,107.01L71.719,106.89L72.279,106.76L72.84,106.64L73.4,106.52L73.96,106.4L74.521,106.28L75.081,106.16L75.642,106.04L76.202,105.92L76.762,105.8L77.323,105.68L77.883,105.56L78.444,105.44L79.004,105.32L79.564,105.2L80.125,105.08L80.685,104.96L81.246,104.84L81.806,104.72L82.366,104.6L82.927,104.49L83.487,104.37L84.048,104.25L84.608,104.13L85.168,104.02L85.729,103.9L86.289,103.78L86.85,103.66L87.41,103.55L87.97,103.43L88.531,103.31L89.091,103.2L89.652,103.08L90.212,102.96L90.772,102.85L91.333,102.73L91.893,102.62L92.454,102.5L93.014,102.39L93.574,102.27L94.135,102.15L94.695,102.28L95.256,104.72L95.816,112.84L96.376,118.23L96.937,123.55L97.497,128.23L98.058,131.88L98.618,136.41L99.178,139.46L99.739,142.31L100.3,143.41L100.86,144.56L101.42,148.96L101.98,152.21L102.54,154.39L103.1,155.83L103.66,157.98L104.22,162.28L104.78,165.74L105.34,168.28L105.9,168.71L106.46,168.81L107.02,168.77L107.58,168.64L108.14,168.45L108.71,168.21L109.27,167.95L109.83,167.66L110.39,167.36L110.95,167.05L111.51,166.73L112.07,166.4L112.63,166.07L113.19,165.74L113.75,165.4L114.31,165.06L114.87,164.73L115.43,164.39L115.99,164.06L116.55,163.72L117.11,163.39L117.67,163.05L118.23,162.72L118.79,162.39L119.35,162.06L119.91,161.73L120.47,161.4L121.03,161.08L121.59,160.75L122.15,160.43L122.72,160.1L123.28,159.78L123.84,159.46L124.4,159.14L124.96,158.82L125.52,158.5L126.08,158.18L126.64,157.87L127.2,157.55L127.76,157.24L128.32,156.93L128.88,156.61L129.44,156.3L130,155.99L130.56,155.68L131.12,155.38L131.68,155.07L132.24,154.76L132.8,154.46L133.36,154.15L133.92,153.85L134.48,153.54L135.04,153.24L135.6,152.94L136.16,152.64L136.73,152.34L137.29,152.04L137.85,151.74L138.41,151.45L138.97,151.15L139.53,150.85L140.09,150.56L140.65,150.26L141.21,149.97L141.77,149.68L142.33,149.39L142.89,149.1L143.45,148.8L144.01,148.52L144.57,148.23L145.13,147.94L145.69,147.65L146.25,147.36L146.81,147.08L147.37,146.79L147.93,146.51L148.49,146.23L149.05,145.94L149.61,145.66L150.17,145.36L150.74,145.57L151.3,147.16L151.86,155.24L152.42,162.72L152.98,167.8L153.54,172.14L154.1,175.45L154.66,178.88L155.22,182.2L155.78,185.23L156.34,186.31L156.9,187.7L157.46,191.58L158.02,194.3L158.58,196.06L159.14,198.51L159.7,202.08L160.26,204.48L160.82,205.99L161.38,206.79L161.94,206.76L162.5,206.55L163.06,206.25L163.62,205.89L164.18,205.5L164.75,205.07L165.31,204.63L165.87,204.18L166.43,203.72L166.99,203.25L167.55,202.77L168.11,202.3L168.67,201.82L169.23,201.34L169.79,200.86L170.35,200.38L170.91,199.91L171.47,199.43L172.03,198.95L172.59,198.48L173.15,198.01L173.71,197.54L174.27,197.07L174.83,196.6L175.39,196.14L175.95,195.67L176.51,195.21L177.07,194.75L177.63,194.29L178.19,193.83L178.76,193.38L179.32,192.92L179.88,192.47L180.44,192.02L181,191.57L181.56,191.12L182.12,190.68L182.68,190.23L183.24,189.79L183.8,189.35L184.36,188.91L184.92,188.47L185.48,188.03L186.04,187.59L186.6,187.16L187.16,186.73L187.72,186.3L188.28,185.86L188.84,185.44L189.4,185.01L189.96,184.58L190.52,184.16L191.08,183.73L191.64,183.31L192.21,182.89L192.77,182.47L193.33,182.05L193.89,181.63L194.45,181.22L195.01,180.8L195.57,180.39L196.13,179.98L196.69,179.57L197.25,179.16L197.81,178.75L198.37,178.34L198.93,177.94L199.49,177.53L200.05,177.13L200.61,176.73L201.17,176.32L201.73,175.92L202.29,175.53L202.85,175.13L203.41,174.73L203.97,174.34L204.53,173.94L205.09,173.55L205.65,173.16L206.22,172.75L206.78,173.79L207.34,185.46L207.9,193.29L208.46,200.07L209.02,203.92L209.58,208.43L210.14,211.49L210.7,214L211.26,218.17L211.82,219.89L212.38,220.78L212.94,223.94L213.5,226.78L214.06,228.59L214.62,229.68L215.18,230.75L215.74,234.95L216.3,238.16L216.86,241.22L217.42,241.93L217.98,241.84L218.54,241.55L219.1,241.15L219.66,240.69L220.23,240.18L220.79,239.64L221.35,239.08L221.91,238.5L222.47,237.91L223.03,237.31L223.59,236.71L224.15,236.1L224.71,235.49L225.27,234.88L225.83,234.27L226.39,233.66L226.95,233.05L227.51,232.44L228.07,231.84L228.63,231.23L229.19,230.63L229.75,230.03L230.31,229.44L230.87,228.84L231.43,228.25L231.99,227.66L232.55,227.07L233.11,226.48L233.67,225.9L234.24,225.32L234.8,224.74L235.36,224.16L235.92,223.58L236.48,223.01L237.04,222.44L237.6,221.87L238.16,221.3L238.72,220.73L239.28,220.17L239.84,219.61L240.4,219.05L240.96,218.49L241.52,217.94L242.08,217.38L242.64,216.83L243.2,216.28L243.76,215.73L244.32,215.18L244.88,214.64L245.44,214.1L246,213.56L246.56,213.02L247.12,212.48L247.68,211.94L248.25,211.41L248.81,210.88L249.37,210.35L249.93,209.82L250.49,209.29L251.05,208.76L251.61,208.24L252.17,207.72L252.73,207.2L253.29,206.68L253.85,206.16L254.41,205.65L254.97,205.13L255.53,204.62L256.09,204.11L256.65,203.6L257.21,203.09L257.77,202.59L258.33,202.08L258.89,201.58L259.45,201.08L260.01,200.58L260.57,200.08L261.13,199.59L261.69,199.09L262.26,198.58L262.82,198.72L263.38,206.67L263.94,211.28L264.5,218.14L265.06,222.74L265.62,226.88L266.18,231.44L266.74,234.11L267.3,236.78L267.86,239.78L268.42,241.47L268.98,242.42L269.54,243.32L270.1,247.19L270.66,249.96L271.22,251.68L271.78,252.82L272.34,256.52L272.9,259.37L273.46,262.12L274.02,262.29L274.58,262.04L275.14,261.63L275.7,261.13L276.27,260.57L276.83,259.96L277.39,259.33L277.95,258.68L278.51,258.02L279.07,257.35L279.63,256.67L280.19,255.98L280.75,255.3L281.31,254.61L281.87,253.93L282.43,253.24L282.99,252.56L283.55,251.87L284.11,251.19L284.67,250.52L285.23,249.84L285.79,249.16L286.35,248.49L286.91,247.82L287.47,247.16L288.03,246.49L288.59,245.83L289.15,245.17L289.71,244.52L290.28,243.86L290.84,243.21L291.4,242.56L291.96,241.91L292.52,241.27L293.08,240.63L293.64,239.99L294.2,239.35L294.76,238.71L295.32,238.08L295.88,237.45L296.44,236.82L297,236.19L297.56,235.57L298.12,234.95L298.68,234.33L299.24,233.71L299.8,233.1L300.36,232.48L300.92,231.87L301.48,231.26L302.04,230.65L302.6,230.05L303.16,229.45L303.72,228.84L304.29,228.25L304.85,227.65L305.41,227.05L305.97,226.46L306.53,225.87L307.09,225.28L307.65,224.69L308.21,224.11L308.77,223.52L309.33,222.94L309.89,222.36L310.45,221.78L311.01,221.21L311.57,220.63L312.13,220.06L312.69,219.49L313.25,218.92L313.81,218.36L314.37,217.79L314.93,217.23L315.49,216.67L316.05,216.11L316.61,215.55L317.17,214.99L317.73,214.38L318.3,213.88L318.86,224.69L319.42,237.2L319.98,245.31L320.54,249.68L321.1,255.67L321.66,258.32L322.22,263.96L322.78,266.22L323.34,270.67L323.9,272.17L324.46,272.98L325.02,273.28L325.58,276.82L326.14,279.76L326.7,281.58L327.26,282.61L327.82,285.21L328.38,288.34L328.94,291.34L329.5,292.07L330.06,291.83L330.62,291.37L331.18,290.79L331.74,290.14L332.31,289.44L332.87,288.71L333.43,287.95L333.99,287.18L334.55,286.4L335.11,285.61L335.67,284.81L336.23,284.02L336.79,283.22L337.35,282.42L337.91,281.63L338.47,280.83L339.03,280.04L339.59,279.25L340.15,278.46L340.71,277.67L341.27,276.89L341.83,276.11L342.39,275.33L342.95,274.56L343.51,273.79L344.07,273.02L344.63,272.25L345.19,271.49L345.75,270.73L346.32,269.97L346.88,269.22L347.44,268.47L348,267.72L348.56,266.97L349.12,266.23L349.68,265.49L350.24,264.75L350.8,264.02L351.36,263.28L351.92,262.55L352.48,261.83L353.04,261.1L353.6,260.38L354.16,259.66L354.72,258.94L355.28,258.23L355.84,257.52L356.4,256.81L356.96,256.1L357.52,255.4L358.08,254.69L358.64,253.99L359.2,253.3L359.76,252.6L360.33,251.91L360.89,251.22L361.45,250.53L362.01,249.85L362.57,249.16L363.13,248.48L363.69,247.8L364.25,247.13L364.81,246.45L365.37,245.78L365.93,245.11L366.49,244.44L367.05,243.78L367.61,243.12L368.17,242.46L368.73,241.8L369.29,241.14L369.85,240.49L370.41,239.84L370.97,239.19L371.53,238.54L372.09,237.89L372.65,237.25L373.21,236.61L373.77,235.91L374.34,235.52L374.9,235.38L375.46,242.97L376.02,249.15L376.58,253.98L377.14,260.28L377.7,262.92L378.26,266.22L378.82,268.78L379.38,272.19L379.94,274.08L380.5,275.24L381.06,275.79L381.62,276.41L382.18,280.42L382.74,283.34L383.3,285.13L383.86,287.88L384.42,290.77L384.98,293.19L385.54,294.38L386.1,294.14L386.66,293.64L387.22,293.02L387.78,292.34L388.35,291.62L388.91,290.86L389.47,290.09L390.03,289.3L390.59,288.5L391.15,287.7L391.71,286.89L392.27,286.08L392.83,285.27L393.39,284.46L393.95,283.66L394.51,282.85L395.07,282.05L395.63,281.24L396.19,280.45L396.75,279.65L397.31,278.86L397.87,278.07L398.43,277.28L398.99,276.49L399.55,275.71L400.11,274.93L400.67,274.16L401.23,273.38L401.8,272.62L402.36,271.85L402.92,271.08L403.48,270.32L404.04,269.57L404.6,268.81L405.16,268.06L405.72,267.31L406.28,266.56L406.84,265.82L407.4,265.08L407.96,264.34L408.52,263.6L409.08,262.87L409.64,262.14L410.2,261.41L410.76,260.68L411.32,259.96L411.88,259.24L412.44,258.52L413,257.8L413.56,257.09L414.12,256.38L414.68,255.67L415.24,254.97L415.81,254.26L416.37,253.56L416.93,252.86L417.49,252.17L418.05,251.47L418.61,250.78L419.17,250.09L419.73,249.41L420.29,248.72L420.85,248.04L421.41,247.36L421.97,246.68L422.53,246.01L423.09,245.33L423.65,244.66L424.21,243.99L424.77,243.33L425.33,242.66L425.89,242L426.45,241.34L427.01,240.69L427.57,240.03L428.13,239.38L428.69,238.73L429.25,238.08L429.82,237.38L430.38,237.21L430.94,242.52L431.5,248.91L432.06,253.87L432.62,257.84L433.18,262.65L433.74,265.87L434.3,269.09L434.86,271.93L435.42,273.92L435.98,274.46L436.54,276.4L437.1,279.47L437.66,281.41L438.22,282.53L438.78,283.09L439.34,286.34L439.9,289.45L440.46,291.69L441.02,294.48L441.58,295.16L442.14,295.21L442.7,294.96L443.26,294.52L443.83,293.96L444.39,293.32L444.95,292.62L445.51,291.88L446.07,291.12L446.63,290.34L447.19,289.55L447.75,288.75L448.31,287.94L448.87,287.13L449.43,286.33L449.99,285.52L450.55,284.71L451.11,283.9L451.67,283.1L452.23,282.29L452.79,281.49L453.35,280.7L453.91,279.9L454.47,279.11L455.03,278.32L455.59,277.54L456.15,276.75L456.71,275.97L457.27,275.2L457.84,274.42L458.4,273.65L458.96,272.88L459.52,272.12L460.08,271.35L460.64,270.59L461.2,269.84L461.76,269.08L462.32,268.33L462.88,267.58L463.44,266.84L464,266.09L464.56,265.35L465.12,264.62L465.68,263.88L466.24,263.15L466.8,262.42L467.36,261.69L467.92,260.97L468.48,260.24L469.04,259.52L469.6,258.81L470.16,258.09L470.72,257.38L471.28,256.67L471.85,255.96L472.41,255.26L472.97,254.55L473.53,253.85L474.09,253.15L474.65,252.46L475.21,251.77L475.77,251.07L476.33,250.39L476.89,249.7L477.45,249.02L478.01,248.33L478.57,247.65L479.13,246.98L479.69,246.3L480.25,245.63L480.81,244.96L481.37,244.29L481.93,243.62L482.49,242.96L483.05,242.3L483.61,241.64L484.17,240.98L484.73,240.33L485.29,239.67L485.86,238.98L486.42,238.91L486.98,244.34L487.54,249.65L488.1,254.9L488.66,258.45L489.22,261.95L489.78,265.6L490.34,268.21L490.9,271.67L491.46,274.67L492.02,275.74L492.58,276.2L493.14,278.24L493.7,281.6L494.26,283.76L494.82,285.02L495.38,288.07L495.94,290.69L496.5,292.28L497.06,292.85L497.62,292.54L498.18,292.03L498.74,291.42L499.3,290.74L499.87,290.03L500.43,289.28L500.99,288.51L501.55,287.73L502.11,286.94L502.67,286.14L503.23,285.34L503.79,284.54L504.35,283.74L504.91,282.93L505.47,282.13L506.03,281.33L506.59,280.53L507.15,279.73L507.71,278.94L508.27,278.15L508.83,277.36L509.39,276.58L509.95,275.79L510.51,275.01L511.07,274.24L511.63,273.46L512.19,272.69L512.75,271.92L513.31,271.16L513.88,270.4L514.44,269.64L515,268.88L515.56,268.13L516.12,267.38L516.68,266.63L517.24,265.88L517.8,265.14L518.36,264.4L518.92,263.66L519.48,262.93L520.04,262.2L520.6,261.47L521.16,260.74L521.72,260.02L522.28,259.29L522.84,258.57L523.4,257.86L523.96,257.14L524.52,256.43L525.08,255.72L525.64,255.02L526.2,254.31L526.76,253.61L527.32,252.91L527.89,252.21L528.45,251.52L529.01,250.83L529.57,250.14L530.13,249.45L530.69,248.76L531.25,248.08L531.81,247.4L532.37,246.72L532.93,246.04L533.49,245.37L534.05,244.7L534.61,244.03L535.17,243.36L535.73,242.7L536.29,242.04L536.85,241.38L537.41,240.72L537.97,240.06L538.53,239.41L539.09,238.76L539.65,238.11L540.21,237.46L540.77,236.82L541.33,236.17L541.9,235.5L542.46,236.06L543.02,244.21L543.58,249.57L544.14,254.76L544.7,258.8L545.26,262.18L545.82,265.71L546.38,268.39L546.94,272.11L547.5,274.59L548.06,275.95L548.62,278.3L549.18,280.42L549.74,281.63L550.3,282.22L550.86,283.93L551.42,287.41L551.98,289.79L552.54,291.56L553.1,292.56L553.66,292.25L554.22,291.72L554.78,291.09L555.34,290.4L555.91,289.68L556.47,288.92L557.03,288.15L557.59,287.37L558.15,286.58L558.71,285.78L559.27,284.98L559.83,284.17L560.39,283.37L560.95,282.57L561.51,281.76L562.07,280.96L562.63,280.17L563.19,279.37L563.75,278.58L564.31,277.79L564.87,277L565.43,276.22L565.99,275.43L566.55,274.66L567.11,273.88L567.67,273.11L568.23,272.34L568.79,271.57L569.35,270.81L569.92,270.05L570.48,269.29L571.04,268.53L571.6,267.78L572.16,267.03L572.72,266.28L573.28,265.54L573.84,264.8L574.4,264.06L574.96,263.33L575.52,262.59L576.08,261.86L576.64,261.13L577.2,260.41L577.76,259.69L578.32,258.97L578.88,258.25L579.44,257.53L580,256.82L580.56,256.11L581.12,255.4L581.68,254.7L582.24,253.99L582.8,253.29L583.36,252.6L583.93,251.9L584.49,251.21L585.05,250.52L585.61,249.83L586.17,249.14L586.73,248.46L587.29,247.78L587.85,247.1L588.41,246.42L588.97,245.75L589.53,245.08L590.09,244.41L590.65,243.74L591.21,243.07L591.77,242.41L592.33,241.75L592.89,241.09L593.45,240.43L594.01,239.78L594.57,239.13L595.13,238.48L595.69,237.83L596.25,237.18L596.81,236.54L597.38,235.9" style="fill:none;stroke:#000080" />
<path d="M38.095,69.053L38.655,69.053L39.216,69.053L39.776,69.053L40.336,69.053L40.897,69.053L41.457,69.053L42.018,69.053L42.578,69.053L43.138,69.053L43.699,69.053L44.259,69.053L44.82,69.053L45.38,69.053L45.94,69.053L46.501,69.053L47.061,69.928L47.622,69.928L48.182,69.928L48.742,69.928L49.303,69.928L49.863,69.928L50.424,69.928L50.984,69.928L51.544,69.928L52.105,69.928L52.665,69.928L53.226,69.928L53.786,69.928L54.346,69.928L54.907,69.928L55.467,69.928L56.028,69.928L56.588,69.928L57.148,69.928L57.709,69.928L58.269,69.928L58.83,69.928L59.39,69.928L59.95,69.928L60.511,69.928L61.071,69.928L61.632,69.928L62.192,69.928L62.752,69.928L63.313,69.928L63.873,69.928L64.434,69.928L64.994,69.928L65.554,69.928L66.115,69.928L66.675,69.928L67.236,69.928L67.796,69.928L68.356,69.928L68.917,69.928L69.477,69.928L70.038,69.928L70.598,69.928L71.158,69.928L71.719,69.928L72.279,69.928L72.84,69.928L73.4,69.928L73.96,69.928L74.521,69.928L75.081,69.928L75.642,69.928L76.202,69.928L76.762,69.928L77.323,69.928L77.883,69.928L78.444,69.928L79.004,69.928L79.564,69.928L80.125,69.928L80.685,69.928L81.246,69.928L81.806,69.928L82.366,69.928L82.927,69.928L83.487,69.928L84.048,69.928L84.608,69.928L85.168,69.928L85.729,69.928L86.289,69.928L86.85,69.928L87.41,69.928L87.97,69.928L88.531,69.928L89.091,69.928L89.652,69.928L90.212,69.928L90.772,69.928L91.333,69.928L91.893,69.928L92.454,69.928L93.014,69.928L93.574,69.928L94.135,69.928L94.695,69.928L95.256,69.928L95.816,69.928L96.376,69.928L96.937,69.928L97.497,69.928L98.058,69.928L98.618,69.928L99.178,69.928L99.739,69.928L100.3,69.928L100.86,69.928L101.42,69.928L101.98,69.928L102.54,71.254L103.1,71.254L103.66,71.254L104.22,71.254L104.78,71.254L105.34,71.254L105.9,71.254L106.46,71.254L107.02,71.254L107.58,71.254L108.14,71.254L108.71,71.254L109.27,71.254L109.83,71.254L110.39,71.254L110.95,71.254L111.51,71.254L112.07,71.254L112.63,71.254L113.19,71.254L113.75,71.254L114.31,71.254L114.87,71.254L115.43,71.254L115.99,71.254L116.55,71.254L117.11,71.254L117.67,71.254L118.23,71.254L118.79,71.254L119.35,71.254L119.91,71.254L120.47,71.254L121.03,71.254L121.59,71.254L122.15,71.254L122.72,71.254L123.28,71.254L123.84,71.254L124.4,71.254L124.96,71.254L125.52,71.254L126.08,71.254L126.64,71.254L127.2,71.254L127.76,71.254L128.32,71.254L128.88,71.254L129.44,71.254L130,71.254L130.56,71.254L131.12,71.254L131.68,71.254L132.24,71.254L132.8,71.254L133.36,71.254L133.92,71.254L134.48,71.254L135.04,71.254L135.6,71.254L136.16,71.254L136.73,71.254L137.29,71.254L137.85,71.254L138.41,71.254L138.97,71.254L139.53,71.254L140.09,71.254L140.65,71.254L141.21,71.254L141.77,71.254L142.33,71.254L142.89,71.254L143.45,71.254L144.01,71.254L144.57,71.254L145.13,71.254L145.69,71.254L146.25,71.254L146.81,71.254L147.37,71.254L147.93,71.254L148.49,71.254L149.05,71.254L149.61,71.254L150.17,71.254L150.74,71.254L151.3,71.254L151.86,71.254L152.42,71.254L152.98,71.254L153.54,71.254L154.1,71.254L154.66,71.254L155.22,71.254L155.78,71.254L156.34,71.254L156.9,71.254L157.46,71.254L158.02,71.254L158.58,72.514L159.14,72.514L159.7,72.514L160.26,72.514L160.82,72.514L161.38,72.514L161.94,72.514L162.5,72.514L163.06,72.514L163.62,72.514L164.18,72.514L164.75,72.514L165.31,72.514L165.87,72.514L166.43,72.514L166.99,72.514L167.55,72.514L168.11,72.514L168.67,72.514L169.23,72.514L169.79,72.514L170.35,72.514L170.91,72.514L171.47,72.514L172.03,72.514L172.59,72.514L173.15,72.514L173.71,72.514L174.27,72.514L174.83,72.514L175.39,72.514L175.95,72.514L176.51,72.514L177.07,72.514L177.63,72.514L178.19,72.514L178.76,72.514L179.32,72.514L179.88,72.514L180.44,72.514L181,72.514L181.56,72.514L182.12,72.514L182.68,72.514L183.24,72.514L183.8,72.514L184.36,72.514L184.92,72.514L185.48,72.514L186.04,72.514L186.6,72.514L187.16,72.514L187.72,72.514L188.28,72.514L188.84,72.514L189.4,72.514L189.96,72.514L190.52,72.514L191.08,72.514L191.64,72.514L192.21,72.514L192.77,72.514L193.33,72.514L193.89,72.514L194.45,72.514L195.01,72.514L195.57,72.514L196.13,72.514L196.69,72.514L197.25,72.514L197.81,72.514L198.37,72.514L198.93,72.514L199.49,72.514L200.05,72.514L200.61,72.514L201.17,72.514L201.73,72.514L202.29,72.514L202.85,72.514L203.41,72.514L203.97,72.514L204.53,72.514L205.09,72.514L205.65,72.514L206.22,72.514L206.78,72.514L207.34,72.514L207.9,72.514L208.46,72.514L209.02,72.514L209.58,72.514L210.14,72.514L210.7,72.514L211.26,72.514L211.82,72.514L212.38,72.514L212.94,72.514L213.5,72.514L214.06,72.514L214.62,73.548L215.18,73.548L215.74,73.548L216.3,73.548L216.86,73.548L217.42,73.548L217.98,73.548L218.54,73.548L219.1,73.548L219.66,73.548L220.23,73.548L220.79,73.548L221.35,73.548L221.91,73.548L222.47,73.548L223.03,73.548L223.59,73.548L224.15,73.548L224.71,73.548L225.27,73.548L225.83,73.548L226.39,73.548L226.95,73.548L227.51,73.548L228.07,73.548L228.63,73.548L229.19,73.548L229.75,73.548L230.31,73.548L230.87,73.548L231.43,73.548L231.99,73.548L232.55,73.548L233.11,73.548L233.67,73.548L234.24,73.548L234.8,73.548L235.36,73.548L235.92,73.548L236.48,73.548L237.04,73.548L237.6,73.548L238.16,73.548L238.72,73.548L239.28,73.548L239.84,73.548L240.4,73.548L240.96,73.548L241.52,73.548L242.08,73.548L242.64,73.548L243.2,73.548L243.76,73.548L244.32,73.548L244.88,73.548L245.44,73.548L246,73.548L246.56,73.548L247.12,73.548L247.68,73.548L248.25,73.548L248.81,73.548L249.37,73.548L249.93,73.548L250.49,73.548L251.05,73.548L251.61,73.548L252.17,73.548L252.73,73.548L253.29,73.548L253.85,73.548L254.41,73.548L254.97,73.548L255.53,73.548L256.09,73.548L256.65,73.548L257.21,73.548L257.77,73.548L258.33,73.548L258.89,73.548L259.45,73.548L260.01,73.548L260.57,73.548L261.13,73.548L261.69,73.548L262.26,73.548L262.82,73.548L263.38,73.548L263.94,73.548L264.5,73.548L265.06,73.548L265.62,73.548L266.18,73.548L266.74,73.548L267.3,73.548L267.86,73.548L268.42,73.548L268.98,73.548L269.54,73.548L270.1,73.548L270.66,74.12L271.22,74.12L271.78,74.12L272.34,74.12L272.9,74.12L273.46,74.12L274.02,74.12L274.58,74.12L275.14,74.12L275.7,74.12L276.27,74.12L276.83,74.12L277.39,74.12L277.95,74.12L278.51,74.12L279.07,74.12L279.63,74.12L280.19,74.12L280.75,74.12L281.31,74.12L281.87,74.12L282.43,74.12L282.99,74.12L283.55,74.12L284.11,74.12L284.67,74.12L285.23,74.12L285.79,74.12L286.35,74.12L286.91,74.12L287.47,74.12L288.03,74.12L288.59,74.12L289.15,74.12L289.71,74.12L290.28,74.12L290.84,74.12L291.4,74.12L291.96,74.12L292.52,74.12L293.08,74.12L293.64,74.12L294.2,74.12L294.76,74.12L295.32,74.12L295.88,74.12L296.44,74.12L297,74.12L297.56,74.12L298.12,74.12L298.68,74.12L299.24,74.12L299.8,74.12L300.36,74.12L300.92,74.12L301.48,74.12L302.04,74.12L302.6,74.12L303.16,74.12L303.72,74.12L304.29,74.12L304.85,74.12L305.41,74.12L305.97,74.12L306.53,74.12L307.09,74.12L307.65,74.12L308.21,74.12L308.77,74.12L309.33,74.12L309.89,74.12L310.45,74.12L311.01,74.12L311.57,74.12L312.13,74.12L312.69,74.12L313.25,74.12L313.81,74.12L314.37,74.12L314.93,74.12L315.49,74.12L316.05,74.12L316.61,74.12L317.17,74.12L317.73,74.12L318.3,74.12L318.86,74.12L319.42,74.12L319.98,74.12L320.54,74.12L321.1,74.12L321.66,74.12L322.22,74.12L322.78,74.12L323.34,74.12L323.9,74.12L324.46,74.12L325.02,74.12L325.58,74.12L326.14,74.12L326.7,74.523L327.26,74.523L327.82,74.523L328.38,74.523L328.94,74.523L329.5,74.523L330.06,74.523L330.62,74.523L331.18,74.523L331.74,74.523L332.31,74.523L332.87,74.523L333.43,74.523L333.99,74.523L334.55,74.523L335.11,74.523L335.67,74.523L336.23,74.523L336.79,74.523L337.35,74.523L337.91,74.523L338.47,74.523L339.03,74.523L339.59,74.523L340.15,74.523L340.71,74.523L341.27,74.523L341.83,74.523L342.39,74.523L342.95,74.523L343.51,74.523L344.07,74.523L344.63,74.523L345.19,74.523L345.75,74.523L346.32,74.523L346.88,74.523L347.44,74.523L348,74.523L348.56,74.523L349.12,74.523L349.68,74.523L350.24,74.523L350.8,74.523L351.36,74.523L351.92,74.523L352.48,74.523L353.04,74.523L353.6,74.523L354.16,74.523L354.72,74.523L355.28,74.523L355.84,74.523L356.4,74.523L356.96,74.523L357.52,74.523L358.08,74.523L358.64,74.523L359.2,74.523L359.76,74.523L360.33,74.523L360.89,74.523L361.45,74.523L362.01,74.523L362.57,74.523L363.13,74.523L363.69,74.523L364.25,74.523L364.81,74.523L365.37,74.523L365.93,74.523L366.49,74.523L367.05,74.523L367.61,74.523L368.17,74.523L368.73,74.523L369.29,74.523L369.85,74.523L370.41,74.523L370.97,74.523L371.53,74.523L372.09,74.523L372.65,74.523L373.21,74.523L373.77,74.523L374.34,74.523L374.9,74.523L375.46,74.523L376.02,74.523L376.58,74.523L377.14,74.523L377.7,74.523L378.26,74.523L378.82,74.523L379.38,74.523L379.94,74.523L380.5,74.523L381.06,74.523L381.62,74.523L382.18,74.262L382.74,74.262L383.3,74.262L383.86,74.262L384.42,74.262L384.98,74.262L385.54,74.262L386.1,74.262L386.66,74.262L387.22,74.262L387.78,74.262L388.35,74.262L388.91,74.262L389.47,74.262L390.03,74.262L390.59,74.262L391.15,74.262L391.71,74.262L392.27,74.262L392.83,74.262L393.39,74.262L393.95,74.262L394.51,74.262L395.07,74.262L395.63,74.262L396.19,74.262L396.75,74.262L397.31,74.262L397.87,74.262L398.43,74.262L398.99,74.262L399.55,74.262L400.11,74.262L400.67,74.262L401.23,74.262L401.8,74.262L402.36,74.262L402.92,74.262L403.48,74.262L404.04,74.262L404.6,74.262L405.16,74.262L405.72,74.262L406.28,74.262L406.84,74.262L407.4,74.262L407.96,74.262L408.52,74.262L409.08,74.262L409.64,74.262L410.2,74.262L410.76,74.262L411.32,74.262L411.88,74.262L412.44,74.262L413,74.262L413.56,74.262L414.12,74.262L414.68,74.262L415.24,74.262L415.81,74.262L416.37,74.262L416.93,74.262L417.49,74.262L418.05,74.262L418.61,74.262L419.17,74.262L419.73,74.262L420.29,74.262L420.85,74.262L421.41,74.262L421.97,74.262L422.53,74.262L423.09,74.262L423.65,74.262L424.21,74.262L424.77,74.262L425.33,74.262L425.89,74.262L426.45,74.262L427.01,74.262L427.57,74.262L428.13,74.262L428.69,74.262L429.25,74.262L429.82,74.262L430.38,74.262L430.94,74.262L431.5,74.262L432.06,74.262L432.62,74.262L433.18,74.262L433.74,74.262L434.3,74.262L434.86,74.262L435.42,74.262L435.98,74.262L436.54,74.262L437.1,74.262L437.66,74.262L438.22,73.558L438.78,73.558L439.34,73.558L439.9,73.558L440.46,73.558L441.02,73.558L441.58,73.558L442.14,73.558L442.7,73.558L443.26,73.558L443.83,73.558L444.39,73.558L444.95,73.558L445.51,73.558L446.07,73.558L446.63,73.558L447.19,73.558L447.75,73.558L448.31,73.558L448.87,73.558L449.43,73.558L449.99,73.558L450.55,73.558L451.11,73.558L451.67,73.558L452.23,73.558L452.79,73.558L453.35,73.558L453.91,73.558L454.47,73.558L455.03,73.558L455.59,73.558L456.15,73.558L456.71,73.558L457.27,73.558L457.84,73.558L458.4,73.558L458.96,73.558L459.52,73.558L460.08,73.558L460.64,73.558L461.2,73.558L461.76,73.558L462.32,73.558L462.88,73.558L463.44,73.558L464,73.558L464.56,73.558L465.12,73.558L465.68,73.558L466.24,73.558L466.8,73.558L467.36,73.558L467.92,73.558L468.48,73.558L469.04,73.558L469.6,73.558L470.16,73.558L470.72,73.558L471.28,73.558L471.85,73.558L472.41,73.558L472.97,73.558L473.53,73.558L474.09,73.558L474.65,73.558L475.21,73.558L475.77,73.558L476.33,73.558L476.89,73.558L477.45,73.558L478.01,73.558L478.57,73.558L479.13,73.558L479.69,73.558L480.25,73.558L480.81,73.558L481.37,73.558L481.93,73.558L482.49,73.558L483.05,73.558L483.61,73.558L484.17,73.558L484.73,73.558L485.29,73.558L485.86,73.558L486.42,73.558L486.98,73.558L487.54,73.558L488.1,73.558L488.66,73.558L489.22,73.558L489.78,73.558L490.34,73.558L490.9,73.558L491.46,73.558L492.02,73.558L492.58,73.558L493.14,73.558L493.7,73.558L494.26,72.51L494.82,72.51L495.38,72.51L495.94,72.51L496.5,72.51L497.06,72.51L497.62,72.51L498.18,72.51L498.74,72.51L499.3,72.51L499.87,72.51L500.43,72.51L500.99,72.51L501.55,72.51L502.11,72.51L502.67,72.51L503.23,72.51L503.79,72.51L504.35,72.51L504.91,72.51L505.47,72.51L506.03,72.51L506.59,72.51L507.15,72.51L507.71,72.51L508.27,72.51L508.83,72.51L509.39,72.51L509.95,72.51L510.51,72.51L511.07,72.51L511.63,72.51L512.19,72.51L512.75,72.51L513.31,72.51L513.88,72.51L514.44,72.51L515,72.51L515.56,72.51L516.12,72.51L516.68,72.51L517.24,72.51L517.8,72.51L518.36,72.51L518.92,72.51L519.48,72.51L520.04,72.51L520.6,72.51L521.16,72.51L521.72,72.51L522.28,72.51L522.84,72.51L523.4,72.51L523.96,72.51L524.52,72.51L525.08,72.51L525.64,72.51L526.2,72.51L526.76,72.51L527.32,72.51L527.89,72.51L528.45,72.51L529.01,72.51L529.57,72.51L530.13,72.51L530.69,72.51L531.25,72.51L531.81,72.51L532.37,72.51L532.93,72.51L533.49,72.51L534.05,72.51L534.61,72.51L535.17,72.51L535.73,72.51L536.29,72.51L536.85,72.51L537.41,72.51L537.97,72.51L538.53,72.51L539.09,72.51L539.65,72.51L540.21,72.51L540.77,72.51L541.33,72.51L541.9,72.51L542.46,72.51L543.02,72.51L543.58,72.51L544.14,72.51L544.7,72.51L545.26,72.51L545.82,72.51L546.38,72.51L546.94,72.51L547.5,72.51L548.06,72.51L548.62,72.51L549.18,72.51L549.74,72.51L550.3,71.224L550.86,71.224L551.42,71.224L551.98,71.224L552.54,71.224L553.1,71.224L553.66,71.224L554.22,71.224L554.78,71.224L555.34,71.224L555.91,71.224L556.47,71.224L557.03,71.224L557.59,71.224L558.15,71.224L558.71,71.224L559.27,71.224L559.83,71.224L560.39,71.224L560.95,71.224L561.51,71.224L562.07,71.224L562.63,71.224L563.19,71.224L563.75,71.224L564.31,71.224L564.87,71.224L565.43,71.224L565.99,71.224L566.55,71.224L567.11,71.224L567.67,71.224L568.23,71.224L568.79,71.224L569.35,71.224L569.92,71.224L570.48,71.224L571.04,71.224L571.6,71.224L572.16,71.224L572.72,71.224L573.28,71.224L573.84,71.224L574.4,71.224L574.96,71.224L575.52,71.224L576.08,71.224L576.64,71.224L577.2,71.224L577.76,71.224L578.32,71.224L578.88,71.224L579.44,71.224L580,71.224L580.56,71.224L581.12,71.224L581.68,71.224L582.24,71.224L582.8,71.224L583.36,71.224L583.93,71.224L584.49,71.224L585.05,71.224L585.61,71.224L586.17,71.224L586.73,71.224L587.29,71.224L587.85,71.224L588.41,71.224L588.97,71.224L589.53,71.224L590.09,71.224L590.65,71.224L591.21,71.224L591.77,71.224L592.33,71.224L592.89,71.224L593.45,71.224L594.01,71.224L594.57,71.224L595.13,71.224L595.69,71.224L596.25,71.224L596.81,71.224L597.38,71.224" style="fill:none;stroke:#00FFFF" />
<path d="M38.095,40.372L38.655,40.371L39.216,40.518L39.776,51.77L40.336,65.913L40.897,53.095L41.457,59.844L42.018,44.604L42.578,50.418L43.138,42.555L43.699,43.36L44.259,40.712L44.82,40.498L45.38,47.707L45.94,44.792L46.501,42.273L47.061,41.777L47.622,45.033L48.182,42.737L48.742,41.572L49.303,41.514L49.863,40.494L50.424,40.441L50.984,40.432L51.544,40.429L52.105,40.427L52.665,40.426L53.226,40.425L53.786,40.424L54.346,40.423L54.907,40.423L55.467,40.422L56.028,40.421L56.588,40.421L57.148,40.42L57.709,40.42L58.269,40.419L58.83,40.419L59.39,40.418L59.95,40.418L60.511,40.417L61.071,40.417L61.632,40.416L62.192,40.416L62.752,40.415L63.313,40.415L63.873,40.414L64.434,40.414L64.994,40.413L65.554,40.413L66.115,40.413L66.675,40.412L67.236,40.412L67.796,40.411L68.356,40.411L68.917,40.41L69.477,40.41L70.038,40.41L70.598,40.409L71.158,40.409L71.719,40.408L72.279,40.408L72.84,40.408L73.4,40.407L73.96,40.407L74.521,40.406L75.081,40.406L75.642,40.406L76.202,40.405L76.762,40.405L77.323,40.405L77.883,40.404L78.444,40.404L79.004,40.404L79.564,40.403L80.125,40.403L80.685,40.403L81.246,40.402L81.806,40.402L82.366,40.402L82.927,40.401L83.487,40.401L84.048,40.401L84.608,40.4L85.168,40.4L85.729,40.4L86.289,40.4L86.85,40.399L87.41,40.399L87.97,40.399L88.531,40.398L89.091,40.398L89.652,40.398L90.212,40.398L90.772,40.397L91.333,40.397L91.893,40.397L92.454,40.397L93.014,40.396L93.574,40.396L94.135,40.396L94.695,40.533L95.256,48.981L95.816,52.767L96.376,61.082L96.937,47.22L97.497,52.384L98.058,44.747L98.618,48.394L99.178,43.347L99.739,42.164L100.3,40.754L100.86,41.599L101.42,45.261L101.98,42.85L102.54,41.46L103.1,40.877L103.66,44.168L104.22,45.08L104.78,44.51L105.34,41.253L105.9,40.539L106.46,40.477L107.02,40.462L107.58,40.457L108.14,40.453L108.71,40.451L109.27,40.449L109.83,40.448L110.39,40.447L110.95,40.446L111.51,40.444L112.07,40.443L112.63,40.442L113.19,40.441L113.75,40.441L114.31,40.44L114.87,40.439L115.43,40.438L115.99,40.437L116.55,40.436L117.11,40.435L117.67,40.435L118.23,40.434L118.79,40.433L119.35,40.432L119.91,40.432L120.47,40.431L121.03,40.43L121.59,40.429L122.15,40.429L122.72,40.428L123.28,40.427L123.84,40.427L124.4,40.426L124.96,40.425L125.52,40.425L126.08,40.424L126.64,40.424L127.2,40.423L127.76,40.422L128.32,40.422L128.88,40.421L129.44,40.421L130,40.42L130.56,40.419L131.12,40.419L131.68,40.418L132.24,40.418L132.8,40.417L133.36,40.417L133.92,40.416L134.48,40.416L135.04,40.415L135.6,40.415L136.16,40.414L136.73,40.414L137.29,40.413L137.85,40.413L138.41,40.412L138.97,40.412L139.53,40.411L140.09,40.411L140.65,40.41L141.21,40.41L141.77,40.41L142.33,40.409L142.89,40.409L143.45,40.408L144.01,40.408L144.57,40.408L145.13,40.407L145.69,40.407L146.25,40.406L146.81,40.406L147.37,40.406L147.93,40.405L148.49,40.405L149.05,40.404L149.61,40.404L150.17,40.404L150.74,40.965L151.3,46.71L151.86,51.841L152.42,85.418L152.98,49.927L153.54,51.525L154.1,44.562L154.66,44.622L155.22,44.283L155.78,42.515L156.34,40.867L156.9,42.584L157.46,44.364L158.02,42.327L158.58,41.247L159.14,44.53L159.7,43.783L160.26,41.957L160.82,41.073L161.38,40.588L161.94,40.492L162.5,40.477L163.06,40.471L163.62,40.467L164.18,40.465L164.75,40.463L165.31,40.461L165.87,40.459L166.43,40.458L166.99,40.456L167.55,40.455L168.11,40.454L168.67,40.453L169.23,40.451L169.79,40.45L170.35,40.449L170.91,40.448L171.47,40.447L172.03,40.446L172.59,40.445L173.15,40.444L173.71,40.443L174.27,40.442L174.83,40.441L175.39,40.44L175.95,40.439L176.51,40.438L177.07,40.437L177.63,40.436L178.19,40.435L178.76,40.435L179.32,40.434L179.88,40.433L180.44,40.432L181,40.431L181.56,40.431L182.12,40.43L182.68,40.429L183.24,40.428L183.8,40.428L184.36,40.427L184.92,40.426L185.48,40.425L186.04,40.425L186.6,40.424L187.16,40.423L187.72,40.423L188.28,40.422L188.84,40.422L189.4,40.421L189.96,40.42L190.52,40.42L191.08,40.419L191.64,40.419L192.21,40.418L192.77,40.417L193.33,40.417L193.89,40.416L194.45,40.416L195.01,40.415L195.57,40.415L196.13,40.414L196.69,40.414L197.25,40.413L197.81,40.413L198.37,40.412L198.93,40.412L199.49,40.411L200.05,40.411L200.61,40.41L201.17,40.41L201.73,40.409L202.29,40.409L202.85,40.409L203.41,40.408L203.97,40.408L204.53,40.407L205.09,40.407L205.65,40.406L206.22,40.406L206.78,44.58L207.34,128.54L207.9,71.831L208.46,53.683L209.02,52.23L209.58,45.393L210.14,45.139L210.7,44.637L211.26,49.026L211.82,41.608L212.38,40.824L212.94,44.487L213.5,42.712L214.06,41.443L214.62,40.897L215.18,41.874L215.74,45.763L216.3,43.651L216.86,44.069L217.42,40.727L217.98,40.545L218.54,40.517L219.1,40.508L219.66,40.502L220.23,40.498L220.79,40.495L221.35,40.492L221.91,40.489L222.47,40.487L223.03,40.485L223.59,40.482L224.15,40.48L224.71,40.478L225.27,40.477L225.83,40.475L226.39,40.473L226.95,40.471L227.51,40.47L228.07,40.468L228.63,40.467L229.19,40.465L229.75,40.464L230.31,40.462L230.87,40.461L231.43,40.459L231.99,40.458L232.55,40.457L233.11,40.456L233.67,40.454L234.24,40.453L234.8,40.452L235.36,40.451L235.92,40.45L236.48,40.449L237.04,40.447L237.6,40.446L238.16,40.445L238.72,40.444L239.28,40.443L239.84,40.442L240.4,40.441L240.96,40.44L241.52,40.439L242.08,40.438L242.64,40.438L243.2,40.437L243.76,40.436L244.32,40.435L244.88,40.434L245.44,40.433L246,40.432L246.56,40.432L247.12,40.431L247.68,40.43L248.25,40.429L248.81,40.429L249.37,40.428L249.93,40.427L250.49,40.426L251.05,40.426L251.61,40.425L252.17,40.424L252.73,40.424L253.29,40.423L253.85,40.422L254.41,40.422L254.97,40.421L255.53,40.42L256.09,40.42L256.65,40.419L257.21,40.419L257.77,40.418L258.33,40.417L258.89,40.417L259.45,40.416L260.01,40.416L260.57,40.415L261.13,40.415L261.69,40.414L262.26,40.414L262.82,40.514L263.38,74.639L263.94,48.822L264.5,53.085L265.06,56.788L265.62,44.926L266.18,54.391L266.74,43.016L267.3,48.234L267.86,43.174L268.42,41.465L268.98,40.856L269.54,41.686L270.1,44.963L270.66,42.762L271.22,41.449L271.78,41.296L272.34,44.818L272.9,43.162L273.46,42.326L274.02,40.633L274.58,40.531L275.14,40.51L275.7,40.502L276.27,40.497L276.83,40.493L277.39,40.489L277.95,40.486L278.51,40.484L279.07,40.481L279.63,40.479L280.19,40.476L280.75,40.474L281.31,40.472L281.87,40.47L282.43,40.469L282.99,40.467L283.55,40.465L284.11,40.464L284.67,40.462L285.23,40.46L285.79,40.459L286.35,40.457L286.91,40.456L287.47,40.455L288.03,40.453L288.59,40.452L289.15,40.451L289.71,40.45L290.28,40.448L290.84,40.447L291.4,40.446L291.96,40.445L292.52,40.444L293.08,40.443L293.64,40.442L294.2,40.441L294.76,40.44L295.32,40.439L295.88,40.438L296.44,40.437L297,40.436L297.56,40.435L298.12,40.434L298.68,40.433L299.24,40.432L299.8,40.431L300.36,40.43L300.92,40.43L301.48,40.429L302.04,40.428L302.6,40.427L303.16,40.426L303.72,40.426L304.29,40.425L304.85,40.424L305.41,40.424L305.97,40.423L306.53,40.422L307.09,40.421L307.65,40.421L308.21,40.42L308.77,40.419L309.33,40.419L309.89,40.418L310.45,40.418L311.01,40.417L311.57,40.416L312.13,40.416L312.69,40.415L313.25,40.415L313.81,40.414L314.37,40.414L314.93,40.413L315.49,40.413L316.05,40.412L316.61,40.412L317.17,40.411L317.73,40.41L318.3,40.411L318.86,106.95L319.42,77.029L319.98,86.117L320.54,48.384L321.1,55.736L321.66,44.843L322.22,58.103L322.78,44.181L323.34,47.544L323.9,41.745L324.46,40.927L325.02,40.688L325.58,45.364L326.14,43.29L326.7,41.722L327.26,41.035L327.82,45.008L328.38,43.751L328.94,45.378L329.5,40.908L330.06,40.592L330.62,40.553L331.18,40.54L331.74,40.532L332.31,40.526L332.87,40.521L333.43,40.517L333.99,40.513L334.55,40.509L335.11,40.506L335.67,40.503L336.23,40.5L336.79,40.498L337.35,40.495L337.91,40.492L338.47,40.49L339.03,40.488L339.59,40.486L340.15,40.483L340.71,40.481L341.27,40.479L341.83,40.478L342.39,40.476L342.95,40.474L343.51,40.472L344.07,40.47L344.63,40.469L345.19,40.467L345.75,40.466L346.32,40.464L346.88,40.463L347.44,40.461L348,40.46L348.56,40.458L349.12,40.457L349.68,40.456L350.24,40.454L350.8,40.453L351.36,40.452L351.92,40.451L352.48,40.449L353.04,40.448L353.6,40.447L354.16,40.446L354.72,40.445L355.28,40.444L355.84,40.443L356.4,40.442L356.96,40.441L357.52,40.44L358.08,40.439L358.64,40.438L359.2,40.437L359.76,40.436L360.33,40.435L360.89,40.434L361.45,40.433L362.01,40.432L362.57,40.432L363.13,40.431L363.69,40.43L364.25,40.429L364.81,40.428L365.37,40.428L365.93,40.427L366.49,40.426L367.05,40.425L367.61,40.425L368.17,40.424L368.73,40.423L369.29,40.422L369.85,40.422L370.41,40.421L370.97,40.42L371.53,40.42L372.09,40.419L372.65,40.419L373.21,40.418L373.77,40.417L374.34,40.522L374.9,40.433L375.46,56.459L376.02,71.058L376.58,48.49L377.14,68.131L377.7,44.409L378.26,49.754L378.82,43.636L379.38,45.169L379.94,41.999L380.5,41.089L381.06,40.735L381.62,41.608L382.18,45.726L382.74,43.269L383.3,41.671L383.86,44.976L384.42,43.302L384.98,42.952L385.54,41.026L386.1,40.571L386.66,40.528L387.22,40.516L387.78,40.508L388.35,40.503L388.91,40.499L389.47,40.495L390.03,40.491L390.59,40.488L391.15,40.485L391.71,40.482L392.27,40.48L392.83,40.477L393.39,40.475L393.95,40.473L394.51,40.471L395.07,40.469L395.63,40.467L396.19,40.465L396.75,40.463L397.31,40.461L397.87,40.46L398.43,40.458L398.99,40.457L399.55,40.455L400.11,40.454L400.67,40.452L401.23,40.451L401.8,40.449L402.36,40.448L402.92,40.447L403.48,40.446L404.04,40.444L404.6,40.443L405.16,40.442L405.72,40.441L406.28,40.44L406.84,40.439L407.4,40.438L407.96,40.437L408.52,40.436L409.08,40.435L409.64,40.434L410.2,40.433L410.76,40.432L411.32,40.431L411.88,40.43L412.44,40.429L413,40.428L413.56,40.427L414.12,40.427L414.68,40.426L415.24,40.425L415.81,40.424L416.37,40.423L416.93,40.423L417.49,40.422L418.05,40.421L418.61,40.421L419.17,40.42L419.73,40.419L420.29,40.419L420.85,40.418L421.41,40.417L421.97,40.417L422.53,40.416L423.09,40.415L423.65,40.415L424.21,40.414L424.77,40.414L425.33,40.413L425.89,40.413L426.45,40.412L427.01,40.411L427.57,40.411L428.13,40.41L428.69,40.41L429.25,40.409L429.82,40.409L430.38,40.722L430.94,64.938L431.5,49.903L432.06,54.776L432.62,48.533L433.18,52.13L433.74,46.052L434.3,45.191L434.86,44.561L435.42,41.722L435.98,40.781L436.54,44.186L437.1,43.412L437.66,41.803L438.22,41.04L438.78,40.728L439.34,45.402L439.9,43.67L440.46,42.811L441.02,42.762L441.58,40.844L442.14,40.598L442.7,40.535L443.26,40.511L443.83,40.5L444.39,40.492L444.95,40.487L445.51,40.483L446.07,40.479L446.63,40.476L447.19,40.473L447.75,40.47L448.31,40.468L448.87,40.466L449.43,40.463L449.99,40.461L450.55,40.459L451.11,40.457L451.67,40.456L452.23,40.454L452.79,40.452L453.35,40.451L453.91,40.449L454.47,40.448L455.03,40.446L455.59,40.445L456.15,40.444L456.71,40.442L457.27,40.441L457.84,40.44L458.4,40.439L458.96,40.438L459.52,40.436L460.08,40.435L460.64,40.434L461.2,40.433L461.76,40.432L462.32,40.431L462.88,40.43L463.44,40.429L464,40.428L464.56,40.428L465.12,40.427L465.68,40.426L466.24,40.425L466.8,40.424L467.36,40.423L467.92,40.423L468.48,40.422L469.04,40.421L469.6,40.42L470.16,40.42L470.72,40.419L471.28,40.418L471.85,40.418L472.41,40.417L472.97,40.416L473.53,40.416L474.09,40.415L474.65,40.414L475.21,40.414L475.77,40.413L476.33,40.413L476.89,40.412L477.45,40.411L478.01,40.411L478.57,40.41L479.13,40.41L479.69,40.409L480.25,40.409L480.81,40.408L481.37,40.408L481.93,40.407L482.49,40.407L483.05,40.406L483.61,40.406L484.17,40.405L484.73,40.405L485.29,40.404L485.86,40.404L486.42,40.535L486.98,63.794L487.54,48.022L488.1,57.145L488.66,46.653L489.22,45.195L489.78,47.596L490.34,42.485L490.9,49.249L491.46,42.994L492.02,41.114L492.58,40.695L493.14,44.608L493.7,43.973L494.26,42.07L494.82,41.142L495.38,44.524L495.94,42.735L496.5,41.444L497.06,40.626L497.62,40.519L498.18,40.497L498.74,40.488L499.3,40.481L499.87,40.477L500.43,40.473L500.99,40.469L501.55,40.466L502.11,40.464L502.67,40.461L503.23,40.459L503.79,40.457L504.35,40.455L504.91,40.453L505.47,40.451L506.03,40.449L506.59,40.447L507.15,40.446L507.71,40.444L508.27,40.443L508.83,40.441L509.39,40.44L509.95,40.439L510.51,40.438L511.07,40.436L511.63,40.435L512.19,40.434L512.75,40.433L513.31,40.432L513.88,40.431L514.44,40.43L515,40.429L515.56,40.428L516.12,40.427L516.68,40.426L517.24,40.425L517.8,40.424L518.36,40.423L518.92,40.422L519.48,40.422L520.04,40.421L520.6,40.42L521.16,40.419L521.72,40.419L522.28,40.418L522.84,40.417L523.4,40.416L523.96,40.416L524.52,40.415L525.08,40.414L525.64,40.414L526.2,40.413L526.76,40.413L527.32,40.412L527.89,40.411L528.45,40.411L529.01,40.41L529.57,40.41L530.13,40.409L530.69,40.409L531.25,40.408L531.81,40.408L532.37,40.407L532.93,40.407L533.49,40.406L534.05,40.406L534.61,40.405L535.17,40.405L535.73,40.404L536.29,40.404L536.85,40.403L537.41,40.403L537.97,40.403L538.53,40.402L539.09,40.402L539.65,40.401L540.21,40.401L540.77,40.401L541.33,40.4L541.9,40.4L542.46,41.77L543.02,64.258L543.58,59.18L544.14,46.864L544.7,57.43L545.26,44.744L545.82,50.801L546.38,43.763L546.94,57.537L547.5,43.505L548.06,41.343L548.62,43.384L549.18,41.973L549.74,41.091L550.3,40.731L550.86,44.042L551.42,44.263L551.98,42.433L552.54,42.167L553.1,40.778L553.66,40.53L554.22,40.5L554.78,40.49L555.34,40.483L555.91,40.478L556.47,40.474L557.03,40.47L557.59,40.467L558.15,40.464L558.71,40.461L559.27,40.459L559.83,40.457L560.39,40.454L560.95,40.452L561.51,40.45L562.07,40.449L562.63,40.447L563.19,40.445L563.75,40.444L564.31,40.442L564.87,40.441L565.43,40.439L565.99,40.438L566.55,40.437L567.11,40.435L567.67,40.434L568.23,40.433L568.79,40.432L569.35,40.431L569.92,40.43L570.48,40.429L571.04,40.428L571.6,40.427L572.16,40.426L572.72,40.425L573.28,40.424L573.84,40.423L574.4,40.422L574.96,40.421L575.52,40.421L576.08,40.42L576.64,40.419L577.2,40.418L577.76,40.418L578.32,40.417L578.88,40.416L579.44,40.415L580,40.415L580.56,40.414L581.12,40.413L581.68,40.413L582.24,40.412L582.8,40.412L583.36,40.411L583.93,40.41L584.49,40.41L585.05,40.409L585.61,40.409L586.17,40.408L586.73,40.408L587.29,40.407L587.85,40.407L588.41,40.406L588.97,40.406L589.53,40.405L590.09,40.405L590.65,40.404L591.21,40.404L591.77,40.403L592.33,40.403L592.89,40.403L593.45,40.402L594.01,40.402L594.57,40.401L595.13,40.401L595.69,40.4L596.25,40.4L596.81,40.4L597.38,40.399" style="fill:none;stroke:#FFA500" />
<path d="M38.095,83.923L38.655,84.046L39.216,84.997L39.776,86.947L40.336,103.08L40.897,125.56L41.457,137.83L42.018,141.41L42.578,149.05L43.138,149.9L43.699,150.18L44.259,149.57L44.82,148.69L45.38,151.73L45.94,156.38L46.501,157.66L47.061,157.42L47.622,160.36L48.182,162L48.742,161.93L49.303,162.57L49.863,161.7L50.424,160.78L50.984,160.03L51.544,159.42L52.105,158.9L52.665,158.45L53.226,158.06L53.786,157.7L54.346,157.37L54.907,157.06L55.467,156.76L56.028,156.47L56.588,156.2L57.148,155.93L57.709,155.66L58.269,155.4L58.83,155.14L59.39,154.89L59.95,154.63L60.511,154.38L61.071,154.13L61.632,153.89L62.192,153.64L62.752,153.39L63.313,153.15L63.873,152.91L64.434,152.67L64.994,152.43L65.554,152.19L66.115,151.95L66.675,151.71L67.236,151.48L67.796,151.24L68.356,151.01L68.917,150.78L69.477,150.54L70.038,150.31L70.598,150.08L71.158,149.85L71.719,149.62L72.279,149.4L72.84,149.17L73.4,148.95L73.96,148.72L74.521,148.5L75.081,148.27L75.642,148.05L76.202,147.83L76.762,147.61L77.323,147.39L77.883,147.18L78.444,146.96L79.004,146.74L79.564,146.53L80.125,146.32L80.685,146.1L81.246,145.89L81.806,145.68L82.366,145.47L82.927,145.27L83.487,145.06L84.048,144.86L84.608,144.65L85.168,144.45L85.729,144.25L86.289,144.05L86.85,143.85L87.41,143.65L87.97,143.45L88.531,143.26L89.091,143.07L89.652,142.87L90.212,142.68L90.772,142.49L91.333,142.3L91.893,142.11L92.454,141.93L93.014,141.74L93.574,141.56L94.135,141.36L94.695,141.18L95.256,142.61L95.816,165.04L96.376,170.82L96.937,181.89L97.497,183.97L98.058,185.63L98.618,188.01L99.178,187.88L99.739,187.39L100.3,185.01L100.86,182.8L101.42,184.72L101.98,185.71L102.54,184.94L103.1,183.6L103.66,182.77L104.22,185.84L104.78,187.29L105.34,188.55L105.9,186.91L106.46,185.4L107.02,184.14L107.58,183.09L108.14,182.19L108.71,181.42L109.27,180.75L109.83,180.14L110.39,179.59L110.95,179.09L111.51,178.62L112.07,178.18L112.63,177.76L113.19,177.36L113.75,176.97L114.31,176.59L114.87,176.23L115.43,175.87L115.99,175.52L116.55,175.18L117.11,174.84L117.67,174.51L118.23,174.18L118.79,173.85L119.35,173.53L119.91,173.21L120.47,172.9L121.03,172.59L121.59,172.28L122.15,171.97L122.72,171.66L123.28,171.36L123.84,171.06L124.4,170.76L124.96,170.46L125.52,170.17L126.08,169.88L126.64,169.59L127.2,169.3L127.76,169.01L128.32,168.72L128.88,168.44L129.44,168.16L130,167.88L130.56,167.6L131.12,167.32L131.68,167.05L132.24,166.78L132.8,166.51L133.36,166.24L133.92,165.97L134.48,165.7L135.04,165.44L135.6,165.18L136.16,164.92L136.73,164.66L137.29,164.4L137.85,164.15L138.41,163.9L138.97,163.64L139.53,163.39L140.09,163.15L140.65,162.9L141.21,162.66L141.77,162.42L142.33,162.17L142.89,161.94L143.45,161.7L144.01,161.46L144.57,161.23L145.13,161L145.69,160.77L146.25,160.54L146.81,160.32L147.37,160.09L147.93,159.87L148.49,159.65L149.05,159.43L149.61,159.21L150.17,158.97L150.74,158.85L151.3,159.45L151.86,181.07L152.42,194.63L152.98,215.34L153.54,217.33L154.1,217.45L154.66,217.33L155.22,216.91L155.78,217.34L156.34,214.9L156.9,212.65L157.46,213.87L158.02,213.93L158.58,212.76L159.14,212.08L159.7,213.78L160.26,213.71L160.82,212.61L161.38,211.07L161.94,209.68L162.5,208.47L163.06,207.42L163.62,206.5L164.18,205.67L164.75,204.93L165.31,204.25L165.87,203.61L166.43,203.02L166.99,202.46L167.55,201.92L168.11,201.4L168.67,200.9L169.23,200.41L169.79,199.94L170.35,199.48L170.91,199.02L171.47,198.58L172.03,198.14L172.59,197.71L173.15,197.29L173.71,196.87L174.27,196.45L174.83,196.04L175.39,195.64L175.95,195.24L176.51,194.84L177.07,194.45L177.63,194.06L178.19,193.67L178.76,193.29L179.32,192.91L179.88,192.54L180.44,192.17L181,191.8L181.56,191.43L182.12,191.07L182.68,190.71L183.24,190.35L183.8,190L184.36,189.65L184.92,189.3L185.48,188.95L186.04,188.61L186.6,188.27L187.16,187.94L187.72,187.6L188.28,187.27L188.84,186.94L189.4,186.62L189.96,186.29L190.52,185.97L191.08,185.65L191.64,185.34L192.21,185.03L192.77,184.72L193.33,184.41L193.89,184.1L194.45,183.8L195.01,183.5L195.57,183.2L196.13,182.91L196.69,182.62L197.25,182.33L197.81,182.04L198.37,181.76L198.93,181.47L199.49,181.19L200.05,180.92L200.61,180.64L201.17,180.37L201.73,180.1L202.29,179.83L202.85,179.56L203.41,179.3L203.97,179.04L204.53,178.78L205.09,178.53L205.65,178.27L206.22,178L206.78,178.2L207.34,212.64L207.9,263.06L208.46,278.45L209.02,275.89L209.58,277.79L210.14,274.25L210.7,271.24L211.26,270.95L211.82,269.47L212.38,266.33L212.94,265.23L213.5,264.83L214.06,263.32L214.62,261.44L215.18,259.67L215.74,261.44L216.3,262.48L216.86,263.59L217.42,262.1L217.98,260.21L218.54,258.53L219.1,257.05L219.66,255.73L220.23,254.54L220.79,253.45L221.35,252.44L221.91,251.49L222.47,250.6L223.03,249.74L223.59,248.92L224.15,248.13L224.71,247.36L225.27,246.61L225.83,245.88L226.39,245.16L226.95,244.46L227.51,243.77L228.07,243.09L228.63,242.43L229.19,241.77L229.75,241.12L230.31,240.48L230.87,239.84L231.43,239.21L231.99,238.59L232.55,237.98L233.11,237.37L233.67,236.77L234.24,236.18L234.8,235.59L235.36,235L235.92,234.43L236.48,233.85L237.04,233.28L237.6,232.72L238.16,232.16L238.72,231.61L239.28,231.06L239.84,230.52L240.4,229.98L240.96,229.45L241.52,228.92L242.08,228.4L242.64,227.88L243.2,227.37L243.76,226.86L244.32,226.35L244.88,225.85L245.44,225.35L246,224.86L246.56,224.37L247.12,223.89L247.68,223.41L248.25,222.93L248.81,222.46L249.37,222L249.93,221.53L250.49,221.08L251.05,220.62L251.61,220.17L252.17,219.72L252.73,219.28L253.29,218.84L253.85,218.41L254.41,217.98L254.97,217.55L255.53,217.13L256.09,216.71L256.65,216.3L257.21,215.89L257.77,215.48L258.33,215.08L258.89,214.68L259.45,214.28L260.01,213.89L260.57,213.5L261.13,213.11L261.69,212.73L262.26,212.32L262.82,212.13L263.38,226.26L263.94,236.69L264.5,251.9L265.06,254.46L265.62,259.31L266.18,259.91L266.74,260.41L267.3,257.77L267.86,258.78L268.42,256.48L268.98,253.85L269.54,251.48L270.1,252.6L270.66,252.96L271.22,251.83L271.78,250.22L272.34,251.42L272.9,252.13L273.46,253.25L274.02,251.6L274.58,249.82L275.14,248.26L275.7,246.89L276.27,245.68L276.83,244.58L277.39,243.57L277.95,242.64L278.51,241.77L279.07,240.95L279.63,240.16L280.19,239.41L280.75,238.69L281.31,237.99L281.87,237.31L282.43,236.65L282.99,236L283.55,235.37L284.11,234.75L284.67,234.14L285.23,233.54L285.79,232.96L286.35,232.38L286.91,231.81L287.47,231.25L288.03,230.69L288.59,230.15L289.15,229.61L289.71,229.07L290.28,228.55L290.84,228.03L291.4,227.52L291.96,227.01L292.52,226.51L293.08,226.02L293.64,225.53L294.2,225.05L294.76,224.57L295.32,224.1L295.88,223.63L296.44,223.17L297,222.72L297.56,222.27L298.12,221.82L298.68,221.38L299.24,220.95L299.8,220.52L300.36,220.09L300.92,219.67L301.48,219.26L302.04,218.85L302.6,218.44L303.16,218.04L303.72,217.64L304.29,217.25L304.85,216.87L305.41,216.48L305.97,216.1L306.53,215.73L307.09,215.36L307.65,215L308.21,214.63L308.77,214.28L309.33,213.93L309.89,213.58L310.45,213.23L311.01,212.89L311.57,212.56L312.13,212.22L312.69,211.9L313.25,211.57L313.81,211.25L314.37,210.93L314.93,210.62L315.49,210.31L316.05,210.01L316.61,209.71L317.17,209.41L317.73,209.08L318.3,208.79L318.86,238.51L319.42,299.95L319.98,311.19L320.54,312.76L321.1,313.22L321.66,307.81L322.22,311.22L322.78,308.91L323.34,309.33L323.9,305.72L324.46,301.55L325.02,297.9L325.58,297.09L326.14,296.92L326.7,295.39L327.26,293.36L327.82,292.62L328.38,293.42L328.94,293.33L329.5,292.59L330.06,290.62L330.62,288.83L331.18,287.23L331.74,285.8L332.31,284.49L332.87,283.29L333.43,282.17L333.99,281.12L334.55,280.12L335.11,279.16L335.67,278.25L336.23,277.36L336.79,276.5L337.35,275.67L337.91,274.86L338.47,274.06L339.03,273.28L339.59,272.52L340.15,271.77L340.71,271.03L341.27,270.31L341.83,269.59L342.39,268.89L342.95,268.2L343.51,267.51L344.07,266.84L344.63,266.17L345.19,265.51L345.75,264.86L346.32,264.22L346.88,263.58L347.44,262.95L348,262.33L348.56,261.72L349.12,261.11L349.68,260.51L350.24,259.91L350.8,259.33L351.36,258.74L351.92,258.17L352.48,257.6L353.04,257.04L353.6,256.48L354.16,255.93L354.72,255.38L355.28,254.85L355.84,254.31L356.4,253.78L356.96,253.26L357.52,252.74L358.08,252.23L358.64,251.73L359.2,251.23L359.76,250.73L360.33,250.24L360.89,249.76L361.45,249.28L362.01,248.8L362.57,248.33L363.13,247.87L363.69,247.41L364.25,246.95L364.81,246.5L365.37,246.06L365.93,245.62L366.49,245.18L367.05,244.75L367.61,244.33L368.17,243.91L368.73,243.49L369.29,243.08L369.85,242.67L370.41,242.27L370.97,241.87L371.53,241.48L372.09,241.09L372.65,240.7L373.21,240.32L373.77,239.91L374.34,239.54L374.9,239.33L375.46,252.84L376.02,263.29L376.58,273.89L377.14,282.94L377.7,286.41L378.26,285.5L378.82,284.78L379.38,284.62L379.94,282.64L380.5,279.99L381.06,277.38L381.62,275.11L382.18,276.68L382.74,277.55L383.3,276.58L383.86,276.4L384.42,277.16L384.98,276.53L385.54,276.22L386.1,274.33L386.66,272.59L387.22,271.05L387.78,269.68L388.35,268.44L388.91,267.3L389.47,266.25L390.03,265.27L390.59,264.34L391.15,263.45L391.71,262.61L392.27,261.79L392.83,261L393.39,260.24L393.95,259.5L394.51,258.77L395.07,258.06L395.63,257.37L396.19,256.69L396.75,256.02L397.31,255.37L397.87,254.73L398.43,254.1L398.99,253.47L399.55,252.86L400.11,252.26L400.67,251.67L401.23,251.09L401.8,250.51L402.36,249.94L402.92,249.39L403.48,248.84L404.04,248.29L404.6,247.76L405.16,247.23L405.72,246.71L406.28,246.2L406.84,245.69L407.4,245.19L407.96,244.7L408.52,244.22L409.08,243.74L409.64,243.27L410.2,242.8L410.76,242.34L411.32,241.89L411.88,241.45L412.44,241.01L413,240.57L413.56,240.15L414.12,239.72L414.68,239.31L415.24,238.9L415.81,238.5L416.37,238.1L416.93,237.71L417.49,237.32L418.05,236.94L418.61,236.57L419.17,236.2L419.73,235.83L420.29,235.47L420.85,235.12L421.41,234.77L421.97,234.43L422.53,234.09L423.09,233.76L423.65,233.43L424.21,233.11L424.77,232.8L425.33,232.48L425.89,232.18L426.45,231.87L427.01,231.58L427.57,231.28L428.13,231L428.69,230.71L429.25,230.43L429.82,230.13L430.38,229.92L430.94,235.77L431.5,254.06L432.06,260.15L432.62,264.56L433.18,271.38L433.74,272.55L434.3,273.35L434.86,272.49L435.42,271.89L435.98,269.06L436.54,267.38L437.1,268L437.66,267.19L438.22,265.59L438.78,263.84L439.34,264.53L439.9,266.11L440.46,265.95L441.02,267.21L441.58,265.85L442.14,264.1L442.7,262.5L443.26,261.08L443.83,259.81L444.39,258.67L444.95,257.63L445.51,256.66L446.07,255.77L446.63,254.93L447.19,254.13L447.75,253.37L448.31,252.64L448.87,251.94L449.43,251.26L449.99,250.6L450.55,249.96L451.11,249.33L451.67,248.72L452.23,248.13L452.79,247.55L453.35,246.98L453.91,246.42L454.47,245.87L455.03,245.33L455.59,244.81L456.15,244.29L456.71,243.78L457.27,243.28L457.84,242.79L458.4,242.31L458.96,241.84L459.52,241.37L460.08,240.92L460.64,240.47L461.2,240.02L461.76,239.59L462.32,239.16L462.88,238.74L463.44,238.33L464,237.92L464.56,237.52L465.12,237.13L465.68,236.74L466.24,236.36L466.8,235.99L467.36,235.63L467.92,235.27L468.48,234.91L469.04,234.56L469.6,234.22L470.16,233.89L470.72,233.56L471.28,233.24L471.85,232.92L472.41,232.61L472.97,232.3L473.53,232L474.09,231.71L474.65,231.42L475.21,231.14L475.77,230.86L476.33,230.59L476.89,230.33L477.45,230.07L478.01,229.81L478.57,229.56L479.13,229.32L479.69,229.08L480.25,228.84L480.81,228.61L481.37,228.39L481.93,228.17L482.49,227.95L483.05,227.74L483.61,227.54L484.17,227.34L484.73,227.14L485.29,226.95L485.86,226.74L486.42,226.66L486.98,232.71L487.54,245.86L488.1,253.51L488.66,257.03L489.22,259.27L489.78,260.17L490.34,261.34L490.9,261.42L491.46,264.47L492.02,262.1L492.58,259.48L493.14,258.22L493.7,259.7L494.26,259.4L494.82,258.01L495.38,258.47L495.94,259.1L496.5,258.25L497.06,256.53L497.62,254.87L498.18,253.41L498.74,252.12L499.3,250.98L499.87,249.96L500.43,249.02L500.99,248.16L501.55,247.35L502.11,246.59L502.67,245.87L503.23,245.19L503.79,244.53L504.35,243.9L504.91,243.29L505.47,242.69L506.03,242.12L506.59,241.56L507.15,241.01L507.71,240.48L508.27,239.96L508.83,239.46L509.39,238.96L509.95,238.48L510.51,238L511.07,237.54L511.63,237.08L512.19,236.64L512.75,236.2L513.31,235.77L513.88,235.35L514.44,234.94L515,234.54L515.56,234.14L516.12,233.76L516.68,233.38L517.24,233L517.8,232.64L518.36,232.28L518.92,231.93L519.48,231.59L520.04,231.26L520.6,230.93L521.16,230.61L521.72,230.3L522.28,229.99L522.84,229.69L523.4,229.39L523.96,229.11L524.52,228.83L525.08,228.55L525.64,228.28L526.2,228.02L526.76,227.77L527.32,227.52L527.89,227.28L528.45,227.04L529.01,226.81L529.57,226.59L530.13,226.37L530.69,226.16L531.25,225.95L531.81,225.75L532.37,225.55L532.93,225.36L533.49,225.18L534.05,225L534.61,224.83L535.17,224.66L535.73,224.5L536.29,224.34L536.85,224.19L537.41,224.04L537.97,223.9L538.53,223.76L539.09,223.63L539.65,223.5L540.21,223.37L540.77,223.26L541.33,223.14L541.9,223.02L542.46,223.13L543.02,238.19L543.58,248.75L544.14,260.41L544.7,260.86L545.26,263.98L545.82,263.67L546.38,263.88L546.94,264.99L547.5,268.3L548.06,266.16L548.62,264.84L549.18,263.98L549.74,262.31L550.3,260.47L550.86,259.45L551.42,261.41L551.98,261.79L552.54,261.04L553.1,260.49L553.66,258.91L554.22,257.47L554.78,256.2L555.34,255.08L555.91,254.07L556.47,253.15L557.03,252.29L557.59,251.5L558.15,250.75L558.71,250.05L559.27,249.38L559.83,248.73L560.39,248.12L560.95,247.52L561.51,246.95L562.07,246.39L562.63,245.85L563.19,245.33L563.75,244.81L564.31,244.32L564.87,243.83L565.43,243.36L565.99,242.9L566.55,242.45L567.11,242L567.67,241.57L568.23,241.15L568.79,240.74L569.35,240.34L569.92,239.95L570.48,239.56L571.04,239.18L571.6,238.82L572.16,238.46L572.72,238.11L573.28,237.76L573.84,237.43L574.4,237.1L574.96,236.78L575.52,236.47L576.08,236.16L576.64,235.86L577.2,235.57L577.76,235.29L578.32,235.01L578.88,234.74L579.44,234.48L580,234.22L580.56,233.97L581.12,233.73L581.68,233.49L582.24,233.27L582.8,233.04L583.36,232.83L583.93,232.62L584.49,232.41L585.05,232.22L585.61,232.02L586.17,231.84L586.73,231.66L587.29,231.49L587.85,231.32L588.41,231.16L588.97,231L589.53,230.85L590.09,230.71L590.65,230.57L591.21,230.44L591.77,230.31L592.33,230.19L592.89,230.07L593.45,229.96L594.01,229.85L594.57,229.75L595.13,229.65L595.69,229.56L596.25,229.47L596.81,229.39L597.38,229.31" style="fill:none;stroke:#00FFFF" />
<path d="M577.38,305.44L597.38,305.44" style="fill:none;stroke:#A52A2A" />
<text x="525.35" y="-302.61" transform="scale(1, -1)"
	style="font-family:Liberation Sans;font-variant:normal;font-weight:normal;font-style:normal;font-size:12px">PreSpike</text>
<path d="M577.38,294.97L597.38,294.97" style="fill:none;stroke:#7FFF00" />
<text x="559.38" y="-292.14" transform="scale(1, -1)"
	style="font-family:Liberation Sans;font-variant:normal;font-weight:normal;font-style:normal;font-size:12px">Ds</text>
<path d="M577.38,284.5L597.38,284.5" style="fill:none;stroke:#000080" />
<text x="560.04" y="-281.67" transform="scale(1, -1)"
	style="font-family:Liberation Sans;font-variant:normal;font-weight:normal;font-style:normal;font-size:12px">Ps</text>
<path d="M577.38,274.03L597.38,274.03" style="fill:none;stroke:#00FFFF" />
<text x="559.38" y="-271.2" transform="scale(1, -1)"
	style="font-family:Liberation Sans;font-variant:normal;font-weight:normal;font-style:normal;font-size:12px">Wt</text>
<path d="M577.38,263.56L597.38,263.56" style="fill:none;stroke:#FFA500" />
<text x="501.35" y="-260.73" transform="scale(1, -1)"
	style="font-family:Liberation Sans;font-variant:normal;font-weight:normal;font-style:normal;font-size:12px">PSD_CaMact</text>
<path d="M577.38,253.09L597.38,253.09" style="fill:none;stroke:#00FFFF" />
<text x="486.68" y="-250.26" transform="scale(1, -1)"
	style="font-family:Liberation Sans;font-variant:normal;font-weight:normal;font-style:normal;font-size:12px">PSD_CaMKIIact</text>
</g>
</svg>
