<?xml version="1.0"?>
<!-- Generated by SVGo and Plotinum VG -->
<svg width="559.12pt" height="391.88pt" viewBox="0 0 559.12 391.88"
	xmlns="http://www.w3.org/2000/svg"
	xmlns:xlink="http://www.w3.org/1999/xlink">
<g transform="scale(1, -1) translate(0, -391.88)">
<text x="234.54" y="-382.15" transform="scale(1, -1)"
	style="font-family:Liberation Sans;font-variant:normal;font-weight:normal;font-style:normal;font-size:12px">Kinase Time Plot</text>
<text x="292.45" y="-3.6797" transform="scale(1, -1)"
	style="font-family:Liberation Sans;font-variant:normal;font-weight:normal;font-style:normal;font-size:12px">Time</text>
<text x="45.045" y="-16.473" transform="scale(1, -1)"
	style="font-family:Liberation Sans;font-variant:normal;font-weight:normal;font-style:normal;font-size:10px">0.0</text>
<text x="271.95" y="-16.473" transform="scale(1, -1)"
	style="font-family:Liberation Sans;font-variant:normal;font-weight:normal;font-style:normal;font-size:10px">0.4</text>
<text x="498.85" y="-16.473" transform="scale(1, -1)"
	style="font-family:Liberation Sans;font-variant:normal;font-weight:normal;font-style:normal;font-size:10px">0.8</text>
<path d="M51.996,24.578L51.996,32.578" style="fill:none;stroke:#000000;stroke-width:0.5" />
<path d="M278.9,24.578L278.9,32.578" style="fill:none;stroke:#000000;stroke-width:0.5" />
<path d="M505.8,24.578L505.8,32.578" style="fill:none;stroke:#000000;stroke-width:0.5" />
<path d="M108.72,28.578L108.72,32.578" style="fill:none;stroke:#000000;stroke-width:0.5" />
<path d="M165.45,28.578L165.45,32.578" style="fill:none;stroke:#000000;stroke-width:0.5" />
<path d="M222.17,28.578L222.17,32.578" style="fill:none;stroke:#000000;stroke-width:0.5" />
<path d="M335.63,28.578L335.63,32.578" style="fill:none;stroke:#000000;stroke-width:0.5" />
<path d="M392.35,28.578L392.35,32.578" style="fill:none;stroke:#000000;stroke-width:0.5" />
<path d="M449.08,28.578L449.08,32.578" style="fill:none;stroke:#000000;stroke-width:0.5" />
<path d="M51.996,32.578L559.12,32.578" style="fill:none;stroke:#000000;stroke-width:0.5" />
<g transform="rotate(90)">
<text x="188.42" y="9.7266" transform="scale(1, -1)"
	style="font-family:Liberation Sans;font-variant:normal;font-weight:normal;font-style:normal;font-size:12px">NMDAo</text>
</g>
<text x="15.949" y="-37.852" transform="scale(1, -1)"
	style="font-family:Liberation Sans;font-variant:normal;font-weight:normal;font-style:normal;font-size:10px">0.00</text>
<text x="15.949" y="-342.22" transform="scale(1, -1)"
	style="font-family:Liberation Sans;font-variant:normal;font-weight:normal;font-style:normal;font-size:10px">0.25</text>
<path d="M38.19,40.371L46.19,40.371" style="fill:none;stroke:#000000;stroke-width:0.5" />
<path d="M38.19,344.74L46.19,344.74" style="fill:none;stroke:#000000;stroke-width:0.5" />
<path d="M42.19,101.24L46.19,101.24" style="fill:none;stroke:#000000;stroke-width:0.5" />
<path d="M42.19,162.12L46.19,162.12" style="fill:none;stroke:#000000;stroke-width:0.5" />
<path d="M42.19,222.99L46.19,222.99" style="fill:none;stroke:#000000;stroke-width:0.5" />
<path d="M42.19,283.87L46.19,283.87" style="fill:none;stroke:#000000;stroke-width:0.5" />
<path d="M46.19,40.371L46.19,378.47" style="fill:none;stroke:#000000;stroke-width:0.5" />
<path d="M51.996,40.371L52.563,40.371L53.131,40.371L53.698,40.371L54.265,40.371L54.832,40.371L55.4,40.371L55.967,40.371L56.534,40.371L57.101,40.371L57.669,40.371L58.236,40.371L58.803,40.371L59.37,40.371L59.938,40.371L60.505,40.371L61.072,40.371L61.639,40.371L62.207,40.371L62.774,40.371L63.341,283.87L63.909,275.75L64.476,267.9L65.043,260.32L65.61,252.99L66.178,245.9L66.745,239.05L67.312,232.43L67.879,226.02L68.447,219.84L69.014,213.85L69.581,208.07L70.148,202.48L70.716,197.08L71.283,191.85L71.85,186.8L72.417,197.07L72.985,191.84L73.552,186.79L74.119,181.91L74.686,177.2L75.254,172.63L75.821,168.23L76.388,163.96L76.955,159.84L77.523,155.86L78.09,152.01L78.657,148.29L79.224,144.69L79.792,141.22L80.359,137.85L80.926,134.6L81.494,131.46L82.061,128.43L82.628,125.49L83.195,122.65L83.763,119.91L84.33,117.26L84.897,114.7L85.464,112.22L86.032,109.83L86.599,107.51L87.166,105.27L87.733,103.11L88.301,101.02L88.868,98.996L89.435,145.67L90.002,142.16L90.57,138.77L91.137,135.49L91.704,132.32L92.271,129.25L92.839,126.29L93.406,123.43L93.973,120.66L94.54,117.98L95.108,115.39L95.675,112.89L96.242,110.48L96.809,108.14L97.377,105.88L97.944,103.7L98.511,101.59L99.079,99.546L99.646,97.573L100.21,95.667L100.78,93.823L101.35,128.54L101.91,125.6L102.48,122.76L103.05,120.01L103.62,117.36L104.18,114.79L104.75,112.31L105.32,109.91L105.89,107.6L106.45,105.36L107.02,103.19L107.59,101.1L108.15,99.071L108.72,97.114L109.29,95.223L109.86,93.395L110.42,91.627L110.99,89.919L111.56,88.267L112.13,86.67L112.69,85.127L113.26,83.635L113.83,82.193L114.39,80.799L114.96,79.451L115.53,78.149L116.1,76.89L116.66,75.672L117.23,74.496L117.8,73.358L118.37,72.259L118.93,71.196L119.5,70.168L120.07,69.175L120.63,68.215L121.2,67.287L121.77,66.389L122.34,65.522L122.9,64.684L123.47,63.873L124.04,63.09L124.61,137.15L125.17,133.92L125.74,130.8L126.31,127.79L126.87,124.88L127.44,122.06L128.01,119.34L128.58,116.7L129.14,114.16L129.71,111.7L130.28,109.32L130.84,107.02L131.41,104.8L131.98,102.65L132.55,100.58L133.11,98.571L133.68,96.631L134.25,94.756L134.82,92.943L135.38,91.191L135.95,89.497L136.52,87.859L137.08,86.276L137.65,84.746L138.22,83.267L138.79,81.837L139.35,80.455L139.92,79.119L140.49,77.827L141.06,76.579L141.62,75.372L142.19,74.205L142.76,73.077L143.32,71.987L143.89,70.933L144.46,69.914L145.03,68.93L145.59,67.978L146.16,67.057L146.73,66.168L147.3,65.308L147.86,64.477L148.43,63.673L149,62.897L149.56,62.146L150.13,61.42L150.7,143.32L151.27,139.89L151.83,136.57L152.4,133.37L152.97,130.27L153.54,127.27L154.1,124.37L154.67,121.57L155.24,118.87L155.8,116.25L156.37,113.72L156.94,111.28L157.51,108.91L158.07,106.63L158.64,104.42L159.21,102.28L159.78,100.22L160.34,98.225L160.91,96.297L161.48,94.433L162.04,92.631L162.61,90.889L163.18,89.205L163.75,87.577L164.31,86.003L164.88,83.012L165.45,81.591L166.02,80.217L166.58,78.888L167.15,77.604L167.72,76.363L168.28,75.164L168.85,74.004L169.42,72.883L169.99,71.799L170.55,70.751L171.12,69.739L171.69,68.76L172.25,67.814L172.82,66.899L173.39,66.015L173.96,65.16L174.52,64.333L175.09,63.535L175.66,62.763L176.23,62.016L176.79,61.295L177.36,60.597L177.93,59.923L178.49,59.271L179.06,58.641L179.63,58.032L180.2,57.444L180.76,56.875L181.33,56.324L181.9,55.793L182.47,55.279L183.03,54.782L183.6,54.301L184.17,53.837L184.73,53.388L185.3,52.954L185.87,52.535L186.44,52.129L187,51.737L187.57,51.358L188.14,50.992L188.71,50.638L189.27,50.296L189.84,49.965L190.41,49.645L190.97,49.336L191.54,49.037L192.11,48.748L192.68,48.469L193.24,48.199L193.81,47.938L194.38,47.686L194.95,47.442L195.51,47.207L196.08,46.979L196.65,46.758L197.21,46.546L197.78,46.34L198.35,46.141L198.92,45.948L199.48,45.763L200.05,45.583L200.62,45.409L201.19,45.241L201.75,45.079L202.32,44.922L202.89,44.77L203.45,44.624L204.02,44.482L204.59,44.345L205.16,44.212L205.72,44.084L206.29,43.961L206.86,43.841L207.42,43.725L207.99,43.613L208.56,43.505L209.13,43.401L209.69,43.3L210.26,43.202L210.83,43.108L211.4,43.017L211.96,42.928L212.53,42.843L213.1,42.761L213.66,42.681L214.23,42.604L214.8,42.53L215.37,42.458L215.93,42.388L216.5,42.321L217.07,42.256L217.64,42.193L218.2,42.132L218.77,42.074L219.34,42.017L219.9,41.962L220.47,41.909L221.04,41.808L221.61,41.76L222.17,41.714L222.74,41.669L223.31,41.626L223.88,41.584L224.44,41.544L225.01,41.505L225.58,41.467L226.14,41.43L226.71,41.395L227.28,41.361L227.85,41.328L228.41,41.296L228.98,41.265L229.55,41.235L230.12,41.207L230.68,41.179L231.25,41.152L231.82,41.126L232.38,41.101L232.95,41.076L233.52,229L234.09,222.71L234.65,216.64L235.22,210.76L235.79,205.08L236.36,199.59L236.92,194.28L237.49,189.15L238.06,184.19L238.62,179.4L239.19,174.77L239.76,170.29L240.33,165.96L240.89,161.77L241.46,157.72L242.03,153.81L242.59,150.03L243.16,146.37L243.73,142.84L244.3,139.43L244.86,163.03L245.43,158.94L246,154.99L246.57,151.16L247.13,147.47L247.7,143.9L248.27,140.45L248.83,137.11L249.4,133.89L249.97,130.77L250.54,127.76L251.1,124.85L251.67,122.03L252.24,119.31L252.81,116.68L253.37,114.13L253.94,111.67L254.51,109.3L255.07,107L255.64,104.78L256.21,102.63L256.78,100.56L257.34,135.31L257.91,132.15L258.48,129.09L259.05,126.13L259.61,123.27L260.18,120.51L260.75,117.84L261.31,115.26L261.88,112.76L262.45,110.35L263.02,108.01L263.58,105.76L264.15,124.06L264.72,121.27L265.29,118.58L265.85,115.97L266.42,113.45L266.99,111.01L267.55,108.66L268.12,106.38L268.69,104.18L269.26,102.05L269.82,99.999L270.39,98.011L270.96,96.09L271.53,94.233L272.09,92.437L272.66,90.702L273.23,89.024L273.79,87.402L274.36,85.835L274.93,84.319L275.5,82.854L276.06,81.438L276.63,80.069L277.2,78.746L277.76,77.467L278.33,76.23L278.9,75.035L279.47,73.879L280.03,72.762L280.6,71.683L281.17,70.639L281.74,69.63L282.3,68.655L282.87,67.712L283.44,66.801L284,65.92L284.57,65.068L285.14,64.245L285.71,63.449L286.27,134.4L286.84,131.27L287.41,128.24L287.98,125.31L288.54,122.48L289.11,119.74L289.68,117.1L290.24,114.54L290.81,112.07L291.38,109.68L291.95,107.37L292.51,105.13L293.08,102.97L293.65,100.89L294.22,98.871L294.78,96.921L295.35,95.036L295.92,93.214L296.48,91.452L297.05,89.75L297.62,88.104L298.19,86.512L298.75,84.974L299.32,83.488L299.89,82.05L300.46,80.661L301.02,79.318L301.59,78.02L302.16,76.765L302.72,128.22L303.29,125.29L303.86,122.46L304.43,119.72L304.99,117.08L305.56,114.52L306.13,112.05L306.7,109.66L307.26,107.35L307.83,105.12L308.4,102.96L308.96,100.87L309.53,98.857L310.1,96.908L310.67,95.023L311.23,93.202L311.8,91.44L312.37,89.738L312.93,88.093L313.5,86.502L314.07,84.964L314.64,83.478L315.2,82.041L315.77,80.652L316.34,79.309L316.91,78.011L317.47,76.757L318.04,75.544L318.61,74.371L319.17,73.238L319.74,72.142L320.31,71.083L320.88,70.06L321.44,69.07L322.01,68.113L322.58,67.189L323.15,66.295L323.71,65.431L324.28,64.595L324.85,135.15L325.41,131.99L325.98,128.94L326.55,125.99L327.12,123.13L327.68,120.37L328.25,117.71L328.82,115.13L329.39,112.64L329.95,110.23L330.52,107.9L331.09,105.65L331.65,103.47L332.22,101.37L332.79,99.337L333.36,97.371L333.92,93.634L334.49,91.859L335.06,90.143L335.63,88.484L336.19,86.88L336.76,85.33L337.33,83.831L337.89,82.382L338.46,80.982L339.03,79.628L339.6,78.32L340.16,77.055L340.73,75.832L341.3,74.65L341.87,73.507L342.43,72.403L343,71.335L343.57,70.303L344.13,69.305L344.7,68.341L345.27,67.408L345.84,66.507L346.4,65.636L346.97,64.794L347.54,63.98L348.1,63.193L348.67,62.432L349.24,61.697L349.81,60.986L350.37,60.299L350.94,59.634L351.51,58.992L352.08,58.372L352.64,57.772L353.21,57.192L353.78,56.631L354.34,56.089L354.91,55.565L355.48,55.058L356.05,54.569L356.61,54.096L357.18,53.638L357.75,53.196L358.32,52.768L358.88,52.355L359.45,51.956L360.02,51.57L360.58,51.196L361.15,50.835L361.72,50.487L362.29,50.149L362.85,49.823L363.42,49.508L363.99,49.204L364.56,48.909L365.12,48.625L365.69,48.35L366.26,48.084L366.82,47.827L367.39,47.578L367.96,47.338L368.53,47.106L369.09,46.881L369.66,46.664L370.23,46.454L370.8,46.252L371.36,46.056L371.93,45.866L372.5,45.683L373.06,45.506L373.63,45.335L374.2,45.169L374.77,45.009L375.33,44.855L375.9,44.705L376.47,44.561L377.04,44.421L377.6,44.286L378.17,44.156L378.74,44.029L379.3,43.908L379.87,43.79L380.44,43.676L381.01,43.566L381.57,43.459L382.14,43.356L382.71,43.257L383.27,43.16L383.84,43.067L384.41,42.978L384.98,42.891L385.54,42.807L386.11,42.726L386.68,42.647L387.25,42.571L387.81,42.498L388.38,42.427L388.95,42.358L389.51,42.292L390.08,42.166L390.65,42.106L391.22,42.049L391.78,41.993L392.35,41.939L392.92,41.886L393.49,41.836L394.05,41.787L394.62,41.74L395.19,41.694L395.75,41.65L396.32,41.607L396.89,41.566L397.46,41.526L398.02,41.488L398.59,41.451L399.16,41.415L399.73,41.38L400.29,41.346L400.86,41.314L401.43,222.65L401.99,216.57L402.56,210.7L403.13,205.02L403.7,199.53L404.26,194.23L404.83,189.1L405.4,184.14L405.97,179.35L406.53,174.72L407.1,170.24L407.67,165.91L408.23,161.72L408.8,157.68L409.37,153.77L409.94,149.99L410.5,146.33L411.07,142.8L411.64,139.39L412.21,161.78L412.77,157.73L413.34,153.82L413.91,150.04L414.47,146.38L415.04,142.85L415.61,139.43L416.18,136.13L416.74,132.94L417.31,129.85L417.88,126.87L418.44,123.99L419.01,121.2L419.58,118.5L420.15,115.9L420.71,113.38L421.28,136.63L421.85,133.43L422.42,130.32L422.98,127.32L423.55,124.43L424.12,121.62L424.68,118.92L425.25,116.3L425.82,113.77L426.39,111.32L426.95,108.96L427.52,106.67L428.09,104.46L428.66,102.32L429.22,100.26L429.79,98.262L430.36,96.332L430.92,94.467L431.49,92.664L432.06,90.921L432.63,124.68L433.19,121.87L433.76,119.15L434.33,116.52L434.9,113.99L435.46,111.53L436.03,109.16L436.6,106.87L437.16,104.65L437.73,102.51L438.3,100.44L438.87,98.434L439.43,96.499L440,94.628L440.57,92.819L441.14,91.071L441.7,89.381L442.27,87.747L442.84,86.168L443.4,84.641L443.97,83.166L444.54,120.2L445.11,117.54L445.67,114.97L446.24,112.48L446.81,110.08L447.38,107.75L447.94,105.51L448.51,103.33L449.08,101.24L449.64,99.207L450.21,97.246L450.78,95.35L451.35,93.517L451.91,91.746L452.48,90.033L453.05,88.378L453.61,86.778L454.18,85.231L454.75,83.735L455.32,82.29L455.88,80.893L456.45,79.542L457.02,78.236L457.59,76.974L458.15,75.754L458.72,74.574L459.29,73.434L459.85,72.332L460.42,71.267L460.99,70.237L461.56,69.241L462.12,68.279L462.69,126.9L463.26,124.01L463.83,121.22L464.39,118.53L464.96,115.92L465.53,113.4L466.09,110.97L466.66,108.62L467.23,106.34L467.8,104.14L468.36,102.02L468.93,99.962L469.5,97.976L470.07,96.056L470.63,94.199L471.2,92.405L471.77,90.671L472.33,88.994L472.9,87.373L473.47,85.807L474.04,84.292L474.6,82.828L475.17,81.413L475.74,80.045L476.31,78.722L476.87,77.444L477.44,76.208L478.01,75.014L478.57,73.859L479.14,72.743L479.71,71.664L480.28,70.62L480.84,69.612L481.41,68.637L481.98,67.695L482.55,131.16L483.11,128.13L483.68,125.21L484.25,122.38L484.81,119.65L485.38,117L485.95,114.45L486.52,111.98L487.08,109.59L487.65,107.29L488.22,105.06L488.78,102.9L489.35,100.82L489.92,98.801L490.49,96.853L491.05,94.97L491.62,93.15L492.19,91.391L492.76,89.69L493.32,88.046L493.89,86.457L494.46,84.921L495.02,83.436L495.59,82L496.16,80.613L496.73,79.271L497.29,77.975L497.86,76.721L498.43,75.51L499,74.338L499.56,73.206L500.13,72.112L500.7,71.054L501.26,70.031L501.83,69.042L502.4,68.086L502.97,66.27L503.53,65.406L504.1,64.572L504.67,63.765L505.24,62.985L505.8,62.231L506.37,61.503L506.94,60.798L507.5,60.117L508.07,59.459L508.64,58.823L509.21,58.208L509.77,57.613L510.34,57.039L510.91,56.483L511.48,55.946L512.04,55.427L512.61,54.925L513.18,54.44L513.74,53.971L514.31,53.518L514.88,53.079L515.45,52.656L516.01,52.246L516.58,51.85L517.15,51.468L517.72,51.098L518.28,50.74L518.85,50.395L519.42,50.061L519.98,49.738L520.55,49.425L521.12,49.124L521.69,48.832L522.25,48.55L522.82,48.277L523.39,48.014L523.95,47.759L524.52,47.513L525.09,47.275L525.66,47.044L526.22,46.822L526.79,46.607L527.36,46.399L527.93,46.198L528.49,46.004L529.06,45.816L529.63,45.635L530.19,45.459L530.76,45.29L531.33,45.126L531.9,44.967L532.46,44.814L533.03,44.666L533.6,44.523L534.17,44.384L534.73,44.251L535.3,44.121L535.87,43.996L536.43,43.875L537,43.759L537.57,43.646L538.14,43.537L538.7,43.431L539.27,43.329L539.84,43.23L540.41,43.135L540.97,43.043L541.54,42.954L542.11,42.868L542.67,42.785L543.24,42.704L543.81,42.626L544.38,42.551L544.94,42.479L545.51,42.408L546.08,42.34L546.65,42.275L547.21,42.211L547.78,42.15L548.35,42.091L548.91,42.033L549.48,41.978L550.05,41.924L550.62,41.873L551.18,41.823L551.75,41.774L552.32,41.727L552.89,41.682L553.45,41.638L554.02,41.596L554.59,41.555L555.15,41.516L555.72,41.478L556.29,41.441L556.86,41.405L557.42,41.371L557.99,41.337L558.56,41.305L559.12,41.274" style="fill:none;stroke:#FF00FF" />
<path d="M51.996,40.371L52.563,40.371L53.131,40.371L53.698,40.371L54.265,40.371L54.832,40.371L55.4,40.371L55.967,40.371L56.534,40.371L57.101,40.371L57.669,40.371L58.236,40.371L58.803,40.371L59.37,40.371L59.938,40.371L60.505,40.371L61.072,40.371L61.639,40.371L62.207,40.371L62.774,40.371L63.341,219.63L63.909,312.25L64.476,357.88L65.043,376.85L65.61,378.47L66.178,364.58L66.745,342.31L67.312,318.71L67.879,297.02L68.447,278.02L69.014,261.58L69.581,247.35L70.148,234.68L70.716,222.14L71.283,209.41L71.85,197.27L72.417,219.32L72.985,211.66L73.552,201.64L74.119,192.38L74.686,184.11L75.254,176.72L75.821,170.08L76.388,164.03L76.955,158.46L77.523,153.3L78.09,148.5L78.657,144.02L79.224,139.7L79.792,135.29L80.359,130.91L80.926,126.75L81.494,122.9L82.061,119.35L82.628,116.07L83.195,113.03L83.763,110.17L84.33,107.4L84.897,104.68L85.464,102.03L86.032,99.473L86.599,97.064L87.166,94.816L87.733,92.719L88.301,90.756L88.868,88.911L89.435,132.34L90.002,136.17L90.57,134.49L91.137,131.71L91.704,128.61L92.271,125.42L92.839,122.22L93.406,118.95L93.973,115.7L94.54,112.56L95.108,109.58L95.675,106.76L96.242,104.1L96.809,101.59L97.377,99.198L97.944,96.894L98.511,94.654L99.079,92.482L99.646,90.39L100.21,88.399L100.78,86.518L101.35,123.46L101.91,126.1L102.48,124.16L103.05,121.42L103.62,118.49L104.18,115.54L104.75,112.64L105.32,109.8L105.89,107L106.45,104.26L107.02,101.62L107.59,99.111L108.15,96.734L108.72,94.481L109.29,92.344L109.86,90.309L110.42,88.352L110.99,86.462L111.56,84.637L112.13,82.881L112.69,81.207L113.26,79.618L113.83,78.11L114.39,76.677L114.96,75.314L115.53,74.015L116.1,72.777L116.66,71.594L117.23,70.463L117.8,69.381L118.37,68.345L118.93,67.353L119.5,66.402L120.07,65.49L120.63,64.616L121.2,63.778L121.77,62.973L122.34,62.201L122.9,61.46L123.47,60.748L124.04,60.064L124.61,127.08L125.17,146.46L125.74,153.52L126.31,155.39L126.87,154.62L127.44,152.46L128.01,149.61L128.58,146.41L129.14,143.1L129.71,139.77L130.28,136.49L130.84,133.3L131.41,130.2L131.98,127.2L132.55,124.31L133.11,121.47L133.68,118.53L134.25,115.55L134.82,112.64L135.38,109.88L135.95,107.28L136.52,104.83L137.08,102.52L137.65,100.33L138.22,98.194L138.79,96.091L139.35,94.026L139.92,92.018L140.49,90.106L141.06,88.306L141.62,86.613L142.19,85.017L142.76,83.508L143.32,82.078L143.89,80.718L144.46,79.419L145.03,78.177L145.59,76.988L146.16,75.847L146.73,74.751L147.3,73.698L147.86,72.685L148.43,71.71L149,70.771L149.56,69.866L150.13,68.993L150.7,127.7L151.27,141.84L151.83,146.04L152.4,146.46L152.97,145.04L153.54,142.67L154.1,139.84L154.67,136.73L155.24,133.29L155.8,129.68L156.37,126.09L156.94,122.67L157.51,119.44L158.07,116.4L158.64,113.54L159.21,110.83L159.78,108.2L160.34,105.6L160.91,103.04L161.48,100.56L162.04,98.199L162.61,95.988L163.18,93.919L163.75,91.976L164.31,90.145L164.88,86.778L165.45,85.219L166.02,83.732L166.58,82.312L167.15,80.952L167.72,79.65L168.28,78.401L168.85,77.202L169.42,76.05L169.99,74.943L170.55,73.877L171.12,72.852L171.69,71.864L172.25,70.913L172.82,69.996L173.39,69.111L173.96,68.259L174.52,67.436L175.09,66.642L175.66,65.876L176.23,65.137L176.79,64.423L177.36,63.733L177.93,63.067L178.49,62.423L179.06,61.801L179.63,61.201L180.2,60.62L180.76,60.059L181.33,59.516L181.9,58.991L182.47,58.484L183.03,57.993L183.6,57.519L184.17,57.06L184.73,56.615L185.3,56.186L185.87,55.77L186.44,55.368L187,54.978L187.57,54.601L188.14,54.237L188.71,53.883L189.27,53.542L189.84,53.211L190.41,52.89L190.97,52.58L191.54,52.279L192.11,51.988L192.68,51.706L193.24,51.432L193.81,51.168L194.38,50.911L194.95,50.663L195.51,50.422L196.08,50.189L196.65,49.962L197.21,49.743L197.78,49.531L198.35,49.325L198.92,49.125L199.48,48.932L200.05,48.744L200.62,48.562L201.19,48.386L201.75,48.215L202.32,48.049L202.89,47.888L203.45,47.732L204.02,47.581L204.59,47.434L205.16,47.291L205.72,47.153L206.29,47.019L206.86,46.889L207.42,46.763L207.99,46.641L208.56,46.522L209.13,46.407L209.69,46.295L210.26,46.186L210.83,46.081L211.4,45.979L211.96,45.88L212.53,45.783L213.1,45.69L213.66,45.599L214.23,45.511L214.8,45.426L215.37,45.343L215.93,45.262L216.5,45.184L217.07,45.108L217.64,45.034L218.2,44.963L218.77,44.893L219.34,44.826L219.9,44.76L220.47,44.696L221.04,44.574L221.61,44.516L222.17,44.459L222.74,44.404L223.31,44.351L223.88,44.299L224.44,44.249L225.01,44.2L225.58,44.152L226.14,44.106L226.71,44.061L227.28,44.017L227.85,43.975L228.41,43.934L228.98,43.894L229.55,43.855L230.12,43.817L230.68,43.78L231.25,43.745L231.82,43.71L232.38,43.676L232.95,43.644L233.52,166.83L234.09,225.13L234.65,251.36L235.22,258.72L235.79,255.91L236.36,248.47L236.92,239.34L237.49,229.9L238.06,220.79L238.62,212.07L239.19,203.06L239.76,193.61L240.33,184.23L240.89,175.28L241.46,167.2L242.03,160.08L242.59,153.84L243.16,148.33L243.73,143.41L244.3,138.99L244.86,167.3L245.43,166.59L246,162.23L246.57,156.99L247.13,151.53L247.7,146.25L248.27,141.33L248.83,136.81L249.4,132.63L249.97,128.78L250.54,125.17L251.1,121.67L251.67,118.23L252.24,114.88L252.81,111.64L253.37,108.6L253.94,105.77L254.51,103.16L255.07,100.72L255.64,98.437L256.21,96.271L256.78,94.143L257.34,125.02L257.91,126.34L258.48,123.9L259.05,120.89L259.61,117.84L260.18,114.85L260.75,111.96L261.31,109.16L261.88,106.46L262.45,103.87L263.02,101.38L263.58,99.003L264.15,121.4L264.72,121.92L265.29,119.48L265.85,116.55L266.42,113.57L266.99,110.67L267.55,107.87L268.12,105.19L268.69,102.64L269.26,100.17L269.82,97.772L270.39,95.452L270.96,93.219L271.53,91.092L272.09,89.08L272.66,87.178L273.23,85.377L273.79,83.668L274.36,82.046L274.93,80.502L275.5,79.03L276.06,77.626L276.63,76.284L277.2,75.001L277.76,73.774L278.33,72.6L278.9,71.475L279.47,70.397L280.03,69.364L280.6,68.374L281.17,67.424L281.74,66.512L282.3,65.637L282.87,64.798L283.44,63.991L284,63.217L284.57,62.473L285.14,61.759L285.71,61.073L286.27,119.81L286.84,137.42L287.41,144L287.98,145.83L288.54,145.24L289.11,143.28L289.68,140.36L290.24,136.86L290.81,133.19L291.38,129.59L291.95,126.14L292.51,122.87L293.08,119.79L293.65,116.86L294.22,114L294.78,111.18L295.35,108.38L295.92,105.66L296.48,103.07L297.05,100.66L297.62,98.401L298.19,96.29L298.75,94.306L299.32,92.439L299.89,90.672L300.46,88.994L301.02,87.395L301.59,85.87L302.16,84.411L302.72,122.27L303.29,127.57L303.86,127.45L304.43,125.81L304.99,123.56L305.56,121.04L306.13,118.43L306.7,115.81L307.26,113.24L307.83,110.74L308.4,108.32L308.96,106L309.53,103.75L310.1,101.6L310.67,99.527L311.23,97.536L311.8,95.623L312.37,93.784L312.93,92.017L313.5,90.317L314.07,88.67L314.64,87.038L315.2,85.431L315.77,83.876L316.34,82.387L316.91,80.967L317.47,79.613L318.04,78.321L318.61,77.085L319.17,75.889L319.74,74.725L320.31,73.594L320.88,72.497L321.44,71.445L322.01,70.441L322.58,69.485L323.15,68.571L323.71,67.698L324.28,66.863L324.85,110.13L325.41,117.78L325.98,118.99L326.55,118.19L327.12,116.51L327.68,114.4L328.25,112.1L328.82,109.76L329.39,107.42L329.95,105.14L330.52,102.93L331.09,100.79L331.65,98.727L332.22,96.746L332.79,94.841L333.36,93.011L333.92,89.563L334.49,87.939L335.06,86.378L335.63,84.877L336.19,83.434L336.76,82.046L337.33,80.711L337.89,79.427L338.46,78.191L339.03,77.002L339.6,75.857L340.16,74.755L340.73,73.694L341.3,72.672L341.87,71.688L342.43,70.74L343,69.826L343.57,68.946L344.13,68.098L344.7,67.28L345.27,66.492L345.84,65.732L346.4,64.999L346.97,64.293L347.54,63.611L348.1,62.953L348.67,62.319L349.24,61.707L349.81,61.117L350.37,60.547L350.94,59.996L351.51,59.465L352.08,58.952L352.64,58.457L353.21,57.979L353.78,57.518L354.34,57.072L354.91,56.641L355.48,56.224L356.05,55.822L356.61,55.434L357.18,55.058L357.75,54.695L358.32,54.344L358.88,54.005L359.45,53.677L360.02,53.36L360.58,53.053L361.15,52.757L361.72,52.47L362.29,52.193L362.85,51.924L363.42,51.665L363.99,51.414L364.56,51.171L365.12,50.935L365.69,50.708L366.26,50.488L366.82,50.274L367.39,50.068L367.96,49.868L368.53,49.675L369.09,49.487L369.66,49.306L370.23,49.13L370.8,48.96L371.36,48.796L371.93,48.636L372.5,48.481L373.06,48.332L373.63,48.187L374.2,48.046L374.77,47.91L375.33,47.778L375.9,47.65L376.47,47.526L377.04,47.406L377.6,47.29L378.17,47.177L378.74,47.068L379.3,46.962L379.87,46.859L380.44,46.759L381.01,46.663L381.57,46.569L382.14,46.478L382.71,46.39L383.27,46.305L383.84,46.222L384.41,46.141L384.98,46.064L385.54,45.988L386.11,45.915L386.68,45.843L387.25,45.775L387.81,45.708L388.38,45.643L388.95,45.58L389.51,45.519L390.08,45.402L390.65,45.346L391.22,45.292L391.78,45.239L392.35,45.188L392.92,45.138L393.49,45.09L394.05,45.044L394.62,44.998L395.19,44.954L395.75,44.912L396.32,44.87L396.89,44.83L397.46,44.791L398.02,44.753L398.59,44.716L399.16,44.681L399.73,44.646L400.29,44.612L400.86,44.58L401.43,149.49L401.99,198.01L402.56,221.33L403.13,230.87L403.7,231.2L404.26,225.86L404.83,218.02L405.4,209.57L405.97,201.36L406.53,193.67L407.1,186.59L407.67,179.98L408.23,173.34L408.8,166.51L409.37,159.73L409.94,153.2L410.5,147.23L411.07,141.89L411.64,137.14L412.21,161.16L412.77,159.76L413.34,155.33L413.91,150.27L414.47,145.11L415.04,140.18L415.61,135.6L416.18,131.4L416.74,127.54L417.31,123.97L417.88,120.64L418.44,117.49L419.01,114.49L419.58,111.64L420.15,108.92L420.71,106.34L421.28,129.61L421.85,130.08L422.42,127.6L422.98,124.64L423.55,121.63L424.12,118.67L424.68,115.8L425.25,113.03L425.82,110.35L426.39,107.67L426.95,105.02L427.52,102.48L428.09,100.07L428.66,97.791L429.22,95.641L429.79,93.608L430.36,91.674L430.92,89.809L431.49,87.994L432.06,86.232L432.63,113.1L433.19,114.61L433.76,112.76L434.33,110.34L434.9,107.82L435.46,105.32L436.03,102.89L436.6,100.54L437.16,98.289L437.73,96.135L438.3,94.074L438.87,92.105L439.43,90.222L440,88.409L440.57,86.637L441.14,84.913L441.7,83.256L442.27,81.677L442.84,80.175L443.4,78.745L443.97,77.383L444.54,107.53L445.11,111.04L445.67,110.35L446.24,108.55L446.81,106.32L447.38,103.95L447.94,101.57L448.51,99.251L449.08,97.019L449.64,94.882L450.21,92.845L450.78,90.901L451.35,89.047L451.91,87.276L452.48,85.585L453.05,83.97L453.61,82.424L454.18,80.946L454.75,79.531L455.32,78.175L455.88,76.877L456.45,75.632L457.02,74.439L457.59,73.294L458.15,72.196L458.72,71.143L459.29,70.131L459.85,69.16L460.42,68.227L460.99,67.329L461.56,66.456L462.12,65.611L462.69,107.44L463.26,116.44L463.83,118.6L464.39,118.31L464.96,116.87L465.53,114.86L466.09,112.54L466.66,110.04L467.23,107.48L467.8,104.91L468.36,102.43L468.93,100.07L469.5,97.84L470.07,95.732L470.63,93.737L471.2,91.847L471.77,90.053L472.33,88.344L472.9,86.713L473.47,85.156L474.04,83.667L474.6,82.241L475.17,80.875L475.74,79.566L476.31,78.309L476.87,77.102L477.44,75.943L478.01,74.829L478.57,73.758L479.14,72.728L479.71,71.737L480.28,70.783L480.84,69.865L481.41,68.981L481.98,68.129L482.55,115.59L483.11,128.41L483.68,132.69L484.25,133.48L484.81,132.52L485.38,130.66L485.95,128.28L486.52,125.49L487.08,122.45L487.65,119.39L488.22,116.43L488.78,113.61L489.35,110.94L489.92,108.42L490.49,106.02L491.05,103.68L491.62,101.38L492.19,99.11L492.76,96.902L493.32,94.799L493.89,92.821L494.46,90.964L495.02,89.216L495.59,87.566L496.16,86.005L496.73,84.523L497.29,83.11L497.86,81.762L498.43,80.472L499,79.237L499.56,78.052L500.13,76.914L500.7,75.821L501.26,74.77L501.83,73.758L502.4,72.784L502.97,70.942L503.53,70.07L504.1,69.228L504.67,68.417L505.24,67.634L505.8,66.878L506.37,66.148L506.94,65.443L507.5,64.762L508.07,64.104L508.64,63.468L509.21,62.854L509.77,62.26L510.34,61.686L510.91,61.131L511.48,60.594L512.04,60.075L512.61,59.573L513.18,59.088L513.74,58.618L514.31,58.163L514.88,57.723L515.45,57.298L516.01,56.886L516.58,56.487L517.15,56.101L517.72,55.728L518.28,55.366L518.85,55.016L519.42,54.677L519.98,54.349L520.55,54.031L521.12,53.723L521.69,53.424L522.25,53.135L522.82,52.855L523.39,52.584L523.95,52.321L524.52,52.067L525.09,51.82L525.66,51.581L526.22,51.349L526.79,51.125L527.36,50.907L527.93,50.696L528.49,50.492L529.06,50.293L529.63,50.101L530.19,49.915L530.76,49.734L531.33,49.559L531.9,49.389L532.46,49.224L533.03,49.065L533.6,48.91L534.17,48.759L534.73,48.614L535.3,48.472L535.87,48.335L536.43,48.202L537,48.073L537.57,47.948L538.14,47.827L538.7,47.709L539.27,47.595L539.84,47.484L540.41,47.376L540.97,47.272L541.54,47.17L542.11,47.072L542.67,46.977L543.24,46.884L543.81,46.794L544.38,46.707L544.94,46.622L545.51,46.54L546.08,46.46L546.65,46.383L547.21,46.308L547.78,46.235L548.35,46.164L548.91,46.095L549.48,46.029L550.05,45.964L550.62,45.901L551.18,45.84L551.75,45.781L552.32,45.723L552.89,45.667L553.45,45.613L554.02,45.56L554.59,45.509L555.15,45.46L555.72,45.411L556.29,45.365L556.86,45.319L557.42,45.275L557.99,45.232L558.56,45.19L559.12,45.15" style="fill:none;stroke:#87CEEB" />
<path d="M539.12,370.69L559.12,370.69" style="fill:none;stroke:#FF00FF" />
<text x="493.79" y="-367.86" transform="scale(1, -1)"
	style="font-family:Liberation Sans;font-variant:normal;font-weight:normal;font-style:normal;font-size:12px">NMDAo</text>
<path d="M539.12,360.22L559.12,360.22" style="fill:none;stroke:#87CEEB" />
<text x="458.42" y="-357.39" transform="scale(1, -1)"
	style="font-family:Liberation Sans;font-variant:normal;font-weight:normal;font-style:normal;font-size:12px">NMDA_Nopen</text>
</g>
</svg>
