<?xml version="1.0"?>
<!-- Generated by SVGo and Plotinum VG -->
<svg width="559.12pt" height="391.88pt" viewBox="0 0 559.12 391.88"
	xmlns="http://www.w3.org/2000/svg"
	xmlns:xlink="http://www.w3.org/1999/xlink">
<g transform="scale(1, -1) translate(0, -391.88)">
<text x="234.54" y="-382.15" transform="scale(1, -1)"
	style="font-family:Liberation Sans;font-variant:normal;font-weight:normal;font-style:normal;font-size:12px">Kinase Time Plot</text>
<text x="283.41" y="-3.6797" transform="scale(1, -1)"
	style="font-family:Liberation Sans;font-variant:normal;font-weight:normal;font-style:normal;font-size:12px">Time</text>
<text x="135.07" y="-16.473" transform="scale(1, -1)"
	style="font-family:Liberation Sans;font-variant:normal;font-weight:normal;font-style:normal;font-size:10px">0.35</text>
<text x="337.37" y="-16.473" transform="scale(1, -1)"
	style="font-family:Liberation Sans;font-variant:normal;font-weight:normal;font-style:normal;font-size:10px">0.45</text>
<text x="539.66" y="-16.473" transform="scale(1, -1)"
	style="font-family:Liberation Sans;font-variant:normal;font-weight:normal;font-style:normal;font-size:10px">0.55</text>
<path d="M144.8,24.578L144.8,32.578" style="fill:none;stroke:#000000;stroke-width:0.5" />
<path d="M347.1,24.578L347.1,32.578" style="fill:none;stroke:#000000;stroke-width:0.5" />
<path d="M549.39,24.578L549.39,32.578" style="fill:none;stroke:#000000;stroke-width:0.5" />
<path d="M245.95,28.578L245.95,32.578" style="fill:none;stroke:#000000;stroke-width:0.5" />
<path d="M448.25,28.578L448.25,32.578" style="fill:none;stroke:#000000;stroke-width:0.5" />
<path d="M43.656,32.578L549.39,32.578" style="fill:none;stroke:#000000;stroke-width:0.5" />
<g transform="rotate(90)">
<text x="194.41" y="9.7266" transform="scale(1, -1)"
	style="font-family:Liberation Sans;font-variant:normal;font-weight:normal;font-style:normal;font-size:12px">Spike</text>
</g>
<text x="21.511" y="-37.852" transform="scale(1, -1)"
	style="font-family:Liberation Sans;font-variant:normal;font-weight:normal;font-style:normal;font-size:10px">0</text>
<text x="21.511" y="-188.64" transform="scale(1, -1)"
	style="font-family:Liberation Sans;font-variant:normal;font-weight:normal;font-style:normal;font-size:10px">5</text>
<text x="15.949" y="-339.43" transform="scale(1, -1)"
	style="font-family:Liberation Sans;font-variant:normal;font-weight:normal;font-style:normal;font-size:10px">10</text>
<path d="M29.851,40.371L37.851,40.371" style="fill:none;stroke:#000000;stroke-width:0.5" />
<path d="M29.851,191.16L37.851,191.16" style="fill:none;stroke:#000000;stroke-width:0.5" />
<path d="M29.851,341.95L37.851,341.95" style="fill:none;stroke:#000000;stroke-width:0.5" />
<path d="M33.851,70.529L37.851,70.529" style="fill:none;stroke:#000000;stroke-width:0.5" />
<path d="M33.851,100.69L37.851,100.69" style="fill:none;stroke:#000000;stroke-width:0.5" />
<path d="M33.851,130.84L37.851,130.84" style="fill:none;stroke:#000000;stroke-width:0.5" />
<path d="M33.851,161L37.851,161" style="fill:none;stroke:#000000;stroke-width:0.5" />
<path d="M33.851,221.32L37.851,221.32" style="fill:none;stroke:#000000;stroke-width:0.5" />
<path d="M33.851,251.48L37.851,251.48" style="fill:none;stroke:#000000;stroke-width:0.5" />
<path d="M33.851,281.63L37.851,281.63" style="fill:none;stroke:#000000;stroke-width:0.5" />
<path d="M33.851,311.79L37.851,311.79" style="fill:none;stroke:#000000;stroke-width:0.5" />
<path d="M33.851,372.11L37.851,372.11" style="fill:none;stroke:#000000;stroke-width:0.5" />
<path d="M37.851,40.371L37.851,378.47" style="fill:none;stroke:#000000;stroke-width:0.5" />
<path d="M45.679,40.371L47.702,40.371L49.725,40.371L51.748,40.371L53.771,40.371L55.794,40.371L57.817,40.371L59.84,40.371L61.863,40.371L63.886,40.371L65.909,40.371L67.932,40.371L69.955,40.371L71.978,70.529L74,40.371L76.023,40.371L78.046,40.371L80.069,40.371L82.092,40.371L84.115,40.371L86.138,40.371L88.161,40.371L90.184,40.371L92.207,70.529L94.23,40.371L96.253,40.371L98.276,40.371L100.3,40.371L102.32,40.371L104.34,40.371L106.37,40.371L108.39,40.371L110.41,40.371L112.44,40.371L114.46,70.529L116.48,40.371L118.51,40.371L120.53,40.371L122.55,40.371L124.57,40.371L126.6,40.371L128.62,40.371L130.64,40.371L132.67,40.371L134.69,70.529L136.71,40.371L138.73,40.371L140.76,40.371L142.78,40.371L144.8,40.371L146.83,40.371L148.85,40.371L150.87,40.371L152.9,40.371L154.92,40.371L156.94,40.371L158.96,40.371L160.99,40.371L163.01,40.371L165.03,70.529L167.06,40.371L169.08,40.371L171.1,40.371L173.12,40.371L175.15,40.371L177.17,40.371L179.19,40.371L181.22,40.371L183.24,40.371L185.26,70.529L187.29,40.371L189.31,40.371L191.33,40.371L193.35,40.371L195.38,40.371L197.4,40.371L199.42,40.371L201.45,70.529L203.47,40.371L205.49,40.371L207.52,40.371L209.54,40.371L211.56,40.371L213.58,40.371L215.61,40.371L217.63,40.371L219.65,40.371L221.68,40.371L223.7,40.371L225.72,40.371L227.74,40.371L229.77,40.371L231.79,40.371L233.81,40.371L235.84,40.371L237.86,40.371L239.88,40.371L241.91,40.371L243.93,40.371L245.95,40.371L247.97,40.371L250,40.371L252.02,40.371L254.04,40.371L256.07,40.371L258.09,40.371L260.11,40.371L262.13,40.371L264.16,40.371L266.18,40.371L268.2,40.371L270.23,40.371L272.25,40.371L274.27,40.371L276.3,40.371L278.32,40.371L280.34,40.371L282.36,40.371L284.39,40.371L286.41,40.371L288.43,40.371L290.46,70.529L292.48,40.371L294.5,40.371L296.52,40.371L298.55,40.371L300.57,40.371L302.59,40.371L304.62,40.371L306.64,40.371L308.66,40.371L310.69,70.529L312.71,40.371L314.73,40.371L316.75,40.371L318.78,40.371L320.8,40.371L322.82,40.371L324.85,40.371L326.87,40.371L328.89,40.371L330.92,40.371L332.94,40.371L334.96,40.371L336.98,40.371L339.01,40.371L341.03,40.371L343.05,40.371L345.08,40.371L347.1,40.371L349.12,40.371L351.14,40.371L353.17,40.371L355.19,40.371L357.21,40.371L359.24,40.371L361.26,40.371L363.28,40.371L365.31,40.371L367.33,40.371L369.35,40.371L371.37,40.371L373.4,40.371L375.42,40.371L377.44,70.529L379.47,40.371L381.49,40.371L383.51,40.371L385.53,40.371L387.56,40.371L389.58,40.371L391.6,40.371L393.63,40.371L395.65,40.371L397.67,70.529L399.7,40.371L401.72,40.371L403.74,40.371L405.76,40.371L407.79,40.371L409.81,40.371L411.83,40.371L413.86,40.371L415.88,40.371L417.9,40.371L419.92,40.371L421.95,40.371L423.97,40.371L425.99,40.371L428.02,40.371L430.04,40.371L432.06,40.371L434.09,40.371L436.11,40.371L438.13,40.371L440.15,40.371L442.18,40.371L444.2,40.371L446.22,40.371L448.25,40.371L450.27,40.371L452.29,40.371L454.31,40.371L456.34,40.371L458.36,40.371L460.38,40.371L462.41,40.371L464.43,40.371L466.45,40.371L468.48,40.371L470.5,40.371L472.52,40.371L474.54,40.371L476.57,40.371L478.59,40.371L480.61,40.371L482.64,40.371L484.66,40.371L486.68,40.371L488.71,40.371L490.73,40.371L492.75,40.371L494.77,40.371L496.8,40.371L498.82,40.371L500.84,40.371L502.87,40.371L504.89,40.371L506.91,40.371L508.93,40.371L510.96,40.371L512.98,40.371L515,40.371L517.03,40.371L519.05,40.371L521.07,40.371L523.1,40.371L525.12,40.371L527.14,40.371L529.16,40.371L531.19,40.371L533.21,40.371L535.23,40.371L537.26,40.371L539.28,40.371L541.3,40.371L543.32,40.371L545.35,40.371L547.37,40.371L549.39,40.371" style="fill:none;stroke:#800080" />
<path d="M45.679,40.371L47.702,40.371L49.725,40.371L51.748,40.371L53.771,40.371L55.794,40.371L57.817,40.371L59.84,40.371L61.863,40.371L63.886,40.371L65.909,40.371L67.932,40.371L69.955,40.371L71.978,130.84L74,121.8L76.023,204.13L78.046,187.75L80.069,173.01L82.092,159.75L84.115,147.81L86.138,137.07L88.161,127.4L90.184,118.7L92.207,201.34L94.23,185.24L96.253,170.75L98.276,157.71L100.3,145.98L102.32,135.42L104.34,125.91L106.37,117.36L108.39,109.66L110.41,102.73L112.44,96.496L114.46,181.36L116.48,167.26L118.51,154.57L120.53,143.15L122.55,132.87L124.57,214.09L126.6,196.72L128.62,181.09L130.64,167.02L132.67,154.35L134.69,233.43L136.71,214.12L138.73,196.75L140.76,181.11L142.78,167.03L144.8,154.37L146.83,142.97L148.85,132.71L150.87,123.48L152.9,115.16L154.92,198.16L156.94,182.38L158.96,168.18L160.99,155.4L163.01,143.9L165.03,224.02L167.06,205.65L169.08,189.12L171.1,174.25L173.12,160.86L175.15,148.81L177.17,137.97L179.19,128.21L181.22,119.42L183.24,111.52L185.26,194.88L187.29,179.43L189.31,165.52L191.33,153.01L193.35,141.74L195.38,131.61L197.4,212.96L199.42,195.7L201.45,270.64L203.47,247.61L205.49,226.89L207.52,208.24L209.54,191.45L211.56,176.34L213.58,162.74L215.61,150.51L217.63,139.49L219.65,129.58L221.68,120.66L223.7,112.63L225.72,105.41L227.74,98.902L229.77,93.049L231.79,87.781L233.81,83.04L235.84,78.773L237.86,165.41L239.88,152.9L241.91,141.65L243.93,131.52L245.95,122.41L247.97,114.2L250,106.82L252.02,100.17L254.04,94.195L256.07,88.812L258.09,83.968L260.11,79.608L262.13,75.685L264.16,72.153L266.18,68.975L268.2,66.115L270.23,63.54L272.25,61.223L274.27,59.138L276.3,57.261L278.32,55.572L280.34,54.052L282.36,52.684L284.39,51.453L286.41,50.345L288.43,49.347L290.46,138.92L292.48,129.07L294.5,120.2L296.52,112.22L298.55,105.03L300.57,98.565L302.59,92.746L304.62,87.508L306.64,82.794L308.66,78.552L310.69,165.21L312.71,152.72L314.73,141.49L316.75,131.38L318.78,212.75L320.8,195.51L322.82,180L324.85,166.03L326.87,153.47L328.89,142.16L330.92,131.98L332.94,122.82L334.96,114.57L336.98,107.15L339.01,100.48L341.03,94.465L343.05,89.056L345.08,84.187L347.1,79.806L349.12,75.862L351.14,72.313L353.17,69.119L355.19,66.244L357.21,63.657L359.24,61.328L361.26,59.233L363.28,57.346L365.31,55.649L367.33,54.121L369.35,52.746L371.37,51.509L373.4,50.395L375.42,49.392L377.44,138.96L379.47,129.1L381.49,210.7L383.51,193.67L385.53,178.34L387.56,164.54L389.58,152.13L391.6,140.95L393.63,130.89L395.65,121.84L397.67,204.17L399.7,187.79L401.72,173.05L403.74,159.78L405.76,147.84L407.79,137.09L409.81,127.42L411.83,118.71L413.86,110.88L415.88,103.83L417.9,97.483L419.92,91.772L421.95,86.632L423.97,82.006L425.99,77.842L428.02,74.095L430.04,70.723L432.06,67.688L434.09,64.956L436.11,62.497L438.13,60.285L440.15,58.293L442.18,54.888L444.2,53.437L446.22,52.13L448.25,50.954L450.27,49.896L452.29,48.943L454.31,48.086L456.34,47.315L458.36,46.62L460.38,45.995L462.41,45.433L464.43,44.927L466.45,44.471L468.48,44.061L470.5,43.692L472.52,43.36L474.54,43.061L476.57,42.792L478.59,42.55L480.61,42.332L482.64,42.136L484.66,41.96L486.68,41.801L488.71,41.658L490.73,41.529L492.75,41.413L494.77,41.309L496.8,41.215L498.82,41.131L500.84,41.055L502.87,40.986L504.89,40.925L506.91,40.87L508.93,40.82L510.96,40.775L512.98,40.734L515,40.698L517.03,40.665L519.05,40.636L521.07,40.61L523.1,40.586L525.12,40.564L527.14,40.545L529.16,40.528L531.19,40.512L533.21,40.498L535.23,40.485L537.26,40.474L539.28,40.463L541.3,40.454L543.32,40.446L545.35,40.438L547.37,40.432L549.39,40.426" style="fill:none;stroke:#FFC0CB" />
<path d="M45.679,40.371L47.702,40.371L49.725,40.371L51.748,40.371L53.771,40.371L55.794,40.371L57.817,40.371L59.84,40.371L61.863,40.371L63.886,40.371L65.909,40.371L67.932,40.371L69.955,40.371L71.978,40.371L74,40.371L76.023,70.529L78.046,40.371L80.069,40.371L82.092,40.371L84.115,40.371L86.138,40.371L88.161,40.371L90.184,40.371L92.207,40.371L94.23,40.371L96.253,40.371L98.276,40.371L100.3,40.371L102.32,40.371L104.34,40.371L106.37,40.371L108.39,40.371L110.41,40.371L112.44,40.371L114.46,40.371L116.48,40.371L118.51,40.371L120.53,40.371L122.55,40.371L124.57,70.529L126.6,40.371L128.62,40.371L130.64,40.371L132.67,40.371L134.69,40.371L136.71,40.371L138.73,40.371L140.76,40.371L142.78,40.371L144.8,40.371L146.83,40.371L148.85,40.371L150.87,40.371L152.9,40.371L154.92,70.529L156.94,40.371L158.96,40.371L160.99,40.371L163.01,40.371L165.03,40.371L167.06,40.371L169.08,40.371L171.1,40.371L173.12,40.371L175.15,40.371L177.17,40.371L179.19,40.371L181.22,40.371L183.24,40.371L185.26,40.371L187.29,40.371L189.31,40.371L191.33,40.371L193.35,40.371L195.38,40.371L197.4,70.529L199.42,40.371L201.45,40.371L203.47,40.371L205.49,40.371L207.52,40.371L209.54,40.371L211.56,40.371L213.58,40.371L215.61,40.371L217.63,40.371L219.65,40.371L221.68,40.371L223.7,40.371L225.72,40.371L227.74,40.371L229.77,40.371L231.79,40.371L233.81,40.371L235.84,40.371L237.86,70.529L239.88,40.371L241.91,40.371L243.93,40.371L245.95,40.371L247.97,40.371L250,40.371L252.02,40.371L254.04,40.371L256.07,40.371L258.09,40.371L260.11,40.371L262.13,40.371L264.16,40.371L266.18,40.371L268.2,40.371L270.23,40.371L272.25,40.371L274.27,40.371L276.3,40.371L278.32,40.371L280.34,40.371L282.36,40.371L284.39,40.371L286.41,40.371L288.43,40.371L290.46,40.371L292.48,40.371L294.5,40.371L296.52,40.371L298.55,40.371L300.57,40.371L302.59,40.371L304.62,40.371L306.64,40.371L308.66,40.371L310.69,40.371L312.71,40.371L314.73,40.371L316.75,40.371L318.78,70.529L320.8,40.371L322.82,40.371L324.85,40.371L326.87,40.371L328.89,40.371L330.92,40.371L332.94,40.371L334.96,40.371L336.98,40.371L339.01,40.371L341.03,40.371L343.05,40.371L345.08,40.371L347.1,40.371L349.12,40.371L351.14,40.371L353.17,40.371L355.19,40.371L357.21,40.371L359.24,40.371L361.26,40.371L363.28,40.371L365.31,40.371L367.33,40.371L369.35,40.371L371.37,40.371L373.4,40.371L375.42,40.371L377.44,40.371L379.47,40.371L381.49,70.529L383.51,40.371L385.53,40.371L387.56,40.371L389.58,40.371L391.6,40.371L393.63,40.371L395.65,40.371L397.67,40.371L399.7,40.371L401.72,40.371L403.74,40.371L405.76,40.371L407.79,40.371L409.81,40.371L411.83,40.371L413.86,40.371L415.88,40.371L417.9,40.371L419.92,40.371L421.95,40.371L423.97,40.371L425.99,40.371L428.02,40.371L430.04,40.371L432.06,40.371L434.09,40.371L436.11,40.371L438.13,40.371L440.15,40.371L442.18,40.371L444.2,40.371L446.22,40.371L448.25,40.371L450.27,40.371L452.29,40.371L454.31,40.371L456.34,40.371L458.36,40.371L460.38,40.371L462.41,40.371L464.43,40.371L466.45,40.371L468.48,40.371L470.5,40.371L472.52,40.371L474.54,40.371L476.57,40.371L478.59,40.371L480.61,40.371L482.64,40.371L484.66,40.371L486.68,40.371L488.71,40.371L490.73,40.371L492.75,40.371L494.77,40.371L496.8,40.371L498.82,40.371L500.84,40.371L502.87,40.371L504.89,40.371L506.91,40.371L508.93,40.371L510.96,40.371L512.98,40.371L515,40.371L517.03,40.371L519.05,40.371L521.07,40.371L523.1,40.371L525.12,40.371L527.14,40.371L529.16,40.371L531.19,40.371L533.21,40.371L535.23,40.371L537.26,40.371L539.28,40.371L541.3,40.371L543.32,40.371L545.35,40.371L547.37,40.371L549.39,40.371" style="fill:none;stroke:#FA8072" />
<path d="M45.679,42.811L47.702,42.802L49.725,42.793L51.748,42.785L53.771,42.777L55.794,42.769L57.817,42.761L59.84,42.754L61.863,42.747L63.886,42.74L65.909,42.733L67.932,42.727L69.955,42.72L71.978,42.714L74,44.526L76.023,170.52L78.046,223.53L80.069,378.47L82.092,294.57L84.115,226.6L86.138,186.37L88.161,153.49L90.184,187.96L92.207,231.25L94.23,214.35L96.253,210.48L98.276,198.98L100.3,312.1L102.32,231.89L104.34,172.54L106.37,139.35L108.39,116.26L110.41,105.63L112.44,97.39L114.46,90.753L116.48,129.96L118.51,130.24L120.53,134.86L122.55,252.15L124.57,213.32L126.6,164.7L128.62,135.55L130.64,114.25L132.67,128.1L134.69,144.36L136.71,142.96L138.73,141.17L140.76,141.17L142.78,241.27L144.8,181.16L146.83,136.82L148.85,112.15L150.87,95.774L152.9,87.324L154.92,94.01L156.94,90.299L158.96,85.73L160.99,81.514L163.01,77.791L165.03,74.534L167.06,121.34L169.08,123.25L171.1,127.83L173.12,235.83L175.15,175.42L177.17,131.23L179.19,107.09L181.22,91.57L183.24,95.785L185.26,101.33L187.29,103.01L189.31,101.2L191.33,108.03L193.35,208.88L195.38,155.97L197.4,137.58L199.42,117.21L201.45,100.72L203.47,132.08L205.49,131.95L207.52,132.53L209.54,224.48L211.56,169.71L213.58,129.42L215.61,106.89L217.63,91.894L219.65,91.123L221.68,88.985L223.7,85.859L225.72,82.067L227.74,77.934L229.77,73.865L231.79,70.129L233.81,66.823L235.84,63.949L237.86,77.083L239.88,76.542L241.91,74.205L243.93,71.702L245.95,69.344L247.97,67.204L250,65.294L252.02,63.598L254.04,62.097L256.07,60.765L258.09,59.58L260.11,58.521L262.13,57.57L264.16,56.713L266.18,55.935L268.2,55.226L270.23,54.577L272.25,53.98L274.27,53.428L276.3,52.916L278.32,52.44L280.34,51.995L282.36,51.578L284.39,51.186L286.41,50.817L288.43,50.469L290.46,50.14L292.48,72.404L294.5,73.551L296.52,91.343L298.55,231.98L300.57,166.2L302.59,118.14L304.62,93.048L306.64,79.449L308.66,76.056L310.69,76.029L312.71,76.282L314.73,73.698L316.75,88.601L318.78,247.67L320.8,189.41L322.82,142.56L324.85,116.5L326.87,99.129L328.89,90.26L330.92,83.656L332.94,78.439L334.96,74.17L336.98,70.605L339.01,67.593L341.03,65.027L343.05,62.828L345.08,60.934L347.1,59.295L349.12,57.869L351.14,56.623L353.17,55.53L355.19,54.565L357.21,53.709L359.24,52.947L361.26,52.264L363.28,51.651L365.31,51.097L367.33,50.595L369.35,50.138L371.37,49.72L373.4,49.336L375.42,48.983L377.44,48.657L379.47,65.451L381.49,131.48L383.51,156.66L385.53,290.71L387.56,218.31L389.58,163.85L391.6,133.68L393.63,112.41L395.65,125.94L397.67,139.89L399.7,142.24L401.72,140.67L403.74,142.74L405.76,255.88L407.79,190.06L409.81,141.31L411.83,114.52L413.86,97.202L415.88,88.08L417.9,81.444L419.92,76.299L421.95,72.148L423.97,68.721L425.99,65.849L428.02,63.421L430.04,61.352L432.06,59.579L434.09,58.053L436.11,56.731L438.13,55.582L440.15,54.577L442.18,52.916L444.2,52.225L446.22,51.61L448.25,51.059L450.27,50.563L452.29,50.116L454.31,49.71L456.34,49.341L458.36,49.003L460.38,48.692L462.41,48.407L464.43,48.142L466.45,47.897L468.48,47.669L470.5,47.456L472.52,47.257L474.54,47.07L476.57,46.895L478.59,46.729L480.61,46.573L482.64,46.425L484.66,46.285L486.68,46.152L488.71,46.025L490.73,45.905L492.75,45.79L494.77,45.681L496.8,45.576L498.82,45.476L500.84,45.381L502.87,45.289L504.89,45.201L506.91,45.117L508.93,45.036L510.96,44.958L512.98,44.883L515,44.811L517.03,44.742L519.05,44.676L521.07,44.611L523.1,44.55L525.12,44.49L527.14,44.433L529.16,44.378L531.19,44.324L533.21,44.273L535.23,44.224L537.26,44.176L539.28,44.13L541.3,44.085L543.32,44.042L545.35,44L547.37,43.96L549.39,43.922" style="fill:none;stroke:#A52A2A" />
<path d="M539.12,370.69L559.12,370.69" style="fill:none;stroke:#800080" />
<text x="505.77" y="-367.86" transform="scale(1, -1)"
	style="font-family:Liberation Sans;font-variant:normal;font-weight:normal;font-style:normal;font-size:12px">Spike</text>
<path d="M539.12,360.22L559.12,360.22" style="fill:none;stroke:#FFC0CB" />
<text x="510.46" y="-357.39" transform="scale(1, -1)"
	style="font-family:Liberation Sans;font-variant:normal;font-weight:normal;font-style:normal;font-size:12px">CaM</text>
<path d="M539.12,349.75L559.12,349.75" style="fill:none;stroke:#FA8072" />
<text x="487.1" y="-346.92" transform="scale(1, -1)"
	style="font-family:Liberation Sans;font-variant:normal;font-weight:normal;font-style:normal;font-size:12px">PreSpike</text>
<path d="M539.12,339.28L559.12,339.28" style="fill:none;stroke:#A52A2A" />
<text x="489.1" y="-336.45" transform="scale(1, -1)"
	style="font-family:Liberation Sans;font-variant:normal;font-weight:normal;font-style:normal;font-size:12px">PSD_Ca</text>
</g>
</svg>
