<?xml version="1.0"?>
<!-- Generated by SVGo and Plotinum VG -->
<svg width="559.12pt" height="391.88pt" viewBox="0 0 559.12 391.88"
	xmlns="http://www.w3.org/2000/svg"
	xmlns:xlink="http://www.w3.org/1999/xlink">
<g transform="scale(1, -1) translate(0, -391.88)">
<text x="234.54" y="-382.15" transform="scale(1, -1)"
	style="font-family:Liberation Sans;font-variant:normal;font-weight:normal;font-style:normal;font-size:12px">Kinase Time Plot</text>
<text x="288.28" y="-3.6797" transform="scale(1, -1)"
	style="font-family:Liberation Sans;font-variant:normal;font-weight:normal;font-style:normal;font-size:12px">Time</text>
<text x="36.706" y="-16.473" transform="scale(1, -1)"
	style="font-family:Liberation Sans;font-variant:normal;font-weight:normal;font-style:normal;font-size:10px">0.0</text>
<text x="267.34" y="-16.473" transform="scale(1, -1)"
	style="font-family:Liberation Sans;font-variant:normal;font-weight:normal;font-style:normal;font-size:10px">0.4</text>
<text x="497.98" y="-16.473" transform="scale(1, -1)"
	style="font-family:Liberation Sans;font-variant:normal;font-weight:normal;font-style:normal;font-size:10px">0.8</text>
<path d="M43.656,24.578L43.656,32.578" style="fill:none;stroke:#000000;stroke-width:0.5" />
<path d="M274.29,24.578L274.29,32.578" style="fill:none;stroke:#000000;stroke-width:0.5" />
<path d="M504.93,24.578L504.93,32.578" style="fill:none;stroke:#000000;stroke-width:0.5" />
<path d="M101.31,28.578L101.31,32.578" style="fill:none;stroke:#000000;stroke-width:0.5" />
<path d="M158.97,28.578L158.97,32.578" style="fill:none;stroke:#000000;stroke-width:0.5" />
<path d="M216.63,28.578L216.63,32.578" style="fill:none;stroke:#000000;stroke-width:0.5" />
<path d="M331.95,28.578L331.95,32.578" style="fill:none;stroke:#000000;stroke-width:0.5" />
<path d="M389.61,28.578L389.61,32.578" style="fill:none;stroke:#000000;stroke-width:0.5" />
<path d="M447.27,28.578L447.27,32.578" style="fill:none;stroke:#000000;stroke-width:0.5" />
<path d="M43.656,32.578L559.12,32.578" style="fill:none;stroke:#000000;stroke-width:0.5" />
<g transform="rotate(90)">
<text x="201.75" y="9.7266" transform="scale(1, -1)"
	style="font-family:Liberation Sans;font-variant:normal;font-weight:normal;font-style:normal;font-size:12px">Ca</text>
</g>
<text x="21.511" y="-37.852" transform="scale(1, -1)"
	style="font-family:Liberation Sans;font-variant:normal;font-weight:normal;font-style:normal;font-size:10px">0</text>
<text x="21.511" y="-178.11" transform="scale(1, -1)"
	style="font-family:Liberation Sans;font-variant:normal;font-weight:normal;font-style:normal;font-size:10px">6</text>
<text x="15.949" y="-318.37" transform="scale(1, -1)"
	style="font-family:Liberation Sans;font-variant:normal;font-weight:normal;font-style:normal;font-size:10px">12</text>
<path d="M29.851,40.371L37.851,40.371" style="fill:none;stroke:#000000;stroke-width:0.5" />
<path d="M29.851,180.63L37.851,180.63" style="fill:none;stroke:#000000;stroke-width:0.5" />
<path d="M29.851,320.89L37.851,320.89" style="fill:none;stroke:#000000;stroke-width:0.5" />
<path d="M33.851,110.5L37.851,110.5" style="fill:none;stroke:#000000;stroke-width:0.5" />
<path d="M33.851,250.76L37.851,250.76" style="fill:none;stroke:#000000;stroke-width:0.5" />
<path d="M37.851,40.371L37.851,378.47" style="fill:none;stroke:#000000;stroke-width:0.5" />
<path d="M43.656,40.371L44.233,40.371L44.809,40.371L45.386,40.371L45.963,40.371L46.539,40.371L47.116,40.371L47.692,40.371L48.269,40.371L48.846,40.371L49.422,40.371L49.999,40.371L50.575,120.74L51.152,117.42L51.728,116.26L52.305,115.77L52.882,115.4L53.458,58.073L54.035,213.47L54.611,222.97L55.188,220.67L55.765,289.06L56.341,209.03L56.918,162.18L57.494,143.52L58.071,98.629L58.648,88.401L59.224,108.84L59.801,178.09L60.377,186.39L60.954,185.13L61.53,242.57L62.107,176.85L62.684,138.58L63.26,123.23L63.837,58.998L64.413,146.22L64.99,151.71L65.567,153.23L66.143,208.98L66.72,151.33L67.296,118.14L67.873,104.72L68.449,82.665L69.026,91.735L69.603,94.475L70.179,94.699L70.756,93.499L71.332,91.17L71.909,88.026L72.486,58.429L73.062,130.78L73.639,135.75L74.215,139.4L74.792,198.46L75.369,141.94L75.945,109.65L76.522,96.556L77.098,72.466L77.675,76.649L78.251,69.322L78.828,115.35L79.405,108.32L79.981,113.39L80.558,167.31L81.134,119.59L81.711,92.644L82.288,81.604L82.864,70.451L83.441,68.103L84.017,65.929L84.594,63.96L85.171,45.761L85.747,83.263L86.324,85.612L86.9,93.697L87.477,152.24L88.053,137.55L88.63,107.95L89.207,95.917L89.783,72.528L90.36,79.863L90.936,66.749L91.513,114.37L92.09,108.34L92.666,112.43L93.243,161.68L93.819,116.91L94.396,91.607L94.972,81.216L95.549,70.438L96.126,67.891L96.702,65.569L97.279,63.505L97.855,61.667L98.432,60.036L99.009,44.652L99.585,80.456L100.16,82.655L100.74,90.915L101.31,149.01L101.89,103.82L102.47,78.734L103.04,68.371L103.62,56.166L104.2,59.27L104.77,51.351L105.35,78.351L105.93,70.497L106.5,79.161L107.08,133.91L107.66,93.295L108.23,70.954L108.81,61.652L109.39,55.1L109.96,53L110.54,51.567L111.12,50.474L111.69,49.583L112.27,48.831L112.85,48.187L113.42,47.63L114,47.145L114.58,74.4L115.15,72.326L115.73,70.763L116.31,69.361L116.88,68.07L117.46,66.873L118.04,65.76L118.61,64.722L119.19,63.751L119.77,62.84L120.34,61.983L120.92,61.175L121.5,60.411L122.07,59.686L122.65,58.997L123.23,44.251L123.8,92.102L124.38,94.942L124.96,104.68L125.53,175.24L126.11,119.68L126.68,88.626L127.26,75.933L127.84,60.453L128.41,64.518L128.99,54.673L129.57,88.268L130.14,79.251L130.72,88.917L131.3,152.29L131.87,104.45L132.45,77.945L133.03,67.017L133.6,58.988L134.18,56.565L134.76,54.822L135.33,53.448L135.91,52.308L136.49,51.337L137.06,50.501L137.64,49.777L138.22,74.542L138.79,72.322L139.37,70.628L139.95,69.113L140.52,67.729L141.1,66.46L141.68,65.291L142.25,64.212L142.83,63.212L143.41,62.281L143.98,61.413L144.56,60.599L145.14,59.835L145.71,59.113L146.29,58.431L146.87,57.783L147.44,57.167L148.02,56.58L148.6,56.019L149.17,55.481L149.75,54.966L150.32,54.472L150.9,53.997L151.48,43.207L152.05,78.633L152.63,80.734L153.21,93.431L153.78,172.02L154.36,114.25L154.94,82.207L155.51,69.094L156.09,56.207L156.67,58.464L157.24,51.096L157.82,79.358L158.4,80.881L158.97,149.89L159.55,100.52L160.13,73.351L160.7,62.137L161.28,54.983L161.86,52.681L162.43,51.195L163.01,50.1L163.59,49.224L164.16,48.493L164.74,47.869L165.32,47.331L165.89,46.863L166.47,46.454L167.05,46.095L167.62,45.777L168.2,45.494L168.78,45.241L169.35,45.012L169.93,44.805L170.51,44.615L171.08,44.441L171.66,44.279L172.24,44.129L172.81,43.988L173.39,43.856L173.96,43.731L174.54,43.612L175.12,43.499L175.69,43.392L176.27,43.289L176.85,43.191L177.42,43.096L178,43.006L178.58,42.918L179.15,42.834L179.73,42.753L180.31,42.675L180.88,42.6L181.46,42.527L182.04,42.456L182.61,42.388L183.19,42.323L183.77,42.259L184.34,42.197L184.92,42.138L185.5,42.081L186.07,42.025L186.65,41.971L187.23,41.919L187.8,41.869L188.38,41.82L188.96,41.773L189.53,41.727L190.11,41.683L190.69,41.64L191.26,41.599L191.84,41.559L192.42,41.52L192.99,41.483L193.57,41.447L194.15,41.412L194.72,41.378L195.3,41.345L195.88,41.313L196.45,41.282L197.03,41.253L197.6,41.224L198.18,41.196L198.76,41.169L199.33,41.143L199.91,41.118L200.49,41.094L201.06,41.07L201.64,41.047L202.22,41.025L202.79,41.004L203.37,40.983L203.95,40.963L204.52,40.944L205.1,40.925L205.68,40.907L206.25,40.889L206.83,40.872L207.41,40.856L207.98,40.84L208.56,40.825L209.14,40.81L209.71,40.795L210.29,40.782L210.87,40.768L211.44,40.755L212.02,40.743L212.6,40.73L213.17,40.719L213.75,40.707L214.33,40.696L214.9,40.686L215.48,40.665L216.06,40.656L216.63,40.646L217.21,40.637L217.79,40.628L218.36,40.62L218.94,40.612L219.52,40.604L220.09,40.596L220.67,40.589L221.25,40.582L221.82,40.575L222.4,40.568L222.97,40.562L223.55,40.555L224.13,40.549L224.7,40.544L225.28,40.408L225.86,40.837L226.43,40.863L227.01,60.331L227.59,154.13L228.16,94.78L228.74,177.9L229.32,158.47L229.89,109.11L230.47,123.28L231.05,101.86L231.62,196.23L232.2,191.12L232.78,189.41L233.35,246.76L233.93,180.15L234.51,141.29L235.08,125.72L235.66,104.52L236.24,100.95L236.81,96.632L237.39,92.383L237.97,52.163L238.54,135.52L239.12,140.74L239.7,144.28L240.27,204.96L240.85,146.41L241.43,112.9L242,99.334L242.58,74.567L243.16,83.288L243.73,67.017L244.31,118.84L244.89,111.88L245.46,117.09L246.04,207.1L246.61,152.1L247.19,120.27L247.77,107.4L248.34,55.541L248.92,125.48L249.5,129.87L250.07,132.15L250.65,182.04L251.23,132.51L251.8,104.2L252.38,92.667L252.96,70.85L253.53,79.52L254.11,63.397L254.69,110.08L255.26,104.14L255.84,108.52L256.42,179.76L256.99,132.72L257.57,105.71L258.15,94.7L258.72,81.251L259.3,77.978L259.88,49.221L260.45,104.04L261.03,107.49L261.61,111.67L262.18,160.92L262.76,116.31L263.34,91.12L263.91,80.769L264.49,63.88L265.07,70.808L265.64,56.822L266.22,94.323L266.8,88.194L267.37,94.018L267.95,142.81L268.53,102.39L269.1,79.856L269.68,94.687L270.25,81.456L270.83,50.574L271.41,106.53L271.98,110.06L272.56,113.32L273.14,159.28L273.71,116.24L274.29,91.869L274.87,81.85L275.44,64.655L276.02,72.343L276.6,57.039L277.17,95.447L277.75,90.025L278.33,95.227L278.9,141.83L279.48,102.43L280.06,80.424L280.63,71.297L281.21,63.079L281.79,60.331L282.36,58.162L282.94,56.399L283.52,54.932L284.09,53.695L284.67,52.643L285.25,51.743L285.82,50.968L286.4,50.295L286.98,49.708L287.55,49.192L288.13,48.734L288.71,48.325L289.28,47.957L289.86,47.624L290.44,47.318L291.01,47.038L291.59,46.777L292.17,46.535L292.74,46.308L293.32,41.579L293.89,57.982L294.47,58.948L295.05,72.238L295.62,144.2L296.2,95.021L296.78,68.126L297.35,56.999L297.93,49.157L298.51,49.612L299.08,45.001L299.66,62.606L300.24,53.607L300.81,65.944L301.39,131L301.97,87.272L302.54,63.493L303.12,53.586L303.7,98.399L304.27,92.914L304.85,88.244L305.43,84.044L306,80.329L306.58,77.081L307.16,74.259L307.73,71.808L308.31,69.676L308.89,67.815L309.46,66.182L310.04,64.742L310.62,63.463L311.19,62.319L311.77,61.289L312.35,60.354L312.92,59.499L313.5,58.713L314.08,57.986L314.65,43.97L315.23,91.317L315.81,94.114L316.38,103.95L316.96,174.61L317.54,119.16L318.11,88.171L318.69,75.503L319.26,60.373L319.84,65.349L320.42,53.375L320.99,87.072L321.57,78.661L322.15,88.515L322.72,152.53L323.3,104.4L323.88,77.749L324.45,66.76L325.03,58.881L325.61,56.21L326.18,54.32L326.76,52.868L327.34,51.695L327.91,50.721L328.49,49.9L329.07,48.295L329.64,127.69L330.22,136.27L330.8,194.54L331.37,139.18L331.95,107.59L332.53,94.761L333.1,72.251L333.68,82.598L334.26,62.344L334.83,112.19L335.41,106L335.99,111.55L336.56,166.79L337.14,118.7L337.72,91.593L338.29,80.484L338.87,69.998L339.45,66.674L340.02,63.908L340.6,61.605L341.18,59.667L341.75,58.025L342.33,56.627L342.9,55.43L343.48,54.399L344.06,53.506L344.63,52.726L345.21,52.041L345.79,51.433L346.36,50.891L346.94,50.403L347.52,49.96L348.09,49.555L348.67,49.183L349.25,48.838L349.82,48.516L350.4,48.215L350.98,47.931L351.55,47.663L352.13,47.409L352.71,47.167L353.28,46.935L353.86,46.714L354.44,46.502L355.01,46.298L355.59,46.102L356.17,45.913L356.74,45.732L357.32,45.556L357.9,45.387L358.47,45.224L359.05,45.066L359.63,44.913L360.2,44.766L360.78,44.623L361.36,44.485L361.93,44.352L362.51,44.223L363.09,44.098L363.66,43.978L364.24,43.861L364.82,43.748L365.39,43.638L365.97,43.533L366.54,43.43L367.12,43.331L367.7,43.235L368.27,43.142L368.85,43.053L369.43,42.966L370,42.882L370.58,42.8L371.16,42.721L371.73,42.645L372.31,42.571L372.89,42.5L373.46,42.431L374.04,42.364L374.62,42.299L375.19,42.237L375.77,42.176L376.35,42.117L376.92,42.061L377.5,42.006L378.08,41.953L378.65,41.901L379.23,41.851L379.81,41.803L380.38,41.757L380.96,41.711L381.54,41.668L382.11,41.626L382.69,41.585L383.27,41.545L383.84,41.507L384.42,41.47L385,41.434L385.57,41.4L386.15,41.366L386.73,41.334L387.3,41.272L387.88,41.242L388.46,41.214L389.03,41.187L389.61,41.16L390.19,41.134L390.76,41.109L391.34,41.085L391.91,41.062L392.49,41.039L393.07,41.017L393.64,40.996L394.22,40.976L394.8,40.956L395.37,40.937L395.95,40.919L396.53,40.901L397.1,40.883L397.68,40.867L398.26,40.85L398.83,40.835L399.41,51.216L399.99,186.84L400.56,194.88L401.14,195.79L401.72,267.38L402.29,190.99L402.87,146.65L403.45,128.92L404.02,91.478L404.6,102.17L405.18,84.794L405.75,157.66L406.33,150.46L406.91,153.58L407.48,216.47L408.06,154.56L408.64,119.01L409.21,104.67L409.79,88.105L410.37,84.865L410.94,81.338L411.52,78.039L412.1,75.036L412.67,85.89L413.25,82.424L413.83,79.644L414.4,48.826L414.98,126.75L415.55,131.49L416.13,136.64L416.71,201.04L417.28,142L417.86,108.38L418.44,94.755L419.01,71.833L419.59,80.263L420.17,63.941L420.74,112.84L421.32,105.29L421.9,111.68L422.47,170.65L423.05,120.34L423.63,92.018L424.2,80.426L424.78,69.639L425.36,66.675L425.93,46.601L426.51,84.257L427.09,86.624L427.66,133.92L428.24,187.1L428.82,135.25L429.39,105.62L429.97,93.576L430.55,71.45L431.12,80.94L431.7,62.94L432.28,111.16L432.85,104.98L433.43,109.82L434.01,161.18L434.58,115.75L435.16,90.138L435.74,79.618L436.31,69.372L436.89,47.659L437.47,85.611L438.04,87.993L438.62,94.652L439.19,147.37L439.77,104.51L440.35,80.618L440.92,70.741L441.5,73.835L442.08,85.152L442.65,63.708L443.23,115.04L443.81,110.35L444.38,113.66L444.96,159.97L445.54,116.64L446.11,92.115L446.69,82.032L447.27,71.522L447.84,68.234L448.42,65.399L449,63.002L449.57,60.963L450.15,59.226L450.73,57.739L451.3,56.463L451.88,55.361L452.46,54.405L453.03,53.571L453.61,52.836L454.19,52.186L454.76,51.604L455.34,51.081L455.92,50.607L456.49,50.174L457.07,49.775L457.65,49.406L458.22,49.062L458.8,48.74L459.38,48.437L459.95,48.15L460.53,41.954L461.11,63.564L461.68,64.837L462.26,77.881L462.83,151.22L463.41,99.981L463.99,71.84L464.56,60.234L465.14,51.092L465.72,94.028L466.29,68.005L466.87,129.41L467.45,123.81L468.02,128.04L468.6,184.65L469.18,132.09L469.75,102.2L470.33,90.028L470.91,77.387L471.48,73.703L472.06,70.409L472.64,67.576L473.21,65.148L473.79,63.068L474.37,61.283L474.94,59.748L475.52,58.422L476.1,57.27L476.67,56.263L477.25,55.377L477.83,54.591L478.4,53.89L478.98,53.258L479.56,52.685L480.13,52.162L480.71,51.68L481.29,51.234L481.86,50.819L482.44,50.43L483.02,50.064L483.59,49.718L484.17,49.39L484.75,49.078L485.32,48.78L485.9,48.496L486.48,48.223L487.05,47.96L487.63,47.708L488.2,41.87L488.78,62.181L489.36,133.79L489.93,140.02L490.51,210.59L491.09,147.18L491.66,111.09L492.24,96.497L492.82,72.799L493.39,81.886L493.97,64.12L494.55,115.08L495.12,106.93L495.7,114.09L496.28,177.47L496.85,124.04L497.43,93.953L498.01,81.669L498.58,70.49L499.16,67.363L499.74,64.679L500.31,62.409L500.89,60.466L501.47,58.796L502.04,56.114L502.62,55.036L503.2,54.097L503.77,53.275L504.35,52.55L504.93,51.908L505.5,51.333L506.08,50.816L506.66,50.348L507.23,49.919L507.81,49.526L508.39,49.162L508.96,48.823L509.54,48.505L510.12,48.207L510.69,47.926L511.27,47.659L511.84,47.405L512.42,47.163L513,46.931L513.57,46.709L514.15,46.497L514.73,46.292L515.3,46.096L515.88,45.906L516.46,45.724L517.03,45.548L517.61,45.378L518.19,45.214L518.76,45.055L519.34,44.902L519.92,44.754L520.49,44.611L521.07,44.473L521.65,44.339L522.22,44.21L522.8,44.085L523.38,43.964L523.95,43.847L524.53,43.733L525.11,43.624L525.68,43.518L526.26,43.415L526.84,43.316L527.41,43.22L527.99,43.127L528.57,43.038L529.14,42.951L529.72,42.867L530.3,42.785L530.87,42.707L531.45,42.63L532.03,42.557L532.6,42.486L533.18,42.417L533.76,42.35L534.33,42.285L534.91,42.223L535.48,42.162L536.06,42.104L536.64,42.047L537.21,41.993L537.79,41.94L538.37,41.889L538.94,41.839L539.52,41.791L540.1,41.745L540.67,41.7L541.25,41.656L541.83,41.614L542.4,41.574L542.98,41.534L543.56,41.496L544.13,41.46L544.71,41.424L545.29,41.39L545.86,41.356L546.44,41.324L547.02,41.293L547.59,41.263L548.17,41.234L548.75,41.205L549.32,41.178L549.9,41.152L550.48,41.126L551.05,41.101L551.63,41.077L552.21,41.054L552.78,41.032L553.36,41.01L553.94,40.989L554.51,40.969L555.09,40.95L555.67,40.931L556.24,40.912L556.82,40.895L557.4,40.877L557.97,40.861L558.55,40.845L559.12,40.829" style="fill:none;stroke:#FA8072" />
<path d="M43.656,41.54L44.233,41.54L44.809,41.54L45.386,41.54L45.963,41.54L46.539,41.54L47.116,41.54L47.692,41.54L48.269,41.54L48.846,41.54L49.422,41.54L49.999,41.54L50.575,83.619L51.152,107.82L51.728,122.67L52.305,131.96L52.882,137.44L53.458,140.2L54.035,344.22L54.611,355.67L55.188,309.64L55.765,378.47L56.341,284.63L56.918,215.32L57.494,174.47L58.071,142.02L58.648,172.35L59.224,208.02L59.801,187.34L60.377,214.75L60.954,200.66L61.53,277.69L62.107,211.48L62.684,162.32L63.26,134.02L63.837,112.7L64.413,153.76L64.99,152.26L65.567,146.35L66.143,225.99L66.72,172.4L67.296,132.33L67.873,109.65L68.449,93.917L69.026,93.146L69.603,91.039L70.179,88.066L70.756,84.552L71.332,80.714L71.909,76.815L72.486,91.258L73.062,128.27L73.639,131.53L74.215,130.96L74.792,214.07L75.369,163.09L75.945,125.4L76.522,104.41L77.098,89.925L77.675,97.71L78.251,109.77L78.828,105.88L79.405,104.4L79.981,106.56L80.558,182.5L81.134,139.73L81.711,108.01L82.288,90.349L82.864,78.927L83.441,72.974L84.017,68.665L84.594,65.29L85.171,62.526L85.747,78.303L86.324,78.32L86.9,85.734L87.477,167.26L88.053,149.79L88.63,120.18L89.207,101.96L89.783,88.53L90.36,97.447L90.936,108.15L91.513,107.7L92.09,106.72L92.666,107.56L93.243,177.04L93.819,136.39L94.396,106.53L94.972,89.797L95.549,78.672L96.126,72.868L96.702,68.603L97.279,65.245L97.855,62.493L98.432,60.186L99.009,58.227L99.585,75.654L100.16,76.009L100.74,83.665L101.31,164.4L101.89,124.29L102.47,94.995L103.04,79.133L103.62,69.824L104.2,69.048L104.77,70.12L105.35,70.361L105.93,68.719L106.5,76.652L107.08,152.27L107.66,115.96L108.23,89.22L108.81,74.655L109.39,66.379L109.96,61.44L110.54,58.147L111.12,55.725L111.69,53.831L112.27,52.29L112.85,51.007L113.42,49.924L114,49.002L114.58,61.195L115.15,62.785L115.73,62.537L116.31,61.828L116.88,60.972L117.46,60.08L118.04,59.202L118.61,58.362L119.19,57.569L119.77,56.825L120.34,56.129L120.92,55.477L121.5,54.868L122.07,54.296L122.65,53.759L123.23,53.254L123.8,83.569L124.38,85.144L124.96,94.079L125.53,191.75L126.11,142.39L126.68,106.36L127.26,87.132L127.84,75.722L128.41,76.35L128.99,78.985L129.57,79.534L130.14,77.865L130.72,86.261L131.3,174.36L131.87,131.09L132.45,98.941L133.03,81.561L133.6,71.551L134.18,65.744L134.76,61.83L135.33,58.928L135.91,56.646L136.49,54.788L137.06,53.241L137.64,51.936L138.22,63.098L138.79,63.992L139.37,63.264L139.95,62.217L140.52,61.118L141.1,60.047L141.68,59.037L142.25,58.096L142.83,57.226L143.41,56.424L143.98,55.683L144.56,54.999L145.14,54.364L145.71,53.775L146.29,53.227L146.87,52.715L147.44,52.235L148.02,51.785L148.6,51.362L149.17,50.963L149.75,50.587L150.32,50.231L150.9,49.894L151.48,49.574L152.05,70.71L152.63,71.818L153.21,84.521L153.78,192.47L154.36,141.13L154.94,103.49L155.51,83.711L156.09,72.708L156.67,70.931L157.24,71.806L157.82,71.844L158.4,80.669L158.97,176L159.55,131.16L160.13,97.683L160.7,79.792L161.28,69.943L161.86,64.079L162.43,60.231L163.01,57.428L163.59,55.251L164.16,53.49L164.74,52.031L165.32,50.805L165.89,49.765L166.47,48.876L167.05,48.115L167.62,47.458L168.2,46.891L168.78,46.399L169.35,45.971L169.93,45.597L170.51,45.269L171.08,44.982L171.66,44.728L172.24,44.504L172.81,44.306L173.39,44.129L173.96,43.972L174.54,43.831L175.12,43.705L175.69,43.592L176.27,43.49L176.85,43.397L177.42,43.313L178,43.237L178.58,43.167L179.15,43.103L179.73,43.045L180.31,42.991L180.88,42.942L181.46,42.896L182.04,42.853L182.61,42.814L183.19,42.777L183.77,42.742L184.34,42.71L184.92,42.68L185.5,42.652L186.07,42.625L186.65,42.6L187.23,42.576L187.8,42.553L188.38,42.532L188.96,42.512L189.53,42.493L190.11,42.474L190.69,42.457L191.26,42.44L191.84,42.425L192.42,42.409L192.99,42.395L193.57,42.381L194.15,42.368L194.72,42.355L195.3,42.343L195.88,42.331L196.45,42.32L197.03,42.309L197.6,42.299L198.18,42.289L198.76,42.28L199.33,42.27L199.91,42.262L200.49,42.253L201.06,42.245L201.64,42.237L202.22,42.229L202.79,42.222L203.37,42.215L203.95,42.208L204.52,42.202L205.1,42.196L205.68,42.189L206.25,42.184L206.83,42.178L207.41,42.173L207.98,42.167L208.56,42.162L209.14,42.157L209.71,42.153L210.29,42.148L210.87,42.144L211.44,42.14L212.02,42.136L212.6,42.132L213.17,42.128L213.75,42.124L214.33,42.121L214.9,42.118L215.48,42.111L216.06,42.108L216.63,42.105L217.21,42.102L217.79,42.1L218.36,42.097L218.94,42.095L219.52,42.092L220.09,42.09L220.67,42.088L221.25,42.085L221.82,42.083L222.4,42.081L222.97,42.079L223.55,42.077L224.13,42.076L224.7,42.074L225.28,42.072L225.86,43.155L226.43,43.262L227.01,63.344L227.59,187.92L228.16,134.61L228.74,118.83L229.32,99.95L229.89,86.29L230.47,91.772L231.05,101.22L231.62,99.27L232.2,97.709L232.78,104.54L233.35,203.71L233.93,152.2L234.51,113.66L235.08,92.849L235.66,80.292L236.24,73.554L236.81,68.848L237.39,65.243L237.97,62.334L238.54,76.283L239.12,76.045L239.7,86.136L240.27,182.88L240.85,136.22L241.43,101.5L242,82.93L242.58,72.428L243.16,70.348L243.73,70.911L244.31,70.432L244.89,68.369L245.46,78.012L246.04,192.6L246.61,151.32L247.19,117.89L247.77,98.995L248.34,85.919L248.92,106.75L249.5,106.31L250.07,108.31L250.65,184.46L251.23,141L251.8,108.83L252.38,90.97L252.96,79.414L253.53,81.822L254.11,85.381L254.69,86.097L255.26,84.531L255.84,89.416L256.42,183.62L256.99,145.18L257.57,114.82L258.15,97.437L258.72,84.949L259.3,78.675L259.88,73.842L260.45,99.19L261.03,99.534L261.61,101.95L262.18,173.31L262.76,132.92L263.34,103.36L263.91,86.941L264.49,76.313L265.07,78.545L265.64,81.169L266.22,83.043L266.8,81.708L267.37,86.631L267.95,156.32L268.53,119.96L269.1,93.353L269.68,94.113L270.25,84.588L270.83,78.873L271.41,106.13L271.98,106.65L272.56,107.17L273.14,173.55L273.71,133.96L274.29,105.06L274.87,88.859L275.44,77.986L276.02,81.312L276.6,84.256L277.17,87.054L277.75,85.901L278.33,89.643L278.9,156.06L279.48,120.28L280.06,94.185L280.63,79.692L281.21,70.641L281.79,65.418L282.36,61.743L282.94,58.961L283.52,56.752L284.09,54.946L284.67,53.439L285.25,52.167L285.82,51.083L286.4,50.154L286.98,49.353L287.55,48.66L288.13,48.056L288.71,47.529L289.28,47.066L289.86,46.658L290.44,46.298L291.01,45.977L291.59,45.691L292.17,45.435L292.74,45.205L293.32,44.998L293.89,52.742L294.47,53.081L295.05,67.317L295.62,165.9L296.2,121.48L296.78,89.454L297.35,72.803L297.93,64.222L298.51,60.164L299.08,58.614L299.66,58.582L300.24,56.698L300.81,68.679L301.39,157.86L301.97,117.78L302.54,88.165L303.12,72.428L303.7,80.513L304.27,76.94L304.85,72.727L305.43,69.071L306,65.985L306.58,63.372L307.16,61.147L307.73,59.244L308.31,57.608L308.89,56.194L309.46,54.968L310.04,53.899L310.62,52.961L311.19,52.136L311.77,51.405L312.35,50.755L312.92,50.173L313.5,49.65L314.08,49.179L314.65,48.751L315.23,66.159L315.81,66.919L316.38,79.322L316.96,180.79L317.54,132.85L318.11,97.989L318.69,79.697L319.26,69.671L319.84,67.32L320.42,66.975L320.99,67.744L321.57,65.913L322.15,76.74L322.72,168.12L323.3,125.49L323.88,93.871L324.45,76.997L325.03,67.815L325.61,62.26L326.18,58.624L326.76,55.995L327.34,53.967L327.91,52.336L328.49,50.989L329.07,60.996L329.64,101.73L330.22,110.51L330.8,197.7L331.37,149.16L331.95,113.62L332.53,94.238L333.1,81.708L333.68,85.291L334.26,88.605L334.83,91.907L335.41,90.637L335.99,95.866L336.56,176.88L337.14,134.05L337.72,102.46L338.29,85.192L338.87,74.639L339.45,68.603L340.02,64.378L340.6,61.191L341.18,58.669L341.75,56.612L342.33,54.901L342.9,53.46L343.48,52.236L344.06,51.189L344.63,50.288L345.21,49.51L345.79,48.834L346.36,48.245L346.94,47.728L347.52,47.274L348.09,46.872L348.67,46.516L349.25,46.198L349.82,45.915L350.4,45.66L350.98,45.43L351.55,45.222L352.13,45.034L352.71,44.862L353.28,44.705L353.86,44.561L354.44,44.429L355.01,44.307L355.59,44.195L356.17,44.09L356.74,43.993L357.32,43.903L357.9,43.818L358.47,43.739L359.05,43.665L359.63,43.595L360.2,43.53L360.78,43.468L361.36,43.41L361.93,43.355L362.51,43.303L363.09,43.253L363.66,43.207L364.24,43.162L364.82,43.12L365.39,43.079L365.97,43.041L366.54,43.004L367.12,42.97L367.7,42.936L368.27,42.904L368.85,42.874L369.43,42.845L370,42.817L370.58,42.79L371.16,42.765L371.73,42.74L372.31,42.717L372.89,42.695L373.46,42.673L374.04,42.652L374.62,42.633L375.19,42.614L375.77,42.595L376.35,42.578L376.92,42.561L377.5,42.545L378.08,42.529L378.65,42.514L379.23,42.5L379.81,42.486L380.38,42.473L380.96,42.46L381.54,42.448L382.11,42.436L382.69,42.425L383.27,42.414L383.84,42.404L384.42,42.394L385,42.384L385.57,42.375L386.15,42.366L386.73,42.357L387.3,42.341L387.88,42.333L388.46,42.326L389.03,42.319L389.61,42.312L390.19,42.305L390.76,42.299L391.34,42.293L391.91,42.287L392.49,42.281L393.07,42.276L393.64,42.271L394.22,42.266L394.8,42.261L395.37,42.256L395.95,42.252L396.53,42.248L397.1,42.244L397.68,42.24L398.26,42.236L398.83,42.232L399.41,61.484L399.99,161.34L400.56,188.16L401.14,191.6L401.72,298.1L402.29,226.16L402.87,171.55L403.45,140.53L404.02,117.21L404.6,136L405.18,157.4L405.75,152.63L406.33,150.17L406.91,146.26L407.48,238.4L408.06,178.79L408.64,134.57L409.21,110.1L409.79,93.712L410.37,85.618L410.94,79.544L411.52,74.753L412.1,70.848L412.67,77.754L413.25,76.085L413.83,73.488L414.4,70.978L414.98,118.3L415.55,120.54L416.13,123.09L416.71,216.54L417.28,162.54L417.86,122.73L418.44,100.99L419.01,86.801L419.59,91.705L420.17,97.599L420.74,98.921L421.32,97.383L421.9,102.12L422.47,187.41L423.05,141.49L423.63,107.47L424.2,88.891L424.78,77.442L425.36,71.11L425.93,66.651L426.51,79.825L427.09,79.272L427.66,114.77L428.24,198.77L428.82,152.36L429.39,117.77L429.97,98.494L430.55,85.37L431.12,90.879L431.7,96.213L432.28,98.815L432.85,97.578L433.43,100.67L434.01,175.18L434.58,133.8L435.16,103.4L435.74,86.605L436.31,75.943L436.89,70.002L437.47,82.853L438.04,82.176L438.62,87.985L439.19,163.5L439.77,124.63L440.35,95.974L440.92,80.258L441.5,83.081L442.08,92.587L442.65,98.952L443.23,104.07L443.81,103.44L444.38,104.56L444.96,172.1L445.54,132.53L446.11,103.69L446.69,87.577L447.27,76.918L447.84,71.017L448.42,66.718L449,63.396L449.57,60.725L450.15,58.525L450.73,56.684L451.3,55.126L451.88,53.797L452.46,52.658L453.03,51.674L453.61,50.821L454.19,50.078L454.76,49.426L455.34,48.853L455.92,48.346L456.49,47.895L457.07,47.493L457.65,47.132L458.22,46.808L458.8,46.515L459.38,46.248L459.95,46.006L460.53,45.784L461.11,56.354L461.68,56.85L462.26,70.888L462.83,172.05L463.41,125.85L463.99,92.454L464.56,75.072L465.14,65.968L465.72,85.696L466.29,95.085L466.87,101.45L467.45,101.13L468.02,105.4L468.6,190.25L469.18,143.77L469.75,109.53L470.33,90.837L470.91,79.058L471.48,72.558L472.06,67.912L472.64,64.354L473.21,61.51L473.79,59.174L474.37,57.223L474.94,55.575L475.52,54.172L476.1,52.969L476.67,51.933L477.25,51.035L477.83,50.254L478.4,49.571L478.98,48.971L479.56,48.441L480.13,47.972L480.71,47.553L481.29,47.179L481.86,46.843L482.44,46.54L483.02,46.266L483.59,46.017L484.17,45.789L484.75,45.581L485.32,45.39L485.9,45.215L486.48,45.052L487.05,44.902L487.63,44.763L488.2,44.633L488.78,52.702L489.36,111.79L489.93,135.84L490.51,241.81L491.09,185.2L491.66,142.16L492.24,118.06L492.82,100.51L493.39,112.94L493.97,123.98L494.55,127.78L495.12,126.61L495.7,126.67L496.28,214.21L496.85,161.47L497.43,122.46L498.01,100.95L498.58,86.823L499.16,79.366L499.74,73.893L500.31,69.649L500.89,66.236L501.47,63.43L502.04,59.117L502.62,57.443L503.2,56.012L503.77,54.782L504.35,53.72L504.93,52.797L505.5,51.992L506.08,51.285L506.66,50.661L507.23,50.108L507.81,49.615L508.39,49.174L508.96,48.776L509.54,48.418L510.12,48.092L510.69,47.795L511.27,47.522L511.84,47.272L512.42,47.041L513,46.828L513.57,46.629L514.15,46.444L514.73,46.271L515.3,46.109L515.88,45.956L516.46,45.812L517.03,45.677L517.61,45.548L518.19,45.427L518.76,45.311L519.34,45.201L519.92,45.097L520.49,44.997L521.07,44.901L521.65,44.81L522.22,44.723L522.8,44.639L523.38,44.559L523.95,44.482L524.53,44.408L525.11,44.337L525.68,44.269L526.26,44.203L526.84,44.14L527.41,44.079L527.99,44.02L528.57,43.963L529.14,43.909L529.72,43.856L530.3,43.805L530.87,43.756L531.45,43.709L532.03,43.663L532.6,43.619L533.18,43.576L533.76,43.535L534.33,43.495L534.91,43.456L535.48,43.419L536.06,43.383L536.64,43.348L537.21,43.314L537.79,43.282L538.37,43.25L538.94,43.22L539.52,43.19L540.1,43.161L540.67,43.134L541.25,43.107L541.83,43.081L542.4,43.056L542.98,43.032L543.56,43.008L544.13,42.985L544.71,42.963L545.29,42.942L545.86,42.921L546.44,42.901L547.02,42.882L547.59,42.863L548.17,42.845L548.75,42.827L549.32,42.81L549.9,42.794L550.48,42.778L551.05,42.762L551.63,42.747L552.21,42.732L552.78,42.718L553.36,42.705L553.94,42.691L554.51,42.679L555.09,42.666L555.67,42.654L556.24,42.643L556.82,42.631L557.4,42.62L557.97,42.61L558.55,42.599L559.12,42.59" style="fill:none;stroke:#A52A2A" />
<path d="M539.12,370.69L559.12,370.69" style="fill:none;stroke:#FA8072" />
<text x="520.45" y="-367.86" transform="scale(1, -1)"
	style="font-family:Liberation Sans;font-variant:normal;font-weight:normal;font-style:normal;font-size:12px">Ca</text>
<path d="M539.12,360.22L559.12,360.22" style="fill:none;stroke:#A52A2A" />
<text x="489.1" y="-357.39" transform="scale(1, -1)"
	style="font-family:Liberation Sans;font-variant:normal;font-weight:normal;font-style:normal;font-size:12px">PSD_Ca</text>
</g>
</svg>
