<?xml version="1.0"?>
<!-- Generated by SVGo and Plotinum VG -->
<svg width="559.12pt" height="391.88pt" viewBox="0 0 559.12 391.88"
	xmlns="http://www.w3.org/2000/svg"
	xmlns:xlink="http://www.w3.org/1999/xlink">
<g transform="scale(1, -1) translate(0, -391.88)">
<text x="234.54" y="-382.15" transform="scale(1, -1)"
	style="font-family:Liberation Sans;font-variant:normal;font-weight:normal;font-style:normal;font-size:12px">Kinase Time Plot</text>
<text x="288.28" y="-3.6797" transform="scale(1, -1)"
	style="font-family:Liberation Sans;font-variant:normal;font-weight:normal;font-style:normal;font-size:12px">Time</text>
<text x="33.925" y="-16.473" transform="scale(1, -1)"
	style="font-family:Liberation Sans;font-variant:normal;font-weight:normal;font-style:normal;font-size:10px">0.00</text>
<text x="466.37" y="-16.473" transform="scale(1, -1)"
	style="font-family:Liberation Sans;font-variant:normal;font-weight:normal;font-style:normal;font-size:10px">0.25</text>
<path d="M43.656,24.578L43.656,32.578" style="fill:none;stroke:#000000;stroke-width:0.5" />
<path d="M476.1,24.578L476.1,32.578" style="fill:none;stroke:#000000;stroke-width:0.5" />
<path d="M130.14,28.578L130.14,32.578" style="fill:none;stroke:#000000;stroke-width:0.5" />
<path d="M216.63,28.578L216.63,32.578" style="fill:none;stroke:#000000;stroke-width:0.5" />
<path d="M303.12,28.578L303.12,32.578" style="fill:none;stroke:#000000;stroke-width:0.5" />
<path d="M389.61,28.578L389.61,32.578" style="fill:none;stroke:#000000;stroke-width:0.5" />
<path d="M43.656,32.578L559.12,32.578" style="fill:none;stroke:#000000;stroke-width:0.5" />
<g transform="rotate(90)">
<text x="194.41" y="9.7266" transform="scale(1, -1)"
	style="font-family:Liberation Sans;font-variant:normal;font-weight:normal;font-style:normal;font-size:12px">Spike</text>
</g>
<text x="21.511" y="-37.852" transform="scale(1, -1)"
	style="font-family:Liberation Sans;font-variant:normal;font-weight:normal;font-style:normal;font-size:10px">0</text>
<text x="21.511" y="-133.72" transform="scale(1, -1)"
	style="font-family:Liberation Sans;font-variant:normal;font-weight:normal;font-style:normal;font-size:10px">4</text>
<text x="21.511" y="-229.6" transform="scale(1, -1)"
	style="font-family:Liberation Sans;font-variant:normal;font-weight:normal;font-style:normal;font-size:10px">8</text>
<text x="15.949" y="-325.47" transform="scale(1, -1)"
	style="font-family:Liberation Sans;font-variant:normal;font-weight:normal;font-style:normal;font-size:10px">12</text>
<path d="M29.851,40.371L37.851,40.371" style="fill:none;stroke:#000000;stroke-width:0.5" />
<path d="M29.851,136.24L37.851,136.24" style="fill:none;stroke:#000000;stroke-width:0.5" />
<path d="M29.851,232.12L37.851,232.12" style="fill:none;stroke:#000000;stroke-width:0.5" />
<path d="M29.851,327.99L37.851,327.99" style="fill:none;stroke:#000000;stroke-width:0.5" />
<path d="M33.851,64.339L37.851,64.339" style="fill:none;stroke:#000000;stroke-width:0.5" />
<path d="M33.851,88.308L37.851,88.308" style="fill:none;stroke:#000000;stroke-width:0.5" />
<path d="M33.851,112.28L37.851,112.28" style="fill:none;stroke:#000000;stroke-width:0.5" />
<path d="M33.851,160.21L37.851,160.21" style="fill:none;stroke:#000000;stroke-width:0.5" />
<path d="M33.851,184.18L37.851,184.18" style="fill:none;stroke:#000000;stroke-width:0.5" />
<path d="M33.851,208.15L37.851,208.15" style="fill:none;stroke:#000000;stroke-width:0.5" />
<path d="M33.851,256.09L37.851,256.09" style="fill:none;stroke:#000000;stroke-width:0.5" />
<path d="M33.851,280.05L37.851,280.05" style="fill:none;stroke:#000000;stroke-width:0.5" />
<path d="M33.851,304.02L37.851,304.02" style="fill:none;stroke:#000000;stroke-width:0.5" />
<path d="M33.851,351.96L37.851,351.96" style="fill:none;stroke:#000000;stroke-width:0.5" />
<path d="M33.851,375.93L37.851,375.93" style="fill:none;stroke:#000000;stroke-width:0.5" />
<path d="M37.851,40.371L37.851,378.47" style="fill:none;stroke:#000000;stroke-width:0.5" />
<path d="M43.656,40.371L45.386,40.371L47.116,40.371L48.846,40.371L50.575,40.371L52.305,40.371L54.035,40.371L55.765,40.371L57.494,40.371L59.224,40.371L60.954,40.371L62.684,40.371L64.413,40.371L66.143,40.371L67.873,40.371L69.603,40.371L71.332,40.371L73.062,40.371L74.792,40.371L76.522,40.371L78.251,40.371L79.981,40.371L81.711,64.339L83.441,40.371L85.171,40.371L86.9,40.371L88.63,40.371L90.36,40.371L92.09,40.371L93.819,40.371L95.549,40.371L97.279,40.371L99.009,64.339L100.74,40.371L102.47,40.371L104.2,40.371L105.93,40.371L107.66,40.371L109.39,40.371L111.12,40.371L112.85,40.371L114.58,40.371L116.31,64.339L118.04,40.371L119.77,40.371L121.5,40.371L123.23,40.371L124.96,40.371L126.68,40.371L128.41,40.371L130.14,40.371L131.87,40.371L133.6,64.339L135.33,40.371L137.06,40.371L138.79,40.371L140.52,40.371L142.25,40.371L143.98,40.371L145.71,40.371L147.44,40.371L149.17,40.371L150.9,40.371L152.63,40.371L154.36,64.339L156.09,40.371L157.82,40.371L159.55,40.371L161.28,40.371L163.01,40.371L164.74,40.371L166.47,40.371L168.2,40.371L169.93,40.371L171.66,64.339L173.39,40.371L175.12,40.371L176.85,40.371L178.58,40.371L180.31,40.371L182.04,40.371L183.77,40.371L185.5,40.371L187.23,40.371L188.96,40.371L190.69,40.371L192.42,40.371L194.15,64.339L195.88,40.371L197.6,40.371L199.33,40.371L201.06,40.371L202.79,40.371L204.52,40.371L206.25,40.371L207.98,40.371L209.71,40.371L211.44,64.339L213.17,40.371L214.9,40.371L216.63,40.371L218.36,40.371L220.09,40.371L221.82,40.371L223.55,40.371L225.28,40.371L227.01,40.371L228.74,40.371L230.47,40.371L232.2,40.371L233.93,40.371L235.66,40.371L237.39,40.371L239.12,40.371L240.85,40.371L242.58,40.371L244.31,40.371L246.04,40.371L247.77,40.371L249.5,40.371L251.23,40.371L252.96,40.371L254.69,40.371L256.42,40.371L258.15,40.371L259.88,40.371L261.61,40.371L263.34,40.371L265.07,40.371L266.8,40.371L268.53,40.371L270.25,40.371L271.98,40.371L273.71,40.371L275.44,64.339L277.17,40.371L278.9,40.371L280.63,40.371L282.36,40.371L284.09,40.371L285.82,40.371L287.55,40.371L289.28,40.371L291.01,40.371L292.74,64.339L294.47,40.371L296.2,40.371L297.93,40.371L299.66,40.371L301.39,40.371L303.12,40.371L304.85,40.371L306.58,40.371L308.31,40.371L310.04,40.371L311.77,40.371L313.5,40.371L315.23,40.371L316.96,40.371L318.69,40.371L320.42,40.371L322.15,40.371L323.88,40.371L325.61,40.371L327.34,40.371L329.07,40.371L330.8,40.371L332.53,40.371L334.26,40.371L335.99,40.371L337.72,40.371L339.45,40.371L341.18,40.371L342.9,40.371L344.63,64.339L346.36,40.371L348.09,40.371L349.82,40.371L351.55,40.371L353.28,40.371L355.01,40.371L356.74,40.371L358.47,40.371L360.2,40.371L361.93,64.339L363.66,40.371L365.39,40.371L367.12,40.371L368.85,40.371L370.58,40.371L372.31,40.371L374.04,40.371L375.77,40.371L377.5,40.371L379.23,40.371L380.96,40.371L382.69,40.371L384.42,40.371L386.15,40.371L387.88,40.371L389.61,40.371L391.34,40.371L393.07,40.371L394.8,40.371L396.53,40.371L398.26,40.371L399.99,40.371L401.72,40.371L403.45,40.371L405.18,40.371L406.91,40.371L408.64,40.371L410.37,40.371L412.1,40.371L413.83,40.371L415.55,40.371L417.28,40.371L419.01,40.371L420.74,40.371L422.47,40.371L424.2,40.371L425.93,40.371L427.66,40.371L429.39,40.371L431.12,40.371L432.85,40.371L434.58,40.371L436.31,40.371L438.04,40.371L439.77,40.371L441.5,40.371L443.23,40.371L444.96,40.371L446.69,40.371L448.42,40.371L450.15,40.371L451.88,40.371L453.61,40.371L455.34,40.371L457.07,40.371L458.8,40.371L460.53,40.371L462.26,40.371L463.99,40.371L465.72,40.371L467.45,40.371L469.18,40.371L470.91,40.371L472.64,40.371L474.37,40.371L476.1,40.371L477.83,40.371L479.56,40.371L481.29,40.371L483.02,40.371L484.75,40.371L486.48,40.371L488.2,40.371L489.93,40.371L491.66,40.371L493.39,40.371L495.12,40.371L496.85,40.371L498.58,40.371L500.31,40.371L502.04,40.371L503.77,40.371L505.5,40.371L507.23,40.371L508.96,40.371L510.69,40.371L512.42,40.371L514.15,40.371L515.88,40.371L517.61,40.371L519.34,40.371L521.07,40.371L522.8,40.371L524.53,40.371L526.26,40.371L527.99,40.371L529.72,40.371L531.45,40.371L533.18,40.371L534.91,40.371L536.64,40.371L538.37,40.371L540.1,40.371L541.83,40.371L543.56,40.371L545.29,40.371L547.02,40.371L548.75,40.371L550.48,40.371L552.21,40.371L553.94,40.371L555.67,40.371L557.4,40.371L559.12,40.371" style="fill:none;stroke:#800080" />
<path d="M43.656,40.371L45.386,40.371L47.116,40.371L48.846,40.371L50.575,40.371L52.305,40.371L54.035,40.371L55.765,40.371L57.494,40.371L59.224,40.371L60.954,40.371L62.684,40.371L64.413,40.371L66.143,40.371L67.873,40.371L69.603,40.371L71.332,40.371L73.062,40.371L74.792,40.371L76.522,40.371L78.251,40.371L79.981,122.77L81.711,58.355L83.441,243.62L85.171,254.78L86.9,229.03L88.63,198.49L90.36,174.53L92.09,157.53L93.819,151.27L95.549,105.1L97.279,100.92L99.009,117.16L100.74,185.18L102.47,193.13L104.2,174.78L105.93,153.02L107.66,146.18L109.39,132.77L111.12,127.84L112.85,108.18L114.58,107.57L116.31,57.338L118.04,154.58L119.77,160.85L121.5,146.38L123.23,129.22L124.96,115.76L126.68,106.2L128.41,102.69L130.14,77.57L131.87,86.013L133.6,75.702L135.33,121.74L137.06,126.21L138.79,115.9L140.52,125.23L142.25,112.37L143.98,103.25L145.71,99.891L147.44,87.083L149.17,85.405L150.9,82.957L152.63,80.388L154.36,49.671L156.09,113L157.82,116.98L159.55,107.78L161.28,96.868L163.01,88.308L164.74,82.233L166.47,79.997L168.2,64.316L169.93,72.111L171.66,60.618L173.39,92.114L175.12,94.954L176.85,120.37L178.58,107.42L180.31,97.26L182.04,90.051L183.77,87.397L185.5,77.53L187.23,75.65L188.96,73.391L190.69,71.147L192.42,69.005L194.15,46.769L195.88,95.838L197.6,98.883L199.33,91.855L201.06,83.521L202.79,76.983L204.52,72.344L206.25,70.636L207.98,58.789L209.71,65.561L211.44,54.986L213.17,79.89L214.9,82.059L216.63,77.052L218.36,71.114L220.09,66.456L221.82,63.151L223.55,61.934L225.28,57.552L227.01,56.366L228.74,55.165L230.47,54.036L232.2,53.001L233.93,52.069L235.66,51.237L237.39,50.498L239.12,49.845L240.85,49.266L242.58,48.752L244.31,48.295L246.04,47.886L247.77,47.517L249.5,47.184L251.23,46.881L252.96,46.603L254.69,46.347L256.42,46.11L258.15,45.889L259.88,45.682L261.61,45.487L263.34,45.303L265.07,45.129L266.8,44.963L268.53,44.805L270.25,44.654L271.98,44.51L273.71,44.371L275.44,47.607L277.17,138.42L278.9,143.8L280.63,131.38L282.36,116.65L284.09,105.09L285.82,96.889L287.55,93.87L289.28,72.639L291.01,83.306L292.74,67.749L294.47,110.23L296.2,114.06L297.93,105.21L299.66,94.715L301.39,86.481L303.12,80.638L304.85,78.488L306.58,70.565L308.31,68.884L310.04,66.937L311.77,65.044L313.5,63.262L315.23,61.624L316.96,60.14L318.69,58.809L320.42,57.62L322.15,56.56L323.88,55.615L325.61,54.77L327.34,54.013L329.07,53.33L330.8,52.713L332.53,52.151L334.26,51.636L335.99,51.162L337.72,50.724L339.45,50.316L341.18,49.935L342.9,49.577L344.63,46.948L346.36,126.87L348.09,131.62L349.82,120.66L351.55,107.66L353.28,97.468L355.01,90.233L356.74,87.57L358.47,69.009L360.2,79.303L361.93,63.543L363.66,102L365.39,105.38L367.12,97.576L368.85,88.316L370.58,81.051L372.31,75.896L374.04,73.999L375.77,67.101L377.5,65.406L379.23,63.587L380.96,61.855L382.69,60.251L384.42,58.795L386.15,57.489L387.88,55.291L389.61,54.374L391.34,53.558L393.07,52.831L394.8,52.18L396.53,51.595L398.26,51.065L399.99,50.582L401.72,50.141L403.45,49.734L405.18,49.358L406.91,49.007L408.64,48.68L410.37,48.371L412.1,48.081L413.83,47.805L415.55,47.543L417.28,47.294L419.01,47.056L420.74,46.828L422.47,46.61L424.2,46.4L425.93,46.198L427.66,46.004L429.39,45.817L431.12,45.637L432.85,45.463L434.58,45.295L436.31,45.133L438.04,44.977L439.77,44.826L441.5,44.68L443.23,44.539L444.96,44.402L446.69,44.27L448.42,44.143L450.15,44.019L451.88,43.9L453.61,43.785L455.34,43.673L457.07,43.565L458.8,43.461L460.53,43.36L462.26,43.262L463.99,43.167L465.72,43.076L467.45,42.987L469.18,42.902L470.91,42.819L472.64,42.739L474.37,42.662L476.1,42.587L477.83,42.514L479.56,42.444L481.29,42.376L483.02,42.311L484.75,42.247L486.48,42.186L488.2,42.126L489.93,42.069L491.66,42.013L493.39,41.96L495.12,41.907L496.85,41.857L498.58,41.808L500.31,41.761L502.04,41.716L503.77,41.672L505.5,41.629L507.23,41.588L508.96,41.548L510.69,41.509L512.42,41.472L514.15,41.436L515.88,41.401L517.61,41.367L519.34,41.335L521.07,41.303L522.8,41.272L524.53,41.243L526.26,41.214L527.99,41.187L529.72,41.16L531.45,41.134L533.18,41.109L534.91,41.085L536.64,41.061L538.37,41.039L540.1,41.017L541.83,40.995L543.56,40.975L545.29,40.955L547.02,40.936L548.75,40.917L550.48,40.899L552.21,40.882L553.94,40.865L555.67,40.849L557.4,40.833L559.12,40.818" style="fill:none;stroke:#FA8072" />
<path d="M43.656,40.371L45.386,40.371L47.116,40.371L48.846,40.371L50.575,40.371L52.305,40.371L54.035,40.371L55.765,40.371L57.494,40.371L59.224,40.371L60.954,40.371L62.684,40.371L64.413,40.371L66.143,40.371L67.873,40.371L69.603,40.371L71.332,40.371L73.062,40.371L74.792,40.371L76.522,40.371L78.251,40.371L79.981,64.339L81.711,40.371L83.441,40.371L85.171,40.371L86.9,40.371L88.63,40.371L90.36,40.371L92.09,40.371L93.819,40.371L95.549,40.371L97.279,40.371L99.009,40.371L100.74,40.371L102.47,40.371L104.2,40.371L105.93,40.371L107.66,64.339L109.39,40.371L111.12,40.371L112.85,40.371L114.58,40.371L116.31,40.371L118.04,40.371L119.77,40.371L121.5,40.371L123.23,40.371L124.96,40.371L126.68,40.371L128.41,40.371L130.14,40.371L131.87,40.371L133.6,40.371L135.33,40.371L137.06,40.371L138.79,40.371L140.52,64.339L142.25,40.371L143.98,40.371L145.71,40.371L147.44,40.371L149.17,40.371L150.9,40.371L152.63,40.371L154.36,40.371L156.09,40.371L157.82,40.371L159.55,40.371L161.28,40.371L163.01,40.371L164.74,40.371L166.47,40.371L168.2,40.371L169.93,40.371L171.66,40.371L173.39,40.371L175.12,40.371L176.85,64.339L178.58,40.371L180.31,40.371L182.04,40.371L183.77,40.371L185.5,40.371L187.23,40.371L188.96,40.371L190.69,40.371L192.42,40.371L194.15,40.371L195.88,40.371L197.6,40.371L199.33,40.371L201.06,40.371L202.79,40.371L204.52,40.371L206.25,40.371L207.98,40.371L209.71,40.371L211.44,40.371L213.17,40.371L214.9,40.371L216.63,40.371L218.36,40.371L220.09,40.371L221.82,40.371L223.55,40.371L225.28,40.371L227.01,40.371L228.74,40.371L230.47,40.371L232.2,40.371L233.93,40.371L235.66,40.371L237.39,40.371L239.12,40.371L240.85,40.371L242.58,40.371L244.31,40.371L246.04,40.371L247.77,40.371L249.5,40.371L251.23,40.371L252.96,40.371L254.69,40.371L256.42,40.371L258.15,40.371L259.88,40.371L261.61,40.371L263.34,40.371L265.07,40.371L266.8,40.371L268.53,40.371L270.25,40.371L271.98,40.371L273.71,40.371L275.44,64.339L277.17,40.371L278.9,40.371L280.63,40.371L282.36,40.371L284.09,40.371L285.82,40.371L287.55,40.371L289.28,40.371L291.01,40.371L292.74,40.371L294.47,40.371L296.2,40.371L297.93,40.371L299.66,40.371L301.39,40.371L303.12,40.371L304.85,40.371L306.58,40.371L308.31,40.371L310.04,40.371L311.77,40.371L313.5,40.371L315.23,40.371L316.96,40.371L318.69,40.371L320.42,40.371L322.15,40.371L323.88,40.371L325.61,40.371L327.34,40.371L329.07,40.371L330.8,40.371L332.53,40.371L334.26,40.371L335.99,40.371L337.72,40.371L339.45,40.371L341.18,40.371L342.9,40.371L344.63,64.339L346.36,40.371L348.09,40.371L349.82,40.371L351.55,40.371L353.28,40.371L355.01,40.371L356.74,40.371L358.47,40.371L360.2,40.371L361.93,40.371L363.66,40.371L365.39,40.371L367.12,40.371L368.85,40.371L370.58,40.371L372.31,40.371L374.04,40.371L375.77,40.371L377.5,40.371L379.23,40.371L380.96,40.371L382.69,40.371L384.42,40.371L386.15,40.371L387.88,40.371L389.61,40.371L391.34,40.371L393.07,40.371L394.8,40.371L396.53,40.371L398.26,40.371L399.99,40.371L401.72,40.371L403.45,40.371L405.18,40.371L406.91,40.371L408.64,40.371L410.37,40.371L412.1,40.371L413.83,40.371L415.55,40.371L417.28,40.371L419.01,40.371L420.74,40.371L422.47,40.371L424.2,40.371L425.93,40.371L427.66,40.371L429.39,40.371L431.12,40.371L432.85,40.371L434.58,40.371L436.31,40.371L438.04,40.371L439.77,40.371L441.5,40.371L443.23,40.371L444.96,40.371L446.69,40.371L448.42,40.371L450.15,40.371L451.88,40.371L453.61,40.371L455.34,40.371L457.07,40.371L458.8,40.371L460.53,40.371L462.26,40.371L463.99,40.371L465.72,40.371L467.45,40.371L469.18,40.371L470.91,40.371L472.64,40.371L474.37,40.371L476.1,40.371L477.83,40.371L479.56,40.371L481.29,40.371L483.02,40.371L484.75,40.371L486.48,40.371L488.2,40.371L489.93,40.371L491.66,40.371L493.39,40.371L495.12,40.371L496.85,40.371L498.58,40.371L500.31,40.371L502.04,40.371L503.77,40.371L505.5,40.371L507.23,40.371L508.96,40.371L510.69,40.371L512.42,40.371L514.15,40.371L515.88,40.371L517.61,40.371L519.34,40.371L521.07,40.371L522.8,40.371L524.53,40.371L526.26,40.371L527.99,40.371L529.72,40.371L531.45,40.371L533.18,40.371L534.91,40.371L536.64,40.371L538.37,40.371L540.1,40.371L541.83,40.371L543.56,40.371L545.29,40.371L547.02,40.371L548.75,40.371L550.48,40.371L552.21,40.371L553.94,40.371L555.67,40.371L557.4,40.371L559.12,40.371" style="fill:none;stroke:#FA8072" />
<path d="M43.656,41.57L45.386,41.57L47.116,41.57L48.846,41.57L50.575,41.57L52.305,41.57L54.035,41.57L55.765,41.57L57.494,41.57L59.224,41.57L60.954,41.57L62.684,41.57L64.413,41.57L66.143,41.57L67.873,41.57L69.603,41.57L71.332,41.57L73.062,41.57L74.792,41.57L76.522,41.57L78.251,41.57L79.981,84.713L81.711,109.53L83.441,333.23L85.171,378.47L86.9,324.17L88.63,263.94L90.36,220.21L92.09,190.62L93.819,170.34L95.549,144.6L97.279,198.52L99.009,261.5L100.74,233.64L102.47,231.33L104.2,191.72L105.93,158.27L107.66,154.36L109.39,139.81L111.12,128.1L112.85,112.06L114.58,108.94L116.31,104.85L118.04,171.7L119.77,175L121.5,150.25L123.23,128.02L124.96,112.64L126.68,102.32L128.41,95.221L130.14,85.636L131.87,105.9L133.6,127.87L135.33,124.68L137.06,126.03L138.79,110.77L140.52,119.82L142.25,109.83L143.98,100.99L145.71,94.529L147.44,85.169L149.17,82.643L150.9,79.821L152.63,77.054L154.36,74.425L156.09,117.47L157.82,120.04L159.55,106.17L161.28,93.517L163.01,84.68L164.74,78.71L166.47,74.579L168.2,68.794L169.93,81.017L171.66,92.058L173.39,93.667L175.12,94.858L176.85,115.68L178.58,105.78L180.31,95.927L182.04,88.8L183.77,83.736L185.5,76.306L187.23,73.927L188.96,71.463L190.69,69.127L192.42,66.965L194.15,64.998L195.88,100.39L197.6,102.45L199.33,91.74L201.06,81.962L202.79,75.135L204.52,70.523L206.25,67.331L207.98,62.82L209.71,72.182L211.44,79.636L213.17,82.412L214.9,83.408L216.63,76.042L218.36,69.379L220.09,64.73L221.82,61.585L223.55,59.403L225.28,56.323L227.01,55.087L228.74,53.935L230.47,52.892L232.2,51.959L233.93,51.131L235.66,50.4L237.39,49.755L239.12,49.187L240.85,48.685L242.58,48.241L244.31,47.845L246.04,47.493L247.77,47.177L249.5,46.892L251.23,46.634L252.96,46.399L254.69,46.184L256.42,45.987L258.15,45.805L259.88,45.637L261.61,45.48L263.34,45.334L265.07,45.197L266.8,45.068L268.53,44.946L270.25,44.832L271.98,44.723L273.71,44.62L275.44,63.768L277.17,168.08L278.9,194.13L280.63,176.12L282.36,153.07L284.09,135.31L285.82,122.79L287.55,113.97L289.28,101L291.01,130.28L292.74,156.21L294.47,159.6L296.2,161.71L297.93,139.3L299.66,119.36L301.39,105.63L303.12,96.469L304.85,90.193L306.58,81.578L308.31,78.544L310.04,75.564L311.77,72.827L313.5,70.347L315.23,68.126L316.96,66.152L318.69,64.403L320.42,62.858L322.15,61.491L323.88,60.279L325.61,59.203L327.34,58.243L329.07,57.383L330.8,56.609L332.53,55.909L334.26,55.272L335.99,54.69L337.72,54.156L339.45,53.663L341.18,53.206L342.9,52.78L344.63,64.531L346.36,143.87L348.09,155.45L349.82,138.34L351.55,120.49L353.28,107.53L355.01,98.645L356.74,92.479L358.47,83.477L360.2,103.38L361.93,119.73L363.66,124.7L365.39,126.7L367.12,111.4L368.85,97.605L370.58,88.033L372.31,81.603L374.04,77.179L375.77,70.968L377.5,68.627L379.23,66.388L380.96,64.351L382.69,62.519L384.42,60.888L386.15,59.443L387.88,57.043L389.61,56.049L391.34,55.169L393.07,54.387L394.8,53.69L396.53,53.065L398.26,52.502L399.99,51.992L401.72,51.529L403.45,51.105L405.18,50.715L406.91,50.356L408.64,50.022L410.37,49.711L412.1,49.421L413.83,49.148L415.55,48.892L417.28,48.649L419.01,48.42L420.74,48.202L422.47,47.995L424.2,47.797L425.93,47.609L427.66,47.429L429.39,47.256L431.12,47.09L432.85,46.931L434.58,46.779L436.31,46.632L438.04,46.491L439.77,46.355L441.5,46.224L443.23,46.097L444.96,45.976L446.69,45.858L448.42,45.744L450.15,45.635L451.88,45.529L453.61,45.426L455.34,45.328L457.07,45.232L458.8,45.139L460.53,45.05L462.26,44.963L463.99,44.879L465.72,44.798L467.45,44.72L469.18,44.644L470.91,44.57L472.64,44.499L474.37,44.43L476.1,44.363L477.83,44.298L479.56,44.235L481.29,44.174L483.02,44.115L484.75,44.058L486.48,44.002L488.2,43.949L489.93,43.897L491.66,43.846L493.39,43.797L495.12,43.75L496.85,43.703L498.58,43.659L500.31,43.615L502.04,43.573L503.77,43.533L505.5,43.493L507.23,43.455L508.96,43.417L510.69,43.381L512.42,43.346L514.15,43.312L515.88,43.279L517.61,43.247L519.34,43.216L521.07,43.186L522.8,43.156L524.53,43.128L526.26,43.1L527.99,43.074L529.72,43.047L531.45,43.022L533.18,42.998L534.91,42.974L536.64,42.951L538.37,42.928L540.1,42.906L541.83,42.885L543.56,42.865L545.29,42.845L547.02,42.825L548.75,42.807L550.48,42.788L552.21,42.771L553.94,42.753L555.67,42.737L557.4,42.72L559.12,42.704" style="fill:none;stroke:#A52A2A" />
<path d="M539.12,370.69L559.12,370.69" style="fill:none;stroke:#800080" />
<text x="505.77" y="-367.86" transform="scale(1, -1)"
	style="font-family:Liberation Sans;font-variant:normal;font-weight:normal;font-style:normal;font-size:12px">Spike</text>
<path d="M539.12,360.22L559.12,360.22" style="fill:none;stroke:#FA8072" />
<text x="520.45" y="-357.39" transform="scale(1, -1)"
	style="font-family:Liberation Sans;font-variant:normal;font-weight:normal;font-style:normal;font-size:12px">Ca</text>
<path d="M539.12,349.75L559.12,349.75" style="fill:none;stroke:#FA8072" />
<text x="487.1" y="-346.92" transform="scale(1, -1)"
	style="font-family:Liberation Sans;font-variant:normal;font-weight:normal;font-style:normal;font-size:12px">PreSpike</text>
<path d="M539.12,339.28L559.12,339.28" style="fill:none;stroke:#A52A2A" />
<text x="489.1" y="-336.45" transform="scale(1, -1)"
	style="font-family:Liberation Sans;font-variant:normal;font-weight:normal;font-style:normal;font-size:12px">PSD_Ca</text>
</g>
</svg>
