<?xml version="1.0"?>
<!-- Generated by SVGo and Plotinum VG -->
<svg width="559.12pt" height="391.88pt" viewBox="0 0 559.12 391.88"
	xmlns="http://www.w3.org/2000/svg"
	xmlns:xlink="http://www.w3.org/1999/xlink">
<g transform="scale(1, -1) translate(0, -391.88)">
<text x="234.54" y="-382.15" transform="scale(1, -1)"
	style="font-family:Liberation Sans;font-variant:normal;font-weight:normal;font-style:normal;font-size:12px">Kinase Time Plot</text>
<text x="288.28" y="-3.6797" transform="scale(1, -1)"
	style="font-family:Liberation Sans;font-variant:normal;font-weight:normal;font-style:normal;font-size:12px">Time</text>
<text x="36.706" y="-16.473" transform="scale(1, -1)"
	style="font-family:Liberation Sans;font-variant:normal;font-weight:normal;font-style:normal;font-size:10px">0.0</text>
<text x="267.34" y="-16.473" transform="scale(1, -1)"
	style="font-family:Liberation Sans;font-variant:normal;font-weight:normal;font-style:normal;font-size:10px">0.4</text>
<text x="497.98" y="-16.473" transform="scale(1, -1)"
	style="font-family:Liberation Sans;font-variant:normal;font-weight:normal;font-style:normal;font-size:10px">0.8</text>
<path d="M43.656,24.578L43.656,32.578" style="fill:none;stroke:#000000;stroke-width:0.5" />
<path d="M274.29,24.578L274.29,32.578" style="fill:none;stroke:#000000;stroke-width:0.5" />
<path d="M504.93,24.578L504.93,32.578" style="fill:none;stroke:#000000;stroke-width:0.5" />
<path d="M101.31,28.578L101.31,32.578" style="fill:none;stroke:#000000;stroke-width:0.5" />
<path d="M158.97,28.578L158.97,32.578" style="fill:none;stroke:#000000;stroke-width:0.5" />
<path d="M216.63,28.578L216.63,32.578" style="fill:none;stroke:#000000;stroke-width:0.5" />
<path d="M331.95,28.578L331.95,32.578" style="fill:none;stroke:#000000;stroke-width:0.5" />
<path d="M389.61,28.578L389.61,32.578" style="fill:none;stroke:#000000;stroke-width:0.5" />
<path d="M447.27,28.578L447.27,32.578" style="fill:none;stroke:#000000;stroke-width:0.5" />
<path d="M43.656,32.578L559.12,32.578" style="fill:none;stroke:#000000;stroke-width:0.5" />
<g transform="rotate(90)">
<text x="194.41" y="9.7266" transform="scale(1, -1)"
	style="font-family:Liberation Sans;font-variant:normal;font-weight:normal;font-style:normal;font-size:12px">Spike</text>
</g>
<text x="21.511" y="-37.852" transform="scale(1, -1)"
	style="font-family:Liberation Sans;font-variant:normal;font-weight:normal;font-style:normal;font-size:10px">0</text>
<text x="21.511" y="-188.64" transform="scale(1, -1)"
	style="font-family:Liberation Sans;font-variant:normal;font-weight:normal;font-style:normal;font-size:10px">5</text>
<text x="15.949" y="-339.43" transform="scale(1, -1)"
	style="font-family:Liberation Sans;font-variant:normal;font-weight:normal;font-style:normal;font-size:10px">10</text>
<path d="M29.851,40.371L37.851,40.371" style="fill:none;stroke:#000000;stroke-width:0.5" />
<path d="M29.851,191.16L37.851,191.16" style="fill:none;stroke:#000000;stroke-width:0.5" />
<path d="M29.851,341.95L37.851,341.95" style="fill:none;stroke:#000000;stroke-width:0.5" />
<path d="M33.851,70.529L37.851,70.529" style="fill:none;stroke:#000000;stroke-width:0.5" />
<path d="M33.851,100.69L37.851,100.69" style="fill:none;stroke:#000000;stroke-width:0.5" />
<path d="M33.851,130.84L37.851,130.84" style="fill:none;stroke:#000000;stroke-width:0.5" />
<path d="M33.851,161L37.851,161" style="fill:none;stroke:#000000;stroke-width:0.5" />
<path d="M33.851,221.32L37.851,221.32" style="fill:none;stroke:#000000;stroke-width:0.5" />
<path d="M33.851,251.48L37.851,251.48" style="fill:none;stroke:#000000;stroke-width:0.5" />
<path d="M33.851,281.63L37.851,281.63" style="fill:none;stroke:#000000;stroke-width:0.5" />
<path d="M33.851,311.79L37.851,311.79" style="fill:none;stroke:#000000;stroke-width:0.5" />
<path d="M33.851,372.11L37.851,372.11" style="fill:none;stroke:#000000;stroke-width:0.5" />
<path d="M37.851,40.371L37.851,378.47" style="fill:none;stroke:#000000;stroke-width:0.5" />
<path d="M43.656,40.371L44.233,40.371L44.809,40.371L45.386,40.371L45.963,40.371L46.539,40.371L47.116,40.371L47.692,40.371L48.269,40.371L48.846,40.371L49.422,40.371L49.999,40.371L50.575,40.371L51.152,70.529L51.728,40.371L52.305,40.371L52.882,40.371L53.458,40.371L54.035,40.371L54.611,40.371L55.188,40.371L55.765,40.371L56.341,40.371L56.918,70.529L57.494,40.371L58.071,40.371L58.648,40.371L59.224,40.371L59.801,40.371L60.377,40.371L60.954,40.371L61.53,40.371L62.107,70.529L62.684,40.371L63.26,40.371L63.837,40.371L64.413,40.371L64.99,40.371L65.567,40.371L66.143,40.371L66.72,40.371L67.296,40.371L67.873,40.371L68.449,40.371L69.026,40.371L69.603,40.371L70.179,40.371L70.756,40.371L71.332,40.371L71.909,40.371L72.486,40.371L73.062,40.371L73.639,70.529L74.215,40.371L74.792,40.371L75.369,40.371L75.945,40.371L76.522,40.371L77.098,40.371L77.675,40.371L78.251,40.371L78.828,40.371L79.405,70.529L79.981,40.371L80.558,40.371L81.134,40.371L81.711,40.371L82.288,40.371L82.864,40.371L83.441,40.371L84.017,40.371L84.594,40.371L85.171,40.371L85.747,40.371L86.324,70.529L86.9,40.371L87.477,40.371L88.053,40.371L88.63,40.371L89.207,40.371L89.783,40.371L90.36,40.371L90.936,40.371L91.513,40.371L92.09,70.529L92.666,40.371L93.243,40.371L93.819,40.371L94.396,40.371L94.972,40.371L95.549,40.371L96.126,40.371L96.702,40.371L97.279,40.371L97.855,40.371L98.432,40.371L99.009,40.371L99.585,70.529L100.16,40.371L100.74,40.371L101.31,40.371L101.89,40.371L102.47,40.371L103.04,40.371L103.62,40.371L104.2,40.371L104.77,40.371L105.35,70.529L105.93,40.371L106.5,40.371L107.08,40.371L107.66,40.371L108.23,40.371L108.81,40.371L109.39,40.371L109.96,40.371L110.54,40.371L111.12,40.371L111.69,40.371L112.27,40.371L112.85,40.371L113.42,40.371L114,40.371L114.58,40.371L115.15,40.371L115.73,40.371L116.31,40.371L116.88,40.371L117.46,40.371L118.04,40.371L118.61,40.371L119.19,40.371L119.77,40.371L120.34,40.371L120.92,40.371L121.5,40.371L122.07,40.371L122.65,70.529L123.23,40.371L123.8,40.371L124.38,40.371L124.96,40.371L125.53,40.371L126.11,40.371L126.68,40.371L127.26,40.371L127.84,40.371L128.41,70.529L128.99,40.371L129.57,40.371L130.14,40.371L130.72,40.371L131.3,40.371L131.87,40.371L132.45,40.371L133.03,40.371L133.6,40.371L134.18,40.371L134.76,40.371L135.33,40.371L135.91,40.371L136.49,40.371L137.06,40.371L137.64,40.371L138.22,40.371L138.79,40.371L139.37,40.371L139.95,40.371L140.52,40.371L141.1,40.371L141.68,40.371L142.25,40.371L142.83,40.371L143.41,70.529L143.98,40.371L144.56,40.371L145.14,40.371L145.71,40.371L146.29,40.371L146.87,40.371L147.44,40.371L148.02,40.371L148.6,40.371L149.17,70.529L149.75,40.371L150.32,40.371L150.9,40.371L151.48,40.371L152.05,40.371L152.63,40.371L153.21,40.371L153.78,40.371L154.36,40.371L154.94,40.371L155.51,40.371L156.09,40.371L156.67,40.371L157.24,40.371L157.82,40.371L158.4,40.371L158.97,40.371L159.55,40.371L160.13,40.371L160.7,40.371L161.28,40.371L161.86,40.371L162.43,40.371L163.01,40.371L163.59,40.371L164.16,40.371L164.74,40.371L165.32,40.371L165.89,40.371L166.47,40.371L167.05,40.371L167.62,40.371L168.2,40.371L168.78,40.371L169.35,40.371L169.93,40.371L170.51,40.371L171.08,40.371L171.66,40.371L172.24,40.371L172.81,40.371L173.39,40.371L173.96,40.371L174.54,40.371L175.12,40.371L175.69,40.371L176.27,40.371L176.85,40.371L177.42,40.371L178,40.371L178.58,40.371L179.15,40.371L179.73,40.371L180.31,40.371L180.88,40.371L181.46,40.371L182.04,40.371L182.61,40.371L183.19,40.371L183.77,40.371L184.34,40.371L184.92,40.371L185.5,40.371L186.07,40.371L186.65,40.371L187.23,40.371L187.8,40.371L188.38,40.371L188.96,40.371L189.53,40.371L190.11,40.371L190.69,40.371L191.26,40.371L191.84,40.371L192.42,40.371L192.99,40.371L193.57,40.371L194.15,40.371L194.72,40.371L195.3,40.371L195.88,40.371L196.45,40.371L197.03,40.371L197.6,40.371L198.18,40.371L198.76,40.371L199.33,40.371L199.91,40.371L200.49,40.371L201.06,40.371L201.64,40.371L202.22,40.371L202.79,40.371L203.37,40.371L203.95,40.371L204.52,40.371L205.1,40.371L205.68,40.371L206.25,40.371L206.83,40.371L207.41,40.371L207.98,40.371L208.56,40.371L209.14,40.371L209.71,40.371L210.29,40.371L210.87,40.371L211.44,40.371L212.02,40.371L212.6,40.371L213.17,40.371L213.75,40.371L214.33,40.371L214.9,40.371L215.48,40.371L216.06,40.371L216.63,40.371L217.21,40.371L217.79,40.371L218.36,40.371L218.94,40.371L219.52,40.371L220.09,40.371L220.67,40.371L221.25,40.371L221.82,40.371L222.4,40.371L222.97,40.371L223.55,40.371L224.13,40.371L224.7,70.529L225.28,40.371L225.86,40.371L226.43,40.371L227.01,40.371L227.59,40.371L228.16,40.371L228.74,40.371L229.32,40.371L229.89,40.371L230.47,70.529L231.05,40.371L231.62,40.371L232.2,40.371L232.78,40.371L233.35,40.371L233.93,40.371L234.51,40.371L235.08,40.371L235.66,40.371L236.24,40.371L236.81,70.529L237.39,40.371L237.97,40.371L238.54,40.371L239.12,40.371L239.7,40.371L240.27,40.371L240.85,40.371L241.43,40.371L242,40.371L242.58,70.529L243.16,40.371L243.73,40.371L244.31,40.371L244.89,40.371L245.46,40.371L246.04,40.371L246.61,40.371L247.19,40.371L247.77,40.371L248.34,40.371L248.92,40.371L249.5,40.371L250.07,40.371L250.65,40.371L251.23,70.529L251.8,40.371L252.38,40.371L252.96,40.371L253.53,40.371L254.11,40.371L254.69,40.371L255.26,40.371L255.84,40.371L256.42,40.371L256.99,70.529L257.57,40.371L258.15,40.371L258.72,40.371L259.3,40.371L259.88,40.371L260.45,40.371L261.03,40.371L261.61,70.529L262.18,40.371L262.76,40.371L263.34,40.371L263.91,40.371L264.49,40.371L265.07,40.371L265.64,40.371L266.22,40.371L266.8,40.371L267.37,40.371L267.95,40.371L268.53,40.371L269.1,40.371L269.68,40.371L270.25,40.371L270.83,40.371L271.41,40.371L271.98,40.371L272.56,40.371L273.14,40.371L273.71,40.371L274.29,40.371L274.87,40.371L275.44,40.371L276.02,40.371L276.6,40.371L277.17,40.371L277.75,40.371L278.33,40.371L278.9,40.371L279.48,40.371L280.06,40.371L280.63,40.371L281.21,40.371L281.79,40.371L282.36,40.371L282.94,40.371L283.52,40.371L284.09,40.371L284.67,40.371L285.25,40.371L285.82,40.371L286.4,40.371L286.98,70.529L287.55,40.371L288.13,40.371L288.71,40.371L289.28,40.371L289.86,40.371L290.44,40.371L291.01,40.371L291.59,40.371L292.17,40.371L292.74,70.529L293.32,40.371L293.89,40.371L294.47,40.371L295.05,40.371L295.62,40.371L296.2,40.371L296.78,40.371L297.35,40.371L297.93,40.371L298.51,40.371L299.08,40.371L299.66,40.371L300.24,40.371L300.81,40.371L301.39,40.371L301.97,40.371L302.54,40.371L303.12,40.371L303.7,40.371L304.27,40.371L304.85,40.371L305.43,40.371L306,40.371L306.58,40.371L307.16,40.371L307.73,40.371L308.31,40.371L308.89,40.371L309.46,40.371L310.04,40.371L310.62,40.371L311.19,40.371L311.77,70.529L312.35,40.371L312.92,40.371L313.5,40.371L314.08,40.371L314.65,40.371L315.23,40.371L315.81,40.371L316.38,40.371L316.96,40.371L317.54,70.529L318.11,40.371L318.69,40.371L319.26,40.371L319.84,40.371L320.42,40.371L320.99,40.371L321.57,40.371L322.15,40.371L322.72,40.371L323.3,40.371L323.88,40.371L324.45,40.371L325.03,40.371L325.61,40.371L326.18,40.371L326.76,40.371L327.34,40.371L327.91,40.371L328.49,40.371L329.07,40.371L329.64,40.371L330.22,40.371L330.8,40.371L331.37,40.371L331.95,40.371L332.53,40.371L333.1,40.371L333.68,40.371L334.26,40.371L334.83,40.371L335.41,40.371L335.99,40.371L336.56,40.371L337.14,40.371L337.72,40.371L338.29,40.371L338.87,40.371L339.45,40.371L340.02,40.371L340.6,40.371L341.18,40.371L341.75,40.371L342.33,40.371L342.9,40.371L343.48,40.371L344.06,40.371L344.63,40.371L345.21,40.371L345.79,40.371L346.36,40.371L346.94,40.371L347.52,40.371L348.09,40.371L348.67,40.371L349.25,40.371L349.82,40.371L350.4,40.371L350.98,40.371L351.55,40.371L352.13,40.371L352.71,40.371L353.28,40.371L353.86,40.371L354.44,40.371L355.01,40.371L355.59,40.371L356.17,40.371L356.74,40.371L357.32,40.371L357.9,40.371L358.47,40.371L359.05,40.371L359.63,40.371L360.2,40.371L360.78,40.371L361.36,40.371L361.93,40.371L362.51,40.371L363.09,40.371L363.66,40.371L364.24,40.371L364.82,40.371L365.39,40.371L365.97,40.371L366.54,40.371L367.12,40.371L367.7,40.371L368.27,40.371L368.85,40.371L369.43,40.371L370,40.371L370.58,40.371L371.16,40.371L371.73,40.371L372.31,40.371L372.89,40.371L373.46,40.371L374.04,40.371L374.62,40.371L375.19,40.371L375.77,40.371L376.35,40.371L376.92,40.371L377.5,40.371L378.08,40.371L378.65,40.371L379.23,40.371L379.81,40.371L380.38,40.371L380.96,40.371L381.54,40.371L382.11,40.371L382.69,40.371L383.27,40.371L383.84,40.371L384.42,40.371L385,40.371L385.57,40.371L386.15,40.371L386.73,40.371L387.3,40.371L387.88,40.371L388.46,40.371L389.03,40.371L389.61,40.371L390.19,40.371L390.76,40.371L391.34,40.371L391.91,40.371L392.49,40.371L393.07,40.371L393.64,40.371L394.22,40.371L394.8,40.371L395.37,40.371L395.95,40.371L396.53,70.529L397.1,40.371L397.68,40.371L398.26,40.371L398.83,40.371L399.41,40.371L399.99,40.371L400.56,40.371L401.14,40.371L401.72,40.371L402.29,70.529L402.87,40.371L403.45,40.371L404.02,40.371L404.6,40.371L405.18,40.371L405.75,40.371L406.33,40.371L406.91,40.371L407.48,40.371L408.06,40.371L408.64,70.529L409.21,40.371L409.79,40.371L410.37,40.371L410.94,40.371L411.52,40.371L412.1,40.371L412.67,40.371L413.25,40.371L413.83,40.371L414.4,70.529L414.98,40.371L415.55,40.371L416.13,40.371L416.71,40.371L417.28,40.371L417.86,40.371L418.44,40.371L419.01,70.529L419.59,40.371L420.17,40.371L420.74,40.371L421.32,40.371L421.9,40.371L422.47,40.371L423.05,40.371L423.63,40.371L424.2,40.371L424.78,70.529L425.36,40.371L425.93,40.371L426.51,40.371L427.09,40.371L427.66,40.371L428.24,40.371L428.82,40.371L429.39,40.371L429.97,40.371L430.55,40.371L431.12,40.371L431.7,40.371L432.28,40.371L432.85,40.371L433.43,70.529L434.01,40.371L434.58,40.371L435.16,40.371L435.74,40.371L436.31,40.371L436.89,40.371L437.47,40.371L438.04,40.371L438.62,40.371L439.19,70.529L439.77,40.371L440.35,40.371L440.92,40.371L441.5,40.371L442.08,40.371L442.65,40.371L443.23,40.371L443.81,40.371L444.38,40.371L444.96,40.371L445.54,40.371L446.11,40.371L446.69,40.371L447.27,40.371L447.84,40.371L448.42,40.371L449,40.371L449.57,40.371L450.15,40.371L450.73,40.371L451.3,40.371L451.88,40.371L452.46,40.371L453.03,40.371L453.61,40.371L454.19,40.371L454.76,40.371L455.34,40.371L455.92,40.371L456.49,40.371L457.07,40.371L457.65,40.371L458.22,40.371L458.8,40.371L459.38,40.371L459.95,40.371L460.53,40.371L461.11,70.529L461.68,40.371L462.26,40.371L462.83,40.371L463.41,40.371L463.99,40.371L464.56,40.371L465.14,40.371L465.72,40.371L466.29,40.371L466.87,70.529L467.45,40.371L468.02,40.371L468.6,40.371L469.18,40.371L469.75,40.371L470.33,40.371L470.91,40.371L471.48,40.371L472.06,40.371L472.64,40.371L473.21,40.371L473.79,40.371L474.37,40.371L474.94,40.371L475.52,40.371L476.1,40.371L476.67,40.371L477.25,40.371L477.83,40.371L478.4,40.371L478.98,40.371L479.56,40.371L480.13,40.371L480.71,40.371L481.29,40.371L481.86,40.371L482.44,70.529L483.02,40.371L483.59,40.371L484.17,40.371L484.75,40.371L485.32,40.371L485.9,40.371L486.48,40.371L487.05,40.371L487.63,40.371L488.2,70.529L488.78,40.371L489.36,40.371L489.93,40.371L490.51,40.371L491.09,40.371L491.66,40.371L492.24,40.371L492.82,40.371L493.39,40.371L493.97,40.371L494.55,40.371L495.12,40.371L495.7,40.371L496.28,40.371L496.85,40.371L497.43,40.371L498.01,40.371L498.58,40.371L499.16,40.371L499.74,40.371L500.31,40.371L500.89,40.371L501.47,40.371L502.04,40.371L502.62,40.371L503.2,40.371L503.77,40.371L504.35,40.371L504.93,40.371L505.5,40.371L506.08,40.371L506.66,40.371L507.23,40.371L507.81,40.371L508.39,40.371L508.96,40.371L509.54,40.371L510.12,40.371L510.69,40.371L511.27,40.371L511.84,40.371L512.42,40.371L513,40.371L513.57,40.371L514.15,40.371L514.73,40.371L515.3,40.371L515.88,40.371L516.46,40.371L517.03,40.371L517.61,40.371L518.19,40.371L518.76,40.371L519.34,40.371L519.92,40.371L520.49,40.371L521.07,40.371L521.65,40.371L522.22,40.371L522.8,40.371L523.38,40.371L523.95,40.371L524.53,40.371L525.11,40.371L525.68,40.371L526.26,40.371L526.84,40.371L527.41,40.371L527.99,40.371L528.57,40.371L529.14,40.371L529.72,40.371L530.3,40.371L530.87,40.371L531.45,40.371L532.03,40.371L532.6,40.371L533.18,40.371L533.76,40.371L534.33,40.371L534.91,40.371L535.48,40.371L536.06,40.371L536.64,40.371L537.21,40.371L537.79,40.371L538.37,40.371L538.94,40.371L539.52,40.371L540.1,40.371L540.67,40.371L541.25,40.371L541.83,40.371L542.4,40.371L542.98,40.371L543.56,40.371L544.13,40.371L544.71,40.371L545.29,40.371L545.86,40.371L546.44,40.371L547.02,40.371L547.59,40.371L548.17,40.371L548.75,40.371L549.32,40.371L549.9,40.371L550.48,40.371L551.05,40.371L551.63,40.371L552.21,40.371L552.78,40.371L553.36,40.371L553.94,40.371L554.51,40.371L555.09,40.371L555.67,40.371L556.24,40.371L556.82,40.371L557.4,40.371L557.97,40.371L558.55,40.371L559.12,40.371" style="fill:none;stroke:#800080" />
<path d="M43.656,40.371L44.233,40.371L44.809,40.371L45.386,40.371L45.963,40.371L46.539,40.371L47.116,40.371L47.692,40.371L48.269,40.371L48.846,40.371L49.422,40.371L49.999,40.371L50.575,40.371L51.152,130.84L51.728,121.8L52.305,113.65L52.882,106.33L53.458,99.731L54.035,184.27L54.611,169.88L55.188,156.93L55.765,145.27L56.341,134.78L56.918,215.81L57.494,198.27L58.071,182.48L58.648,168.27L59.224,155.48L59.801,143.97L60.377,133.61L60.954,124.28L61.53,115.89L62.107,198.81L62.684,182.97L63.26,168.71L63.837,155.88L64.413,234.8L64.99,215.36L65.567,197.86L66.143,182.11L66.72,167.94L67.296,155.18L67.873,143.7L68.449,133.37L69.026,124.07L69.603,115.7L70.179,108.16L70.756,101.38L71.332,95.283L71.909,89.792L72.486,84.85L73.062,80.402L73.639,166.87L74.215,154.22L74.792,233.31L75.369,214.02L75.945,196.65L76.522,181.02L77.098,166.96L77.675,154.3L78.251,142.91L78.828,132.65L79.405,213.9L79.981,196.55L80.558,180.93L81.134,166.87L81.711,154.22L82.288,142.84L82.864,132.59L83.441,123.37L84.017,115.07L84.594,107.6L85.171,100.88L85.747,94.826L86.324,179.85L86.9,165.91L87.477,243.82L88.053,223.48L88.63,205.17L89.207,188.69L89.783,173.86L90.36,160.51L90.936,148.49L91.513,137.68L92.09,218.42L92.666,200.62L93.243,184.59L93.819,170.17L94.396,157.19L94.972,145.51L95.549,135L96.126,125.53L96.702,117.02L97.279,109.35L97.855,102.45L98.432,96.246L99.009,90.659L99.585,176.1L100.16,162.53L100.74,150.31L101.31,139.32L101.89,129.42L102.47,120.52L103.04,112.5L103.62,105.29L104.2,98.799L104.77,92.956L105.35,178.17L105.93,164.39L106.5,151.99L107.08,140.83L107.66,130.78L108.23,121.74L108.81,113.6L109.39,106.28L109.96,99.689L110.54,93.758L111.12,88.419L111.69,83.614L112.27,79.29L112.85,75.398L113.42,71.895L114,68.743L114.58,65.906L115.15,63.352L115.73,151.53L116.31,140.41L116.88,130.41L117.46,121.4L118.04,113.3L118.61,106.01L119.19,99.444L119.77,93.537L120.34,88.22L120.92,83.435L121.5,79.129L122.07,75.253L122.65,162.24L123.23,150.05L123.8,139.08L124.38,129.21L124.96,120.33L125.53,112.33L126.11,105.14L126.68,98.66L127.26,92.831L127.84,87.585L128.41,173.34L128.99,160.04L129.57,148.07L130.14,137.3L130.72,127.61L131.3,118.89L131.87,111.03L132.45,103.97L133.03,97.608L133.6,91.885L134.18,86.733L134.76,82.097L135.33,77.924L135.91,74.169L136.49,70.789L137.06,67.748L137.64,65.01L138.22,62.546L138.79,60.329L139.37,58.333L139.95,56.537L140.52,54.92L141.1,53.465L141.68,52.156L142.25,50.977L142.83,49.917L143.41,139.44L143.98,129.53L144.56,120.61L145.14,112.59L145.71,105.37L146.29,98.868L146.87,93.018L147.44,87.753L148.02,83.015L148.6,78.751L149.17,165.39L149.75,152.88L150.32,141.63L150.9,131.51L151.48,122.39L152.05,114.19L152.63,106.81L153.21,100.17L153.78,94.186L154.36,88.804L154.94,83.961L155.51,79.602L156.09,75.679L156.67,72.148L157.24,68.97L157.82,66.111L158.4,61.22L158.97,59.135L159.55,57.259L160.13,55.57L160.7,54.05L161.28,52.682L161.86,51.451L162.43,50.343L163.01,49.346L163.59,48.448L164.16,47.641L164.74,46.914L165.32,46.259L165.89,45.671L166.47,45.141L167.05,44.664L167.62,44.234L168.2,43.848L168.78,43.5L169.35,43.187L169.93,42.906L170.51,42.652L171.08,42.424L171.66,42.219L172.24,42.034L172.81,41.868L173.39,41.718L173.96,41.583L174.54,41.462L175.12,41.353L175.69,41.255L176.27,41.167L176.85,41.087L177.42,41.015L178,40.951L178.58,40.893L179.15,40.841L179.73,40.794L180.31,40.752L180.88,40.713L181.46,40.679L182.04,40.648L182.61,40.621L183.19,40.596L183.77,40.573L184.34,40.553L184.92,40.535L185.5,40.518L186.07,40.504L186.65,40.49L187.23,40.479L187.8,40.468L188.38,40.458L188.96,40.449L189.53,40.442L190.11,40.435L190.69,40.428L191.26,40.422L191.84,40.417L192.42,40.413L192.99,40.409L193.57,40.405L194.15,40.401L194.72,40.398L195.3,40.396L195.88,40.393L196.45,40.391L197.03,40.389L197.6,40.387L198.18,40.386L198.76,40.384L199.33,40.383L199.91,40.382L200.49,40.381L201.06,40.38L201.64,40.379L202.22,40.378L202.79,40.377L203.37,40.377L203.95,40.376L204.52,40.376L205.1,40.375L205.68,40.375L206.25,40.374L206.83,40.374L207.41,40.374L207.98,40.374L208.56,40.373L209.14,40.373L209.71,40.373L210.29,40.373L210.87,40.373L211.44,40.372L212.02,40.372L212.6,40.372L213.17,40.372L213.75,40.372L214.33,40.372L214.9,40.372L215.48,40.372L216.06,40.372L216.63,40.372L217.21,40.371L217.79,40.371L218.36,40.371L218.94,40.371L219.52,40.371L220.09,40.371L220.67,40.371L221.25,40.371L221.82,40.371L222.4,40.371L222.97,40.371L223.55,40.371L224.13,40.371L224.7,130.84L225.28,121.8L225.86,204.13L226.43,187.75L227.01,173.01L227.59,159.75L228.16,147.81L228.74,137.07L229.32,127.4L229.89,118.7L230.47,201.34L231.05,185.24L231.62,170.75L232.2,157.71L232.78,145.98L233.35,135.42L233.93,125.91L234.51,117.36L235.08,109.66L235.66,102.73L236.24,96.496L236.81,181.36L237.39,167.26L237.97,154.57L238.54,143.15L239.12,132.87L239.7,214.09L240.27,196.72L240.85,181.09L241.43,167.02L242,154.35L242.58,233.43L243.16,214.12L243.73,196.75L244.31,181.11L244.89,167.03L245.46,154.37L246.04,142.97L246.61,132.71L247.19,123.48L247.77,115.16L248.34,198.16L248.92,182.38L249.5,168.18L250.07,155.4L250.65,143.9L251.23,224.02L251.8,205.65L252.38,189.12L252.96,174.25L253.53,160.86L254.11,148.81L254.69,137.97L255.26,128.21L255.84,119.42L256.42,111.52L256.99,194.88L257.57,179.43L258.15,165.52L258.72,153.01L259.3,141.74L259.88,131.61L260.45,212.96L261.03,195.7L261.61,270.64L262.18,247.61L262.76,226.89L263.34,208.24L263.91,191.45L264.49,176.34L265.07,162.74L265.64,150.51L266.22,139.49L266.8,129.58L267.37,120.66L267.95,112.63L268.53,105.41L269.1,98.902L269.68,93.049L270.25,87.781L270.83,83.04L271.41,78.773L271.98,165.41L272.56,152.9L273.14,141.65L273.71,131.52L274.29,122.41L274.87,114.2L275.44,106.82L276.02,100.17L276.6,94.195L277.17,88.812L277.75,83.968L278.33,79.608L278.9,75.685L279.48,72.153L280.06,68.975L280.63,66.115L281.21,63.54L281.79,61.223L282.36,59.138L282.94,57.261L283.52,55.572L284.09,54.052L284.67,52.684L285.25,51.453L285.82,50.345L286.4,49.347L286.98,138.92L287.55,129.07L288.13,120.2L288.71,112.22L289.28,105.03L289.86,98.565L290.44,92.746L291.01,87.508L291.59,82.794L292.17,78.552L292.74,165.21L293.32,152.72L293.89,141.49L294.47,131.38L295.05,212.75L295.62,195.51L296.2,180L296.78,166.03L297.35,153.47L297.93,142.16L298.51,131.98L299.08,122.82L299.66,114.57L300.24,107.15L300.81,100.48L301.39,94.465L301.97,89.056L302.54,84.187L303.12,79.806L303.7,75.862L304.27,72.313L304.85,69.119L305.43,66.244L306,63.657L306.58,61.328L307.16,59.233L307.73,57.346L308.31,55.649L308.89,54.121L309.46,52.746L310.04,51.509L310.62,50.395L311.19,49.392L311.77,138.96L312.35,129.1L312.92,210.7L313.5,193.67L314.08,178.34L314.65,164.54L315.23,152.13L315.81,140.95L316.38,130.89L316.96,121.84L317.54,204.17L318.11,187.79L318.69,173.05L319.26,159.78L319.84,147.84L320.42,137.09L320.99,127.42L321.57,118.71L322.15,110.88L322.72,103.83L323.3,97.483L323.88,91.772L324.45,86.632L325.03,82.006L325.61,77.842L326.18,74.095L326.76,70.723L327.34,67.688L327.91,64.956L328.49,62.497L329.07,60.285L329.64,58.293L330.22,54.888L330.8,53.437L331.37,52.13L331.95,50.954L332.53,49.896L333.1,48.943L333.68,48.086L334.26,47.315L334.83,46.62L335.41,45.995L335.99,45.433L336.56,44.927L337.14,44.471L337.72,44.061L338.29,43.692L338.87,43.36L339.45,43.061L340.02,42.792L340.6,42.55L341.18,42.332L341.75,42.136L342.33,41.96L342.9,41.801L343.48,41.658L344.06,41.529L344.63,41.413L345.21,41.309L345.79,41.215L346.36,41.131L346.94,41.055L347.52,40.986L348.09,40.925L348.67,40.87L349.25,40.82L349.82,40.775L350.4,40.734L350.98,40.698L351.55,40.665L352.13,40.636L352.71,40.61L353.28,40.586L353.86,40.564L354.44,40.545L355.01,40.528L355.59,40.512L356.17,40.498L356.74,40.485L357.32,40.474L357.9,40.463L358.47,40.454L359.05,40.446L359.63,40.438L360.2,40.432L360.78,40.426L361.36,40.42L361.93,40.415L362.51,40.411L363.09,40.407L363.66,40.403L364.24,40.4L364.82,40.397L365.39,40.395L365.97,40.392L366.54,40.39L367.12,40.388L367.7,40.386L368.27,40.385L368.85,40.384L369.43,40.382L370,40.381L370.58,40.38L371.16,40.379L371.73,40.378L372.31,40.378L372.89,40.377L373.46,40.376L374.04,40.376L374.62,40.375L375.19,40.375L375.77,40.375L376.35,40.374L376.92,40.374L377.5,40.374L378.08,40.373L378.65,40.373L379.23,40.373L379.81,40.373L380.38,40.373L380.96,40.372L381.54,40.372L382.11,40.372L382.69,40.372L383.27,40.372L383.84,40.372L384.42,40.372L385,40.372L385.57,40.372L386.15,40.372L386.73,40.372L387.3,40.371L387.88,40.371L388.46,40.371L389.03,40.371L389.61,40.371L390.19,40.371L390.76,40.371L391.34,40.371L391.91,40.371L392.49,40.371L393.07,40.371L393.64,40.371L394.22,40.371L394.8,40.371L395.37,40.371L395.95,40.371L396.53,130.84L397.1,121.8L397.68,113.65L398.26,106.33L398.83,190.2L399.41,175.22L399.99,161.74L400.56,149.6L401.14,138.68L401.72,128.85L402.29,210.47L402.87,193.46L403.45,178.15L404.02,164.37L404.6,151.97L405.18,140.81L405.75,130.77L406.33,121.73L406.91,113.59L407.48,106.27L408.06,99.681L408.64,184.22L409.21,169.84L409.79,156.89L410.37,145.24L410.94,134.75L411.52,125.31L412.1,116.82L412.67,199.65L413.25,183.72L413.83,169.39L414.4,246.96L414.98,226.3L415.55,207.71L416.13,190.97L416.71,175.91L417.28,162.36L417.86,150.16L418.44,139.18L419.01,219.77L419.59,201.83L420.17,185.69L420.74,171.16L421.32,158.08L421.9,146.31L422.47,135.71L423.05,216.65L423.63,199.02L424.2,183.16L424.78,259.35L425.36,237.45L425.93,217.75L426.51,200.01L427.09,184.04L427.66,169.68L428.24,156.75L428.82,145.11L429.39,134.64L429.97,125.21L430.55,116.73L431.12,109.09L431.7,102.22L432.28,96.033L432.85,90.467L433.43,175.93L434.01,162.37L434.58,150.17L435.16,139.19L435.74,129.31L436.31,120.42L436.89,202.89L437.47,186.63L438.04,172.01L438.62,158.84L439.19,237.47L439.77,217.76L440.35,200.02L440.92,184.06L441.5,169.69L442.08,156.76L442.65,145.12L443.23,225.12L443.81,206.64L444.38,190.01L444.96,175.05L445.54,161.58L446.11,149.46L446.69,138.55L447.27,128.73L447.84,119.9L448.42,111.95L449,104.79L449.57,98.346L450.15,92.549L450.73,87.331L451.3,82.635L451.88,78.408L452.46,74.605L453.03,71.181L453.61,68.1L454.19,65.327L454.76,62.832L455.34,60.586L455.92,58.564L456.49,56.745L457.07,55.108L457.65,144.11L458.22,133.73L458.8,124.4L459.38,115.99L459.95,108.43L460.53,101.63L461.11,185.97L461.68,171.41L462.26,158.31L462.83,146.52L463.41,135.9L463.99,126.35L464.56,117.75L465.14,110.01L465.72,103.05L466.29,96.781L466.87,181.61L467.45,167.49L468.02,154.78L468.6,143.34L469.18,133.04L469.75,123.77L470.33,115.43L470.91,107.93L471.48,101.17L472.06,95.091L472.64,89.619L473.21,84.694L473.79,80.262L474.37,76.273L474.94,72.683L475.52,69.452L476.1,66.543L476.67,63.926L477.25,61.571L477.83,59.451L478.4,57.543L478.98,55.826L479.56,54.28L480.13,52.889L480.71,51.637L481.29,50.511L481.86,49.497L482.44,139.06L483.02,129.19L483.59,120.31L484.17,112.31L484.75,195.59L485.32,180.07L485.9,166.1L486.48,153.53L487.05,142.21L487.63,132.03L488.2,213.34L488.78,196.04L489.36,180.47L489.93,166.46L490.51,153.85L491.09,142.5L491.66,132.29L492.24,123.1L492.82,114.83L493.39,107.38L493.97,100.68L494.55,94.649L495.12,89.221L495.7,84.336L496.28,79.94L496.85,75.983L497.43,72.422L498.01,69.217L498.58,66.332L499.16,63.736L499.74,151.87L500.31,140.72L500.89,130.69L501.47,121.66L502.04,106.21L502.62,99.628L503.2,93.702L503.77,88.369L504.35,83.569L504.93,79.249L505.5,75.361L506.08,71.862L506.66,68.713L507.23,65.879L507.81,63.328L508.39,61.033L508.96,58.966L509.54,57.107L510.12,55.433L510.69,53.927L511.27,52.571L511.84,51.351L512.42,50.253L513,49.265L513.57,48.376L514.15,47.575L514.73,46.855L515.3,46.207L515.88,45.623L516.46,45.098L517.03,44.625L517.61,44.2L518.19,43.817L518.76,43.472L519.34,43.162L519.92,42.883L520.49,42.632L521.07,42.406L521.65,42.202L522.22,42.019L522.8,41.854L523.38,41.706L523.95,41.573L524.53,41.452L525.11,41.344L525.68,41.247L526.26,41.159L526.84,41.081L527.41,41.01L527.99,40.946L528.57,40.888L529.14,40.837L529.72,40.79L530.3,40.748L530.87,40.71L531.45,40.676L532.03,40.646L532.6,40.618L533.18,40.594L533.76,40.571L534.33,40.551L534.91,40.533L535.48,40.517L536.06,40.503L536.64,40.489L537.21,40.478L537.79,40.467L538.37,40.457L538.94,40.449L539.52,40.441L540.1,40.434L540.67,40.428L541.25,40.422L541.83,40.417L542.4,40.412L542.98,40.408L543.56,40.405L544.13,40.401L544.71,40.398L545.29,40.395L545.86,40.393L546.44,40.391L547.02,40.389L547.59,40.387L548.17,40.385L548.75,40.384L549.32,40.383L549.9,40.382L550.48,40.381L551.05,40.38L551.63,40.379L552.21,40.378L552.78,40.377L553.36,40.377L553.94,40.376L554.51,40.376L555.09,40.375L555.67,40.375L556.24,40.374L556.82,40.374L557.4,40.374L557.97,40.373L558.55,40.373L559.12,40.373" style="fill:none;stroke:#FFC0CB" />
<path d="M43.656,40.371L44.233,40.371L44.809,40.371L45.386,40.371L45.963,40.371L46.539,40.371L47.116,40.371L47.692,40.371L48.269,40.371L48.846,40.371L49.422,40.371L49.999,40.371L50.575,40.371L51.152,40.371L51.728,40.371L52.305,40.371L52.882,40.371L53.458,40.371L54.035,70.529L54.611,40.371L55.188,40.371L55.765,40.371L56.341,40.371L56.918,40.371L57.494,40.371L58.071,40.371L58.648,40.371L59.224,40.371L59.801,40.371L60.377,40.371L60.954,40.371L61.53,40.371L62.107,40.371L62.684,40.371L63.26,40.371L63.837,40.371L64.413,70.529L64.99,40.371L65.567,40.371L66.143,40.371L66.72,40.371L67.296,40.371L67.873,40.371L68.449,40.371L69.026,40.371L69.603,40.371L70.179,40.371L70.756,40.371L71.332,40.371L71.909,40.371L72.486,40.371L73.062,40.371L73.639,40.371L74.215,40.371L74.792,70.529L75.369,40.371L75.945,40.371L76.522,40.371L77.098,40.371L77.675,40.371L78.251,40.371L78.828,40.371L79.405,40.371L79.981,40.371L80.558,40.371L81.134,40.371L81.711,40.371L82.288,40.371L82.864,40.371L83.441,40.371L84.017,40.371L84.594,40.371L85.171,40.371L85.747,40.371L86.324,40.371L86.9,40.371L87.477,70.529L88.053,40.371L88.63,40.371L89.207,40.371L89.783,40.371L90.36,40.371L90.936,40.371L91.513,40.371L92.09,40.371L92.666,40.371L93.243,40.371L93.819,40.371L94.396,40.371L94.972,40.371L95.549,40.371L96.126,40.371L96.702,40.371L97.279,40.371L97.855,40.371L98.432,40.371L99.009,40.371L99.585,40.371L100.16,40.371L100.74,40.371L101.31,40.371L101.89,40.371L102.47,40.371L103.04,40.371L103.62,40.371L104.2,40.371L104.77,40.371L105.35,40.371L105.93,40.371L106.5,40.371L107.08,40.371L107.66,40.371L108.23,40.371L108.81,40.371L109.39,40.371L109.96,40.371L110.54,40.371L111.12,40.371L111.69,40.371L112.27,40.371L112.85,40.371L113.42,40.371L114,40.371L114.58,40.371L115.15,40.371L115.73,70.529L116.31,40.371L116.88,40.371L117.46,40.371L118.04,40.371L118.61,40.371L119.19,40.371L119.77,40.371L120.34,40.371L120.92,40.371L121.5,40.371L122.07,40.371L122.65,40.371L123.23,40.371L123.8,40.371L124.38,40.371L124.96,40.371L125.53,40.371L126.11,40.371L126.68,40.371L127.26,40.371L127.84,40.371L128.41,40.371L128.99,40.371L129.57,40.371L130.14,40.371L130.72,40.371L131.3,40.371L131.87,40.371L132.45,40.371L133.03,40.371L133.6,40.371L134.18,40.371L134.76,40.371L135.33,40.371L135.91,40.371L136.49,40.371L137.06,40.371L137.64,40.371L138.22,40.371L138.79,40.371L139.37,40.371L139.95,40.371L140.52,40.371L141.1,40.371L141.68,40.371L142.25,40.371L142.83,40.371L143.41,70.529L143.98,40.371L144.56,40.371L145.14,40.371L145.71,40.371L146.29,40.371L146.87,40.371L147.44,40.371L148.02,40.371L148.6,40.371L149.17,40.371L149.75,40.371L150.32,40.371L150.9,40.371L151.48,40.371L152.05,40.371L152.63,40.371L153.21,40.371L153.78,40.371L154.36,40.371L154.94,40.371L155.51,40.371L156.09,40.371L156.67,40.371L157.24,40.371L157.82,40.371L158.4,40.371L158.97,40.371L159.55,40.371L160.13,40.371L160.7,40.371L161.28,40.371L161.86,40.371L162.43,40.371L163.01,40.371L163.59,40.371L164.16,40.371L164.74,40.371L165.32,40.371L165.89,40.371L166.47,40.371L167.05,40.371L167.62,40.371L168.2,40.371L168.78,40.371L169.35,40.371L169.93,40.371L170.51,40.371L171.08,40.371L171.66,40.371L172.24,40.371L172.81,40.371L173.39,40.371L173.96,40.371L174.54,40.371L175.12,40.371L175.69,40.371L176.27,40.371L176.85,40.371L177.42,40.371L178,40.371L178.58,40.371L179.15,40.371L179.73,40.371L180.31,40.371L180.88,40.371L181.46,40.371L182.04,40.371L182.61,40.371L183.19,40.371L183.77,40.371L184.34,40.371L184.92,40.371L185.5,40.371L186.07,40.371L186.65,40.371L187.23,40.371L187.8,40.371L188.38,40.371L188.96,40.371L189.53,40.371L190.11,40.371L190.69,40.371L191.26,40.371L191.84,40.371L192.42,40.371L192.99,40.371L193.57,40.371L194.15,40.371L194.72,40.371L195.3,40.371L195.88,40.371L196.45,40.371L197.03,40.371L197.6,40.371L198.18,40.371L198.76,40.371L199.33,40.371L199.91,40.371L200.49,40.371L201.06,40.371L201.64,40.371L202.22,40.371L202.79,40.371L203.37,40.371L203.95,40.371L204.52,40.371L205.1,40.371L205.68,40.371L206.25,40.371L206.83,40.371L207.41,40.371L207.98,40.371L208.56,40.371L209.14,40.371L209.71,40.371L210.29,40.371L210.87,40.371L211.44,40.371L212.02,40.371L212.6,40.371L213.17,40.371L213.75,40.371L214.33,40.371L214.9,40.371L215.48,40.371L216.06,40.371L216.63,40.371L217.21,40.371L217.79,40.371L218.36,40.371L218.94,40.371L219.52,40.371L220.09,40.371L220.67,40.371L221.25,40.371L221.82,40.371L222.4,40.371L222.97,40.371L223.55,40.371L224.13,40.371L224.7,40.371L225.28,40.371L225.86,70.529L226.43,40.371L227.01,40.371L227.59,40.371L228.16,40.371L228.74,40.371L229.32,40.371L229.89,40.371L230.47,40.371L231.05,40.371L231.62,40.371L232.2,40.371L232.78,40.371L233.35,40.371L233.93,40.371L234.51,40.371L235.08,40.371L235.66,40.371L236.24,40.371L236.81,40.371L237.39,40.371L237.97,40.371L238.54,40.371L239.12,40.371L239.7,70.529L240.27,40.371L240.85,40.371L241.43,40.371L242,40.371L242.58,40.371L243.16,40.371L243.73,40.371L244.31,40.371L244.89,40.371L245.46,40.371L246.04,40.371L246.61,40.371L247.19,40.371L247.77,40.371L248.34,70.529L248.92,40.371L249.5,40.371L250.07,40.371L250.65,40.371L251.23,40.371L251.8,40.371L252.38,40.371L252.96,40.371L253.53,40.371L254.11,40.371L254.69,40.371L255.26,40.371L255.84,40.371L256.42,40.371L256.99,40.371L257.57,40.371L258.15,40.371L258.72,40.371L259.3,40.371L259.88,40.371L260.45,70.529L261.03,40.371L261.61,40.371L262.18,40.371L262.76,40.371L263.34,40.371L263.91,40.371L264.49,40.371L265.07,40.371L265.64,40.371L266.22,40.371L266.8,40.371L267.37,40.371L267.95,40.371L268.53,40.371L269.1,40.371L269.68,40.371L270.25,40.371L270.83,40.371L271.41,40.371L271.98,70.529L272.56,40.371L273.14,40.371L273.71,40.371L274.29,40.371L274.87,40.371L275.44,40.371L276.02,40.371L276.6,40.371L277.17,40.371L277.75,40.371L278.33,40.371L278.9,40.371L279.48,40.371L280.06,40.371L280.63,40.371L281.21,40.371L281.79,40.371L282.36,40.371L282.94,40.371L283.52,40.371L284.09,40.371L284.67,40.371L285.25,40.371L285.82,40.371L286.4,40.371L286.98,40.371L287.55,40.371L288.13,40.371L288.71,40.371L289.28,40.371L289.86,40.371L290.44,40.371L291.01,40.371L291.59,40.371L292.17,40.371L292.74,40.371L293.32,40.371L293.89,40.371L294.47,40.371L295.05,70.529L295.62,40.371L296.2,40.371L296.78,40.371L297.35,40.371L297.93,40.371L298.51,40.371L299.08,40.371L299.66,40.371L300.24,40.371L300.81,40.371L301.39,40.371L301.97,40.371L302.54,40.371L303.12,40.371L303.7,40.371L304.27,40.371L304.85,40.371L305.43,40.371L306,40.371L306.58,40.371L307.16,40.371L307.73,40.371L308.31,40.371L308.89,40.371L309.46,40.371L310.04,40.371L310.62,40.371L311.19,40.371L311.77,40.371L312.35,40.371L312.92,70.529L313.5,40.371L314.08,40.371L314.65,40.371L315.23,40.371L315.81,40.371L316.38,40.371L316.96,40.371L317.54,40.371L318.11,40.371L318.69,40.371L319.26,40.371L319.84,40.371L320.42,40.371L320.99,40.371L321.57,40.371L322.15,40.371L322.72,40.371L323.3,40.371L323.88,40.371L324.45,40.371L325.03,40.371L325.61,40.371L326.18,40.371L326.76,40.371L327.34,40.371L327.91,40.371L328.49,40.371L329.07,40.371L329.64,40.371L330.22,40.371L330.8,40.371L331.37,40.371L331.95,40.371L332.53,40.371L333.1,40.371L333.68,40.371L334.26,40.371L334.83,40.371L335.41,40.371L335.99,40.371L336.56,40.371L337.14,40.371L337.72,40.371L338.29,40.371L338.87,40.371L339.45,40.371L340.02,40.371L340.6,40.371L341.18,40.371L341.75,40.371L342.33,40.371L342.9,40.371L343.48,40.371L344.06,40.371L344.63,40.371L345.21,40.371L345.79,40.371L346.36,40.371L346.94,40.371L347.52,40.371L348.09,40.371L348.67,40.371L349.25,40.371L349.82,40.371L350.4,40.371L350.98,40.371L351.55,40.371L352.13,40.371L352.71,40.371L353.28,40.371L353.86,40.371L354.44,40.371L355.01,40.371L355.59,40.371L356.17,40.371L356.74,40.371L357.32,40.371L357.9,40.371L358.47,40.371L359.05,40.371L359.63,40.371L360.2,40.371L360.78,40.371L361.36,40.371L361.93,40.371L362.51,40.371L363.09,40.371L363.66,40.371L364.24,40.371L364.82,40.371L365.39,40.371L365.97,40.371L366.54,40.371L367.12,40.371L367.7,40.371L368.27,40.371L368.85,40.371L369.43,40.371L370,40.371L370.58,40.371L371.16,40.371L371.73,40.371L372.31,40.371L372.89,40.371L373.46,40.371L374.04,40.371L374.62,40.371L375.19,40.371L375.77,40.371L376.35,40.371L376.92,40.371L377.5,40.371L378.08,40.371L378.65,40.371L379.23,40.371L379.81,40.371L380.38,40.371L380.96,40.371L381.54,40.371L382.11,40.371L382.69,40.371L383.27,40.371L383.84,40.371L384.42,40.371L385,40.371L385.57,40.371L386.15,40.371L386.73,40.371L387.3,40.371L387.88,40.371L388.46,40.371L389.03,40.371L389.61,40.371L390.19,40.371L390.76,40.371L391.34,40.371L391.91,40.371L392.49,40.371L393.07,40.371L393.64,40.371L394.22,40.371L394.8,40.371L395.37,40.371L395.95,40.371L396.53,40.371L397.1,40.371L397.68,40.371L398.26,40.371L398.83,70.529L399.41,40.371L399.99,40.371L400.56,40.371L401.14,40.371L401.72,40.371L402.29,40.371L402.87,40.371L403.45,40.371L404.02,40.371L404.6,40.371L405.18,40.371L405.75,40.371L406.33,40.371L406.91,40.371L407.48,40.371L408.06,40.371L408.64,40.371L409.21,40.371L409.79,40.371L410.37,40.371L410.94,40.371L411.52,40.371L412.1,40.371L412.67,70.529L413.25,40.371L413.83,40.371L414.4,40.371L414.98,40.371L415.55,40.371L416.13,40.371L416.71,40.371L417.28,40.371L417.86,40.371L418.44,40.371L419.01,40.371L419.59,40.371L420.17,40.371L420.74,40.371L421.32,40.371L421.9,40.371L422.47,40.371L423.05,70.529L423.63,40.371L424.2,40.371L424.78,40.371L425.36,40.371L425.93,40.371L426.51,40.371L427.09,40.371L427.66,40.371L428.24,40.371L428.82,40.371L429.39,40.371L429.97,40.371L430.55,40.371L431.12,40.371L431.7,40.371L432.28,40.371L432.85,40.371L433.43,40.371L434.01,40.371L434.58,40.371L435.16,40.371L435.74,40.371L436.31,40.371L436.89,70.529L437.47,40.371L438.04,40.371L438.62,40.371L439.19,40.371L439.77,40.371L440.35,40.371L440.92,40.371L441.5,40.371L442.08,40.371L442.65,40.371L443.23,70.529L443.81,40.371L444.38,40.371L444.96,40.371L445.54,40.371L446.11,40.371L446.69,40.371L447.27,40.371L447.84,40.371L448.42,40.371L449,40.371L449.57,40.371L450.15,40.371L450.73,40.371L451.3,40.371L451.88,40.371L452.46,40.371L453.03,40.371L453.61,40.371L454.19,40.371L454.76,40.371L455.34,40.371L455.92,40.371L456.49,40.371L457.07,40.371L457.65,70.529L458.22,40.371L458.8,40.371L459.38,40.371L459.95,40.371L460.53,40.371L461.11,40.371L461.68,40.371L462.26,40.371L462.83,40.371L463.41,40.371L463.99,40.371L464.56,40.371L465.14,40.371L465.72,40.371L466.29,40.371L466.87,40.371L467.45,40.371L468.02,40.371L468.6,40.371L469.18,40.371L469.75,40.371L470.33,40.371L470.91,40.371L471.48,40.371L472.06,40.371L472.64,40.371L473.21,40.371L473.79,40.371L474.37,40.371L474.94,40.371L475.52,40.371L476.1,40.371L476.67,40.371L477.25,40.371L477.83,40.371L478.4,40.371L478.98,40.371L479.56,40.371L480.13,40.371L480.71,40.371L481.29,40.371L481.86,40.371L482.44,40.371L483.02,40.371L483.59,40.371L484.17,40.371L484.75,70.529L485.32,40.371L485.9,40.371L486.48,40.371L487.05,40.371L487.63,40.371L488.2,40.371L488.78,40.371L489.36,40.371L489.93,40.371L490.51,40.371L491.09,40.371L491.66,40.371L492.24,40.371L492.82,40.371L493.39,40.371L493.97,40.371L494.55,40.371L495.12,40.371L495.7,40.371L496.28,40.371L496.85,40.371L497.43,40.371L498.01,40.371L498.58,40.371L499.16,40.371L499.74,70.529L500.31,40.371L500.89,40.371L501.47,40.371L502.04,40.371L502.62,40.371L503.2,40.371L503.77,40.371L504.35,40.371L504.93,40.371L505.5,40.371L506.08,40.371L506.66,40.371L507.23,40.371L507.81,40.371L508.39,40.371L508.96,40.371L509.54,40.371L510.12,40.371L510.69,40.371L511.27,40.371L511.84,40.371L512.42,40.371L513,40.371L513.57,40.371L514.15,40.371L514.73,40.371L515.3,40.371L515.88,40.371L516.46,40.371L517.03,40.371L517.61,40.371L518.19,40.371L518.76,40.371L519.34,40.371L519.92,40.371L520.49,40.371L521.07,40.371L521.65,40.371L522.22,40.371L522.8,40.371L523.38,40.371L523.95,40.371L524.53,40.371L525.11,40.371L525.68,40.371L526.26,40.371L526.84,40.371L527.41,40.371L527.99,40.371L528.57,40.371L529.14,40.371L529.72,40.371L530.3,40.371L530.87,40.371L531.45,40.371L532.03,40.371L532.6,40.371L533.18,40.371L533.76,40.371L534.33,40.371L534.91,40.371L535.48,40.371L536.06,40.371L536.64,40.371L537.21,40.371L537.79,40.371L538.37,40.371L538.94,40.371L539.52,40.371L540.1,40.371L540.67,40.371L541.25,40.371L541.83,40.371L542.4,40.371L542.98,40.371L543.56,40.371L544.13,40.371L544.71,40.371L545.29,40.371L545.86,40.371L546.44,40.371L547.02,40.371L547.59,40.371L548.17,40.371L548.75,40.371L549.32,40.371L549.9,40.371L550.48,40.371L551.05,40.371L551.63,40.371L552.21,40.371L552.78,40.371L553.36,40.371L553.94,40.371L554.51,40.371L555.09,40.371L555.67,40.371L556.24,40.371L556.82,40.371L557.4,40.371L557.97,40.371L558.55,40.371L559.12,40.371" style="fill:none;stroke:#FA8072" />
<path d="M43.656,41.879L44.233,41.879L44.809,41.879L45.386,41.879L45.963,41.879L46.539,41.879L47.116,41.879L47.692,41.879L48.269,41.879L48.846,41.879L49.422,41.879L49.999,41.879L50.575,41.879L51.152,41.879L51.728,41.879L52.305,41.879L52.882,66.436L53.458,216.38L54.035,213.08L54.611,179.29L55.188,155.84L55.765,133.95L56.341,164.79L56.918,207.1L57.494,190.46L58.071,188.54L58.648,181.38L59.224,289.45L59.801,218.18L60.377,164.32L60.954,133.72L61.53,112.38L62.107,130.9L62.684,137.85L63.26,135.25L63.837,136.59L64.413,272.72L64.99,213.18L65.567,164.8L66.143,136.62L66.72,115.59L67.296,108.47L67.873,102.18L68.449,96.489L69.026,91.292L69.603,86.586L70.179,82.364L70.756,78.607L71.332,75.282L71.909,72.349L72.486,69.766L73.062,67.492L73.639,65.486L74.215,99.969L74.792,148.69L75.369,157.54L75.945,267.25L76.522,201.98L77.098,153.51L77.675,126.37L78.251,107.18L78.828,119.18L79.405,136.25L79.981,132.07L80.558,130.43L81.134,132.12L81.711,230.51L82.288,174.15L82.864,132.18L83.441,108.69L84.017,93.217L84.594,85.278L85.171,79.457L85.747,74.864L86.324,71.086L86.9,93.664L87.477,141.88L88.053,149.42L88.63,247.38L89.207,187.94L89.783,143.95L90.36,119.18L90.936,101.72L91.513,111.36L92.09,123.62L92.666,122.67L93.243,121.13L93.819,123.21L94.396,214.09L94.972,162.34L95.549,124.1L96.126,102.67L96.702,88.619L97.279,81.154L97.855,75.718L98.432,71.462L99.009,67.987L99.585,65.083L100.16,85.77L100.74,86.009L101.31,95.699L101.89,198.16L102.47,147.56L103.04,110.4L103.62,90.19L104.2,78.305L104.77,77.054L105.35,78.226L105.93,78.384L106.5,76.225L107.08,86.369L107.66,182.51L108.23,136.62L108.81,102.74L109.39,84.224L109.96,73.691L110.54,67.369L111.12,63.149L111.69,60.045L112.27,57.616L112.85,55.641L113.42,53.996L114,52.606L114.58,51.422L115.15,50.406L115.73,66.487L116.31,68.973L116.88,68.981L117.46,68.304L118.04,67.368L118.61,66.339L119.19,65.295L119.77,64.274L120.34,63.296L120.92,62.368L121.5,61.49L122.07,60.662L122.65,59.882L123.23,106.1L123.8,108.56L124.38,117.71L124.96,238.97L125.53,175.66L126.11,129.37L126.68,104.44L127.26,89.12L127.84,91.589L128.41,96.269L128.99,97.258L129.57,95.253L130.14,104.52L130.72,214.81L131.3,159.39L131.87,118.17L132.45,95.73L133.03,82.476L133.6,74.887L134.18,69.691L134.76,65.801L135.33,62.725L135.91,60.21L136.49,58.113L137.06,56.342L137.64,54.834L138.22,53.542L138.79,52.429L139.37,51.466L139.95,50.63L140.52,49.9L141.1,49.261L141.68,48.7L142.25,48.205L142.83,47.766L143.41,64.495L143.98,149.72L144.56,164.27L145.14,168.16L145.71,284.78L146.29,213.45L146.87,160.79L147.44,131.5L148.02,110.76L148.6,123.6L149.17,136.96L149.75,138.88L150.32,137.3L150.9,138.83L151.48,244.66L152.05,182.93L152.63,137.2L153.21,111.87L153.78,95.343L154.36,86.605L154.94,80.233L155.51,75.28L156.09,71.276L156.67,67.964L157.24,65.184L157.82,62.829L158.4,59.095L158.97,57.608L159.55,56.318L160.13,55.195L160.7,54.212L161.28,53.347L161.86,52.582L162.43,51.904L163.01,51.298L163.59,50.756L164.16,50.268L164.74,49.826L165.32,49.425L165.89,49.06L166.47,48.726L167.05,48.419L167.62,48.136L168.2,47.874L168.78,47.631L169.35,47.405L169.93,47.194L170.51,46.997L171.08,46.812L171.66,46.638L172.24,46.473L172.81,46.318L173.39,46.172L173.96,46.033L174.54,45.901L175.12,45.775L175.69,45.656L176.27,45.542L176.85,45.434L177.42,45.33L178,45.231L178.58,45.136L179.15,45.045L179.73,44.958L180.31,44.874L180.88,44.794L181.46,44.717L182.04,44.643L182.61,44.571L183.19,44.503L183.77,44.437L184.34,44.373L184.92,44.312L185.5,44.253L186.07,44.196L186.65,44.141L187.23,44.089L187.8,44.038L188.38,43.988L188.96,43.941L189.53,43.895L190.11,43.851L190.69,43.808L191.26,43.767L191.84,43.727L192.42,43.689L192.99,43.651L193.57,43.615L194.15,43.581L194.72,43.547L195.3,43.514L195.88,43.483L196.45,43.453L197.03,43.423L197.6,43.395L198.18,43.367L198.76,43.341L199.33,43.315L199.91,43.29L200.49,43.266L201.06,43.243L201.64,43.22L202.22,43.198L202.79,43.177L203.37,43.157L203.95,43.137L204.52,43.118L205.1,43.099L205.68,43.081L206.25,43.064L206.83,43.047L207.41,43.031L207.98,43.015L208.56,42.999L209.14,42.985L209.71,42.97L210.29,42.956L210.87,42.943L211.44,42.93L212.02,42.917L212.6,42.905L213.17,42.893L213.75,42.882L214.33,42.871L214.9,42.86L215.48,42.839L216.06,42.829L216.63,42.82L217.21,42.811L217.79,42.802L218.36,42.793L218.94,42.785L219.52,42.777L220.09,42.769L220.67,42.761L221.25,42.754L221.82,42.747L222.4,42.74L222.97,42.733L223.55,42.727L224.13,42.72L224.7,42.714L225.28,44.526L225.86,170.52L226.43,223.53L227.01,378.47L227.59,294.57L228.16,226.6L228.74,186.37L229.32,153.49L229.89,187.96L230.47,231.25L231.05,214.35L231.62,210.48L232.2,198.98L232.78,312.1L233.35,231.89L233.93,172.54L234.51,139.35L235.08,116.26L235.66,105.63L236.24,97.39L236.81,90.753L237.39,129.96L237.97,130.24L238.54,134.86L239.12,252.15L239.7,213.32L240.27,164.7L240.85,135.55L241.43,114.25L242,128.1L242.58,144.36L243.16,142.96L243.73,141.17L244.31,141.17L244.89,241.27L245.46,181.16L246.04,136.82L246.61,112.15L247.19,95.774L247.77,87.324L248.34,94.01L248.92,90.299L249.5,85.73L250.07,81.514L250.65,77.791L251.23,74.534L251.8,121.34L252.38,123.25L252.96,127.83L253.53,235.83L254.11,175.42L254.69,131.23L255.26,107.09L255.84,91.57L256.42,95.785L256.99,101.33L257.57,103.01L258.15,101.2L258.72,108.03L259.3,208.88L259.88,155.97L260.45,137.58L261.03,117.21L261.61,100.72L262.18,132.08L262.76,131.95L263.34,132.53L263.91,224.48L264.49,169.71L265.07,129.42L265.64,106.89L266.22,91.894L266.8,91.123L267.37,88.985L267.95,85.859L268.53,82.067L269.1,77.934L269.68,73.865L270.25,70.129L270.83,66.823L271.41,63.949L271.98,77.083L272.56,76.542L273.14,74.205L273.71,71.702L274.29,69.344L274.87,67.204L275.44,65.294L276.02,63.598L276.6,62.097L277.17,60.765L277.75,59.58L278.33,58.521L278.9,57.57L279.48,56.713L280.06,55.935L280.63,55.226L281.21,54.577L281.79,53.98L282.36,53.428L282.94,52.916L283.52,52.44L284.09,51.995L284.67,51.578L285.25,51.186L285.82,50.817L286.4,50.469L286.98,50.14L287.55,72.404L288.13,73.551L288.71,91.343L289.28,231.98L289.86,166.2L290.44,118.14L291.01,93.048L291.59,79.449L292.17,76.056L292.74,76.029L293.32,76.282L293.89,73.698L294.47,88.601L295.05,247.67L295.62,189.41L296.2,142.56L296.78,116.5L297.35,99.129L297.93,90.26L298.51,83.656L299.08,78.439L299.66,74.17L300.24,70.605L300.81,67.593L301.39,65.027L301.97,62.828L302.54,60.934L303.12,59.295L303.7,57.869L304.27,56.623L304.85,55.53L305.43,54.565L306,53.709L306.58,52.947L307.16,52.264L307.73,51.651L308.31,51.097L308.89,50.595L309.46,50.138L310.04,49.72L310.62,49.336L311.19,48.983L311.77,48.657L312.35,65.451L312.92,131.48L313.5,156.66L314.08,290.71L314.65,218.31L315.23,163.85L315.81,133.68L316.38,112.41L316.96,125.94L317.54,139.89L318.11,142.24L318.69,140.67L319.26,142.74L319.84,255.88L320.42,190.06L320.99,141.31L321.57,114.52L322.15,97.202L322.72,88.08L323.3,81.444L323.88,76.299L324.45,72.148L325.03,68.721L325.61,65.849L326.18,63.421L326.76,61.352L327.34,59.579L327.91,58.053L328.49,56.731L329.07,55.582L329.64,54.577L330.22,52.916L330.8,52.225L331.37,51.61L331.95,51.059L332.53,50.563L333.1,50.116L333.68,49.71L334.26,49.341L334.83,49.003L335.41,48.692L335.99,48.407L336.56,48.142L337.14,47.897L337.72,47.669L338.29,47.456L338.87,47.257L339.45,47.07L340.02,46.895L340.6,46.729L341.18,46.573L341.75,46.425L342.33,46.285L342.9,46.152L343.48,46.025L344.06,45.905L344.63,45.79L345.21,45.681L345.79,45.576L346.36,45.476L346.94,45.381L347.52,45.289L348.09,45.201L348.67,45.117L349.25,45.036L349.82,44.958L350.4,44.883L350.98,44.811L351.55,44.742L352.13,44.676L352.71,44.611L353.28,44.55L353.86,44.49L354.44,44.433L355.01,44.378L355.59,44.324L356.17,44.273L356.74,44.224L357.32,44.176L357.9,44.13L358.47,44.085L359.05,44.042L359.63,44L360.2,43.96L360.78,43.922L361.36,43.884L361.93,43.848L362.51,43.813L363.09,43.779L363.66,43.746L364.24,43.715L364.82,43.684L365.39,43.655L365.97,43.626L366.54,43.599L367.12,43.572L367.7,43.546L368.27,43.521L368.85,43.497L369.43,43.474L370,43.451L370.58,43.429L371.16,43.408L371.73,43.388L372.31,43.368L372.89,43.349L373.46,43.331L374.04,43.313L374.62,43.295L375.19,43.279L375.77,43.262L376.35,43.247L376.92,43.231L377.5,43.217L378.08,43.202L378.65,43.189L379.23,43.175L379.81,43.162L380.38,43.15L380.96,43.138L381.54,43.126L382.11,43.115L382.69,43.104L383.27,43.093L383.84,43.083L384.42,43.073L385,43.064L385.57,43.054L386.15,43.045L386.73,43.037L387.3,43.02L387.88,43.012L388.46,43.005L389.03,42.997L389.61,42.99L390.19,42.983L390.76,42.976L391.34,42.97L391.91,42.964L392.49,42.958L393.07,42.952L393.64,42.946L394.22,42.941L394.8,42.935L395.37,42.93L395.95,42.925L396.53,42.921L397.1,45.276L397.68,45.502L398.26,71.34L398.83,304.18L399.41,251.86L399.99,200.68L400.56,169.49L401.14,142.66L401.72,174.97L402.29,215.01L402.87,203.18L403.45,200.72L404.02,191.92L404.6,307.36L405.18,228.16L405.75,169.54L406.33,136.88L406.91,114.35L407.48,103.88L408.06,95.821L408.64,89.348L409.21,127.63L409.79,127.95L410.37,133.13L410.94,251.41L411.52,185.87L412.1,137.1L412.67,130L413.25,112.5L413.83,126.82L414.4,142.79L414.98,142.31L415.55,140.68L416.13,140.91L416.71,241.73L417.28,181.34L417.86,136.82L418.44,112.11L419.01,95.719L419.59,116.5L420.17,115.2L420.74,119.45L421.32,218.38L421.9,163.79L422.47,123.35L423.05,117.63L423.63,102.91L424.2,113.99L424.78,124.79L425.36,127.2L425.93,125.88L426.51,126.76L427.09,215.11L427.66,162.85L428.24,124.63L428.82,103.25L429.39,89.066L429.97,81.434L430.55,75.846L431.12,71.487L431.7,67.951L432.28,65.016L432.85,62.545L433.43,60.445L434.01,83.258L434.58,83.856L435.16,94.429L435.74,200.37L436.31,147.86L436.89,130.08L437.47,110.59L438.04,95.301L438.62,103.84L439.19,111.4L439.77,116.04L440.35,114.96L440.92,118.44L441.5,211.91L442.08,159.43L442.65,121.06L443.23,112.39L443.81,98.252L444.38,90.306L444.96,84.012L445.54,78.924L446.11,74.716L446.69,71.184L447.27,68.192L447.84,65.639L448.42,63.448L449,61.557L449.57,59.918L450.15,58.49L450.73,57.239L451.3,56.138L451.88,55.163L452.46,54.296L453.03,53.521L453.61,52.825L454.19,52.196L454.76,51.627L455.34,51.108L455.92,50.634L456.49,50.199L457.07,49.798L457.65,60.754L458.22,63.802L458.8,64.864L459.38,65.13L459.95,64.979L460.53,64.596L461.11,64.084L461.68,128.88L462.26,132.69L462.83,139.15L463.41,266.88L463.99,195.9L464.56,143.89L465.14,115.81L465.72,97.86L466.29,103.53L466.87,110.07L467.45,112.86L468.02,110.99L468.6,118.53L469.18,234.49L469.75,173.21L470.33,127.73L470.91,103.04L471.48,88.069L472.06,79.708L472.64,73.877L473.21,69.473L473.79,65.98L474.37,63.126L474.94,60.749L475.52,58.748L476.1,57.048L476.67,55.595L477.25,54.346L477.83,53.268L478.4,52.334L478.98,51.519L479.56,50.807L480.13,50.181L480.71,49.629L481.29,49.139L481.86,48.703L482.44,48.314L483.02,62.084L483.59,62.789L484.17,81.647L484.75,258.79L485.32,200.81L485.9,153.33L486.48,126.68L487.05,107.62L487.63,120.35L488.2,132.3L488.78,136.98L489.36,135.83L489.93,138.4L490.51,248.63L491.09,184.96L491.66,137.92L492.24,112.06L492.82,95.363L493.39,86.434L493.97,79.959L494.55,74.957L495.12,70.938L495.7,67.63L496.28,64.865L496.85,62.53L497.43,60.544L498.01,58.844L498.58,57.381L499.16,56.115L499.74,65.31L500.31,66.261L500.89,65.781L501.47,64.959L502.04,63.097L502.62,62.181L503.2,61.305L503.77,60.475L504.35,59.693L504.93,58.957L505.5,58.264L506.08,57.611L506.66,56.995L507.23,56.414L507.81,55.864L508.39,55.342L508.96,54.848L509.54,54.378L510.12,53.931L510.69,53.505L511.27,53.099L511.84,52.712L512.42,52.343L513,51.989L513.57,51.651L514.15,51.328L514.73,51.018L515.3,50.722L515.88,50.438L516.46,50.165L517.03,49.903L517.61,49.653L518.19,49.412L518.76,49.18L519.34,48.958L519.92,48.745L520.49,48.54L521.07,48.342L521.65,48.153L522.22,47.97L522.8,47.795L523.38,47.626L523.95,47.464L524.53,47.307L525.11,47.157L525.68,47.012L526.26,46.872L526.84,46.738L527.41,46.608L527.99,46.483L528.57,46.363L529.14,46.247L529.72,46.136L530.3,46.028L530.87,45.924L531.45,45.824L532.03,45.727L532.6,45.634L533.18,45.545L533.76,45.458L534.33,45.374L534.91,45.294L535.48,45.216L536.06,45.141L536.64,45.068L537.21,44.998L537.79,44.931L538.37,44.866L538.94,44.803L539.52,44.742L540.1,44.683L540.67,44.626L541.25,44.572L541.83,44.519L542.4,44.468L542.98,44.418L543.56,44.37L544.13,44.324L544.71,44.28L545.29,44.237L545.86,44.195L546.44,44.155L547.02,44.116L547.59,44.078L548.17,44.042L548.75,44.007L549.32,43.973L549.9,43.94L550.48,43.908L551.05,43.878L551.63,43.848L552.21,43.819L552.78,43.792L553.36,43.765L553.94,43.739L554.51,43.714L555.09,43.689L555.67,43.666L556.24,43.643L556.82,43.621L557.4,43.6L557.97,43.579L558.55,43.559L559.12,43.54" style="fill:none;stroke:#A52A2A" />
<path d="M539.12,370.69L559.12,370.69" style="fill:none;stroke:#800080" />
<text x="505.77" y="-367.86" transform="scale(1, -1)"
	style="font-family:Liberation Sans;font-variant:normal;font-weight:normal;font-style:normal;font-size:12px">Spike</text>
<path d="M539.12,360.22L559.12,360.22" style="fill:none;stroke:#FFC0CB" />
<text x="510.46" y="-357.39" transform="scale(1, -1)"
	style="font-family:Liberation Sans;font-variant:normal;font-weight:normal;font-style:normal;font-size:12px">CaM</text>
<path d="M539.12,349.75L559.12,349.75" style="fill:none;stroke:#FA8072" />
<text x="487.1" y="-346.92" transform="scale(1, -1)"
	style="font-family:Liberation Sans;font-variant:normal;font-weight:normal;font-style:normal;font-size:12px">PreSpike</text>
<path d="M539.12,339.28L559.12,339.28" style="fill:none;stroke:#A52A2A" />
<text x="489.1" y="-336.45" transform="scale(1, -1)"
	style="font-family:Liberation Sans;font-variant:normal;font-weight:normal;font-style:normal;font-size:12px">PSD_Ca</text>
</g>
</svg>
