<?xml version="1.0"?>
<!-- Generated by SVGo and Plotinum VG -->
<svg width="560.62pt" height="265.88pt" viewBox="0 0 560.62 265.88"
	xmlns="http://www.w3.org/2000/svg"
	xmlns:xlink="http://www.w3.org/1999/xlink">
<g transform="scale(1, -1) translate(0, -265.88)">
<text x="235.29" y="-256.15" transform="scale(1, -1)"
	style="font-family:Liberation Sans;font-variant:normal;font-weight:normal;font-style:normal;font-size:12px">Kinase Time Plot</text>
<text x="289.72" y="-3.6797" transform="scale(1, -1)"
	style="font-family:Liberation Sans;font-variant:normal;font-weight:normal;font-style:normal;font-size:12px">Time</text>
<text x="142.6" y="-16.473" transform="scale(1, -1)"
	style="font-family:Liberation Sans;font-variant:normal;font-weight:normal;font-style:normal;font-size:10px">0.64</text>
<text x="343.27" y="-16.473" transform="scale(1, -1)"
	style="font-family:Liberation Sans;font-variant:normal;font-weight:normal;font-style:normal;font-size:10px">0.72</text>
<text x="546.72" y="-16.473" transform="scale(1, -1)"
	style="font-family:Liberation Sans;font-variant:normal;font-weight:normal;font-style:normal;font-size:10px">0.8</text>
<path d="M152.33,24.578L152.33,32.578" style="fill:none;stroke:#000000;stroke-width:0.5" />
<path d="M353,24.578L353,32.578" style="fill:none;stroke:#000000;stroke-width:0.5" />
<path d="M553.67,24.578L553.67,32.578" style="fill:none;stroke:#000000;stroke-width:0.5" />
<path d="M252.67,28.578L252.67,32.578" style="fill:none;stroke:#000000;stroke-width:0.5" />
<path d="M453.34,28.578L453.34,32.578" style="fill:none;stroke:#000000;stroke-width:0.5" />
<path d="M51.996,32.578L553.67,32.578" style="fill:none;stroke:#000000;stroke-width:0.5" />
<g transform="rotate(90)">
<text x="128.62" y="9.7266" transform="scale(1, -1)"
	style="font-family:Liberation Sans;font-variant:normal;font-weight:normal;font-style:normal;font-size:12px">Spike</text>
</g>
<text x="15.949" y="-37.852" transform="scale(1, -1)"
	style="font-family:Liberation Sans;font-variant:normal;font-weight:normal;font-style:normal;font-size:10px">0.00</text>
<text x="15.949" y="-141.11" transform="scale(1, -1)"
	style="font-family:Liberation Sans;font-variant:normal;font-weight:normal;font-style:normal;font-size:10px">2.50</text>
<text x="15.949" y="-244.36" transform="scale(1, -1)"
	style="font-family:Liberation Sans;font-variant:normal;font-weight:normal;font-style:normal;font-size:10px">5.00</text>
<path d="M38.19,40.371L46.19,40.371" style="fill:none;stroke:#000000;stroke-width:0.5" />
<path d="M38.19,143.63L46.19,143.63" style="fill:none;stroke:#000000;stroke-width:0.5" />
<path d="M38.19,246.88L46.19,246.88" style="fill:none;stroke:#000000;stroke-width:0.5" />
<path d="M42.19,61.022L46.19,61.022" style="fill:none;stroke:#000000;stroke-width:0.5" />
<path d="M42.19,81.673L46.19,81.673" style="fill:none;stroke:#000000;stroke-width:0.5" />
<path d="M42.19,102.32L46.19,102.32" style="fill:none;stroke:#000000;stroke-width:0.5" />
<path d="M42.19,122.98L46.19,122.98" style="fill:none;stroke:#000000;stroke-width:0.5" />
<path d="M42.19,164.28L46.19,164.28" style="fill:none;stroke:#000000;stroke-width:0.5" />
<path d="M42.19,184.93L46.19,184.93" style="fill:none;stroke:#000000;stroke-width:0.5" />
<path d="M42.19,205.58L46.19,205.58" style="fill:none;stroke:#000000;stroke-width:0.5" />
<path d="M42.19,226.23L46.19,226.23" style="fill:none;stroke:#000000;stroke-width:0.5" />
<path d="M46.19,40.371L46.19,246.88" style="fill:none;stroke:#000000;stroke-width:0.5" />
<path d="M54.504,40.371L57.013,40.371L59.521,40.371L62.03,40.371L64.538,40.371L67.046,40.371L69.555,40.371L72.063,40.371L74.572,40.371L77.08,40.371L79.588,40.371L82.097,40.371L84.605,40.371L87.114,40.371L89.622,40.371L92.13,40.371L94.639,40.371L97.147,40.371L99.655,40.371L102.16,40.371L104.67,81.673L107.18,40.371L109.69,40.371L112.2,40.371L114.71,40.371L117.21,40.371L119.72,40.371L122.23,40.371L124.74,40.371L127.25,40.371L129.76,81.673L132.26,40.371L134.77,40.371L137.28,40.371L139.79,40.371L142.3,40.371L144.81,40.371L147.31,40.371L149.82,40.371L152.33,40.371L154.84,40.371L157.35,40.371L159.86,40.371L162.37,40.371L164.87,40.371L167.38,40.371L169.89,81.673L172.4,40.371L174.91,40.371L177.42,40.371L179.92,40.371L182.43,40.371L184.94,40.371L187.45,40.371L189.96,40.371L192.47,40.371L194.97,81.673L197.48,40.371L199.99,40.371L202.5,40.371L205.01,40.371L207.52,40.371L210.02,40.371L212.53,40.371L215.04,40.371L217.55,40.371L220.06,40.371L222.57,40.371L225.08,40.371L227.58,40.371L230.09,40.371L232.6,40.371L235.11,40.371L237.62,40.371L240.13,81.673L242.63,40.371L245.14,40.371L247.65,40.371L250.16,40.371L252.67,40.371L255.18,40.371L257.68,40.371L260.19,40.371L262.7,40.371L265.21,81.673L267.72,40.371L270.23,40.371L272.73,40.371L275.24,40.371L277.75,40.371L280.26,40.371L282.77,40.371L285.28,81.673L287.78,40.371L290.29,40.371L292.8,40.371L295.31,40.371L297.82,40.371L300.33,40.371L302.84,40.371L305.34,40.371L307.85,40.371L310.36,81.673L312.87,40.371L315.38,40.371L317.89,40.371L320.39,40.371L322.9,40.371L325.41,40.371L327.92,40.371L330.43,40.371L332.94,40.371L335.44,40.371L337.95,40.371L340.46,40.371L342.97,40.371L345.48,40.371L347.99,40.371L350.49,40.371L353,40.371L355.51,40.371L358.02,40.371L360.53,40.371L363.04,40.371L365.54,40.371L368.05,40.371L370.56,40.371L373.07,40.371L375.58,40.371L378.09,40.371L380.6,40.371L383.1,40.371L385.61,40.371L388.12,81.673L390.63,40.371L393.14,40.371L395.65,40.371L398.15,40.371L400.66,40.371L403.17,40.371L405.68,40.371L408.19,40.371L410.7,40.371L413.2,81.673L415.71,40.371L418.22,40.371L420.73,40.371L423.24,40.371L425.75,40.371L428.25,40.371L430.76,40.371L433.27,40.371L435.78,40.371L438.29,40.371L440.8,40.371L443.31,40.371L445.81,40.371L448.32,40.371L450.83,40.371L453.34,40.371L455.85,40.371L458.36,40.371L460.86,40.371L463.37,40.371L465.88,40.371L468.39,40.371L470.9,40.371L473.41,40.371L475.91,40.371L478.42,40.371L480.93,40.371L483.44,40.371L485.95,40.371L488.46,40.371L490.96,81.673L493.47,40.371L495.98,40.371L498.49,40.371L501,40.371L503.51,40.371L506.01,40.371L508.52,40.371L511.03,40.371L513.54,40.371L516.05,81.673L518.56,40.371L521.07,40.371L523.57,40.371L526.08,40.371L528.59,40.371L531.1,40.371L533.61,40.371L536.12,40.371L538.62,40.371L541.13,40.371L543.64,40.371L546.15,40.371L548.66,40.371L551.17,40.371L553.67,40.371" style="fill:none;stroke:#800080" />
<path d="M54.504,40.392L57.013,40.391L59.521,40.389L62.03,40.388L64.538,40.387L67.046,40.386L69.555,40.385L72.063,40.384L74.572,40.383L77.08,40.382L79.588,40.382L82.097,95.451L84.605,91.779L87.114,88.352L89.622,85.153L92.13,82.167L94.639,79.381L97.147,76.78L99.655,74.353L102.16,72.088L104.67,125.04L107.18,119.4L109.69,114.13L112.2,109.21L114.71,104.62L117.21,100.34L119.72,96.342L122.23,92.61L124.74,89.128L127.25,85.877L129.76,137.91L132.26,131.41L134.77,125.34L137.28,119.68L139.79,114.39L142.3,109.45L144.81,104.85L147.31,100.55L149.82,96.539L152.33,147.86L154.84,140.7L157.35,134.01L159.86,127.77L162.37,121.94L164.87,116.5L167.38,111.43L169.89,161.76L172.4,153.67L174.91,146.11L177.42,139.06L179.92,132.49L182.43,126.34L184.94,120.61L187.45,115.26L189.96,110.27L192.47,105.61L194.97,156.33L197.48,148.6L199.99,196.45L202.5,186.05L205.01,176.34L207.52,167.27L210.02,158.81L212.53,150.92L215.04,143.55L217.55,136.67L220.06,130.25L222.57,124.26L225.08,118.66L227.58,113.44L230.09,108.57L232.6,104.03L235.11,99.783L237.62,95.822L240.13,147.2L242.63,140.07L245.14,133.43L247.65,127.22L250.16,121.43L252.67,116.03L255.18,166.05L257.68,157.68L260.19,149.86L262.7,142.56L265.21,190.81L267.72,180.78L270.23,171.42L272.73,162.69L275.24,154.53L277.75,146.92L280.26,139.82L282.77,188.26L285.28,233.47L287.78,220.6L290.29,208.58L292.8,197.37L295.31,186.9L297.82,177.13L300.33,168.01L302.84,159.5L305.34,151.56L307.85,144.15L310.36,192.3L312.87,182.17L315.38,172.72L317.89,163.9L320.39,155.66L322.9,147.97L325.41,140.8L327.92,134.11L330.43,127.86L332.94,122.02L335.44,116.58L337.95,111.5L340.46,106.76L342.97,102.33L345.48,98.202L347.99,94.346L350.49,90.748L353,87.39L355.51,84.255L358.02,81.329L360.53,133.67L363.04,127.45L365.54,121.64L368.05,116.23L370.56,111.17L373.07,106.45L375.58,102.04L378.09,97.932L380.6,94.095L383.1,90.513L385.61,87.17L388.12,139.12L390.63,132.54L393.14,126.39L395.65,120.66L398.15,115.31L400.66,110.31L403.17,105.65L405.68,101.3L408.19,97.234L410.7,93.443L413.2,144.97L415.71,138L418.22,131.49L420.73,125.42L423.24,119.75L425.75,114.46L428.25,109.52L430.76,104.91L433.27,100.6L435.78,96.589L438.29,92.841L440.8,89.343L443.31,86.079L445.81,138.1L448.32,131.59L450.83,125.5L453.34,119.83L455.85,114.53L458.36,109.59L460.86,104.97L463.37,100.67L465.88,96.647L468.39,92.895L470.9,89.394L473.41,86.125L475.91,83.075L478.42,80.228L480.93,77.571L483.44,75.091L485.95,72.776L488.46,70.616L490.96,123.67L493.47,118.12L495.98,112.93L498.49,108.1L501,103.58L503.51,99.367L506.01,95.434L508.52,91.763L511.03,88.337L513.54,85.139L516.05,137.22L518.56,130.77L521.07,124.74L523.57,119.12L526.08,113.87L528.59,108.97L531.1,104.39L533.61,100.13L536.12,96.142L538.62,92.424L541.13,85.715L543.64,82.692L546.15,79.871L548.66,77.237L551.17,74.78L553.67,72.486" style="fill:none;stroke:#FFC0CB" />
<path d="M54.504,40.371L57.013,40.371L59.521,40.371L62.03,40.371L64.538,40.371L67.046,40.371L69.555,40.371L72.063,40.371L74.572,40.371L77.08,40.371L79.588,40.371L82.097,81.673L84.605,40.371L87.114,40.371L89.622,40.371L92.13,40.371L94.639,40.371L97.147,40.371L99.655,40.371L102.16,40.371L104.67,40.371L107.18,40.371L109.69,40.371L112.2,40.371L114.71,40.371L117.21,40.371L119.72,40.371L122.23,40.371L124.74,40.371L127.25,40.371L129.76,40.371L132.26,40.371L134.77,40.371L137.28,40.371L139.79,40.371L142.3,40.371L144.81,40.371L147.31,40.371L149.82,40.371L152.33,81.673L154.84,40.371L157.35,40.371L159.86,40.371L162.37,40.371L164.87,40.371L167.38,40.371L169.89,40.371L172.4,40.371L174.91,40.371L177.42,40.371L179.92,40.371L182.43,40.371L184.94,40.371L187.45,40.371L189.96,40.371L192.47,40.371L194.97,40.371L197.48,40.371L199.99,81.673L202.5,40.371L205.01,40.371L207.52,40.371L210.02,40.371L212.53,40.371L215.04,40.371L217.55,40.371L220.06,40.371L222.57,40.371L225.08,40.371L227.58,40.371L230.09,40.371L232.6,40.371L235.11,40.371L237.62,40.371L240.13,40.371L242.63,40.371L245.14,40.371L247.65,40.371L250.16,40.371L252.67,40.371L255.18,81.673L257.68,40.371L260.19,40.371L262.7,40.371L265.21,40.371L267.72,40.371L270.23,40.371L272.73,40.371L275.24,40.371L277.75,40.371L280.26,40.371L282.77,81.673L285.28,40.371L287.78,40.371L290.29,40.371L292.8,40.371L295.31,40.371L297.82,40.371L300.33,40.371L302.84,40.371L305.34,40.371L307.85,40.371L310.36,40.371L312.87,40.371L315.38,40.371L317.89,40.371L320.39,40.371L322.9,40.371L325.41,40.371L327.92,40.371L330.43,40.371L332.94,40.371L335.44,40.371L337.95,40.371L340.46,40.371L342.97,40.371L345.48,40.371L347.99,40.371L350.49,40.371L353,40.371L355.51,40.371L358.02,40.371L360.53,81.673L363.04,40.371L365.54,40.371L368.05,40.371L370.56,40.371L373.07,40.371L375.58,40.371L378.09,40.371L380.6,40.371L383.1,40.371L385.61,40.371L388.12,40.371L390.63,40.371L393.14,40.371L395.65,40.371L398.15,40.371L400.66,40.371L403.17,40.371L405.68,40.371L408.19,40.371L410.7,40.371L413.2,40.371L415.71,40.371L418.22,40.371L420.73,40.371L423.24,40.371L425.75,40.371L428.25,40.371L430.76,40.371L433.27,40.371L435.78,40.371L438.29,40.371L440.8,40.371L443.31,40.371L445.81,81.673L448.32,40.371L450.83,40.371L453.34,40.371L455.85,40.371L458.36,40.371L460.86,40.371L463.37,40.371L465.88,40.371L468.39,40.371L470.9,40.371L473.41,40.371L475.91,40.371L478.42,40.371L480.93,40.371L483.44,40.371L485.95,40.371L488.46,40.371L490.96,40.371L493.47,40.371L495.98,40.371L498.49,40.371L501,40.371L503.51,40.371L506.01,40.371L508.52,40.371L511.03,40.371L513.54,40.371L516.05,40.371L518.56,40.371L521.07,40.371L523.57,40.371L526.08,40.371L528.59,40.371L531.1,40.371L533.61,40.371L536.12,40.371L538.62,40.371L541.13,40.371L543.64,40.371L546.15,40.371L548.66,40.371L551.17,40.371L553.67,40.371" style="fill:none;stroke:#FA8072" />
<path d="M54.504,44.42L57.013,44.404L59.521,44.39L62.03,44.375L64.538,44.361L67.046,44.348L69.555,44.335L72.063,44.322L74.572,44.31L77.08,44.298L79.588,44.286L82.097,84.497L84.605,105.45L87.114,117.22L89.622,123.89L92.13,127.4L94.639,128.88L97.147,129.05L99.655,128.35L102.16,127.08L104.67,125.42L114.71,230.59L117.21,196.49L119.72,173.84L122.23,158.44L124.74,137.33L127.25,183.2L129.76,228.58L132.26,227.18L134.77,230.21L137.28,195.4L139.79,164.45L142.3,143.14L144.81,128.9L147.31,119.15L149.82,105.7L152.33,122.51L154.84,120.69L157.35,116.28L159.86,111.44L162.37,106.71L164.87,102.27L167.38,98.207L169.89,94.523L172.4,186.47L174.91,192.13L177.42,165.76L179.92,141.6L182.43,124.76L184.94,113.45L187.45,105.67L189.96,94.618L192.47,118.33L194.97,137.88L197.48,144.21L199.99,194.71L202.5,175.04L205.01,150.51L207.52,132.62L210.02,120.37L212.53,111.86L215.04,99.64L217.55,95.282L220.06,90.993L222.57,87.04L225.08,83.454L227.58,80.242L230.09,77.386L232.6,74.857L235.11,72.62L237.62,70.642L240.13,68.888L242.63,123.43L245.14,126.69L247.65,112.09L250.16,98.696L252.67,89.359L255.18,110.08L257.68,108.32L260.19,98.134L262.7,126.27L265.21,147.55L267.72,157.94L270.23,161.36L272.73,140.23L275.24,121.06L277.75,107.73L280.26,98.76L282.77,109.29L285.28,100.28L287.78,166.96L290.29,171.95L292.8,149.29L295.31,128.45L297.82,113.88L300.33,104.04L302.84,97.249L305.34,87.611L307.85,107.37L310.36,121.14L312.87,129.82L315.38,132.04L317.89,116.22L320.39,101.91L322.9,91.932L325.41,85.197L327.92,80.538L330.43,73.941L332.94,70.991L335.44,68.34L337.95,66.01L340.46,63.974L342.97,62.199L345.48,60.654L347.99,59.309L350.49,58.134L353,57.105L355.51,56.2L358.02,55.4L360.53,71.67L363.04,75.854L365.54,77.108L368.05,77.219L370.56,76.76L373.07,76.006L375.58,75.106L378.09,74.141L380.6,73.159L383.1,72.185L385.61,71.231L388.12,70.305L390.63,148.75L393.14,153.56L395.65,134.24L398.15,116.47L400.66,104.1L403.17,95.824L405.68,90.163L408.19,81.869L410.7,99.681L413.2,111.77L415.71,121.09L418.22,123.53L420.73,109.42L423.24,96.583L425.75,87.65L428.25,81.646L430.76,77.519L433.27,71.532L435.78,68.932L438.29,66.588L440.8,64.521L443.31,62.711L445.81,80.743L448.32,83.236L450.83,82.792L453.34,81.475L455.85,79.851L458.36,78.153L460.86,76.492L463.37,74.916L465.88,73.444L468.39,72.079L470.9,70.815L473.41,69.643L475.91,68.556L478.42,67.544L480.93,66.598L483.44,65.712L485.95,64.879L488.46,64.093L490.96,63.35L493.47,121.32L495.98,124.9L498.49,110.69L501,97.605L503.51,88.507L506.01,82.416L508.52,78.253L511.03,72.092L513.54,85.489L516.05,94.581L518.56,101.84L521.07,103.81L523.57,93.235L526.08,83.597L528.59,76.891L531.1,72.386L533.61,69.294L536.12,64.754L538.62,62.78L541.13,59.442L543.64,58.073L546.15,56.879L548.66,55.838L551.17,54.93L553.67,54.138" style="fill:none;stroke:#A52A2A" />
<path d="M540.62,244.69L560.62,244.69" style="fill:none;stroke:#800080" />
<text x="507.27" y="-241.86" transform="scale(1, -1)"
	style="font-family:Liberation Sans;font-variant:normal;font-weight:normal;font-style:normal;font-size:12px">Spike</text>
<path d="M540.62,234.22L560.62,234.22" style="fill:none;stroke:#FFC0CB" />
<text x="511.96" y="-231.39" transform="scale(1, -1)"
	style="font-family:Liberation Sans;font-variant:normal;font-weight:normal;font-style:normal;font-size:12px">CaM</text>
<path d="M540.62,223.75L560.62,223.75" style="fill:none;stroke:#FA8072" />
<text x="488.6" y="-220.92" transform="scale(1, -1)"
	style="font-family:Liberation Sans;font-variant:normal;font-weight:normal;font-style:normal;font-size:12px">PreSpike</text>
<path d="M540.62,213.28L560.62,213.28" style="fill:none;stroke:#A52A2A" />
<text x="490.6" y="-210.45" transform="scale(1, -1)"
	style="font-family:Liberation Sans;font-variant:normal;font-weight:normal;font-style:normal;font-size:12px">PSD_Ca</text>
</g>
</svg>
