<?xml version="1.0"?>
<!-- Generated by SVGo and Plotinum VG -->
<svg width="560.62pt" height="265.88pt" viewBox="0 0 560.62 265.88"
	xmlns="http://www.w3.org/2000/svg"
	xmlns:xlink="http://www.w3.org/1999/xlink">
<g transform="scale(1, -1) translate(0, -265.88)">
<text x="235.29" y="-256.15" transform="scale(1, -1)"
	style="font-family:Liberation Sans;font-variant:normal;font-weight:normal;font-style:normal;font-size:12px">Kinase Time Plot</text>
<text x="289.72" y="-3.6797" transform="scale(1, -1)"
	style="font-family:Liberation Sans;font-variant:normal;font-weight:normal;font-style:normal;font-size:12px">Time</text>
<text x="45.045" y="-16.473" transform="scale(1, -1)"
	style="font-family:Liberation Sans;font-variant:normal;font-weight:normal;font-style:normal;font-size:10px">0.0</text>
<text x="295.88" y="-16.473" transform="scale(1, -1)"
	style="font-family:Liberation Sans;font-variant:normal;font-weight:normal;font-style:normal;font-size:10px">0.1</text>
<text x="546.72" y="-16.473" transform="scale(1, -1)"
	style="font-family:Liberation Sans;font-variant:normal;font-weight:normal;font-style:normal;font-size:10px">0.2</text>
<path d="M51.996,24.578L51.996,32.578" style="fill:none;stroke:#000000;stroke-width:0.5" />
<path d="M302.84,24.578L302.84,32.578" style="fill:none;stroke:#000000;stroke-width:0.5" />
<path d="M553.67,24.578L553.67,32.578" style="fill:none;stroke:#000000;stroke-width:0.5" />
<path d="M102.16,28.578L102.16,32.578" style="fill:none;stroke:#000000;stroke-width:0.5" />
<path d="M152.33,28.578L152.33,32.578" style="fill:none;stroke:#000000;stroke-width:0.5" />
<path d="M202.5,28.578L202.5,32.578" style="fill:none;stroke:#000000;stroke-width:0.5" />
<path d="M252.67,28.578L252.67,32.578" style="fill:none;stroke:#000000;stroke-width:0.5" />
<path d="M353,28.578L353,32.578" style="fill:none;stroke:#000000;stroke-width:0.5" />
<path d="M403.17,28.578L403.17,32.578" style="fill:none;stroke:#000000;stroke-width:0.5" />
<path d="M453.34,28.578L453.34,32.578" style="fill:none;stroke:#000000;stroke-width:0.5" />
<path d="M503.51,28.578L503.51,32.578" style="fill:none;stroke:#000000;stroke-width:0.5" />
<path d="M51.996,32.578L553.67,32.578" style="fill:none;stroke:#000000;stroke-width:0.5" />
<g transform="rotate(90)">
<text x="128.62" y="9.7266" transform="scale(1, -1)"
	style="font-family:Liberation Sans;font-variant:normal;font-weight:normal;font-style:normal;font-size:12px">Spike</text>
</g>
<text x="15.949" y="-37.852" transform="scale(1, -1)"
	style="font-family:Liberation Sans;font-variant:normal;font-weight:normal;font-style:normal;font-size:10px">0.00</text>
<text x="15.949" y="-141.11" transform="scale(1, -1)"
	style="font-family:Liberation Sans;font-variant:normal;font-weight:normal;font-style:normal;font-size:10px">2.50</text>
<text x="15.949" y="-244.36" transform="scale(1, -1)"
	style="font-family:Liberation Sans;font-variant:normal;font-weight:normal;font-style:normal;font-size:10px">5.00</text>
<path d="M38.19,40.371L46.19,40.371" style="fill:none;stroke:#000000;stroke-width:0.5" />
<path d="M38.19,143.63L46.19,143.63" style="fill:none;stroke:#000000;stroke-width:0.5" />
<path d="M38.19,246.88L46.19,246.88" style="fill:none;stroke:#000000;stroke-width:0.5" />
<path d="M42.19,61.022L46.19,61.022" style="fill:none;stroke:#000000;stroke-width:0.5" />
<path d="M42.19,81.673L46.19,81.673" style="fill:none;stroke:#000000;stroke-width:0.5" />
<path d="M42.19,102.32L46.19,102.32" style="fill:none;stroke:#000000;stroke-width:0.5" />
<path d="M42.19,122.98L46.19,122.98" style="fill:none;stroke:#000000;stroke-width:0.5" />
<path d="M42.19,164.28L46.19,164.28" style="fill:none;stroke:#000000;stroke-width:0.5" />
<path d="M42.19,184.93L46.19,184.93" style="fill:none;stroke:#000000;stroke-width:0.5" />
<path d="M42.19,205.58L46.19,205.58" style="fill:none;stroke:#000000;stroke-width:0.5" />
<path d="M42.19,226.23L46.19,226.23" style="fill:none;stroke:#000000;stroke-width:0.5" />
<path d="M46.19,40.371L46.19,246.88" style="fill:none;stroke:#000000;stroke-width:0.5" />
<path d="M51.996,40.371L54.504,40.371L57.013,40.371L59.521,40.371L62.03,40.371L64.538,40.371L67.046,40.371L69.555,40.371L72.063,40.371L74.572,40.371L77.08,40.371L79.588,40.371L82.097,40.371L84.605,40.371L87.114,40.371L89.622,40.371L92.13,40.371L94.639,40.371L97.147,40.371L99.656,40.371L102.16,40.371L104.67,40.371L107.18,81.673L109.69,40.371L112.2,40.371L114.71,40.371L117.21,40.371L119.72,40.371L122.23,40.371L124.74,40.371L127.25,40.371L129.76,40.371L132.26,81.673L134.77,40.371L137.28,40.371L139.79,40.371L142.3,40.371L144.81,40.371L147.31,40.371L149.82,40.371L152.33,40.371L154.84,40.371L157.35,81.673L159.86,40.371L162.37,40.371L164.87,40.371L167.38,40.371L169.89,40.371L172.4,40.371L174.91,40.371L177.42,40.371L179.92,40.371L182.43,81.673L184.94,40.371L187.45,40.371L189.96,40.371L192.47,40.371L194.97,40.371L197.48,40.371L199.99,40.371L202.5,40.371L205.01,40.371L207.52,40.371L210.02,40.371L212.53,81.673L215.04,40.371L217.55,40.371L220.06,40.371L222.57,40.371L225.08,40.371L227.58,40.371L230.09,40.371L232.6,40.371L235.11,40.371L237.62,81.673L240.13,40.371L242.63,40.371L245.14,40.371L247.65,40.371L250.16,40.371L252.67,40.371L255.18,40.371L257.68,40.371L260.19,40.371L262.7,40.371L265.21,40.371L267.72,40.371L270.23,81.673L272.73,40.371L275.24,40.371L277.75,40.371L280.26,40.371L282.77,40.371L285.28,40.371L287.78,40.371L290.29,40.371L292.8,40.371L295.31,81.673L297.82,40.371L300.33,40.371L302.84,40.371L305.34,40.371L307.85,40.371L310.36,40.371L312.87,40.371L315.38,40.371L317.89,40.371L320.39,40.371L322.9,40.371L325.41,40.371L327.92,40.371L330.43,40.371L332.94,40.371L335.44,40.371L337.95,40.371L340.46,40.371L342.97,40.371L345.48,40.371L347.99,40.371L350.49,40.371L353,40.371L355.51,40.371L358.02,40.371L360.53,40.371L363.04,40.371L365.54,40.371L368.05,40.371L370.56,40.371L373.07,40.371L375.58,40.371L378.09,40.371L380.6,40.371L383.1,40.371L385.61,40.371L388.12,81.673L390.63,40.371L393.14,40.371L395.65,40.371L398.15,40.371L400.66,40.371L403.17,40.371L405.68,40.371L408.19,40.371L410.7,40.371L413.2,81.673L415.71,40.371L418.22,40.371L420.73,40.371L423.24,40.371L425.75,40.371L428.25,40.371L430.76,40.371L433.27,40.371L435.78,40.371L438.29,40.371L440.8,40.371L443.31,40.371L445.81,40.371L448.32,40.371L450.83,40.371L453.34,40.371L455.85,40.371L458.36,40.371L460.86,40.371L463.37,40.371L465.88,40.371L468.39,40.371L470.9,40.371L473.41,40.371L475.91,40.371L478.42,40.371L480.93,40.371L483.44,40.371L485.95,40.371L488.46,81.673L490.96,40.371L493.47,40.371L495.98,40.371L498.49,40.371L501,40.371L503.51,40.371L506.01,40.371L508.52,40.371L511.03,40.371L513.54,81.673L516.05,40.371L518.56,40.371L521.07,40.371L523.57,40.371L526.08,40.371L528.59,40.371L531.1,40.371L533.61,40.371L536.12,40.371L538.62,40.371L541.13,40.371L543.64,40.371L546.15,40.371L548.66,40.371L551.17,40.371L553.67,40.371" style="fill:none;stroke:#800080" />
<path d="M51.996,40.371L54.504,40.371L57.013,40.371L59.521,40.371L62.03,40.371L64.538,40.371L67.046,40.371L69.555,40.371L72.063,40.371L74.572,40.371L77.08,40.371L79.588,40.371L82.097,40.371L84.605,40.371L87.114,40.371L89.622,40.371L92.13,40.371L94.639,40.371L97.147,40.371L99.656,40.371L102.16,40.371L104.67,95.441L107.18,146.84L109.69,139.74L112.2,133.12L114.71,126.93L117.21,121.16L119.72,115.78L122.23,110.75L124.74,106.06L127.25,101.68L129.76,97.592L132.26,148.85L134.77,141.61L137.28,134.87L139.79,128.57L142.3,122.69L144.81,172.27L147.31,163.48L149.82,155.27L152.33,147.61L154.84,140.46L157.35,188.86L159.86,178.96L162.37,169.72L164.87,161.1L167.38,153.05L169.89,145.54L172.4,138.52L174.91,131.98L177.42,125.87L179.92,120.17L182.43,169.92L184.94,161.29L187.45,153.23L189.96,145.7L192.47,193.75L194.97,183.52L197.48,173.98L199.99,165.07L202.5,156.76L205.01,149L207.52,141.76L210.02,135L212.53,183.76L215.04,174.2L217.55,165.28L220.06,156.95L222.57,149.18L225.08,141.93L227.58,135.16L230.09,128.84L232.6,122.94L235.11,117.43L237.62,167.37L240.13,158.9L242.63,151L245.14,198.69L247.65,188.14L250.16,178.29L252.67,169.09L255.18,160.51L257.68,152.5L260.19,145.03L262.7,138.05L265.21,131.54L267.72,125.46L270.23,174.86L272.73,165.89L275.24,157.52L277.75,149.71L280.26,142.42L282.77,135.62L285.28,129.27L287.78,123.34L290.29,117.81L292.8,112.65L295.31,162.9L297.82,154.73L300.33,147.11L302.84,139.99L305.34,133.35L307.85,127.15L310.36,121.37L312.87,115.97L315.38,110.93L317.89,106.22L320.39,101.83L322.9,97.736L325.41,93.912L327.92,90.342L330.43,87.011L332.94,83.901L335.44,80.999L337.95,78.291L340.46,75.763L342.97,73.403L345.48,71.201L347.99,69.146L350.49,67.228L353,65.437L355.51,63.766L358.02,62.206L360.53,60.751L363.04,59.392L365.54,58.124L368.05,56.941L370.56,55.836L373.07,54.805L375.58,53.843L378.09,52.945L380.6,52.106L383.1,51.324L385.61,50.594L388.12,104.98L390.63,100.67L393.14,96.654L395.65,92.902L398.15,89.4L400.66,86.132L403.17,83.081L405.68,80.234L408.19,77.576L410.7,75.096L413.2,127.85L415.71,122.02L418.22,116.58L420.73,111.5L423.24,106.75L425.75,102.33L428.25,98.198L430.76,94.342L433.27,90.744L435.78,87.386L438.29,84.252L440.8,81.326L443.31,78.596L445.81,76.048L448.32,73.669L450.83,71.449L453.34,69.378L455.85,67.444L458.36,65.639L460.86,63.954L463.37,62.382L465.88,60.915L468.39,59.545L470.9,58.267L473.41,57.074L475.91,55.96L478.42,54.921L480.93,53.951L483.44,53.046L485.95,52.201L488.46,106.48L490.96,102.07L493.47,97.961L495.98,94.122L498.49,90.538L501,87.194L503.51,84.072L506.01,81.159L508.52,78.44L511.03,75.902L513.54,128.6L516.05,122.72L518.56,117.23L521.07,112.11L523.57,107.32L526.08,102.86L528.59,98.695L531.1,94.807L533.61,91.178L536.12,87.79L538.62,84.629L541.13,81.679L543.64,78.925L546.15,76.355L548.66,73.956L551.17,69.627L553.67,67.677" style="fill:none;stroke:#FFC0CB" />
<path d="M51.996,40.371L54.504,40.371L57.013,40.371L59.521,40.371L62.03,40.371L64.538,40.371L67.046,40.371L69.555,40.371L72.063,40.371L74.572,40.371L77.08,40.371L79.588,40.371L82.097,40.371L84.605,40.371L87.114,40.371L89.622,40.371L92.13,40.371L94.639,40.371L97.147,40.371L99.656,40.371L102.16,40.371L104.67,81.673L107.18,40.371L109.69,40.371L112.2,40.371L114.71,40.371L117.21,40.371L119.72,40.371L122.23,40.371L124.74,40.371L127.25,40.371L129.76,40.371L132.26,40.371L134.77,40.371L137.28,40.371L139.79,40.371L142.3,40.371L144.81,81.673L147.31,40.371L149.82,40.371L152.33,40.371L154.84,40.371L157.35,40.371L159.86,40.371L162.37,40.371L164.87,40.371L167.38,40.371L169.89,40.371L172.4,40.371L174.91,40.371L177.42,40.371L179.92,40.371L182.43,40.371L184.94,40.371L187.45,40.371L189.96,40.371L192.47,81.673L194.97,40.371L197.48,40.371L199.99,40.371L202.5,40.371L205.01,40.371L207.52,40.371L210.02,40.371L212.53,40.371L215.04,40.371L217.55,40.371L220.06,40.371L222.57,40.371L225.08,40.371L227.58,40.371L230.09,40.371L232.6,40.371L235.11,40.371L237.62,40.371L240.13,40.371L242.63,40.371L245.14,81.673L247.65,40.371L250.16,40.371L252.67,40.371L255.18,40.371L257.68,40.371L260.19,40.371L262.7,40.371L265.21,40.371L267.72,40.371L270.23,40.371L272.73,40.371L275.24,40.371L277.75,40.371L280.26,40.371L282.77,40.371L285.28,40.371L287.78,40.371L290.29,40.371L292.8,40.371L295.31,40.371L297.82,40.371L300.33,40.371L302.84,40.371L305.34,40.371L307.85,40.371L310.36,40.371L312.87,40.371L315.38,40.371L317.89,40.371L320.39,40.371L322.9,40.371L325.41,40.371L327.92,40.371L330.43,40.371L332.94,40.371L335.44,40.371L337.95,40.371L340.46,40.371L342.97,40.371L345.48,40.371L347.99,40.371L350.49,40.371L353,40.371L355.51,40.371L358.02,40.371L360.53,40.371L363.04,40.371L365.54,40.371L368.05,40.371L370.56,40.371L373.07,40.371L375.58,40.371L378.09,40.371L380.6,40.371L383.1,40.371L385.61,40.371L388.12,81.673L390.63,40.371L393.14,40.371L395.65,40.371L398.15,40.371L400.66,40.371L403.17,40.371L405.68,40.371L408.19,40.371L410.7,40.371L413.2,40.371L415.71,40.371L418.22,40.371L420.73,40.371L423.24,40.371L425.75,40.371L428.25,40.371L430.76,40.371L433.27,40.371L435.78,40.371L438.29,40.371L440.8,40.371L443.31,40.371L445.81,40.371L448.32,40.371L450.83,40.371L453.34,40.371L455.85,40.371L458.36,40.371L460.86,40.371L463.37,40.371L465.88,40.371L468.39,40.371L470.9,40.371L473.41,40.371L475.91,40.371L478.42,40.371L480.93,40.371L483.44,40.371L485.95,40.371L488.46,81.673L490.96,40.371L493.47,40.371L495.98,40.371L498.49,40.371L501,40.371L503.51,40.371L506.01,40.371L508.52,40.371L511.03,40.371L513.54,40.371L516.05,40.371L518.56,40.371L521.07,40.371L523.57,40.371L526.08,40.371L528.59,40.371L531.1,40.371L533.61,40.371L536.12,40.371L538.62,40.371L541.13,40.371L543.64,40.371L546.15,40.371L548.66,40.371L551.17,40.371L553.67,40.371" style="fill:none;stroke:#FA8072" />
<path d="M51.996,42.436L54.504,42.436L57.013,42.436L59.521,42.436L62.03,42.436L64.538,42.436L67.046,42.436L69.555,42.436L72.063,42.436L74.572,42.436L77.08,42.436L79.588,42.436L82.097,42.436L84.605,42.436L87.114,42.436L89.622,42.436L92.13,42.436L94.639,42.436L97.147,42.436L99.656,42.436L102.16,42.436L104.67,116.78L107.18,159.54L127.25,219.98L142.3,243.53L144.81,236.79L147.31,211.72L149.82,191.55L152.33,163.91L154.84,158.53L157.35,151.48L164.87,229.71L167.38,191.4L169.89,164.91L172.4,147.13L174.91,134.89L177.42,118.37L179.92,153.29L182.43,191.16L184.94,185.65L187.45,187.99L189.96,161.68L192.47,177.27L194.97,160.07L197.48,144.84L199.99,133.7L202.5,117.57L205.01,113.21L207.52,108.35L210.02,103.58L212.53,99.054L215.04,173.22L217.55,177.65L220.06,153.76L222.57,131.95L225.08,116.72L227.58,106.44L230.09,99.319L232.6,89.35L235.11,110.41L237.62,129.44L240.13,132.21L242.63,134.26L245.14,170.15L247.65,153.09L250.16,136.11L252.67,123.82L255.18,115.1L257.68,102.29L260.19,98.195L262.7,93.949L265.21,89.924L267.72,86.199L270.23,82.809L272.73,143.79L275.24,147.34L277.75,128.89L280.26,112.04L282.77,100.28L285.28,92.329L287.78,86.829L290.29,79.055L292.8,95.189L295.31,108.03L297.82,112.82L300.33,114.53L302.84,101.84L305.34,90.357L307.85,82.346L310.36,76.927L312.87,73.168L315.38,67.86L317.89,65.731L320.39,63.744L322.9,61.947L325.41,60.339L327.92,58.913L330.43,57.653L332.94,56.542L335.44,55.563L337.95,54.698L340.46,53.932L342.97,53.251L345.48,52.643L347.99,52.099L350.49,51.608L353,51.163L355.51,50.759L358.02,50.389L360.53,50.049L363.04,49.736L365.54,49.445L368.05,49.175L370.56,48.923L373.07,48.686L375.58,48.464L378.09,48.255L380.6,48.058L383.1,47.87L385.61,47.693L388.12,80.688L398.15,234.58L400.66,203.97L403.17,182.4L405.68,167.2L408.19,144.84L410.7,195.3L413.2,239.98L415.71,245.83L420.73,210.85L423.24,176.49L425.75,152.83L428.25,137.04L430.76,126.22L433.27,111.38L435.78,106.15L438.29,101.02L440.8,96.299L443.31,92.026L445.81,88.199L448.32,84.796L450.83,81.784L453.34,79.12L455.85,76.764L458.36,74.677L460.86,72.823L463.37,71.169L465.88,69.687L468.39,68.353L470.9,67.146L473.41,66.049L475.91,65.046L478.42,64.126L480.93,63.276L483.44,62.488L485.95,61.754L488.46,82.004L490.96,218.73L493.47,238.68L495.98,209.18L498.49,178.43L501,156.1L503.51,140.79L506.01,130.16L508.52,114.65L511.03,148.95L513.54,177.13L516.05,185.68L518.56,189.14L521.07,162.77L523.57,139L526.08,122.5L528.59,111.42L531.1,103.8L533.61,93.095L536.12,89.061L538.62,85.204L541.13,81.693L543.64,78.537L546.15,75.725L548.66,73.236L551.17,69.1L553.67,67.387" style="fill:none;stroke:#A52A2A" />
<path d="M540.62,244.69L560.62,244.69" style="fill:none;stroke:#800080" />
<text x="507.27" y="-241.86" transform="scale(1, -1)"
	style="font-family:Liberation Sans;font-variant:normal;font-weight:normal;font-style:normal;font-size:12px">Spike</text>
<path d="M540.62,234.22L560.62,234.22" style="fill:none;stroke:#FFC0CB" />
<text x="511.96" y="-231.39" transform="scale(1, -1)"
	style="font-family:Liberation Sans;font-variant:normal;font-weight:normal;font-style:normal;font-size:12px">CaM</text>
<path d="M540.62,223.75L560.62,223.75" style="fill:none;stroke:#FA8072" />
<text x="488.6" y="-220.92" transform="scale(1, -1)"
	style="font-family:Liberation Sans;font-variant:normal;font-weight:normal;font-style:normal;font-size:12px">PreSpike</text>
<path d="M540.62,213.28L560.62,213.28" style="fill:none;stroke:#A52A2A" />
<text x="490.6" y="-210.45" transform="scale(1, -1)"
	style="font-family:Liberation Sans;font-variant:normal;font-weight:normal;font-style:normal;font-size:12px">PSD_Ca</text>
</g>
</svg>
