<?xml version="1.0"?>
<!-- Generated by SVGo and Plotinum VG -->
<svg width="559.12pt" height="391.88pt" viewBox="0 0 559.12 391.88"
	xmlns="http://www.w3.org/2000/svg"
	xmlns:xlink="http://www.w3.org/1999/xlink">
<g transform="scale(1, -1) translate(0, -391.88)">
<text x="234.54" y="-382.15" transform="scale(1, -1)"
	style="font-family:Liberation Sans;font-variant:normal;font-weight:normal;font-style:normal;font-size:12px">Kinase Time Plot</text>
<text x="288.28" y="-3.6797" transform="scale(1, -1)"
	style="font-family:Liberation Sans;font-variant:normal;font-weight:normal;font-style:normal;font-size:12px">Time</text>
<text x="36.706" y="-16.473" transform="scale(1, -1)"
	style="font-family:Liberation Sans;font-variant:normal;font-weight:normal;font-style:normal;font-size:10px">0.0</text>
<text x="191.66" y="-16.473" transform="scale(1, -1)"
	style="font-family:Liberation Sans;font-variant:normal;font-weight:normal;font-style:normal;font-size:10px">0.3</text>
<text x="346.61" y="-16.473" transform="scale(1, -1)"
	style="font-family:Liberation Sans;font-variant:normal;font-weight:normal;font-style:normal;font-size:10px">0.6</text>
<text x="501.56" y="-16.473" transform="scale(1, -1)"
	style="font-family:Liberation Sans;font-variant:normal;font-weight:normal;font-style:normal;font-size:10px">0.9</text>
<path d="M43.656,24.578L43.656,32.578" style="fill:none;stroke:#000000;stroke-width:0.5" />
<path d="M198.61,24.578L198.61,32.578" style="fill:none;stroke:#000000;stroke-width:0.5" />
<path d="M353.56,24.578L353.56,32.578" style="fill:none;stroke:#000000;stroke-width:0.5" />
<path d="M508.51,24.578L508.51,32.578" style="fill:none;stroke:#000000;stroke-width:0.5" />
<path d="M95.306,28.578L95.306,32.578" style="fill:none;stroke:#000000;stroke-width:0.5" />
<path d="M146.96,28.578L146.96,32.578" style="fill:none;stroke:#000000;stroke-width:0.5" />
<path d="M250.26,28.578L250.26,32.578" style="fill:none;stroke:#000000;stroke-width:0.5" />
<path d="M301.91,28.578L301.91,32.578" style="fill:none;stroke:#000000;stroke-width:0.5" />
<path d="M405.21,28.578L405.21,32.578" style="fill:none;stroke:#000000;stroke-width:0.5" />
<path d="M456.86,28.578L456.86,32.578" style="fill:none;stroke:#000000;stroke-width:0.5" />
<path d="M43.656,32.578L559.12,32.578" style="fill:none;stroke:#000000;stroke-width:0.5" />
<g transform="rotate(90)">
<text x="197.75" y="9.7266" transform="scale(1, -1)"
	style="font-family:Liberation Sans;font-variant:normal;font-weight:normal;font-style:normal;font-size:12px">CaP</text>
</g>
<text x="21.511" y="-37.852" transform="scale(1, -1)"
	style="font-family:Liberation Sans;font-variant:normal;font-weight:normal;font-style:normal;font-size:10px">0</text>
<text x="15.949" y="-124.31" transform="scale(1, -1)"
	style="font-family:Liberation Sans;font-variant:normal;font-weight:normal;font-style:normal;font-size:10px">10</text>
<text x="15.949" y="-210.77" transform="scale(1, -1)"
	style="font-family:Liberation Sans;font-variant:normal;font-weight:normal;font-style:normal;font-size:10px">20</text>
<text x="15.949" y="-297.23" transform="scale(1, -1)"
	style="font-family:Liberation Sans;font-variant:normal;font-weight:normal;font-style:normal;font-size:10px">30</text>
<path d="M29.851,40.371L37.851,40.371" style="fill:none;stroke:#000000;stroke-width:0.5" />
<path d="M29.851,126.83L37.851,126.83" style="fill:none;stroke:#000000;stroke-width:0.5" />
<path d="M29.851,213.29L37.851,213.29" style="fill:none;stroke:#000000;stroke-width:0.5" />
<path d="M29.851,299.75L37.851,299.75" style="fill:none;stroke:#000000;stroke-width:0.5" />
<path d="M33.851,57.663L37.851,57.663" style="fill:none;stroke:#000000;stroke-width:0.5" />
<path d="M33.851,74.956L37.851,74.956" style="fill:none;stroke:#000000;stroke-width:0.5" />
<path d="M33.851,92.248L37.851,92.248" style="fill:none;stroke:#000000;stroke-width:0.5" />
<path d="M33.851,109.54L37.851,109.54" style="fill:none;stroke:#000000;stroke-width:0.5" />
<path d="M33.851,144.12L37.851,144.12" style="fill:none;stroke:#000000;stroke-width:0.5" />
<path d="M33.851,161.42L37.851,161.42" style="fill:none;stroke:#000000;stroke-width:0.5" />
<path d="M33.851,178.71L37.851,178.71" style="fill:none;stroke:#000000;stroke-width:0.5" />
<path d="M33.851,196L37.851,196" style="fill:none;stroke:#000000;stroke-width:0.5" />
<path d="M33.851,230.59L37.851,230.59" style="fill:none;stroke:#000000;stroke-width:0.5" />
<path d="M33.851,247.88L37.851,247.88" style="fill:none;stroke:#000000;stroke-width:0.5" />
<path d="M33.851,265.17L37.851,265.17" style="fill:none;stroke:#000000;stroke-width:0.5" />
<path d="M33.851,282.46L37.851,282.46" style="fill:none;stroke:#000000;stroke-width:0.5" />
<path d="M33.851,317.05L37.851,317.05" style="fill:none;stroke:#000000;stroke-width:0.5" />
<path d="M33.851,334.34L37.851,334.34" style="fill:none;stroke:#000000;stroke-width:0.5" />
<path d="M33.851,351.63L37.851,351.63" style="fill:none;stroke:#000000;stroke-width:0.5" />
<path d="M33.851,368.92L37.851,368.92" style="fill:none;stroke:#000000;stroke-width:0.5" />
<path d="M37.851,40.371L37.851,378.47" style="fill:none;stroke:#000000;stroke-width:0.5" />
<path d="M43.656,79.269L44.173,79.269L44.689,79.269L45.206,79.269L45.722,79.269L46.239,79.269L46.755,79.269L47.272,79.269L47.788,79.269L48.305,79.269L48.821,79.269L49.338,79.269L49.854,79.269L50.371,79.269L50.887,79.269L51.404,79.269L51.92,79.299L52.437,79.373L52.953,79.502L53.47,79.69L53.986,79.94L54.503,80.398L55.019,81.07L55.536,81.916L56.052,82.98L56.569,84.19L57.085,85.491L57.602,86.854L58.118,88.253L58.635,89.71L59.151,91.248L59.668,92.851L60.184,94.507L60.701,96.28L61.217,98.12L61.734,99.995L62.25,101.89L62.767,103.78L63.283,105.67L63.8,107.55L64.316,109.42L64.833,111.28L65.349,113.15L65.866,115.04L66.382,116.94L66.899,118.93L67.415,120.95L67.932,122.97L68.448,125L68.965,127.02L69.481,129.04L69.998,131.08L70.514,133.13L71.031,135.19L71.547,137.25L72.064,139.37L72.58,141.52L73.097,143.67L73.613,145.8L74.13,147.91L74.646,150.01L75.163,152.1L75.679,154.18L76.196,156.3L76.712,158.44L77.229,160.57L77.745,162.68L78.262,164.75L78.778,166.81L79.295,168.85L79.811,170.87L80.328,172.88L80.844,174.86L81.361,176.82L81.877,178.75L82.394,180.67L82.91,182.58L83.427,184.49L83.943,186.44L84.46,188.42L84.976,190.38L85.493,192.33L86.009,194.25L86.526,196.15L87.042,198.03L87.559,199.89L88.075,201.74L88.592,203.56L89.108,205.42L89.625,207.3L90.141,209.17L90.658,211.03L91.174,212.88L91.691,214.7L92.207,216.5L92.724,218.27L93.24,220.01L93.757,221.72L94.273,223.4L94.79,225.05L95.306,226.67L95.823,228.25L96.339,229.81L96.856,231.32L97.372,232.81L97.889,234.26L98.405,235.68L98.922,237.07L99.438,238.43L99.955,239.75L100.47,241.04L100.99,242.31L101.5,243.54L102.02,244.74L102.54,245.91L103.05,247.06L103.57,248.17L104.09,249.26L104.6,250.33L105.12,251.38L105.64,252.43L106.15,253.54L106.67,254.69L107.19,255.83L107.7,256.97L108.22,258.1L108.74,259.21L109.25,260.31L109.77,261.39L110.28,262.45L110.8,263.51L111.32,264.62L111.83,265.75L112.35,266.89L112.87,268.02L113.38,269.14L113.9,270.23L114.42,271.31L114.93,272.36L115.45,273.39L115.97,274.4L116.48,275.38L117,276.34L117.52,277.27L118.03,278.19L118.55,279.07L119.07,279.94L119.58,280.78L120.1,281.61L120.62,282.42L121.13,283.23L121.65,284.02L122.16,284.81L122.68,285.62L123.2,286.45L123.71,287.32L124.23,288.27L124.75,289.29L125.26,290.32L125.78,291.37L126.3,292.41L126.81,293.46L127.33,294.52L127.85,295.58L128.36,296.65L128.88,297.74L129.4,298.89L129.91,300.07L130.43,301.27L130.95,302.46L131.46,303.65L131.98,304.82L132.49,305.97L133.01,307.1L133.53,308.21L134.04,309.31L134.56,310.37L135.08,311.42L135.59,312.44L136.11,313.44L136.63,314.42L137.14,315.37L137.66,316.3L138.18,317.2L138.69,318.08L139.21,318.95L139.73,319.8L140.24,320.64L140.76,321.47L141.28,322.29L141.79,323.13L142.31,324L142.82,324.89L143.34,325.88L143.86,326.93L144.37,328L144.89,329.07L145.41,330.15L145.92,331.23L146.44,333.41L146.96,334.51L147.47,335.62L147.99,336.79L148.51,338.01L149.02,339.23L149.54,340.45L150.06,341.66L150.57,342.85L151.09,344.02L151.61,345.18L152.12,346.31L152.64,347.42L153.15,348.51L153.67,349.57L154.19,350.61L154.7,351.62L155.22,352.61L155.74,353.57L156.25,354.51L156.77,355.42L157.29,356.31L157.8,357.18L158.32,358.02L158.84,358.84L159.35,359.64L159.87,360.41L160.39,361.16L160.9,361.89L161.42,362.6L161.94,363.29L162.45,363.95L162.97,364.6L163.48,365.22L164,365.83L164.52,366.41L165.03,366.98L165.55,367.53L166.07,368.06L166.58,368.58L167.1,369.07L167.62,369.55L168.13,370.01L168.65,370.46L169.17,370.89L169.68,371.3L170.2,371.7L170.72,372.09L171.23,372.46L171.75,372.82L172.27,373.16L172.78,373.49L173.3,373.8L173.81,374.1L174.33,374.39L174.85,374.67L175.36,374.94L175.88,375.19L176.4,375.43L176.91,375.66L177.43,375.88L177.95,376.09L178.46,376.29L178.98,376.48L179.5,376.66L180.01,376.83L180.53,376.99L181.05,377.14L181.56,377.28L182.08,377.41L182.6,377.53L183.11,377.65L183.63,377.75L184.14,377.85L184.66,377.94L185.18,378.02L185.69,378.1L186.21,378.16L186.73,378.22L187.24,378.28L187.76,378.32L188.28,378.36L188.79,378.4L189.31,378.42L189.83,378.44L190.34,378.46L190.86,378.47L191.38,378.47L191.89,378.47L192.41,378.46L192.93,378.44L193.44,378.42L193.96,378.4L194.47,378.37L194.99,378.34L195.51,378.3L196.02,378.25L196.54,378.21L197.06,378.15L197.57,378.1L198.09,378.04L198.61,377.97L199.12,377.9L199.64,377.83L200.16,377.75L200.67,377.67L201.19,377.59L201.71,377.5L202.22,377.41L202.74,377.32L203.26,377.22L203.77,377.12L204.29,377.01L204.8,376.91L205.32,376.8L205.84,376.69L206.35,376.57L206.87,376.45L207.39,376.33L207.9,376.21L208.42,376.08L208.94,375.95L209.45,375.82L209.97,375.69L210.49,375.55L211,375.42L211.52,375.28L212.04,375.13L212.55,374.99L213.07,374.84L213.59,374.7L214.1,374.55L214.62,374.39L215.13,374.24L215.65,374.09L216.17,373.93L216.68,373.77L217.2,373.61L217.72,373.45L218.23,373.28L218.75,373.12L219.27,372.95L219.78,372.79L220.3,372.62L220.82,372.45L221.33,372.27L221.85,372.1L222.37,371.93L222.88,371.75L223.4,371.58L223.92,371.4L224.43,371.22L224.95,371.04L225.46,370.86L225.98,370.68L226.5,370.49L227.01,370.31L227.53,370.13L228.05,369.94L228.56,369.75L229.08,369.57L229.6,369.38L230.11,369.19L230.63,369L231.15,368.81L231.66,368.62L232.18,368.43L232.7,368.23L233.21,368.04L233.73,367.85L234.25,367.65L234.76,367.46L235.28,367.26L235.79,367.07L236.31,366.87L236.83,366.67L237.34,366.47L237.86,366.28L238.38,366.08L238.89,365.88L239.41,365.68L239.93,365.48L240.44,365.28L240.96,365.08L241.48,364.88L241.99,364.67L242.51,364.47L243.03,364.27L243.54,364.07L244.06,363.86L244.58,363.66L245.09,363.46L245.61,363.25L246.12,363.05L246.64,362.85L247.16,362.64L247.67,362.44L248.19,362.23L248.71,362.03L249.22,361.82L249.74,361.61L250.26,361.41L250.77,361.2L251.29,361L251.81,360.79L252.32,360.58L252.84,360.38L253.36,360.17L253.87,359.96L254.39,359.75L254.91,359.55L255.42,359.34L255.94,359.13L256.45,358.93L256.97,358.72L257.49,358.51L258,358.3L258.52,358.09L259.04,357.89L259.55,357.68L260.07,357.47L260.59,357.26L261.1,357.05L261.62,356.85L262.14,356.64L262.65,356.43L263.17,356.22L263.69,356.01L264.2,355.8L264.72,355.6L265.24,355.39L265.75,355.18L266.27,354.97L266.79,354.76L267.3,354.55L267.82,354.35L268.33,354.14L268.85,353.93L269.37,353.72L269.88,353.51L270.4,353.31L270.92,353.1L271.43,352.89L271.95,352.68L272.47,352.47L272.98,352.27L273.5,352.06L274.02,351.85L274.53,351.64L275.05,351.43L275.57,351.23L276.08,351.02L276.6,350.81L277.12,350.6L277.63,350.4L278.15,350.19L278.66,349.98L279.18,349.78L279.7,349.57L280.21,349.36L280.73,349.16L281.25,348.95L281.76,348.74L282.28,348.54L282.8,348.33L283.31,348.12L283.83,347.92L284.35,347.71L284.86,347.51L285.38,347.3L285.9,347.09L286.41,346.89L286.93,346.68L287.45,346.48L287.96,346.27L288.48,346.07L288.99,345.86L289.51,345.66L290.03,345.45L290.54,345.25L291.06,345.04L291.58,344.84L292.09,344.63L292.61,344.43L293.13,344.23L293.64,344.02L294.16,343.82L294.68,343.61L295.19,343.41L295.71,343.21L296.23,343L296.74,342.8L297.26,342.6L297.78,342.39L298.29,342.19L298.81,341.99L299.32,341.79L299.84,341.58L300.36,341.38L300.87,341.18L301.39,340.98L301.91,340.78L302.42,340.57L302.94,340.37L303.46,340.17L303.97,339.97L304.49,339.77L305.01,339.57L305.52,339.37L306.04,339.17L306.56,338.96L307.07,338.76L307.59,338.56L308.11,338.36L308.62,338.16L309.14,337.96L309.65,337.76L310.17,337.57L310.69,337.37L311.2,337.17L311.72,336.97L312.24,336.77L312.75,336.57L313.27,336.37L313.79,336.17L314.3,335.97L314.82,335.78L315.34,335.58L315.85,335.38L316.37,335.18L316.89,334.98L317.4,334.79L317.92,334.59L318.44,334.39L318.95,334.2L319.47,334L319.98,333.8L320.5,333.6L321.02,333.41L321.53,333.21L322.05,333.02L322.57,332.82L323.08,332.62L323.6,332.43L324.12,332.23L324.63,332.04L325.15,331.84L325.67,331.65L326.18,331.45L326.7,331.26L327.22,331.06L327.73,330.87L328.25,330.67L328.77,330.48L329.28,330.29L329.8,330.09L330.31,329.9L330.83,329.71L331.35,329.51L331.86,329.32L332.38,329.13L332.9,328.93L333.41,328.74L333.93,328.55L334.45,328.35L334.96,328.16L335.48,327.97L336,327.78L336.51,327.59L337.03,327.39L337.55,327.2L338.06,327.01L338.58,326.82L339.1,326.63L339.61,326.44L340.13,326.25L340.64,326.06L341.16,325.87L341.68,325.68L342.19,325.49L342.71,325.3L343.23,325.11L343.74,324.92L344.26,324.73L344.78,324.54L345.29,324.35L345.81,324.16L346.33,323.97L346.84,323.78L347.36,323.59L347.88,323.4L348.39,323.22L348.91,323.03L349.43,322.84L349.94,322.65L350.46,322.46L350.97,322.28L351.49,322.09L352.01,321.9L352.52,321.71L353.04,321.53L353.56,321.34L354.07,321.15L354.59,320.97L355.11,320.78L355.62,320.59L356.14,320.41L356.66,320.22L357.17,320.04L357.69,319.85L358.21,319.66L358.72,319.48L359.24,319.29L359.76,319.11L360.27,318.92L360.79,318.74L361.3,318.55L361.82,318.37L362.34,318.19L362.85,318L363.37,317.82L363.89,317.63L364.4,317.45L364.92,317.27L365.44,317.08L365.95,316.9L366.47,316.72L366.99,316.53L367.5,316.35L368.02,316.17L368.54,315.98L369.05,315.8L369.57,315.62L370.09,315.44L370.6,315.26L371.12,315.07L371.63,314.89L372.15,314.71L372.67,314.53L373.18,314.35L373.7,314.17L374.22,313.99L374.73,313.81L375.25,313.62L375.77,313.44L376.28,313.26L376.8,313.08L377.32,312.9L377.83,312.72L378.35,312.54L378.87,312.36L379.38,312.18L379.9,312L380.42,311.83L380.93,311.65L381.45,311.47L381.96,311.29L382.48,311.11L383,310.93L383.51,310.75L384.03,310.57L384.55,310.4L385.06,310.22L385.58,310.04L386.1,309.86L386.61,309.69L387.13,309.51L387.65,309.33L388.16,309.15L388.68,308.98L389.2,308.8L389.71,308.62L390.23,308.45L390.75,308.27L391.26,308.09L391.78,307.92L392.29,307.74L392.81,307.57L393.33,307.39L393.84,307.21L394.36,307.04L394.88,306.86L395.39,306.69L395.91,306.51L396.43,306.34L396.94,306.16L397.46,305.99L397.98,305.81L398.49,305.64L399.01,305.47L399.53,305.29L400.04,305.12L400.56,304.94L401.08,304.77L401.59,304.6L402.11,304.42L402.62,304.25L403.14,304.08L403.66,303.9L404.17,303.73L404.69,303.56L405.21,303.39L405.72,303.21L406.24,303.04L406.76,302.87L407.27,302.7L407.79,302.53L408.31,302.35L408.82,302.18L409.34,302.01L409.86,301.84L410.37,301.67L410.89,301.5L411.41,301.33L411.92,301.15L412.44,300.98L412.96,300.81L413.47,300.64L413.99,300.47L414.5,300.3L415.02,300.13L415.54,299.96L416.05,299.79L416.57,299.62L417.09,299.45L417.6,299.28L418.12,299.12L418.64,298.95L419.15,298.78L419.67,298.61L420.19,298.44L420.7,298.27L421.22,298.1L421.74,297.93L422.25,297.77L422.77,297.6L423.29,297.43L423.8,297.26L424.32,297.1L424.83,296.93L425.35,296.76L425.87,296.59L426.38,296.43L426.9,296.26L427.42,296.09L427.93,295.93L428.45,295.76L428.97,295.59L429.48,295.43L430,295.26L430.52,295.09L431.03,294.93L431.55,294.76L432.07,294.6L432.58,294.43L433.1,294.27L433.62,294.1L434.13,293.94L434.65,293.77L435.16,293.61L435.68,293.44L436.2,293.28L436.71,293.11L437.23,292.95L437.75,292.78L438.26,292.62L438.78,292.46L439.3,292.29L439.81,292.13L440.33,291.96L440.85,291.8L441.36,291.64L441.88,291.47L442.4,291.31L442.91,291.15L443.43,290.98L443.95,290.82L444.46,290.66L444.98,290.5L445.49,290.33L446.01,290.17L446.53,290.01L447.04,289.85L447.56,289.69L448.08,289.52L448.59,289.36L449.11,289.2L449.63,289.04L450.14,288.88L450.66,288.72L451.18,288.56L451.69,288.4L452.21,288.24L452.73,288.08L453.24,287.91L453.76,287.75L454.28,287.59L454.79,287.43L455.31,287.27L455.82,287.11L456.34,286.95L456.86,286.79L457.37,286.64L457.89,286.48L458.41,286.32L458.92,286.16L459.44,286L459.96,285.84L460.47,285.68L460.99,285.52L461.51,285.36L462.02,285.21L462.54,285.05L463.06,284.89L463.57,284.73L464.09,284.57L464.61,284.42L465.12,284.26L465.64,284.1L466.15,283.94L466.67,283.79L467.19,283.63L467.7,283.47L468.22,283.31L468.74,283.16L469.25,283L469.77,282.84L470.29,282.69L470.8,282.53L471.32,282.38L471.84,282.22L472.35,282.06L472.87,281.91L473.39,281.75L473.9,281.6L474.42,281.44L474.94,281.29L475.45,281.13L475.97,280.98L476.48,280.82L477,280.67L477.52,280.51L478.03,280.36L478.55,280.2L479.07,280.05L479.58,279.89L480.1,279.74L480.62,279.58L481.13,279.43L481.65,279.28L482.17,279.12L482.68,278.97L483.2,278.82L483.72,278.66L484.23,278.51L484.75,278.36L485.27,278.2L485.78,278.05L486.3,277.9L486.81,277.75L487.33,277.59L487.85,277.44L488.36,277.29L488.88,277.14L489.4,276.98L489.91,276.83L490.43,276.68L490.95,276.53L491.46,276.38L491.98,276.23L492.5,276.07L493.01,275.92L493.53,275.77L494.05,275.62L494.56,275.47L495.08,275.32L495.6,275.17L496.11,275.02L496.63,274.87L497.14,274.72L497.66,274.57L498.18,274.42L498.69,274.27L499.21,274.12L499.73,273.97L500.24,273.82L500.76,273.67L501.28,273.52L501.79,273.37L502.31,273.22L502.83,273.07L503.34,272.92L503.86,272.77L504.38,272.63L504.89,272.48L505.41,272.33L505.93,272.18L506.44,272.03L506.96,271.88L507.47,271.74L507.99,271.59L508.51,271.44L509.02,271.29L509.54,271.14L510.06,271L510.57,270.85L511.09,270.7L511.61,270.56L512.12,270.41L512.64,270.26L513.16,270.11L513.67,269.97L514.19,269.82L514.71,269.67L515.22,269.53L515.74,269.38L516.26,269.24L516.77,269.09L517.29,268.94L517.8,268.8L518.32,268.65L518.84,268.51L519.35,268.36L519.87,268.22L520.39,268.07L520.9,267.93L521.42,267.78L521.94,267.64L522.45,267.49L522.97,267.35L523.49,267.2L524,267.06L524.52,266.91L525.04,266.77L525.55,266.62L526.07,266.48L526.59,266.34L527.1,266.19L527.62,266.05L528.13,265.91L528.65,265.76L529.17,265.62L529.68,265.48L530.2,265.33L530.72,265.19L531.23,265.05L531.75,264.9L532.27,264.76L532.78,264.62L533.3,264.48L533.82,264.33L534.33,264.19L534.85,264.05L535.37,263.91L535.88,263.76L536.4,263.62L536.92,263.48L537.43,263.34L537.95,263.2L538.46,263.06L538.98,262.91L539.5,262.77L540.01,262.63L540.53,262.49L541.05,262.35L541.56,262.21L542.08,262.07L542.6,261.93L543.11,261.79L543.63,261.65L544.15,261.51L544.66,261.37L545.18,261.23L545.7,261.09L546.21,260.95L546.73,260.81L547.25,260.67L547.76,260.53L548.28,260.39L548.79,260.25L549.31,260.11L549.83,259.97L550.34,259.83L550.86,259.69L551.38,259.55L551.89,259.42L552.41,259.28L552.93,259.14L553.44,259L553.96,258.86L554.48,258.72L554.99,258.59L555.51,258.45L556.03,258.31L556.54,258.17L557.06,258.04L557.58,257.9L558.09,257.76L558.61,257.62L559.12,257.49" style="fill:none;stroke:#000000" />
<path d="M43.656,40.803L44.173,40.803L44.689,40.803L45.206,40.803L45.722,40.803L46.239,40.803L46.755,40.803L47.272,40.803L47.788,40.803L48.305,40.803L48.821,40.803L49.338,40.803L49.854,40.803L50.371,40.803L50.887,40.803L51.404,40.803L51.92,56.367L52.437,65.318L52.953,70.811L53.47,74.244L53.986,76.272L54.503,155.42L55.019,160.98L55.536,143.52L56.052,168.28L56.569,132.94L57.085,106.83L57.602,91.395L58.118,79.03L58.635,90.872L59.151,104.4L59.668,96.532L60.184,91.489L60.701,126.18L61.217,100.95L61.734,84.839L62.25,75.461L62.767,68.074L63.283,65.56L63.8,63.217L64.316,61.11L64.833,59.211L65.349,75.347L65.866,75.796L66.382,75.457L66.899,108.62L67.415,88.468L67.932,73.364L68.448,70.081L68.965,64.191L69.481,69.873L69.998,77.8L70.514,74.948L71.031,74.397L71.547,73.472L72.064,101.76L72.58,83.934L73.097,70.691L73.613,63.236L74.13,58.101L74.646,65.522L75.163,65.165L75.679,65.776L76.196,93.722L76.712,77.806L77.229,65.924L77.745,59.276L78.262,54.969L78.778,60.484L79.295,61.244L79.811,60.522L80.328,59.223L80.844,57.665L81.361,56.044L81.877,54.485L82.394,63.294L82.91,63.665L83.427,64.883L83.943,94.899L84.46,78.213L84.976,65.959L85.493,59.22L86.009,54.873L86.526,56.109L87.042,58.249L87.559,57.914L88.075,57.363L88.592,59.217L89.108,86.999L89.625,72.5L90.141,68.52L90.658,62.947L91.174,58.194L91.691,55.944L92.207,54.138L92.724,52.644L93.24,51.379L93.757,50.296L94.273,49.363L94.79,48.557L95.306,47.858L95.823,47.25L96.339,46.719L96.856,46.254L97.372,45.845L97.889,45.483L98.405,45.161L98.922,44.875L99.438,44.617L99.955,44.386L100.47,44.177L100.99,43.986L101.5,43.813L102.02,43.654L102.54,43.508L103.05,43.373L103.57,43.248L104.09,43.133L104.6,48.716L105.12,48.976L105.64,53.802L106.15,91.562L106.67,74.036L107.19,61.269L107.7,54.57L108.22,50.935L108.74,49.936L109.25,49.968L109.77,49.856L110.28,49.123L110.8,53.201L111.32,86.768L111.83,71.321L112.35,59.821L112.87,53.667L113.38,50.334L113.9,48.312L114.42,47.002L114.93,46.055L115.45,45.322L115.97,44.73L116.48,44.24L117,43.828L117.52,43.478L118.03,43.178L118.55,42.922L119.07,42.7L119.58,42.509L120.1,47.269L120.62,48.263L121.13,48.483L121.65,48.446L122.16,48.292L122.68,67.537L123.2,68.758L123.71,69.99L124.23,104.37L124.75,84.724L125.26,70.32L125.78,62.464L126.3,57.301L126.81,59.356L127.33,61.97L127.85,62.213L128.36,61.69L128.88,63.381L129.4,94.752L129.91,77.858L130.43,65.32L130.95,58.452L131.46,54.196L131.98,51.869L132.49,50.227L133.01,48.972L133.53,47.966L134.04,47.137L134.56,46.442L135.08,45.854L135.59,45.351L136.11,44.921L136.63,44.549L137.14,44.227L137.66,43.947L138.18,43.702L138.69,43.487L139.21,47.582L139.73,48.41L140.24,48.572L140.76,48.514L141.28,48.355L141.79,68.419L142.31,69.664L142.82,70.795L143.34,105.53L143.86,85.531L144.37,70.875L144.89,62.885L145.41,57.619L145.92,59.768L146.44,62.767L146.96,62.249L147.47,63.898L147.99,95.609L148.51,78.439L149.02,65.702L149.54,58.732L150.06,54.407L150.57,52.041L151.09,50.368L151.61,49.09L152.12,48.067L152.64,47.224L153.15,46.519L153.67,45.923L154.19,45.414L154.7,44.978L155.22,44.602L155.74,44.277L156.25,43.994L156.77,43.747L157.29,43.53L157.8,43.339L158.32,43.17L158.84,43.019L159.35,42.885L159.87,42.765L160.39,42.656L160.9,42.558L161.42,42.469L161.94,42.388L162.45,42.315L162.97,42.247L163.48,42.184L164,42.127L164.52,42.073L165.03,42.024L165.55,41.978L166.07,41.935L166.58,41.894L167.1,41.856L167.62,41.821L168.13,41.787L168.65,41.756L169.17,41.726L169.68,41.697L170.2,41.67L170.72,41.645L171.23,41.621L171.75,41.597L172.27,41.575L172.78,41.554L173.3,41.534L173.81,41.515L174.33,41.496L174.85,41.479L175.36,41.462L175.88,41.446L176.4,41.43L176.91,41.415L177.43,41.401L177.95,41.387L178.46,41.374L178.98,41.361L179.5,41.349L180.01,41.337L180.53,41.325L181.05,41.314L181.56,41.304L182.08,41.294L182.6,41.284L183.11,41.274L183.63,41.265L184.14,41.256L184.66,41.248L185.18,41.239L185.69,41.232L186.21,41.224L186.73,41.217L187.24,41.209L187.76,41.202L188.28,41.196L188.79,41.189L189.31,41.183L189.83,41.177L190.34,41.171L190.86,41.166L191.38,41.16L191.89,41.155L192.41,41.15L192.93,41.145L193.44,41.14L193.96,41.136L194.47,41.132L194.99,41.127L195.51,41.123L196.02,41.119L196.54,41.115L197.06,41.112L197.57,41.108L198.09,41.104L198.61,41.101L199.12,41.098L199.64,41.095L200.16,41.092L200.67,41.089L201.19,41.086L201.71,41.083L202.22,41.08L202.74,41.078L203.26,41.075L203.77,41.073L204.29,41.07L204.8,41.068L205.32,41.066L205.84,41.064L206.35,41.062L206.87,41.06L207.39,41.058L207.9,41.056L208.42,41.054L208.94,41.053L209.45,41.051L209.97,41.049L210.49,41.048L211,41.046L211.52,41.045L212.04,41.043L212.55,41.042L213.07,41.041L213.59,41.039L214.1,41.038L214.62,41.037L215.13,41.036L215.65,41.035L216.17,41.033L216.68,41.032L217.2,41.031L217.72,41.03L218.23,41.029L218.75,41.029L219.27,41.028L219.78,41.027L220.3,41.026L220.82,41.025L221.33,41.024L221.85,41.024L222.37,41.023L222.88,41.022L223.4,41.022L223.92,41.021L224.43,41.02L224.95,41.02L225.46,41.019L225.98,41.019L226.5,41.018L227.01,41.017L227.53,41.017L228.05,41.016L228.56,41.016L229.08,41.015L229.6,41.015L230.11,41.015L230.63,41.014L231.15,41.014L231.66,41.013L232.18,41.013L232.7,41.013L233.21,41.012L233.73,41.012L234.25,41.012L234.76,41.011L235.28,41.011L235.79,41.011L236.31,41.011L236.83,41.01L237.34,41.01L237.86,41.01L238.38,41.01L238.89,41.009L239.41,41.009L239.93,41.009L240.44,41.009L240.96,41.009L241.48,41.008L241.99,41.008L242.51,41.008L243.03,41.008L243.54,41.008L244.06,41.008L244.58,41.007L245.09,41.007L245.61,41.007L246.12,41.007L246.64,41.007L247.16,41.007L247.67,41.007L248.19,41.007L248.71,41.006L249.22,41.006L249.74,41.006L250.26,41.006L250.77,41.006L251.29,41.006L251.81,41.006L252.32,41.006L252.84,41.006L253.36,41.006L253.87,41.006L254.39,41.006L254.91,41.006L255.42,41.005L255.94,41.005L256.45,41.005L256.97,41.005L257.49,41.005L258,41.005L258.52,41.005L259.04,41.005L259.55,41.005L260.07,41.005L260.59,41.005L261.1,41.005L261.62,41.005L262.14,41.005L262.65,41.005L263.17,41.005L263.69,41.005L264.2,41.005L264.72,41.005L265.24,41.005L265.75,41.005L266.27,41.005L266.79,41.005L267.3,41.005L267.82,41.005L268.33,41.005L268.85,41.005L269.37,41.005L269.88,41.005L270.4,41.005L270.92,41.005L271.43,41.005L271.95,41.005L272.47,41.005L272.98,41.005L273.5,41.005L274.02,41.005L274.53,41.005L275.05,41.005L275.57,41.005L276.08,41.005L276.6,41.005L277.12,41.005L277.63,41.005L278.15,41.005L278.66,41.005L279.18,41.005L279.7,41.005L280.21,41.005L280.73,41.005L281.25,41.005L281.76,41.005L282.28,41.005L282.8,41.005L283.31,41.005L283.83,41.005L284.35,41.005L284.86,41.005L285.38,41.005L285.9,41.005L286.41,41.005L286.93,41.005L287.45,41.005L287.96,41.005L288.48,41.005L288.99,41.005L289.51,41.005L290.03,41.005L290.54,41.005L291.06,41.005L291.58,41.005L292.09,41.005L292.61,41.005L293.13,41.005L293.64,41.005L294.16,41.005L294.68,41.005L295.19,41.005L295.71,41.005L296.23,41.005L296.74,41.005L297.26,41.005L297.78,41.005L298.29,41.005L298.81,41.005L299.32,41.005L299.84,41.005L300.36,41.005L300.87,41.005L301.39,41.005L301.91,41.005L302.42,41.004L302.94,41.004L303.46,41.004L303.97,41.004L304.49,41.004L305.01,41.004L305.52,41.004L306.04,41.004L306.56,41.004L307.07,41.004L307.59,41.004L308.11,41.004L308.62,41.004L309.14,41.004L309.65,41.004L310.17,41.004L310.69,41.004L311.2,41.004L311.72,41.004L312.24,41.004L312.75,41.004L313.27,41.004L313.79,41.004L314.3,41.004L314.82,41.004L315.34,41.004L315.85,41.004L316.37,41.004L316.89,41.004L317.4,41.004L317.92,41.004L318.44,41.004L318.95,41.004L319.47,41.004L319.98,41.004L320.5,41.004L321.02,41.004L321.53,41.004L322.05,41.004L322.57,41.003L323.08,41.003L323.6,41.003L324.12,41.003L324.63,41.003L325.15,41.003L325.67,41.003L326.18,41.003L326.7,41.003L327.22,41.003L327.73,41.003L328.25,41.003L328.77,41.003L329.28,41.003L329.8,41.003L330.31,41.003L330.83,41.003L331.35,41.003L331.86,41.003L332.38,41.003L332.9,41.003L333.41,41.003L333.93,41.002L334.45,41.002L334.96,41.002L335.48,41.002L336,41.002L336.51,41.002L337.03,41.002L337.55,41.002L338.06,41.002L338.58,41.002L339.1,41.002L339.61,41.002L340.13,41.002L340.64,41.002L341.16,41.002L341.68,41.002L342.19,41.002L342.71,41.002L343.23,41.001L343.74,41.001L344.26,41.001L344.78,41.001L345.29,41.001L345.81,41.001L346.33,41.001L346.84,41.001L347.36,41.001L347.88,41.001L348.39,41.001L348.91,41.001L349.43,41.001L349.94,41.001L350.46,41.001L350.97,41L351.49,41L352.01,41L352.52,41L353.04,41L353.56,41L354.07,41L354.59,41L355.11,41L355.62,41L356.14,41L356.66,41L357.17,41L357.69,40.999L358.21,40.999L358.72,40.999L359.24,40.999L359.76,40.999L360.27,40.999L360.79,40.999L361.3,40.999L361.82,40.999L362.34,40.999L362.85,40.999L363.37,40.999L363.89,40.999L364.4,40.998L364.92,40.998L365.44,40.998L365.95,40.998L366.47,40.998L366.99,40.998L367.5,40.998L368.02,40.998L368.54,40.998L369.05,40.998L369.57,40.998L370.09,40.997L370.6,40.997L371.12,40.997L371.63,40.997L372.15,40.997L372.67,40.997L373.18,40.997L373.7,40.997L374.22,40.997L374.73,40.997L375.25,40.997L375.77,40.996L376.28,40.996L376.8,40.996L377.32,40.996L377.83,40.996L378.35,40.996L378.87,40.996L379.38,40.996L379.9,40.996L380.42,40.996L380.93,40.996L381.45,40.995L381.96,40.995L382.48,40.995L383,40.995L383.51,40.995L384.03,40.995L384.55,40.995L385.06,40.995L385.58,40.995L386.1,40.995L386.61,40.994L387.13,40.994L387.65,40.994L388.16,40.994L388.68,40.994L389.2,40.994L389.71,40.994L390.23,40.994L390.75,40.994L391.26,40.994L391.78,40.993L392.29,40.993L392.81,40.993L393.33,40.993L393.84,40.993L394.36,40.993L394.88,40.993L395.39,40.993L395.91,40.993L396.43,40.992L396.94,40.992L397.46,40.992L397.98,40.992L398.49,40.992L399.01,40.992L399.53,40.992L400.04,40.992L400.56,40.992L401.08,40.991L401.59,40.991L402.11,40.991L402.62,40.991L403.14,40.991L403.66,40.991L404.17,40.991L404.69,40.991L405.21,40.991L405.72,40.99L406.24,40.99L406.76,40.99L407.27,40.99L407.79,40.99L408.31,40.99L408.82,40.99L409.34,40.99L409.86,40.99L410.37,40.989L410.89,40.989L411.41,40.989L411.92,40.989L412.44,40.989L412.96,40.989L413.47,40.989L413.99,40.989L414.5,40.988L415.02,40.988L415.54,40.988L416.05,40.988L416.57,40.988L417.09,40.988L417.6,40.988L418.12,40.988L418.64,40.988L419.15,40.987L419.67,40.987L420.19,40.987L420.7,40.987L421.22,40.987L421.74,40.987L422.25,40.987L422.77,40.987L423.29,40.986L423.8,40.986L424.32,40.986L424.83,40.986L425.35,40.986L425.87,40.986L426.38,40.986L426.9,40.986L427.42,40.985L427.93,40.985L428.45,40.985L428.97,40.985L429.48,40.985L430,40.985L430.52,40.985L431.03,40.985L431.55,40.984L432.07,40.984L432.58,40.984L433.1,40.984L433.62,40.984L434.13,40.984L434.65,40.984L435.16,40.984L435.68,40.983L436.2,40.983L436.71,40.983L437.23,40.983L437.75,40.983L438.26,40.983L438.78,40.983L439.3,40.982L439.81,40.982L440.33,40.982L440.85,40.982L441.36,40.982L441.88,40.982L442.4,40.982L442.91,40.982L443.43,40.981L443.95,40.981L444.46,40.981L444.98,40.981L445.49,40.981L446.01,40.981L446.53,40.981L447.04,40.981L447.56,40.98L448.08,40.98L448.59,40.98L449.11,40.98L449.63,40.98L450.14,40.98L450.66,40.98L451.18,40.979L451.69,40.979L452.21,40.979L452.73,40.979L453.24,40.979L453.76,40.979L454.28,40.979L454.79,40.979L455.31,40.978L455.82,40.978L456.34,40.978L456.86,40.978L457.37,40.978L457.89,40.978L458.41,40.978L458.92,40.977L459.44,40.977L459.96,40.977L460.47,40.977L460.99,40.977L461.51,40.977L462.02,40.977L462.54,40.976L463.06,40.976L463.57,40.976L464.09,40.976L464.61,40.976L465.12,40.976L465.64,40.976L466.15,40.976L466.67,40.975L467.19,40.975L467.7,40.975L468.22,40.975L468.74,40.975L469.25,40.975L469.77,40.975L470.29,40.974L470.8,40.974L471.32,40.974L471.84,40.974L472.35,40.974L472.87,40.974L473.39,40.974L473.9,40.973L474.42,40.973L474.94,40.973L475.45,40.973L475.97,40.973L476.48,40.973L477,40.973L477.52,40.972L478.03,40.972L478.55,40.972L479.07,40.972L479.58,40.972L480.1,40.972L480.62,40.972L481.13,40.971L481.65,40.971L482.17,40.971L482.68,40.971L483.2,40.971L483.72,40.971L484.23,40.971L484.75,40.97L485.27,40.97L485.78,40.97L486.3,40.97L486.81,40.97L487.33,40.97L487.85,40.97L488.36,40.969L488.88,40.969L489.4,40.969L489.91,40.969L490.43,40.969L490.95,40.969L491.46,40.969L491.98,40.968L492.5,40.968L493.01,40.968L493.53,40.968L494.05,40.968L494.56,40.968L495.08,40.968L495.6,40.967L496.11,40.967L496.63,40.967L497.14,40.967L497.66,40.967L498.18,40.967L498.69,40.967L499.21,40.966L499.73,40.966L500.24,40.966L500.76,40.966L501.28,40.966L501.79,40.966L502.31,40.966L502.83,40.965L503.34,40.965L503.86,40.965L504.38,40.965L504.89,40.965L505.41,40.965L505.93,40.965L506.44,40.964L506.96,40.964L507.47,40.964L507.99,40.964L508.51,40.964L509.02,40.964L509.54,40.964L510.06,40.963L510.57,40.963L511.09,40.963L511.61,40.963L512.12,40.963L512.64,40.963L513.16,40.963L513.67,40.962L514.19,40.962L514.71,40.962L515.22,40.962L515.74,40.962L516.26,40.962L516.77,40.962L517.29,40.961L517.8,40.961L518.32,40.961L518.84,40.961L519.35,40.961L519.87,40.961L520.39,40.961L520.9,40.96L521.42,40.96L521.94,40.96L522.45,40.96L522.97,40.96L523.49,40.96L524,40.96L524.52,40.959L525.04,40.959L525.55,40.959L526.07,40.959L526.59,40.959L527.1,40.959L527.62,40.959L528.13,40.958L528.65,40.958L529.17,40.958L529.68,40.958L530.2,40.958L530.72,40.958L531.23,40.958L531.75,40.957L532.27,40.957L532.78,40.957L533.3,40.957L533.82,40.957L534.33,40.957L534.85,40.957L535.37,40.956L535.88,40.956L536.4,40.956L536.92,40.956L537.43,40.956L537.95,40.956L538.46,40.956L538.98,40.955L539.5,40.955L540.01,40.955L540.53,40.955L541.05,40.955L541.56,40.955L542.08,40.954L542.6,40.954L543.11,40.954L543.63,40.954L544.15,40.954L544.66,40.954L545.18,40.954L545.7,40.953L546.21,40.953L546.73,40.953L547.25,40.953L547.76,40.953L548.28,40.953L548.79,40.953L549.31,40.952L549.83,40.952L550.34,40.952L550.86,40.952L551.38,40.952L551.89,40.952L552.41,40.952L552.93,40.951L553.44,40.951L553.96,40.951L554.48,40.951L554.99,40.951L555.51,40.951L556.03,40.951L556.54,40.95L557.06,40.95L557.58,40.95L558.09,40.95L558.61,40.95L559.12,40.95" style="fill:none;stroke:#A52A2A" />
<path d="M43.656,55.288L44.173,55.288L44.689,55.288L45.206,55.288L45.722,55.288L46.239,55.288L46.755,55.288L47.272,55.288L47.788,55.288L48.305,55.288L48.821,55.288L49.338,55.288L49.854,55.288L50.371,55.288L50.887,55.288L51.404,55.288L51.92,55.289L52.437,55.303L52.953,55.381L53.47,55.583L53.986,55.938L54.503,57.441L55.019,61.735L55.536,67.53L56.052,74.315L56.569,82.44L57.085,90.118L57.602,96.446L58.118,101.32L58.635,105.25L59.151,108.97L59.668,112.54L60.184,115.72L60.701,119.09L61.217,123.35L61.734,127.6L62.25,131.31L62.767,134.37L63.283,136.88L63.8,138.96L64.316,140.74L64.833,142.28L65.349,143.73L65.866,145.22L66.382,146.71L66.899,148.48L67.415,150.97L67.932,153.75L68.448,156.42L68.965,158.82L69.481,160.98L69.998,163.02L70.514,164.96L71.031,166.78L71.547,168.51L72.064,170.35L72.58,172.66L73.097,175.12L73.613,177.46L74.13,179.57L74.646,181.48L75.163,183.25L75.679,184.9L76.196,186.63L76.712,188.71L77.229,190.92L77.745,193.04L78.262,194.98L78.778,196.74L79.295,198.39L79.811,199.94L80.328,201.4L80.844,202.79L81.361,204.11L81.877,205.38L82.394,206.62L82.91,207.86L83.427,209.09L83.943,210.42L84.46,212.05L84.976,213.85L85.493,215.64L86.009,217.31L86.526,218.86L87.042,220.31L87.559,221.68L88.075,222.99L88.592,224.24L89.108,225.56L89.625,227.1L90.141,228.79L90.658,230.48L91.174,232.1L91.691,233.59L92.207,234.98L92.724,236.28L93.24,237.51L93.757,238.67L94.273,239.79L94.79,240.87L95.306,241.92L95.823,242.95L96.339,243.96L96.856,244.95L97.372,245.92L97.889,246.88L98.405,247.82L98.922,248.76L99.438,249.68L99.955,250.58L100.47,251.48L100.99,252.37L101.5,253.25L102.02,254.11L102.54,254.97L103.05,255.82L103.57,256.65L104.09,257.48L104.6,258.3L105.12,259.11L105.64,259.91L106.15,260.76L106.67,261.84L107.19,263.12L107.7,264.43L108.22,265.67L108.74,266.83L109.25,267.89L109.77,268.88L110.28,269.82L110.8,270.71L111.32,271.66L111.83,272.88L112.35,274.25L112.87,275.62L113.38,276.9L113.9,278.06L114.42,279.12L114.93,280.1L115.45,281.01L115.97,281.88L116.48,282.7L117,283.49L117.52,284.26L118.03,285.02L118.55,285.75L119.07,286.47L119.58,287.18L120.1,287.88L120.62,288.58L121.13,289.26L121.65,289.93L122.16,290.6L122.68,291.27L123.2,291.96L123.71,292.67L124.23,293.49L124.75,294.61L125.26,295.93L125.78,297.25L126.3,298.47L126.81,299.58L127.33,300.6L127.85,301.56L128.36,302.45L128.88,303.3L129.4,304.23L129.91,305.42L130.43,306.74L130.95,308.02L131.46,309.2L131.98,310.25L132.49,311.19L133.01,312.05L133.53,312.83L134.04,313.57L134.56,314.26L135.08,314.92L135.59,315.56L136.11,316.18L136.63,316.78L137.14,317.37L137.66,317.95L138.18,318.51L138.69,319.07L139.21,319.62L139.73,320.16L140.24,320.7L140.76,321.23L141.28,321.75L141.79,322.27L142.31,322.81L142.82,323.37L143.34,324.03L143.86,324.97L144.37,326.09L144.89,327.2L145.41,328.23L145.92,329.16L146.44,330.79L146.96,331.52L147.47,332.21L147.99,332.97L148.51,333.97L149.02,335.09L149.54,336.18L150.06,337.17L150.57,338.04L151.09,338.82L151.61,339.52L152.12,340.15L152.64,340.73L153.15,341.28L153.67,341.8L154.19,342.3L154.7,342.78L155.22,343.24L155.74,343.7L156.25,344.14L156.77,344.57L157.29,345L157.8,345.42L158.32,345.83L158.84,346.23L159.35,346.63L159.87,347.02L160.39,347.4L160.9,347.78L161.42,348.15L161.94,348.52L162.45,348.88L162.97,349.23L163.48,349.58L164,349.92L164.52,350.26L165.03,350.59L165.55,350.92L166.07,351.24L166.58,351.56L167.1,351.87L167.62,352.17L168.13,352.47L168.65,352.77L169.17,353.06L169.68,353.34L170.2,353.62L170.72,353.9L171.23,354.17L171.75,354.43L172.27,354.69L172.78,354.95L173.3,355.2L173.81,355.44L174.33,355.68L174.85,355.92L175.36,356.15L175.88,356.38L176.4,356.6L176.91,356.82L177.43,357.04L177.95,357.25L178.46,357.45L178.98,357.65L179.5,357.85L180.01,358.04L180.53,358.23L181.05,358.42L181.56,358.6L182.08,358.78L182.6,358.95L183.11,359.12L183.63,359.28L184.14,359.44L184.66,359.6L185.18,359.75L185.69,359.9L186.21,360.05L186.73,360.19L187.24,360.33L187.76,360.46L188.28,360.59L188.79,360.72L189.31,360.85L189.83,360.97L190.34,361.08L190.86,361.2L191.38,361.31L191.89,361.42L192.41,361.52L192.93,361.62L193.44,361.72L193.96,361.81L194.47,361.9L194.99,361.99L195.51,362.07L196.02,362.15L196.54,362.23L197.06,362.31L197.57,362.38L198.09,362.45L198.61,362.51L199.12,362.58L199.64,362.64L200.16,362.69L200.67,362.75L201.19,362.8L201.71,362.85L202.22,362.9L202.74,362.94L203.26,362.98L203.77,363.02L204.29,363.05L204.8,363.08L205.32,363.11L205.84,363.14L206.35,363.17L206.87,363.19L207.39,363.21L207.9,363.23L208.42,363.24L208.94,363.25L209.45,363.26L209.97,363.27L210.49,363.28L211,363.28L211.52,363.28L212.04,363.28L212.55,363.27L213.07,363.27L213.59,363.26L214.1,363.25L214.62,363.23L215.13,363.22L215.65,363.2L216.17,363.18L216.68,363.16L217.2,363.14L217.72,363.11L218.23,363.08L218.75,363.05L219.27,363.02L219.78,362.99L220.3,362.95L220.82,362.92L221.33,362.88L221.85,362.83L222.37,362.79L222.88,362.75L223.4,362.7L223.92,362.65L224.43,362.6L224.95,362.55L225.46,362.49L225.98,362.44L226.5,362.38L227.01,362.32L227.53,362.26L228.05,362.19L228.56,362.13L229.08,362.06L229.6,362L230.11,361.93L230.63,361.86L231.15,361.78L231.66,361.71L232.18,361.63L232.7,361.56L233.21,361.48L233.73,361.4L234.25,361.31L234.76,361.23L235.28,361.15L235.79,361.06L236.31,360.97L236.83,360.88L237.34,360.79L237.86,360.7L238.38,360.61L238.89,360.51L239.41,360.42L239.93,360.32L240.44,360.22L240.96,360.12L241.48,360.02L241.99,359.92L242.51,359.81L243.03,359.71L243.54,359.6L244.06,359.5L244.58,359.39L245.09,359.28L245.61,359.17L246.12,359.05L246.64,358.94L247.16,358.83L247.67,358.71L248.19,358.59L248.71,358.48L249.22,358.36L249.74,358.24L250.26,358.12L250.77,357.99L251.29,357.87L251.81,357.75L252.32,357.62L252.84,357.5L253.36,357.37L253.87,357.24L254.39,357.11L254.91,356.98L255.42,356.85L255.94,356.72L256.45,356.59L256.97,356.45L257.49,356.32L258,356.18L258.52,356.04L259.04,355.91L259.55,355.77L260.07,355.63L260.59,355.49L261.1,355.35L261.62,355.21L262.14,355.06L262.65,354.92L263.17,354.78L263.69,354.63L264.2,354.48L264.72,354.34L265.24,354.19L265.75,354.04L266.27,353.89L266.79,353.74L267.3,353.59L267.82,353.44L268.33,353.29L268.85,353.14L269.37,352.98L269.88,352.83L270.4,352.68L270.92,352.52L271.43,352.36L271.95,352.21L272.47,352.05L272.98,351.89L273.5,351.73L274.02,351.57L274.53,351.41L275.05,351.25L275.57,351.09L276.08,350.93L276.6,350.77L277.12,350.61L277.63,350.44L278.15,350.28L278.66,350.11L279.18,349.95L279.7,349.78L280.21,349.62L280.73,349.45L281.25,349.28L281.76,349.12L282.28,348.95L282.8,348.78L283.31,348.61L283.83,348.44L284.35,348.27L284.86,348.1L285.38,347.93L285.9,347.76L286.41,347.58L286.93,347.41L287.45,347.24L287.96,347.06L288.48,346.89L288.99,346.72L289.51,346.54L290.03,346.37L290.54,346.19L291.06,346.01L291.58,345.84L292.09,345.66L292.61,345.48L293.13,345.3L293.64,345.13L294.16,344.95L294.68,344.77L295.19,344.59L295.71,344.41L296.23,344.23L296.74,344.05L297.26,343.87L297.78,343.69L298.29,343.51L298.81,343.33L299.32,343.14L299.84,342.96L300.36,342.78L300.87,342.6L301.39,342.41L301.91,342.23L302.42,342.05L302.94,341.86L303.46,341.68L303.97,341.49L304.49,341.31L305.01,341.12L305.52,340.94L306.04,340.75L306.56,340.57L307.07,340.38L307.59,340.19L308.11,340.01L308.62,339.82L309.14,339.63L309.65,339.44L310.17,339.26L310.69,339.07L311.2,338.88L311.72,338.69L312.24,338.5L312.75,338.31L313.27,338.13L313.79,337.94L314.3,337.75L314.82,337.56L315.34,337.37L315.85,337.18L316.37,336.99L316.89,336.8L317.4,336.61L317.92,336.42L318.44,336.22L318.95,336.03L319.47,335.84L319.98,335.65L320.5,335.46L321.02,335.27L321.53,335.08L322.05,334.88L322.57,334.69L323.08,334.5L323.6,334.31L324.12,334.11L324.63,333.92L325.15,333.73L325.67,333.54L326.18,333.34L326.7,333.15L327.22,332.96L327.73,332.76L328.25,332.57L328.77,332.38L329.28,332.18L329.8,331.99L330.31,331.79L330.83,331.6L331.35,331.41L331.86,331.21L332.38,331.02L332.9,330.82L333.41,330.63L333.93,330.43L334.45,330.24L334.96,330.04L335.48,329.85L336,329.65L336.51,329.46L337.03,329.26L337.55,329.07L338.06,328.87L338.58,328.68L339.1,328.48L339.61,328.29L340.13,328.09L340.64,327.9L341.16,327.7L341.68,327.51L342.19,327.31L342.71,327.12L343.23,326.92L343.74,326.72L344.26,326.53L344.78,326.33L345.29,326.14L345.81,325.94L346.33,325.75L346.84,325.55L347.36,325.35L347.88,325.16L348.39,324.96L348.91,324.77L349.43,324.57L349.94,324.37L350.46,324.18L350.97,323.98L351.49,323.79L352.01,323.59L352.52,323.39L353.04,323.2L353.56,323L354.07,322.81L354.59,322.61L355.11,322.41L355.62,322.22L356.14,322.02L356.66,321.83L357.17,321.63L357.69,321.43L358.21,321.24L358.72,321.04L359.24,320.85L359.76,320.65L360.27,320.46L360.79,320.26L361.3,320.06L361.82,319.87L362.34,319.67L362.85,319.48L363.37,319.28L363.89,319.09L364.4,318.89L364.92,318.69L365.44,318.5L365.95,318.3L366.47,318.11L366.99,317.91L367.5,317.72L368.02,317.52L368.54,317.33L369.05,317.13L369.57,316.94L370.09,316.74L370.6,316.55L371.12,316.35L371.63,316.16L372.15,315.96L372.67,315.77L373.18,315.57L373.7,315.38L374.22,315.18L374.73,314.99L375.25,314.79L375.77,314.6L376.28,314.4L376.8,314.21L377.32,314.02L377.83,313.82L378.35,313.63L378.87,313.43L379.38,313.24L379.9,313.04L380.42,312.85L380.93,312.66L381.45,312.46L381.96,312.27L382.48,312.08L383,311.88L383.51,311.69L384.03,311.5L384.55,311.3L385.06,311.11L385.58,310.92L386.1,310.72L386.61,310.53L387.13,310.34L387.65,310.14L388.16,309.95L388.68,309.76L389.2,309.57L389.71,309.37L390.23,309.18L390.75,308.99L391.26,308.8L391.78,308.61L392.29,308.41L392.81,308.22L393.33,308.03L393.84,307.84L394.36,307.65L394.88,307.46L395.39,307.26L395.91,307.07L396.43,306.88L396.94,306.69L397.46,306.5L397.98,306.31L398.49,306.12L399.01,305.93L399.53,305.74L400.04,305.55L400.56,305.36L401.08,305.17L401.59,304.98L402.11,304.79L402.62,304.6L403.14,304.41L403.66,304.22L404.17,304.03L404.69,303.84L405.21,303.65L405.72,303.46L406.24,303.27L406.76,303.08L407.27,302.89L407.79,302.7L408.31,302.51L408.82,302.33L409.34,302.14L409.86,301.95L410.37,301.76L410.89,301.57L411.41,301.39L411.92,301.2L412.44,301.01L412.96,300.82L413.47,300.63L413.99,300.45L414.5,300.26L415.02,300.07L415.54,299.89L416.05,299.7L416.57,299.51L417.09,299.33L417.6,299.14L418.12,298.95L418.64,298.77L419.15,298.58L419.67,298.39L420.19,298.21L420.7,298.02L421.22,297.84L421.74,297.65L422.25,297.47L422.77,297.28L423.29,297.1L423.8,296.91L424.32,296.73L424.83,296.54L425.35,296.36L425.87,296.17L426.38,295.99L426.9,295.8L427.42,295.62L427.93,295.44L428.45,295.25L428.97,295.07L429.48,294.88L430,294.7L430.52,294.52L431.03,294.33L431.55,294.15L432.07,293.97L432.58,293.79L433.1,293.6L433.62,293.42L434.13,293.24L434.65,293.06L435.16,292.87L435.68,292.69L436.2,292.51L436.71,292.33L437.23,292.15L437.75,291.97L438.26,291.78L438.78,291.6L439.3,291.42L439.81,291.24L440.33,291.06L440.85,290.88L441.36,290.7L441.88,290.52L442.4,290.34L442.91,290.16L443.43,289.98L443.95,289.8L444.46,289.62L444.98,289.44L445.49,289.26L446.01,289.08L446.53,288.9L447.04,288.72L447.56,288.55L448.08,288.37L448.59,288.19L449.11,288.01L449.63,287.83L450.14,287.65L450.66,287.48L451.18,287.3L451.69,287.12L452.21,286.94L452.73,286.77L453.24,286.59L453.76,286.41L454.28,286.23L454.79,286.06L455.31,285.88L455.82,285.7L456.34,285.53L456.86,285.35L457.37,285.18L457.89,285L458.41,284.82L458.92,284.65L459.44,284.47L459.96,284.3L460.47,284.12L460.99,283.95L461.51,283.77L462.02,283.6L462.54,283.42L463.06,283.25L463.57,283.07L464.09,282.9L464.61,282.73L465.12,282.55L465.64,282.38L466.15,282.21L466.67,282.03L467.19,281.86L467.7,281.69L468.22,281.51L468.74,281.34L469.25,281.17L469.77,280.99L470.29,280.82L470.8,280.65L471.32,280.48L471.84,280.31L472.35,280.13L472.87,279.96L473.39,279.79L473.9,279.62L474.42,279.45L474.94,279.28L475.45,279.11L475.97,278.94L476.48,278.76L477,278.59L477.52,278.42L478.03,278.25L478.55,278.08L479.07,277.91L479.58,277.74L480.1,277.57L480.62,277.4L481.13,277.24L481.65,277.07L482.17,276.9L482.68,276.73L483.2,276.56L483.72,276.39L484.23,276.22L484.75,276.05L485.27,275.89L485.78,275.72L486.3,275.55L486.81,275.38L487.33,275.22L487.85,275.05L488.36,274.88L488.88,274.71L489.4,274.55L489.91,274.38L490.43,274.21L490.95,274.05L491.46,273.88L491.98,273.71L492.5,273.55L493.01,273.38L493.53,273.22L494.05,273.05L494.56,272.89L495.08,272.72L495.6,272.55L496.11,272.39L496.63,272.22L497.14,272.06L497.66,271.9L498.18,271.73L498.69,271.57L499.21,271.4L499.73,271.24L500.24,271.07L500.76,270.91L501.28,270.75L501.79,270.58L502.31,270.42L502.83,270.26L503.34,270.09L503.86,269.93L504.38,269.77L504.89,269.61L505.41,269.44L505.93,269.28L506.44,269.12L506.96,268.96L507.47,268.8L507.99,268.63L508.51,268.47L509.02,268.31L509.54,268.15L510.06,267.99L510.57,267.83L511.09,267.67L511.61,267.51L512.12,267.35L512.64,267.19L513.16,267.03L513.67,266.87L514.19,266.71L514.71,266.55L515.22,266.39L515.74,266.23L516.26,266.07L516.77,265.91L517.29,265.75L517.8,265.59L518.32,265.43L518.84,265.27L519.35,265.11L519.87,264.96L520.39,264.8L520.9,264.64L521.42,264.48L521.94,264.32L522.45,264.17L522.97,264.01L523.49,263.85L524,263.7L524.52,263.54L525.04,263.38L525.55,263.22L526.07,263.07L526.59,262.91L527.1,262.76L527.62,262.6L528.13,262.44L528.65,262.29L529.17,262.13L529.68,261.98L530.2,261.82L530.72,261.67L531.23,261.51L531.75,261.36L532.27,261.2L532.78,261.05L533.3,260.89L533.82,260.74L534.33,260.58L534.85,260.43L535.37,260.27L535.88,260.12L536.4,259.97L536.92,259.81L537.43,259.66L537.95,259.51L538.46,259.35L538.98,259.2L539.5,259.05L540.01,258.89L540.53,258.74L541.05,258.59L541.56,258.44L542.08,258.29L542.6,258.13L543.11,257.98L543.63,257.83L544.15,257.68L544.66,257.53L545.18,257.38L545.7,257.22L546.21,257.07L546.73,256.92L547.25,256.77L547.76,256.62L548.28,256.47L548.79,256.32L549.31,256.17L549.83,256.02L550.34,255.87L550.86,255.72L551.38,255.57L551.89,255.42L552.41,255.27L552.93,255.12L553.44,254.97L553.96,254.82L554.48,254.68L554.99,254.53L555.51,254.38L556.03,254.23L556.54,254.08L557.06,253.93L557.58,253.79L558.09,253.64L558.61,253.49L559.12,253.34" style="fill:none;stroke:#FA8072" />
<path d="M539.12,370.69L559.12,370.69" style="fill:none;stroke:#000000" />
<text x="512.45" y="-367.86" transform="scale(1, -1)"
	style="font-family:Liberation Sans;font-variant:normal;font-weight:normal;font-style:normal;font-size:12px">CaP</text>
<path d="M539.12,360.22L559.12,360.22" style="fill:none;stroke:#A52A2A" />
<text x="489.1" y="-357.39" transform="scale(1, -1)"
	style="font-family:Liberation Sans;font-variant:normal;font-weight:normal;font-style:normal;font-size:12px">PSD_Ca</text>
<path d="M539.12,349.75L559.12,349.75" style="fill:none;stroke:#FA8072" />
<text x="448.43" y="-346.92" transform="scale(1, -1)"
	style="font-family:Liberation Sans;font-variant:normal;font-weight:normal;font-style:normal;font-size:12px">PSD_CaMKIIact</text>
</g>
</svg>
