<?xml version="1.0"?>
<!-- Generated by SVGo and Plotinum VG -->
<svg width="559.12pt" height="391.88pt" viewBox="0 0 559.12 391.88"
	xmlns="http://www.w3.org/2000/svg"
	xmlns:xlink="http://www.w3.org/1999/xlink">
<g transform="scale(1, -1) translate(0, -391.88)">
<text x="217.2" y="-382.15" transform="scale(1, -1)"
	style="font-family:Liberation Sans;font-variant:normal;font-weight:normal;font-style:normal;font-size:12px">Kinase Phase DWt Plot</text>
<text x="289.39" y="-3.6797" transform="scale(1, -1)"
	style="font-family:Liberation Sans;font-variant:normal;font-weight:normal;font-style:normal;font-size:12px">CHL</text>
<text x="41.989" y="-16.473" transform="scale(1, -1)"
	style="font-family:Liberation Sans;font-variant:normal;font-weight:normal;font-style:normal;font-size:10px">-1</text>
<text x="213.62" y="-16.473" transform="scale(1, -1)"
	style="font-family:Liberation Sans;font-variant:normal;font-weight:normal;font-style:normal;font-size:10px">0</text>
<text x="383.59" y="-16.473" transform="scale(1, -1)"
	style="font-family:Liberation Sans;font-variant:normal;font-weight:normal;font-style:normal;font-size:10px">1</text>
<text x="553.56" y="-16.473" transform="scale(1, -1)"
	style="font-family:Liberation Sans;font-variant:normal;font-weight:normal;font-style:normal;font-size:10px">2</text>
<path d="M46.435,24.578L46.435,32.578" style="fill:none;stroke:#000000;stroke-width:0.5" />
<path d="M216.4,24.578L216.4,32.578" style="fill:none;stroke:#000000;stroke-width:0.5" />
<path d="M386.37,24.578L386.37,32.578" style="fill:none;stroke:#000000;stroke-width:0.5" />
<path d="M556.34,24.578L556.34,32.578" style="fill:none;stroke:#000000;stroke-width:0.5" />
<path d="M80.429,28.578L80.429,32.578" style="fill:none;stroke:#000000;stroke-width:0.5" />
<path d="M114.42,28.578L114.42,32.578" style="fill:none;stroke:#000000;stroke-width:0.5" />
<path d="M148.42,28.578L148.42,32.578" style="fill:none;stroke:#000000;stroke-width:0.5" />
<path d="M182.41,28.578L182.41,32.578" style="fill:none;stroke:#000000;stroke-width:0.5" />
<path d="M250.4,28.578L250.4,32.578" style="fill:none;stroke:#000000;stroke-width:0.5" />
<path d="M284.39,28.578L284.39,32.578" style="fill:none;stroke:#000000;stroke-width:0.5" />
<path d="M318.39,28.578L318.39,32.578" style="fill:none;stroke:#000000;stroke-width:0.5" />
<path d="M352.38,28.578L352.38,32.578" style="fill:none;stroke:#000000;stroke-width:0.5" />
<path d="M420.37,28.578L420.37,32.578" style="fill:none;stroke:#000000;stroke-width:0.5" />
<path d="M454.36,28.578L454.36,32.578" style="fill:none;stroke:#000000;stroke-width:0.5" />
<path d="M488.36,28.578L488.36,32.578" style="fill:none;stroke:#000000;stroke-width:0.5" />
<path d="M522.35,28.578L522.35,32.578" style="fill:none;stroke:#000000;stroke-width:0.5" />
<path d="M46.435,32.578L556.34,32.578" style="fill:none;stroke:#000000;stroke-width:0.5" />
<g transform="rotate(90)">
<text x="199.3" y="9.7266" transform="scale(1, -1)"
	style="font-family:Liberation Sans;font-variant:normal;font-weight:normal;font-style:normal;font-size:12px">Wt</text>
</g>
<text x="15.949" y="-37.852" transform="scale(1, -1)"
	style="font-family:Liberation Sans;font-variant:normal;font-weight:normal;font-style:normal;font-size:10px">0.0</text>
<text x="15.949" y="-204.11" transform="scale(1, -1)"
	style="font-family:Liberation Sans;font-variant:normal;font-weight:normal;font-style:normal;font-size:10px">0.5</text>
<text x="15.949" y="-370.36" transform="scale(1, -1)"
	style="font-family:Liberation Sans;font-variant:normal;font-weight:normal;font-style:normal;font-size:10px">1.0</text>
<path d="M32.629,40.371L40.629,40.371" style="fill:none;stroke:#000000;stroke-width:0.5" />
<path d="M32.629,206.63L40.629,206.63" style="fill:none;stroke:#000000;stroke-width:0.5" />
<path d="M32.629,372.88L40.629,372.88" style="fill:none;stroke:#000000;stroke-width:0.5" />
<path d="M36.629,73.622L40.629,73.622" style="fill:none;stroke:#000000;stroke-width:0.5" />
<path d="M36.629,106.87L40.629,106.87" style="fill:none;stroke:#000000;stroke-width:0.5" />
<path d="M36.629,140.12L40.629,140.12" style="fill:none;stroke:#000000;stroke-width:0.5" />
<path d="M36.629,173.38L40.629,173.38" style="fill:none;stroke:#000000;stroke-width:0.5" />
<path d="M36.629,239.88L40.629,239.88" style="fill:none;stroke:#000000;stroke-width:0.5" />
<path d="M36.629,273.13L40.629,273.13" style="fill:none;stroke:#000000;stroke-width:0.5" />
<path d="M36.629,306.38L40.629,306.38" style="fill:none;stroke:#000000;stroke-width:0.5" />
<path d="M36.629,339.63L40.629,339.63" style="fill:none;stroke:#000000;stroke-width:0.5" />
<path d="M40.629,40.371L40.629,372.88" style="fill:none;stroke:#000000;stroke-width:0.5" />
<path d="M219.4,222.26A3,3 0 1 1 213.4,222.26A3,3 0 1 1 219.4,222.26Z" style="fill:none;stroke:#000000;stroke-width:0.5" />
<path d="M60.058,168.42A3,3 0 1 1 54.058,168.42A3,3 0 1 1 60.058,168.42Z" style="fill:none;stroke:#FF0000;stroke-width:0.5" />
<path d="M91.927,179.07A3,3 0 1 1 85.927,179.07A3,3 0 1 1 91.927,179.07Z" style="fill:none;stroke:#0000FF;stroke-width:0.5" />
<path d="M378.75,304.64A3,3 0 1 1 372.75,304.64A3,3 0 1 1 378.75,304.64Z" style="fill:none;stroke:#228B22;stroke-width:0.5" />
<path d="M219.4,209.35A3,3 0 1 1 213.4,209.35A3,3 0 1 1 219.4,209.35Z" style="fill:none;stroke:#800080;stroke-width:0.5" />
<path d="M251.27,236.68A3,3 0 1 1 245.27,236.68A3,3 0 1 1 251.27,236.68Z" style="fill:none;stroke:#FFA500;stroke-width:0.5" />
<path d="M346.88,266.7A3,3 0 1 1 340.88,266.7A3,3 0 1 1 346.88,266.7Z" style="fill:none;stroke:#A52A2A;stroke-width:0.5" />
<path d="M187.54,192.9A3,3 0 1 1 181.54,192.9A3,3 0 1 1 187.54,192.9Z" style="fill:none;stroke:#7FFF00;stroke-width:0.5" />
<path d="M219.4,215.65A3,3 0 1 1 213.4,215.65A3,3 0 1 1 219.4,215.65Z" style="fill:none;stroke:#000080;stroke-width:0.5" />
<path d="M552.12,370.69A3,3 0 1 1 546.12,370.69A3,3 0 1 1 552.12,370.69Z" style="fill:none;stroke:#000000;stroke-width:0.5" />
<text x="403.05" y="-367.86" transform="scale(1, -1)"
	style="font-family:Liberation Sans;font-variant:normal;font-weight:normal;font-style:normal;font-size:12px">S:100-100 R:100-100 Wt</text>
<path d="M552.12,360.22A3,3 0 1 1 546.12,360.22A3,3 0 1 1 552.12,360.22Z" style="fill:none;stroke:#FF0000;stroke-width:0.5" />
<text x="416.39" y="-357.39" transform="scale(1, -1)"
	style="font-family:Liberation Sans;font-variant:normal;font-weight:normal;font-style:normal;font-size:12px">S:100-25 R:100-25 Wt</text>
<path d="M552.12,349.75A3,3 0 1 1 546.12,349.75A3,3 0 1 1 552.12,349.75Z" style="fill:none;stroke:#0000FF;stroke-width:0.5" />
<text x="416.39" y="-346.92" transform="scale(1, -1)"
	style="font-family:Liberation Sans;font-variant:normal;font-weight:normal;font-style:normal;font-size:12px">S:100-50 R:100-50 Wt</text>
<path d="M552.12,339.28A3,3 0 1 1 546.12,339.28A3,3 0 1 1 552.12,339.28Z" style="fill:none;stroke:#228B22;stroke-width:0.5" />
<text x="416.39" y="-336.45" transform="scale(1, -1)"
	style="font-family:Liberation Sans;font-variant:normal;font-weight:normal;font-style:normal;font-size:12px">S:25-100 R:25-100 Wt</text>
<path d="M552.12,328.81A3,3 0 1 1 546.12,328.81A3,3 0 1 1 552.12,328.81Z" style="fill:none;stroke:#800080;stroke-width:0.5" />
<text x="429.74" y="-325.98" transform="scale(1, -1)"
	style="font-family:Liberation Sans;font-variant:normal;font-weight:normal;font-style:normal;font-size:12px">S:25-25 R:25-25 Wt</text>
<path d="M552.12,318.34A3,3 0 1 1 546.12,318.34A3,3 0 1 1 552.12,318.34Z" style="fill:none;stroke:#FFA500;stroke-width:0.5" />
<text x="429.74" y="-315.51" transform="scale(1, -1)"
	style="font-family:Liberation Sans;font-variant:normal;font-weight:normal;font-style:normal;font-size:12px">S:25-50 R:25-50 Wt</text>
<path d="M552.12,307.87A3,3 0 1 1 546.12,307.87A3,3 0 1 1 552.12,307.87Z" style="fill:none;stroke:#A52A2A;stroke-width:0.5" />
<text x="416.39" y="-305.04" transform="scale(1, -1)"
	style="font-family:Liberation Sans;font-variant:normal;font-weight:normal;font-style:normal;font-size:12px">S:50-100 R:50-100 Wt</text>
<path d="M552.12,297.4A3,3 0 1 1 546.12,297.4A3,3 0 1 1 552.12,297.4Z" style="fill:none;stroke:#7FFF00;stroke-width:0.5" />
<text x="429.74" y="-294.57" transform="scale(1, -1)"
	style="font-family:Liberation Sans;font-variant:normal;font-weight:normal;font-style:normal;font-size:12px">S:50-25 R:50-25 Wt</text>
<path d="M552.12,286.92A3,3 0 1 1 546.12,286.92A3,3 0 1 1 552.12,286.92Z" style="fill:none;stroke:#000080;stroke-width:0.5" />
<text x="429.74" y="-284.1" transform="scale(1, -1)"
	style="font-family:Liberation Sans;font-variant:normal;font-weight:normal;font-style:normal;font-size:12px">S:50-50 R:50-50 Wt</text>
</g>
</svg>
