<?xml version="1.0"?>
<!-- Generated by SVGo and Plotinum VG -->
<svg width="559.12pt" height="391.88pt" viewBox="0 0 559.12 391.88"
	xmlns="http://www.w3.org/2000/svg"
	xmlns:xlink="http://www.w3.org/1999/xlink">
<g transform="scale(1, -1) translate(0, -391.88)">
<text x="234.54" y="-382.15" transform="scale(1, -1)"
	style="font-family:Liberation Sans;font-variant:normal;font-weight:normal;font-style:normal;font-size:12px">Kinase Time Plot</text>
<text x="285.5" y="-3.6797" transform="scale(1, -1)"
	style="font-family:Liberation Sans;font-variant:normal;font-weight:normal;font-style:normal;font-size:12px">Time</text>
<text x="28.363" y="-16.473" transform="scale(1, -1)"
	style="font-family:Liberation Sans;font-variant:normal;font-weight:normal;font-style:normal;font-size:10px">0.00</text>
<text x="465.47" y="-16.473" transform="scale(1, -1)"
	style="font-family:Liberation Sans;font-variant:normal;font-weight:normal;font-style:normal;font-size:10px">0.25</text>
<path d="M38.095,24.578L38.095,32.578" style="fill:none;stroke:#000000;stroke-width:0.5" />
<path d="M475.2,24.578L475.2,32.578" style="fill:none;stroke:#000000;stroke-width:0.5" />
<path d="M125.52,28.578L125.52,32.578" style="fill:none;stroke:#000000;stroke-width:0.5" />
<path d="M212.94,28.578L212.94,32.578" style="fill:none;stroke:#000000;stroke-width:0.5" />
<path d="M300.36,28.578L300.36,32.578" style="fill:none;stroke:#000000;stroke-width:0.5" />
<path d="M387.78,28.578L387.78,32.578" style="fill:none;stroke:#000000;stroke-width:0.5" />
<path d="M38.095,32.578L559.12,32.578" style="fill:none;stroke:#000000;stroke-width:0.5" />
<g transform="rotate(90)">
<text x="194.41" y="9.7266" transform="scale(1, -1)"
	style="font-family:Liberation Sans;font-variant:normal;font-weight:normal;font-style:normal;font-size:12px">Spike</text>
</g>
<text x="15.949" y="-37.852" transform="scale(1, -1)"
	style="font-family:Liberation Sans;font-variant:normal;font-weight:normal;font-style:normal;font-size:10px">0</text>
<text x="15.949" y="-187.43" transform="scale(1, -1)"
	style="font-family:Liberation Sans;font-variant:normal;font-weight:normal;font-style:normal;font-size:10px">3</text>
<text x="15.949" y="-337.01" transform="scale(1, -1)"
	style="font-family:Liberation Sans;font-variant:normal;font-weight:normal;font-style:normal;font-size:10px">6</text>
<path d="M24.289,40.371L32.289,40.371" style="fill:none;stroke:#000000;stroke-width:0.5" />
<path d="M24.289,189.95L32.289,189.95" style="fill:none;stroke:#000000;stroke-width:0.5" />
<path d="M24.289,339.53L32.289,339.53" style="fill:none;stroke:#000000;stroke-width:0.5" />
<path d="M28.289,90.231L32.289,90.231" style="fill:none;stroke:#000000;stroke-width:0.5" />
<path d="M28.289,140.09L32.289,140.09" style="fill:none;stroke:#000000;stroke-width:0.5" />
<path d="M28.289,239.81L32.289,239.81" style="fill:none;stroke:#000000;stroke-width:0.5" />
<path d="M28.289,289.67L32.289,289.67" style="fill:none;stroke:#000000;stroke-width:0.5" />
<path d="M32.289,40.371L32.289,378.47" style="fill:none;stroke:#000000;stroke-width:0.5" />
<path d="M38.095,40.371L39.843,40.371L41.592,40.371L43.34,40.371L45.088,40.371L46.837,40.371L48.585,40.371L50.334,40.371L52.082,40.371L53.831,40.371L55.579,40.371L57.327,40.371L59.076,40.371L60.824,40.371L62.573,40.371L64.321,90.231L66.07,40.371L67.818,40.371L69.566,40.371L71.315,40.371L73.063,40.371L74.812,40.371L76.56,40.371L78.308,40.371L80.057,40.371L81.805,90.231L83.554,40.371L85.302,40.371L87.051,40.371L88.799,40.371L90.547,40.371L92.296,40.371L94.044,40.371L95.793,90.231L97.541,40.371L99.29,40.371L101.04,40.371L102.79,40.371L104.53,40.371L106.28,40.371L108.03,40.371L109.78,40.371L111.53,40.371L113.28,90.231L115.03,40.371L116.77,40.371L118.52,40.371L120.27,40.371L122.02,40.371L123.77,40.371L125.52,40.371L127.26,40.371L129.01,40.371L130.76,40.371L132.51,40.371L134.26,40.371L136.01,90.231L137.75,40.371L139.5,40.371L141.25,40.371L143,40.371L144.75,40.371L146.5,40.371L148.25,40.371L149.99,40.371L151.74,40.371L153.49,90.231L155.24,40.371L156.99,40.371L158.74,40.371L160.48,40.371L162.23,40.371L163.98,40.371L165.73,40.371L167.48,40.371L169.23,40.371L170.97,40.371L172.72,40.371L174.47,40.371L176.22,40.371L177.97,40.371L179.72,90.231L181.47,40.371L183.21,40.371L184.96,40.371L186.71,40.371L188.46,40.371L190.21,40.371L191.96,40.371L193.7,40.371L195.45,40.371L197.2,90.231L198.95,40.371L200.7,40.371L202.45,40.371L204.19,40.371L205.94,40.371L207.69,40.371L209.44,40.371L211.19,40.371L212.94,40.371L214.69,40.371L216.43,40.371L218.18,40.371L219.93,40.371L221.68,40.371L223.43,40.371L225.18,40.371L226.92,40.371L228.67,40.371L230.42,40.371L232.17,40.371L233.92,40.371L235.67,40.371L237.42,40.371L239.16,40.371L240.91,40.371L242.66,40.371L244.41,40.371L246.16,40.371L247.91,40.371L249.65,40.371L251.4,40.371L253.15,40.371L254.9,90.231L256.65,40.371L258.4,40.371L260.14,40.371L261.89,40.371L263.64,40.371L265.39,40.371L267.14,40.371L268.89,40.371L270.64,40.371L272.38,90.231L274.13,40.371L275.88,40.371L277.63,40.371L279.38,40.371L281.13,40.371L282.87,40.371L284.62,40.371L286.37,40.371L288.12,40.371L289.87,40.371L291.62,40.371L293.36,40.371L295.11,40.371L296.86,40.371L298.61,40.371L300.36,40.371L302.11,40.371L303.86,40.371L305.6,40.371L307.35,40.371L309.1,40.371L310.85,40.371L312.6,40.371L314.35,40.371L316.09,40.371L317.84,40.371L319.59,40.371L321.34,40.371L323.09,40.371L324.84,40.371L326.58,40.371L328.33,90.231L330.08,40.371L331.83,40.371L333.58,40.371L335.33,40.371L337.08,40.371L338.82,40.371L340.57,40.371L342.32,40.371L344.07,40.371L345.82,90.231L347.57,40.371L349.31,40.371L351.06,40.371L352.81,40.371L354.56,40.371L356.31,40.371L358.06,40.371L359.8,40.371L361.55,40.371L363.3,40.371L365.05,40.371L366.8,40.371L368.55,40.371L370.3,40.371L372.04,40.371L373.79,40.371L375.54,40.371L377.29,40.371L379.04,40.371L380.79,40.371L382.53,40.371L384.28,40.371L386.03,40.371L387.78,40.371L389.53,40.371L391.28,40.371L393.02,40.371L394.77,40.371L396.52,40.371L398.27,40.371L400.02,40.371L401.77,40.371L403.52,40.371L405.26,40.371L407.01,40.371L408.76,40.371L410.51,40.371L412.26,40.371L414.01,40.371L415.75,40.371L417.5,40.371L419.25,40.371L421,40.371L422.75,40.371L424.5,40.371L426.24,40.371L427.99,40.371L429.74,40.371L431.49,40.371L433.24,40.371L434.99,40.371L436.74,40.371L438.48,40.371L440.23,40.371L441.98,40.371L443.73,40.371L445.48,40.371L447.23,40.371L448.97,40.371L450.72,40.371L452.47,40.371L454.22,40.371L455.97,40.371L457.72,40.371L459.46,40.371L461.21,40.371L462.96,40.371L464.71,40.371L466.46,40.371L468.21,40.371L469.96,40.371L471.7,40.371L473.45,40.371L475.2,40.371L476.95,40.371L478.7,40.371L480.45,40.371L482.19,40.371L483.94,40.371L485.69,40.371L487.44,40.371L489.19,40.371L490.94,40.371L492.68,40.371L494.43,40.371L496.18,40.371L497.93,40.371L499.68,40.371L501.43,40.371L503.18,40.371L504.92,40.371L506.67,40.371L508.42,40.371L510.17,40.371L511.92,40.371L513.67,40.371L515.41,40.371L517.16,40.371L518.91,40.371L520.66,40.371L522.41,40.371L524.16,40.371L525.9,40.371L527.65,40.371L529.4,40.371L531.15,40.371L532.9,40.371L534.65,40.371L536.4,40.371L538.14,40.371L539.89,40.371L541.64,40.371L543.39,40.371L545.14,40.371L546.89,40.371L548.63,40.371L550.38,40.371L552.13,40.371L553.88,40.371L555.63,40.371L557.38,40.371L559.12,40.371" style="fill:none;stroke:#800080" />
<path d="M38.095,40.371L39.843,40.371L41.592,40.371L43.34,40.371L45.088,40.371L46.837,40.371L48.585,40.371L50.334,40.371L52.082,40.371L53.831,40.371L55.579,40.371L57.327,40.371L59.076,40.371L60.824,40.371L62.573,40.371L64.321,40.371L66.07,40.371L67.818,40.371L69.566,40.371L71.315,40.371L73.063,40.371L74.812,146.36L76.56,126.22L78.308,109.91L80.057,96.699L81.805,216.85L83.554,183.32L85.302,156.16L87.051,134.16L88.799,116.34L90.547,101.9L92.296,90.213L94.044,80.743L95.793,129.4L97.541,112.48L99.29,98.783L101.04,87.685L102.79,78.695L104.53,71.414L106.28,65.516L108.03,60.738L109.78,192.56L111.53,163.65L113.28,321.41L115.03,268.01L116.77,224.76L118.52,189.73L120.27,161.35L122.02,138.36L123.77,119.74L125.52,104.66L127.26,92.448L129.01,82.554L130.76,74.539L132.51,68.047L134.26,62.789L136.01,104.58L137.75,92.384L139.5,82.501L141.25,74.497L143,68.013L144.75,62.761L146.5,58.507L148.25,188.06L149.99,160L151.74,137.27L153.49,280.31L155.24,234.72L156.99,197.79L158.74,167.88L160.48,143.66L162.23,124.03L163.98,108.14L165.73,95.261L167.48,84.832L169.23,76.385L170.97,69.542L172.72,64L174.47,59.51L176.22,55.874L177.97,52.928L179.72,344.25L181.47,286.51L183.21,239.74L184.96,201.86L186.71,171.18L188.46,146.33L190.21,126.19L191.96,109.89L193.7,96.68L195.45,85.981L197.2,158.45L198.95,136.01L200.7,117.84L202.45,103.12L204.19,91.198L205.94,81.541L207.69,227.97L209.44,192.33L211.19,163.46L212.94,140.07L214.69,121.13L216.43,105.78L218.18,93.356L219.93,83.289L221.68,75.134L223.43,68.529L225.18,63.179L226.92,58.846L228.67,55.335L230.42,52.492L232.17,50.189L233.92,48.324L235.67,46.813L237.42,45.589L239.16,44.597L240.91,43.794L242.66,43.144L244.41,42.617L246.16,42.19L247.91,41.845L249.65,41.565L251.4,41.338L253.15,41.154L254.9,55.11L256.65,52.31L258.4,50.041L260.14,48.204L261.89,46.716L263.64,45.51L265.39,44.534L267.14,143.42L268.89,123.84L270.64,107.98L272.38,245.45L274.13,206.48L275.88,174.92L277.63,149.36L279.38,128.65L281.13,111.88L282.87,98.291L284.62,87.286L286.37,78.372L288.12,71.152L289.87,65.304L291.62,60.566L293.36,56.729L295.11,53.621L296.86,51.104L298.61,49.064L300.36,47.413L302.11,46.075L303.86,44.991L305.6,44.113L307.35,43.402L309.1,42.826L310.85,42.36L312.6,41.982L314.35,41.676L316.09,41.428L317.84,41.227L319.59,41.065L321.34,40.933L323.09,40.826L324.84,40.74L326.58,40.67L328.33,45.774L330.08,44.747L331.83,43.916L333.58,43.242L335.33,42.697L337.08,42.255L338.82,41.897L340.57,41.607L342.32,41.372L344.07,41.182L345.82,42.828L347.57,42.361L349.31,41.983L351.06,41.677L352.81,41.429L354.56,201.98L356.31,171.27L358.06,146.4L359.8,126.26L361.55,109.94L363.3,96.721L365.05,86.014L366.8,77.342L368.55,70.318L370.3,64.628L372.04,60.019L373.79,56.286L375.54,53.262L377.29,50.813L379.04,48.829L380.79,47.222L382.53,45.92L384.28,44.866L386.03,43.32L387.78,42.76L389.53,42.306L391.28,41.938L393.02,41.641L394.77,41.399L396.52,41.204L398.27,41.046L400.02,40.918L401.77,40.814L403.52,40.73L405.26,40.662L407.01,40.606L408.76,40.562L410.51,40.525L412.26,40.496L414.01,40.472L415.75,40.453L417.5,40.438L419.25,40.425L421,40.415L422.75,40.406L424.5,40.4L426.24,40.394L427.99,40.39L429.74,40.386L431.49,40.383L433.24,40.381L434.99,40.379L436.74,40.378L438.48,40.376L440.23,40.375L441.98,40.375L443.73,40.374L445.48,40.373L447.23,40.373L448.97,40.373L450.72,40.372L452.47,40.372L454.22,40.372L455.97,40.372L457.72,40.372L459.46,40.372L461.21,40.371L462.96,40.371L464.71,40.371L466.46,40.371L468.21,40.371L469.96,40.371L471.7,40.371L473.45,40.371L475.2,40.371L476.95,40.371L478.7,40.371L480.45,40.371L482.19,40.371L483.94,40.371L485.69,40.371L487.44,40.371L489.19,40.371L490.94,40.371L492.68,40.371L494.43,40.371L496.18,40.371L497.93,40.371L499.68,40.371L501.43,40.371L503.18,40.371L504.92,40.371L506.67,40.371L508.42,40.371L510.17,40.371L511.92,40.371L513.67,40.371L515.41,40.371L517.16,40.371L518.91,40.371L520.66,40.371L522.41,40.371L524.16,40.371L525.9,40.371L527.65,40.371L529.4,40.371L531.15,40.371L532.9,40.371L534.65,40.371L536.4,40.371L538.14,40.371L539.89,40.371L541.64,40.371L543.39,40.371L545.14,40.371L546.89,40.371L548.63,40.371L550.38,40.371L552.13,40.371L553.88,40.371L555.63,40.371L557.38,40.371L559.12,40.371" style="fill:none;stroke:#FFC0CB" />
<path d="M38.095,40.371L39.843,40.371L41.592,40.371L43.34,40.371L45.088,40.371L46.837,40.371L48.585,40.371L50.334,40.371L52.082,40.371L53.831,40.371L55.579,40.371L57.327,40.371L59.076,40.371L60.824,40.371L62.573,40.371L64.321,40.371L66.07,40.371L67.818,40.371L69.566,40.371L71.315,40.371L73.063,40.371L74.812,90.231L76.56,40.371L78.308,40.371L80.057,40.371L81.805,40.371L83.554,40.371L85.302,40.371L87.051,40.371L88.799,40.371L90.547,40.371L92.296,40.371L94.044,40.371L95.793,40.371L97.541,40.371L99.29,40.371L101.04,40.371L102.79,40.371L104.53,40.371L106.28,40.371L108.03,40.371L109.78,90.231L111.53,40.371L113.28,40.371L115.03,40.371L116.77,40.371L118.52,40.371L120.27,40.371L122.02,40.371L123.77,40.371L125.52,40.371L127.26,40.371L129.01,40.371L130.76,40.371L132.51,40.371L134.26,40.371L136.01,40.371L137.75,40.371L139.5,40.371L141.25,40.371L143,40.371L144.75,40.371L146.5,40.371L148.25,90.231L149.99,40.371L151.74,40.371L153.49,40.371L155.24,40.371L156.99,40.371L158.74,40.371L160.48,40.371L162.23,40.371L163.98,40.371L165.73,40.371L167.48,40.371L169.23,40.371L170.97,40.371L172.72,40.371L174.47,40.371L176.22,40.371L177.97,40.371L179.72,90.231L181.47,40.371L183.21,40.371L184.96,40.371L186.71,40.371L188.46,40.371L190.21,40.371L191.96,40.371L193.7,40.371L195.45,40.371L197.2,40.371L198.95,40.371L200.7,40.371L202.45,40.371L204.19,40.371L205.94,40.371L207.69,90.231L209.44,40.371L211.19,40.371L212.94,40.371L214.69,40.371L216.43,40.371L218.18,40.371L219.93,40.371L221.68,40.371L223.43,40.371L225.18,40.371L226.92,40.371L228.67,40.371L230.42,40.371L232.17,40.371L233.92,40.371L235.67,40.371L237.42,40.371L239.16,40.371L240.91,40.371L242.66,40.371L244.41,40.371L246.16,40.371L247.91,40.371L249.65,40.371L251.4,40.371L253.15,40.371L254.9,40.371L256.65,40.371L258.4,40.371L260.14,40.371L261.89,40.371L263.64,40.371L265.39,40.371L267.14,90.231L268.89,40.371L270.64,40.371L272.38,40.371L274.13,40.371L275.88,40.371L277.63,40.371L279.38,40.371L281.13,40.371L282.87,40.371L284.62,40.371L286.37,40.371L288.12,40.371L289.87,40.371L291.62,40.371L293.36,40.371L295.11,40.371L296.86,40.371L298.61,40.371L300.36,40.371L302.11,40.371L303.86,40.371L305.6,40.371L307.35,40.371L309.1,40.371L310.85,40.371L312.6,40.371L314.35,40.371L316.09,40.371L317.84,40.371L319.59,40.371L321.34,40.371L323.09,40.371L324.84,40.371L326.58,40.371L328.33,40.371L330.08,40.371L331.83,40.371L333.58,40.371L335.33,40.371L337.08,40.371L338.82,40.371L340.57,40.371L342.32,40.371L344.07,40.371L345.82,40.371L347.57,40.371L349.31,40.371L351.06,40.371L352.81,40.371L354.56,90.231L356.31,40.371L358.06,40.371L359.8,40.371L361.55,40.371L363.3,40.371L365.05,40.371L366.8,40.371L368.55,40.371L370.3,40.371L372.04,40.371L373.79,40.371L375.54,40.371L377.29,40.371L379.04,40.371L380.79,40.371L382.53,40.371L384.28,40.371L386.03,40.371L387.78,40.371L389.53,40.371L391.28,40.371L393.02,40.371L394.77,40.371L396.52,40.371L398.27,40.371L400.02,40.371L401.77,40.371L403.52,40.371L405.26,40.371L407.01,40.371L408.76,40.371L410.51,40.371L412.26,40.371L414.01,40.371L415.75,40.371L417.5,40.371L419.25,40.371L421,40.371L422.75,40.371L424.5,40.371L426.24,40.371L427.99,40.371L429.74,40.371L431.49,40.371L433.24,40.371L434.99,40.371L436.74,40.371L438.48,40.371L440.23,40.371L441.98,40.371L443.73,40.371L445.48,40.371L447.23,40.371L448.97,40.371L450.72,40.371L452.47,40.371L454.22,40.371L455.97,40.371L457.72,40.371L459.46,40.371L461.21,40.371L462.96,40.371L464.71,40.371L466.46,40.371L468.21,40.371L469.96,40.371L471.7,40.371L473.45,40.371L475.2,40.371L476.95,40.371L478.7,40.371L480.45,40.371L482.19,40.371L483.94,40.371L485.69,40.371L487.44,40.371L489.19,40.371L490.94,40.371L492.68,40.371L494.43,40.371L496.18,40.371L497.93,40.371L499.68,40.371L501.43,40.371L503.18,40.371L504.92,40.371L506.67,40.371L508.42,40.371L510.17,40.371L511.92,40.371L513.67,40.371L515.41,40.371L517.16,40.371L518.91,40.371L520.66,40.371L522.41,40.371L524.16,40.371L525.9,40.371L527.65,40.371L529.4,40.371L531.15,40.371L532.9,40.371L534.65,40.371L536.4,40.371L538.14,40.371L539.89,40.371L541.64,40.371L543.39,40.371L545.14,40.371L546.89,40.371L548.63,40.371L550.38,40.371L552.13,40.371L553.88,40.371L555.63,40.371L557.38,40.371L559.12,40.371" style="fill:none;stroke:#FA8072" />
<path d="M38.095,42.864L39.843,42.864L41.592,42.864L43.34,42.864L45.088,42.864L46.837,42.864L48.585,42.864L50.334,42.864L52.082,42.864L53.831,42.864L55.579,42.864L57.327,42.864L59.076,42.864L60.824,42.864L62.573,42.864L64.321,42.864L66.07,42.864L67.818,42.864L69.566,83.465L71.315,331.37L73.063,229.41L74.812,208.53L76.56,172L78.308,143.34L80.057,159.26L81.805,188.89L83.554,176.37L85.302,173.16L87.051,183.74L88.799,378.47L90.547,277.07L92.296,199.72L94.044,156.83L95.793,129.86L97.541,151.47L99.29,148.13L101.04,161.01L102.79,344.93L104.53,252.38L106.28,181.57L108.03,142.29L109.78,151.14L111.53,179.98L113.28,215.87L115.03,206.14L116.77,203.85L118.52,202.89L120.27,354.77L122.02,264.19L123.77,196.6L125.52,158.33L127.26,132.23L129.01,119.28L130.76,109.55L132.51,101.74L134.26,95.212L136.01,89.663L137.75,131.16L139.5,131.88L141.25,145.43L143,315.09L144.75,229.39L146.5,165.92L148.25,168.61L149.99,146.08L151.74,169.42L153.49,197.26L155.24,194.63L156.99,192.99L158.74,192.5L160.48,336.51L162.23,250.43L163.98,186.88L165.73,150.97L167.48,126.49L169.23,113.99L170.97,104.65L172.72,97.208L174.47,91.049L176.22,85.851L177.97,81.415L179.72,99.449L181.47,199.09L183.21,207.15L184.96,208.16L186.71,366.72L188.46,271.06L190.21,201.04L191.96,161.9L193.7,134.8L195.45,148.22L197.2,164.37L198.95,165.44L200.7,163.01L202.45,168.33L204.19,319.14L205.94,235.36L207.69,206.75L209.44,173.85L211.19,145.89L212.94,132.57L214.69,121.82L216.43,112.93L218.18,105.42L219.93,98.998L221.68,93.483L223.43,88.723L225.18,84.601L226.92,81.017L228.67,77.889L230.42,75.147L232.17,72.734L233.92,70.599L235.67,68.702L237.42,67.008L239.16,65.489L240.91,64.12L242.66,62.88L244.41,61.753L246.16,60.724L247.91,59.782L249.65,58.914L251.4,58.114L253.15,57.373L254.9,56.684L256.65,90.164L258.4,91.741L260.14,118.76L261.89,333L263.64,233.59L265.39,161.05L267.14,163.52L268.89,141.08L270.64,160.13L272.38,181.57L274.13,183.58L275.88,181.61L277.63,187.98L279.38,365.08L281.13,266.57L282.87,193.47L284.62,153.13L286.37,127.19L288.12,113.44L289.87,103.47L291.62,95.698L293.36,89.381L295.11,84.121L296.86,79.68L298.61,75.895L300.36,72.648L302.11,69.85L303.86,67.425L305.6,65.316L307.35,63.472L309.1,61.853L310.85,60.426L312.6,59.161L314.35,58.037L316.09,57.032L317.84,56.131L319.59,55.319L321.34,54.585L323.09,53.919L324.84,53.312L326.58,52.758L328.33,52.249L330.08,73.65L331.83,74.628L333.58,106.25L335.33,331.74L337.08,230.31L338.82,156.27L340.57,117.66L342.32,97.443L344.07,88.947L345.82,86.665L347.57,85.878L349.31,81.348L351.06,107.29L352.81,306.7L354.56,271.79L356.31,205.65L358.06,165.4L359.8,137.48L361.55,123.48L363.3,112.89L365.05,104.41L366.8,97.409L368.55,91.513L370.3,86.498L372.04,82.204L373.79,78.507L375.54,75.309L377.29,72.532L379.04,70.108L380.79,67.983L382.53,66.111L384.28,64.455L386.03,61.667L387.78,60.487L389.53,59.424L391.28,58.461L393.02,57.586L394.77,56.788L396.52,56.058L398.27,55.386L400.02,54.767L401.77,54.195L403.52,53.664L405.26,53.17L407.01,52.71L408.76,52.28L410.51,51.877L412.26,51.5L414.01,51.145L415.75,50.811L417.5,50.496L419.25,50.199L421,49.918L422.75,49.652L424.5,49.4L426.24,49.161L427.99,48.934L429.74,48.718L431.49,48.513L433.24,48.318L434.99,48.133L436.74,47.956L438.48,47.787L440.23,47.626L441.98,47.473L443.73,47.326L445.48,47.187L447.23,47.053L448.97,46.925L450.72,46.803L452.47,46.686L454.22,46.574L455.97,46.467L457.72,46.365L459.46,46.267L461.21,46.173L462.96,46.083L464.71,45.997L466.46,45.914L468.21,45.835L469.96,45.759L471.7,45.687L473.45,45.617L475.2,45.55L476.95,45.486L478.7,45.424L480.45,45.365L482.19,45.309L483.94,45.254L485.69,45.202L487.44,45.152L489.19,45.104L490.94,45.058L492.68,45.013L494.43,44.971L496.18,44.93L497.93,44.89L499.68,44.853L501.43,44.816L503.18,44.781L504.92,44.748L506.67,44.716L508.42,44.685L510.17,44.655L511.92,44.627L513.67,44.599L515.41,44.573L517.16,44.547L518.91,44.523L520.66,44.499L522.41,44.477L524.16,44.455L525.9,44.434L527.65,44.414L529.4,44.395L531.15,44.376L532.9,44.359L534.65,44.341L536.4,44.325L538.14,44.309L539.89,44.294L541.64,44.279L543.39,44.265L545.14,44.251L546.89,44.238L548.63,44.226L550.38,44.214L552.13,44.202L553.88,44.191L555.63,44.18L557.38,44.17L559.12,44.16" style="fill:none;stroke:#A52A2A" />
<path d="M539.12,370.69L559.12,370.69" style="fill:none;stroke:#800080" />
<text x="505.77" y="-367.86" transform="scale(1, -1)"
	style="font-family:Liberation Sans;font-variant:normal;font-weight:normal;font-style:normal;font-size:12px">Spike</text>
<path d="M539.12,360.22L559.12,360.22" style="fill:none;stroke:#FFC0CB" />
<text x="510.46" y="-357.39" transform="scale(1, -1)"
	style="font-family:Liberation Sans;font-variant:normal;font-weight:normal;font-style:normal;font-size:12px">CaM</text>
<path d="M539.12,349.75L559.12,349.75" style="fill:none;stroke:#FA8072" />
<text x="487.1" y="-346.92" transform="scale(1, -1)"
	style="font-family:Liberation Sans;font-variant:normal;font-weight:normal;font-style:normal;font-size:12px">PreSpike</text>
<path d="M539.12,339.28L559.12,339.28" style="fill:none;stroke:#A52A2A" />
<text x="489.1" y="-336.45" transform="scale(1, -1)"
	style="font-family:Liberation Sans;font-variant:normal;font-weight:normal;font-style:normal;font-size:12px">PSD_Ca</text>
</g>
</svg>
