<?xml version="1.0"?>
<!-- Generated by SVGo and Plotinum VG -->
<svg width="559.12pt" height="391.88pt" viewBox="0 0 559.12 391.88"
	xmlns="http://www.w3.org/2000/svg"
	xmlns:xlink="http://www.w3.org/1999/xlink">
<g transform="scale(1, -1) translate(0, -391.88)">
<text x="234.54" y="-382.15" transform="scale(1, -1)"
	style="font-family:Liberation Sans;font-variant:normal;font-weight:normal;font-style:normal;font-size:12px">Kinase Time Plot</text>
<text x="285.5" y="-3.6797" transform="scale(1, -1)"
	style="font-family:Liberation Sans;font-variant:normal;font-weight:normal;font-style:normal;font-size:12px">Time</text>
<text x="31.144" y="-16.473" transform="scale(1, -1)"
	style="font-family:Liberation Sans;font-variant:normal;font-weight:normal;font-style:normal;font-size:10px">0.0</text>
<text x="239.56" y="-16.473" transform="scale(1, -1)"
	style="font-family:Liberation Sans;font-variant:normal;font-weight:normal;font-style:normal;font-size:10px">0.1</text>
<text x="447.97" y="-16.473" transform="scale(1, -1)"
	style="font-family:Liberation Sans;font-variant:normal;font-weight:normal;font-style:normal;font-size:10px">0.2</text>
<path d="M38.095,24.578L38.095,32.578" style="fill:none;stroke:#000000;stroke-width:0.5" />
<path d="M246.51,24.578L246.51,32.578" style="fill:none;stroke:#000000;stroke-width:0.5" />
<path d="M454.92,24.578L454.92,32.578" style="fill:none;stroke:#000000;stroke-width:0.5" />
<path d="M79.777,28.578L79.777,32.578" style="fill:none;stroke:#000000;stroke-width:0.5" />
<path d="M121.46,28.578L121.46,32.578" style="fill:none;stroke:#000000;stroke-width:0.5" />
<path d="M163.14,28.578L163.14,32.578" style="fill:none;stroke:#000000;stroke-width:0.5" />
<path d="M204.82,28.578L204.82,32.578" style="fill:none;stroke:#000000;stroke-width:0.5" />
<path d="M288.19,28.578L288.19,32.578" style="fill:none;stroke:#000000;stroke-width:0.5" />
<path d="M329.87,28.578L329.87,32.578" style="fill:none;stroke:#000000;stroke-width:0.5" />
<path d="M371.55,28.578L371.55,32.578" style="fill:none;stroke:#000000;stroke-width:0.5" />
<path d="M413.24,28.578L413.24,32.578" style="fill:none;stroke:#000000;stroke-width:0.5" />
<path d="M496.6,28.578L496.6,32.578" style="fill:none;stroke:#000000;stroke-width:0.5" />
<path d="M538.28,28.578L538.28,32.578" style="fill:none;stroke:#000000;stroke-width:0.5" />
<path d="M38.095,32.578L559.12,32.578" style="fill:none;stroke:#000000;stroke-width:0.5" />
<g transform="rotate(90)">
<text x="194.41" y="9.7266" transform="scale(1, -1)"
	style="font-family:Liberation Sans;font-variant:normal;font-weight:normal;font-style:normal;font-size:12px">Spike</text>
</g>
<text x="15.949" y="-37.852" transform="scale(1, -1)"
	style="font-family:Liberation Sans;font-variant:normal;font-weight:normal;font-style:normal;font-size:10px">0</text>
<text x="15.949" y="-201.59" transform="scale(1, -1)"
	style="font-family:Liberation Sans;font-variant:normal;font-weight:normal;font-style:normal;font-size:10px">4</text>
<text x="15.949" y="-365.33" transform="scale(1, -1)"
	style="font-family:Liberation Sans;font-variant:normal;font-weight:normal;font-style:normal;font-size:10px">8</text>
<path d="M24.289,40.371L32.289,40.371" style="fill:none;stroke:#000000;stroke-width:0.5" />
<path d="M24.289,204.11L32.289,204.11" style="fill:none;stroke:#000000;stroke-width:0.5" />
<path d="M24.289,367.85L32.289,367.85" style="fill:none;stroke:#000000;stroke-width:0.5" />
<path d="M28.289,81.306L32.289,81.306" style="fill:none;stroke:#000000;stroke-width:0.5" />
<path d="M28.289,122.24L32.289,122.24" style="fill:none;stroke:#000000;stroke-width:0.5" />
<path d="M28.289,163.18L32.289,163.18" style="fill:none;stroke:#000000;stroke-width:0.5" />
<path d="M28.289,245.05L32.289,245.05" style="fill:none;stroke:#000000;stroke-width:0.5" />
<path d="M28.289,285.98L32.289,285.98" style="fill:none;stroke:#000000;stroke-width:0.5" />
<path d="M28.289,326.92L32.289,326.92" style="fill:none;stroke:#000000;stroke-width:0.5" />
<path d="M32.289,40.371L32.289,378.47" style="fill:none;stroke:#000000;stroke-width:0.5" />
<path d="M38.095,40.371L40.179,40.371L42.263,40.371L44.347,40.371L46.431,40.371L48.515,40.371L50.599,40.371L52.684,40.371L54.768,40.371L56.852,40.371L58.936,40.371L61.02,40.371L63.104,40.371L65.188,81.306L67.272,40.371L69.357,40.371L71.441,40.371L73.525,40.371L75.609,40.371L77.693,40.371L79.777,40.371L81.861,40.371L83.945,40.371L86.03,81.306L88.114,40.371L90.198,40.371L92.282,40.371L94.366,40.371L96.45,40.371L98.534,40.371L100.62,40.371L102.7,40.371L104.79,81.306L106.87,40.371L108.95,40.371L111.04,40.371L113.12,40.371L115.21,40.371L117.29,40.371L119.38,40.371L121.46,40.371L123.54,40.371L125.63,40.371L127.71,40.371L129.8,40.371L131.88,40.371L133.96,40.371L136.05,40.371L138.13,40.371L140.22,40.371L142.3,40.371L144.38,40.371L146.47,81.306L148.55,40.371L150.64,40.371L152.72,40.371L154.81,40.371L156.89,40.371L158.97,40.371L161.06,40.371L163.14,40.371L165.23,40.371L167.31,81.306L169.39,40.371L171.48,40.371L173.56,40.371L175.65,40.371L177.73,40.371L179.81,40.371L181.9,40.371L183.98,40.371L186.07,40.371L188.15,40.371L190.24,40.371L192.32,81.306L194.4,40.371L196.49,40.371L198.57,40.371L200.66,40.371L202.74,40.371L204.82,40.371L206.91,40.371L208.99,40.371L211.08,40.371L213.16,81.306L215.25,40.371L217.33,40.371L219.41,40.371L221.5,40.371L223.58,40.371L225.67,40.371L227.75,40.371L229.83,40.371L231.92,40.371L234,40.371L236.09,40.371L238.17,40.371L240.25,81.306L242.34,40.371L244.42,40.371L246.51,40.371L248.59,40.371L250.68,40.371L252.76,40.371L254.84,40.371L256.93,40.371L259.01,40.371L261.1,81.306L263.18,40.371L265.26,40.371L267.35,40.371L269.43,40.371L271.52,40.371L273.6,40.371L275.68,40.371L277.77,40.371L279.85,40.371L281.94,40.371L284.02,40.371L286.11,40.371L288.19,40.371L290.27,40.371L292.36,40.371L294.44,40.371L296.53,40.371L298.61,40.371L300.69,40.371L302.78,40.371L304.86,40.371L306.95,40.371L309.03,40.371L311.11,40.371L313.2,40.371L315.28,40.371L317.37,40.371L319.45,40.371L321.54,40.371L323.62,81.306L325.7,40.371L327.79,40.371L329.87,40.371L331.96,40.371L334.04,40.371L336.12,40.371L338.21,40.371L340.29,40.371L342.38,40.371L344.46,81.306L346.54,40.371L348.63,40.371L350.71,40.371L352.8,40.371L354.88,40.371L356.97,40.371L359.05,40.371L361.13,40.371L363.22,40.371L365.3,40.371L367.39,40.371L369.47,40.371L371.55,40.371L373.64,40.371L375.72,40.371L377.81,40.371L379.89,40.371L381.97,40.371L384.06,40.371L386.14,40.371L388.23,40.371L390.31,40.371L392.4,40.371L394.48,40.371L396.56,40.371L398.65,81.306L400.73,40.371L402.82,40.371L404.9,40.371L406.98,40.371L409.07,40.371L411.15,40.371L413.24,40.371L415.32,40.371L417.4,40.371L419.49,81.306L421.57,40.371L423.66,40.371L425.74,40.371L427.83,40.371L429.91,40.371L431.99,40.371L434.08,40.371L436.16,40.371L438.25,40.371L440.33,40.371L442.41,40.371L444.5,40.371L446.58,40.371L448.67,40.371L450.75,40.371L452.83,40.371L454.92,40.371L457,40.371L459.09,40.371L461.17,40.371L463.26,40.371L465.34,40.371L467.42,40.371L469.51,40.371L471.59,40.371L473.68,40.371L475.76,40.371L477.84,40.371L479.93,40.371L482.01,40.371L484.1,40.371L486.18,40.371L488.26,40.371L490.35,40.371L492.43,40.371L494.52,40.371L496.6,40.371L498.69,40.371L500.77,40.371L502.85,40.371L504.94,40.371L507.02,40.371L509.11,40.371L511.19,40.371L513.27,40.371L515.36,40.371L517.44,40.371L519.53,40.371L521.61,40.371L523.69,40.371L525.78,40.371L527.86,40.371L529.95,40.371L532.03,40.371L534.12,40.371L536.2,40.371L538.28,40.371L540.37,40.371L542.45,40.371L544.54,40.371L546.62,40.371L548.7,40.371L550.79,40.371L552.87,40.371L554.96,40.371L557.04,40.371L559.12,40.371" style="fill:none;stroke:#800080" />
<path d="M38.095,40.371L40.179,40.371L42.263,40.371L44.347,40.371L46.431,40.371L48.515,40.371L50.599,40.371L52.684,40.371L54.768,40.371L56.852,40.371L58.936,40.371L61.02,40.371L63.104,40.371L65.188,163.18L67.272,150.9L69.357,139.84L71.441,129.9L73.525,120.94L75.609,235.69L77.693,216.16L79.777,198.58L81.861,182.76L83.945,168.52L86.03,278.51L88.114,254.7L90.198,233.27L92.282,213.98L94.366,196.62L96.45,180.99L98.534,166.93L100.62,154.27L102.7,142.88L104.79,255.44L106.87,233.93L108.95,214.58L111.04,197.15L113.12,304.28L115.21,277.89L117.29,254.14L119.38,232.76L121.46,213.52L123.54,196.21L125.63,180.62L127.71,166.6L129.8,153.98L131.88,142.62L133.96,132.39L136.05,123.19L138.13,114.91L140.22,107.45L142.3,100.75L144.38,94.708L146.47,212.08L148.55,194.91L150.64,302.26L152.72,276.07L154.81,252.5L156.89,231.29L158.97,212.2L161.06,195.01L163.14,179.55L165.23,165.63L167.31,275.91L169.39,252.36L171.48,231.16L173.56,212.08L175.65,194.91L177.73,179.46L179.81,165.55L181.9,153.03L183.98,141.76L186.07,131.62L188.15,122.5L190.24,114.29L192.32,229.7L194.4,210.77L196.49,316.53L198.57,288.92L200.66,264.06L202.74,241.69L204.82,221.56L206.91,203.44L208.99,187.14L211.08,172.46L213.16,282.06L215.25,257.89L217.33,236.14L219.41,216.56L221.5,198.94L223.58,183.08L225.67,168.81L227.75,155.97L229.83,144.41L231.92,134L234,124.64L236.09,116.21L238.17,108.63L240.25,224.61L242.34,206.19L244.42,189.6L246.51,174.68L248.59,161.25L250.68,149.16L252.76,138.28L254.84,128.49L256.93,119.68L259.01,111.75L261.1,227.42L263.18,208.71L265.26,191.88L267.35,176.73L269.43,163.09L271.52,150.82L273.6,139.78L275.68,129.83L277.77,120.89L279.85,112.84L281.94,105.59L284.02,99.068L286.11,93.198L288.19,87.916L290.27,83.161L292.36,78.882L294.44,75.031L296.53,71.565L298.61,191.25L300.69,176.16L302.78,162.58L304.86,150.36L306.95,139.36L309.03,129.46L311.11,120.56L313.2,112.54L315.28,105.32L317.37,98.825L319.45,92.98L321.54,87.719L323.62,205.79L325.7,189.25L327.79,174.36L329.87,160.96L331.96,148.9L334.04,138.05L336.12,128.28L338.21,119.49L340.29,111.58L342.38,104.46L344.46,220.86L346.54,202.81L348.63,186.56L350.71,171.94L352.8,158.79L354.88,146.95L356.97,136.29L359.05,126.7L361.13,118.06L363.22,110.29L365.3,103.3L367.39,97.009L369.47,91.345L371.55,86.248L373.64,81.66L375.72,77.531L377.81,73.815L379.89,70.471L381.97,67.461L384.06,64.752L386.14,62.314L388.23,60.119L390.31,58.145L392.4,56.367L394.48,54.768L396.56,53.328L398.65,174.84L400.73,161.39L402.82,149.29L404.9,138.4L406.98,128.59L409.07,119.77L411.15,111.83L413.24,104.69L415.32,98.255L417.4,92.466L419.49,210.06L421.57,193.09L423.66,177.82L425.74,164.08L427.83,151.71L429.91,140.57L431.99,130.55L434.08,121.53L436.16,113.42L438.25,106.11L440.33,99.539L442.41,93.622L444.5,88.297L446.58,83.504L448.67,79.191L450.75,75.309L452.83,68.671L454.92,65.841L457,63.294L459.09,61.002L461.17,58.939L463.26,57.082L465.34,55.411L467.42,53.907L469.51,52.553L471.59,51.335L473.68,50.239L475.76,49.252L477.84,48.364L479.93,47.565L482.01,46.845L484.1,46.198L486.18,45.615L488.26,45.091L490.35,44.619L492.43,44.194L494.52,43.812L496.6,43.468L498.69,43.158L500.77,42.879L502.85,42.628L504.94,42.403L507.02,42.2L509.11,42.017L511.19,41.852L513.27,41.704L515.36,41.571L517.44,41.451L519.53,41.343L521.61,41.246L523.69,41.158L525.78,41.079L527.86,41.009L529.95,40.945L532.03,40.888L534.12,40.836L536.2,40.789L538.28,40.748L540.37,40.71L542.45,40.676L544.54,40.646L546.62,40.618L548.7,40.593L550.79,40.571L552.87,40.551L554.96,40.533L557.04,40.517L559.12,40.502" style="fill:none;stroke:#FFC0CB" />
<path d="M38.095,40.371L40.179,40.371L42.263,40.371L44.347,40.371L46.431,40.371L48.515,40.371L50.599,40.371L52.684,40.371L54.768,40.371L56.852,40.371L58.936,40.371L61.02,40.371L63.104,40.371L65.188,40.371L67.272,40.371L69.357,40.371L71.441,40.371L73.525,40.371L75.609,81.306L77.693,40.371L79.777,40.371L81.861,40.371L83.945,40.371L86.03,40.371L88.114,40.371L90.198,40.371L92.282,40.371L94.366,40.371L96.45,40.371L98.534,40.371L100.62,40.371L102.7,40.371L104.79,40.371L106.87,40.371L108.95,40.371L111.04,40.371L113.12,81.306L115.21,40.371L117.29,40.371L119.38,40.371L121.46,40.371L123.54,40.371L125.63,40.371L127.71,40.371L129.8,40.371L131.88,40.371L133.96,40.371L136.05,40.371L138.13,40.371L140.22,40.371L142.3,40.371L144.38,40.371L146.47,40.371L148.55,40.371L150.64,81.306L152.72,40.371L154.81,40.371L156.89,40.371L158.97,40.371L161.06,40.371L163.14,40.371L165.23,40.371L167.31,40.371L169.39,40.371L171.48,40.371L173.56,40.371L175.65,40.371L177.73,40.371L179.81,40.371L181.9,40.371L183.98,40.371L186.07,40.371L188.15,40.371L190.24,40.371L192.32,40.371L194.4,40.371L196.49,81.306L198.57,40.371L200.66,40.371L202.74,40.371L204.82,40.371L206.91,40.371L208.99,40.371L211.08,40.371L213.16,40.371L215.25,40.371L217.33,40.371L219.41,40.371L221.5,40.371L223.58,40.371L225.67,40.371L227.75,40.371L229.83,40.371L231.92,40.371L234,40.371L236.09,40.371L238.17,40.371L240.25,40.371L242.34,40.371L244.42,40.371L246.51,40.371L248.59,40.371L250.68,40.371L252.76,40.371L254.84,40.371L256.93,40.371L259.01,40.371L261.1,40.371L263.18,40.371L265.26,40.371L267.35,40.371L269.43,40.371L271.52,40.371L273.6,40.371L275.68,40.371L277.77,40.371L279.85,40.371L281.94,40.371L284.02,40.371L286.11,40.371L288.19,40.371L290.27,40.371L292.36,40.371L294.44,40.371L296.53,40.371L298.61,81.306L300.69,40.371L302.78,40.371L304.86,40.371L306.95,40.371L309.03,40.371L311.11,40.371L313.2,40.371L315.28,40.371L317.37,40.371L319.45,40.371L321.54,40.371L323.62,40.371L325.7,40.371L327.79,40.371L329.87,40.371L331.96,40.371L334.04,40.371L336.12,40.371L338.21,40.371L340.29,40.371L342.38,40.371L344.46,40.371L346.54,40.371L348.63,40.371L350.71,40.371L352.8,40.371L354.88,40.371L356.97,40.371L359.05,40.371L361.13,40.371L363.22,40.371L365.3,40.371L367.39,40.371L369.47,40.371L371.55,40.371L373.64,40.371L375.72,40.371L377.81,40.371L379.89,40.371L381.97,40.371L384.06,40.371L386.14,40.371L388.23,40.371L390.31,40.371L392.4,40.371L394.48,40.371L396.56,40.371L398.65,81.306L400.73,40.371L402.82,40.371L404.9,40.371L406.98,40.371L409.07,40.371L411.15,40.371L413.24,40.371L415.32,40.371L417.4,40.371L419.49,40.371L421.57,40.371L423.66,40.371L425.74,40.371L427.83,40.371L429.91,40.371L431.99,40.371L434.08,40.371L436.16,40.371L438.25,40.371L440.33,40.371L442.41,40.371L444.5,40.371L446.58,40.371L448.67,40.371L450.75,40.371L452.83,40.371L454.92,40.371L457,40.371L459.09,40.371L461.17,40.371L463.26,40.371L465.34,40.371L467.42,40.371L469.51,40.371L471.59,40.371L473.68,40.371L475.76,40.371L477.84,40.371L479.93,40.371L482.01,40.371L484.1,40.371L486.18,40.371L488.26,40.371L490.35,40.371L492.43,40.371L494.52,40.371L496.6,40.371L498.69,40.371L500.77,40.371L502.85,40.371L504.94,40.371L507.02,40.371L509.11,40.371L511.19,40.371L513.27,40.371L515.36,40.371L517.44,40.371L519.53,40.371L521.61,40.371L523.69,40.371L525.78,40.371L527.86,40.371L529.95,40.371L532.03,40.371L534.12,40.371L536.2,40.371L538.28,40.371L540.37,40.371L542.45,40.371L544.54,40.371L546.62,40.371L548.7,40.371L550.79,40.371L552.87,40.371L554.96,40.371L557.04,40.371L559.12,40.371" style="fill:none;stroke:#FA8072" />
<path d="M38.095,42.418L40.179,42.418L42.263,42.418L44.347,42.418L46.431,42.418L48.515,42.418L50.599,42.418L52.684,42.418L54.768,42.418L56.852,42.418L58.936,42.418L61.02,42.418L63.104,42.418L65.188,42.418L67.272,42.418L69.357,42.418L71.441,75.751L73.525,279.28L75.609,274.8L77.693,228.94L79.777,197.1L81.861,167.4L83.945,209.26L86.03,266.69L88.114,244.1L90.198,241.49L92.282,231.77L94.366,378.47L96.45,281.73L98.534,208.62L100.62,167.09L102.7,138.11L104.79,163.25L106.87,172.69L108.95,169.16L111.04,170.98L113.12,355.75L115.21,274.94L117.29,209.27L119.38,171.02L121.46,142.47L123.54,132.81L125.63,124.27L127.71,116.54L129.8,109.49L131.88,103.1L133.96,97.371L136.05,92.271L138.13,87.758L140.22,83.777L142.3,80.271L144.38,77.184L146.47,74.461L148.55,121.27L150.64,187.41L152.72,199.41L154.81,348.33L156.89,259.73L158.97,193.94L161.06,157.11L163.14,131.05L165.23,147.34L167.31,170.51L169.39,164.84L171.48,162.62L173.56,164.91L175.65,298.46L177.73,221.96L179.81,164.99L181.9,133.1L183.98,112.1L186.07,101.33L188.15,93.425L190.24,87.191L192.32,82.063L194.4,112.71L196.49,178.16L198.57,188.39L200.66,321.36L202.74,240.68L204.82,180.97L206.91,147.35L208.99,123.65L211.08,136.73L213.16,153.37L215.25,152.08L217.33,149.99L219.41,152.81L221.5,276.17L223.58,205.94L225.67,154.03L227.75,124.94L229.83,105.86L231.92,95.729L234,88.35L236.09,82.573L238.17,77.856L240.25,73.914L242.34,101.99L244.42,102.32L246.51,115.47L248.59,254.55L250.68,185.87L252.76,135.43L254.84,107.99L256.93,91.861L259.01,90.163L261.1,91.754L263.18,91.968L265.26,89.038L267.35,102.81L269.43,233.31L271.52,171.01L273.6,125.03L275.68,99.896L277.77,85.599L279.85,77.017L281.94,71.29L284.02,67.076L286.11,63.779L288.19,61.097L290.27,58.865L292.36,56.979L294.44,55.371L296.53,53.993L298.61,75.82L300.69,79.194L302.78,79.206L304.86,78.286L306.95,77.016L309.03,75.619L311.11,74.202L313.2,72.817L315.28,71.489L317.37,70.229L319.45,69.037L321.54,67.914L323.62,66.854L325.7,129.59L327.79,132.92L329.87,145.35L331.96,309.95L334.04,224.01L336.12,161.17L338.21,127.34L340.29,106.54L342.38,109.89L344.46,116.25L346.54,117.59L348.63,114.87L350.71,127.45L352.8,277.15L354.88,201.93L356.97,145.97L359.05,115.51L361.13,97.523L363.22,87.222L365.3,80.169L367.39,74.889L369.47,70.713L371.55,67.3L373.64,64.454L375.72,62.05L377.81,60.003L379.89,58.249L381.97,56.738L384.06,55.431L386.14,54.296L388.23,53.306L390.31,52.439L392.4,51.677L394.48,51.004L396.56,50.409L398.65,73.116L400.73,188.79L402.82,208.55L404.9,213.83L406.98,372.12L409.07,275.31L411.15,203.82L413.24,164.07L415.32,135.92L417.4,153.35L419.49,171.47L421.57,174.09L423.66,171.94L425.74,174.02L427.83,317.67L429.91,233.88L431.99,171.8L434.08,137.42L436.16,114.99L438.25,103.13L440.33,94.478L442.41,87.755L444.5,82.32L446.58,77.825L448.67,74.052L450.75,70.855L452.83,65.787L454.92,63.768L457,62.018L459.09,60.493L461.17,59.158L463.26,57.984L465.34,56.946L467.42,56.025L469.51,55.204L471.59,54.467L473.68,53.804L475.76,53.205L477.84,52.661L479.93,52.165L482.01,51.712L484.1,51.295L486.18,50.911L488.26,50.556L490.35,50.226L492.43,49.919L494.52,49.633L496.6,49.365L498.69,49.113L500.77,48.877L502.85,48.654L504.94,48.444L507.02,48.245L509.11,48.056L511.19,47.877L513.27,47.707L515.36,47.545L517.44,47.39L519.53,47.243L521.61,47.102L523.69,46.967L525.78,46.839L527.86,46.715L529.95,46.597L532.03,46.483L534.12,46.374L536.2,46.27L538.28,46.169L540.37,46.072L542.45,45.979L544.54,45.89L546.62,45.804L548.7,45.72L550.79,45.64L552.87,45.563L554.96,45.489L557.04,45.417L559.12,45.348" style="fill:none;stroke:#A52A2A" />
<path d="M539.12,370.69L559.12,370.69" style="fill:none;stroke:#800080" />
<text x="505.77" y="-367.86" transform="scale(1, -1)"
	style="font-family:Liberation Sans;font-variant:normal;font-weight:normal;font-style:normal;font-size:12px">Spike</text>
<path d="M539.12,360.22L559.12,360.22" style="fill:none;stroke:#FFC0CB" />
<text x="510.46" y="-357.39" transform="scale(1, -1)"
	style="font-family:Liberation Sans;font-variant:normal;font-weight:normal;font-style:normal;font-size:12px">CaM</text>
<path d="M539.12,349.75L559.12,349.75" style="fill:none;stroke:#FA8072" />
<text x="487.1" y="-346.92" transform="scale(1, -1)"
	style="font-family:Liberation Sans;font-variant:normal;font-weight:normal;font-style:normal;font-size:12px">PreSpike</text>
<path d="M539.12,339.28L559.12,339.28" style="fill:none;stroke:#A52A2A" />
<text x="489.1" y="-336.45" transform="scale(1, -1)"
	style="font-family:Liberation Sans;font-variant:normal;font-weight:normal;font-style:normal;font-size:12px">PSD_Ca</text>
</g>
</svg>
