<?xml version="1.0"?>
<!-- Generated by SVGo and Plotinum VG -->
<svg width="559.12pt" height="391.88pt" viewBox="0 0 559.12 391.88"
	xmlns="http://www.w3.org/2000/svg"
	xmlns:xlink="http://www.w3.org/1999/xlink">
<g transform="scale(1, -1) translate(0, -391.88)">
<text x="234.54" y="-382.15" transform="scale(1, -1)"
	style="font-family:Liberation Sans;font-variant:normal;font-weight:normal;font-style:normal;font-size:12px">Kinase Time Plot</text>
<text x="288.28" y="-3.6797" transform="scale(1, -1)"
	style="font-family:Liberation Sans;font-variant:normal;font-weight:normal;font-style:normal;font-size:12px">Time</text>
<text x="36.706" y="-16.473" transform="scale(1, -1)"
	style="font-family:Liberation Sans;font-variant:normal;font-weight:normal;font-style:normal;font-size:10px">0.0</text>
<text x="267.34" y="-16.473" transform="scale(1, -1)"
	style="font-family:Liberation Sans;font-variant:normal;font-weight:normal;font-style:normal;font-size:10px">0.4</text>
<text x="497.98" y="-16.473" transform="scale(1, -1)"
	style="font-family:Liberation Sans;font-variant:normal;font-weight:normal;font-style:normal;font-size:10px">0.8</text>
<path d="M43.656,24.578L43.656,32.578" style="fill:none;stroke:#000000;stroke-width:0.5" />
<path d="M274.29,24.578L274.29,32.578" style="fill:none;stroke:#000000;stroke-width:0.5" />
<path d="M504.93,24.578L504.93,32.578" style="fill:none;stroke:#000000;stroke-width:0.5" />
<path d="M101.31,28.578L101.31,32.578" style="fill:none;stroke:#000000;stroke-width:0.5" />
<path d="M158.97,28.578L158.97,32.578" style="fill:none;stroke:#000000;stroke-width:0.5" />
<path d="M216.63,28.578L216.63,32.578" style="fill:none;stroke:#000000;stroke-width:0.5" />
<path d="M331.95,28.578L331.95,32.578" style="fill:none;stroke:#000000;stroke-width:0.5" />
<path d="M389.61,28.578L389.61,32.578" style="fill:none;stroke:#000000;stroke-width:0.5" />
<path d="M447.27,28.578L447.27,32.578" style="fill:none;stroke:#000000;stroke-width:0.5" />
<path d="M43.656,32.578L559.12,32.578" style="fill:none;stroke:#000000;stroke-width:0.5" />
<g transform="rotate(90)">
<text x="201.75" y="9.7266" transform="scale(1, -1)"
	style="font-family:Liberation Sans;font-variant:normal;font-weight:normal;font-style:normal;font-size:12px">Ca</text>
</g>
<text x="21.511" y="-37.852" transform="scale(1, -1)"
	style="font-family:Liberation Sans;font-variant:normal;font-weight:normal;font-style:normal;font-size:10px">0</text>
<text x="21.511" y="-132.51" transform="scale(1, -1)"
	style="font-family:Liberation Sans;font-variant:normal;font-weight:normal;font-style:normal;font-size:10px">4</text>
<text x="21.511" y="-227.17" transform="scale(1, -1)"
	style="font-family:Liberation Sans;font-variant:normal;font-weight:normal;font-style:normal;font-size:10px">8</text>
<text x="15.949" y="-321.83" transform="scale(1, -1)"
	style="font-family:Liberation Sans;font-variant:normal;font-weight:normal;font-style:normal;font-size:10px">12</text>
<path d="M29.851,40.371L37.851,40.371" style="fill:none;stroke:#000000;stroke-width:0.5" />
<path d="M29.851,135.03L37.851,135.03" style="fill:none;stroke:#000000;stroke-width:0.5" />
<path d="M29.851,229.69L37.851,229.69" style="fill:none;stroke:#000000;stroke-width:0.5" />
<path d="M29.851,324.35L37.851,324.35" style="fill:none;stroke:#000000;stroke-width:0.5" />
<path d="M33.851,64.036L37.851,64.036" style="fill:none;stroke:#000000;stroke-width:0.5" />
<path d="M33.851,87.701L37.851,87.701" style="fill:none;stroke:#000000;stroke-width:0.5" />
<path d="M33.851,111.37L37.851,111.37" style="fill:none;stroke:#000000;stroke-width:0.5" />
<path d="M33.851,158.7L37.851,158.7" style="fill:none;stroke:#000000;stroke-width:0.5" />
<path d="M33.851,182.36L37.851,182.36" style="fill:none;stroke:#000000;stroke-width:0.5" />
<path d="M33.851,206.03L37.851,206.03" style="fill:none;stroke:#000000;stroke-width:0.5" />
<path d="M33.851,253.36L37.851,253.36" style="fill:none;stroke:#000000;stroke-width:0.5" />
<path d="M33.851,277.02L37.851,277.02" style="fill:none;stroke:#000000;stroke-width:0.5" />
<path d="M33.851,300.69L37.851,300.69" style="fill:none;stroke:#000000;stroke-width:0.5" />
<path d="M33.851,348.02L37.851,348.02" style="fill:none;stroke:#000000;stroke-width:0.5" />
<path d="M33.851,371.68L37.851,371.68" style="fill:none;stroke:#000000;stroke-width:0.5" />
<path d="M37.851,40.371L37.851,378.47" style="fill:none;stroke:#000000;stroke-width:0.5" />
<path d="M43.656,40.371L44.233,40.371L44.809,40.371L45.386,40.371L45.963,40.371L46.539,40.371L47.116,40.371L47.692,40.371L48.269,40.371L48.846,40.371L49.422,40.371L49.999,40.371L50.575,40.371L51.152,40.371L51.728,40.371L52.305,40.371L52.882,40.371L53.458,40.371L54.035,40.371L54.611,40.371L55.188,121.73L55.765,118.37L56.341,117.2L56.918,58.136L57.494,227.89L58.071,238.19L58.648,214.43L59.224,186.25L59.801,164.15L60.377,148.46L60.954,142.69L61.53,100.23L62.107,98.269L62.684,110L63.26,173.97L63.837,181.31L64.413,177.65L64.99,155.42L65.567,137.99L66.143,125.62L66.72,121.07L67.296,103.01L67.873,102.26L68.449,99.792L69.026,96.912L69.603,93.842L70.179,90.754L70.756,52.169L71.332,132.38L71.909,137.43L72.486,125.77L73.062,111.95L73.639,101.1L74.215,93.407L74.792,90.574L75.369,70.448L75.945,78.018L76.522,68.112L77.098,105.92L77.675,109.52L78.251,101.22L78.828,91.368L79.405,83.641L79.981,78.158L80.558,76.14L81.134,68.571L81.711,90.336L82.288,87.216L82.864,84.543L83.441,81.897L84.017,79.334L84.594,49.195L85.171,116.15L85.747,120.31L86.324,110.71L86.9,99.322L87.477,90.39L88.053,84.051L88.63,81.719L89.207,65.346L89.783,73.384L90.36,61.585L90.936,94.361L91.513,97.325L92.09,90.484L92.666,82.372L93.243,76.008L93.819,93.475L94.396,90.639L94.972,80.045L95.549,78.138L96.126,75.783L96.702,73.426L97.279,47.904L97.855,101.71L98.432,105.07L99.009,97.302L99.585,88.086L100.16,80.856L100.74,75.726L101.31,73.838L101.89,60.706L102.47,68.066L103.04,56.693L103.62,84.071L104.2,86.469L104.77,80.933L105.35,74.366L105.93,69.216L106.5,65.56L107.08,64.215L107.66,59.355L108.23,58.076L108.81,56.764L109.39,55.523L109.96,54.383L110.54,53.352L111.12,52.431L111.69,51.612L112.27,50.887L112.85,50.244L113.42,49.673L114,49.164L114.58,48.709L115.15,48.299L115.73,47.929L116.31,47.591L116.88,47.282L117.46,69.572L118.04,68.336L118.61,67.454L119.19,66.652L119.77,65.877L120.34,65.114L120.92,64.358L121.5,63.61L122.07,62.872L122.65,62.146L123.23,61.436L123.8,60.742L124.38,60.067L124.96,59.41L125.53,44.392L126.11,91.702L126.68,94.52L127.26,88.016L127.84,80.303L128.41,74.253L128.99,69.959L129.57,68.379L130.14,57.385L130.72,63.48L131.3,54.083L131.87,76.943L132.45,78.95L133.03,74.317L133.6,68.822L134.18,64.511L134.76,61.452L135.33,60.326L135.91,56.239L136.49,55.214L137.06,54.138L137.64,53.114L138.22,52.167L138.79,51.307L139.37,50.536L139.95,49.849L140.52,49.238L141.1,48.696L141.68,48.214L142.25,47.785L142.83,47.4L143.41,47.053L143.98,72.592L144.56,71.072L145.14,69.951L145.71,68.932L146.29,67.964L146.87,67.03L147.44,46.002L148.02,111.99L148.6,115.92L149.17,106.85L149.75,96.085L150.32,87.644L150.9,81.653L151.48,79.448L152.05,64.129L152.63,72.839L153.21,59.318L153.78,91.397L154.36,94.198L154.94,87.733L155.51,80.066L156.09,74.051L156.67,69.783L157.24,68.213L157.82,62.528L158.4,59.531L158.97,58.083L159.55,56.749L160.13,55.543L160.7,54.463L161.28,53.504L161.86,52.653L162.43,51.899L163.01,51.229L163.59,50.633L164.16,50.099L164.74,49.618L165.32,49.184L165.89,48.788L166.47,48.426L167.05,48.092L167.62,47.783L168.2,47.495L168.78,47.226L169.35,46.973L169.93,46.734L170.51,46.507L171.08,46.292L171.66,46.087L172.24,45.891L172.81,45.703L173.39,45.524L173.96,45.351L174.54,45.185L175.12,45.025L175.69,44.871L176.27,44.722L176.85,44.579L177.42,44.44L178,44.307L178.58,44.178L179.15,44.053L179.73,43.933L180.31,43.816L180.88,43.703L181.46,43.595L182.04,43.489L182.61,43.387L183.19,43.289L183.77,43.194L184.34,43.101L184.92,43.012L185.5,42.926L186.07,42.843L186.65,42.762L187.23,42.684L187.8,42.608L188.38,42.535L188.96,42.464L189.53,42.396L190.11,42.33L190.69,42.266L191.26,42.204L191.84,42.144L192.42,42.086L192.99,42.03L193.57,41.976L194.15,41.923L194.72,41.872L195.3,41.823L195.88,41.776L196.45,41.73L197.03,41.685L197.6,41.642L198.18,41.601L198.76,41.561L199.33,41.522L199.91,41.484L200.49,41.447L201.06,41.412L201.64,41.378L202.22,41.345L202.79,41.313L203.37,41.282L203.95,41.252L204.52,41.224L205.1,41.196L205.68,41.169L206.25,41.142L206.83,41.117L207.41,41.093L207.98,41.069L208.56,41.046L209.14,41.024L209.71,41.003L210.29,40.982L210.87,40.962L211.44,40.942L212.02,40.924L212.6,40.905L213.17,40.888L213.75,40.871L214.33,40.855L214.9,40.839L215.48,40.808L216.06,40.794L216.63,40.78L217.21,40.767L217.79,40.754L218.36,40.741L218.94,40.729L219.52,40.717L220.09,40.706L220.67,40.695L221.25,40.684L221.82,40.674L222.4,40.664L222.97,40.654L223.55,40.645L224.13,40.636L224.7,40.627L225.28,40.619L225.86,40.611L226.43,40.603L227.01,40.595L227.59,40.588L228.16,53.069L228.74,201.19L229.32,210.02L229.89,189.65L230.47,165.48L231.05,146.52L231.62,133.07L232.2,128.12L232.78,92.545L233.35,103.42L233.93,91.184L234.51,154.95L235.08,161.24L235.66,146.72L236.24,129.51L236.81,116L237.39,106.42L237.97,102.89L238.54,89.511L239.12,87.606L239.7,97.411L240.27,53.787L240.85,141.46L241.43,147.01L242,134.2L242.58,119.01L243.16,107.09L243.73,98.64L244.31,95.527L244.89,73.681L245.46,84.808L246.04,68.413L246.61,112.39L247.19,116.35L247.77,107.22L248.34,96.399L248.92,87.91L249.5,81.886L250.07,79.668L250.65,48.488L251.23,95.284L251.8,98.298L252.38,123.55L252.96,110.08L253.53,99.519L254.11,92.024L254.69,89.265L255.26,73.44L255.84,83.706L256.42,86.815L256.99,87.383L257.57,86.574L258.15,84.518L258.72,52.586L259.3,114.18L259.88,118.24L260.45,108.88L261.03,97.793L261.61,89.093L262.18,82.919L262.76,80.646L263.34,64.808L263.91,73.946L264.49,59.906L265.07,92.961L265.64,95.848L266.22,89.185L266.8,81.283L267.37,75.084L267.95,70.685L268.53,69.066L269.1,63.29L269.68,61.598L270.25,59.908L270.83,58.344L271.41,56.928L271.98,55.664L272.56,54.546L273.14,53.56L273.71,52.693L274.29,51.928L274.87,51.252L275.44,50.652L276.02,50.117L276.6,49.637L277.17,49.203L277.75,48.809L278.33,48.448L278.9,48.116L279.48,47.809L280.06,47.522L280.63,47.254L281.21,47.002L281.79,67.317L282.36,66.31L282.94,65.561L283.52,64.866L284.09,45.49L284.67,110.37L285.25,114.22L285.82,105.35L286.4,94.829L286.98,86.578L287.55,80.722L288.13,78.567L288.71,63.676L289.28,72.715L289.86,58.339L290.44,90.246L291.01,92.984L291.59,86.665L292.17,79.171L292.74,73.292L293.32,69.12L293.89,67.585L294.47,62.084L295.05,60.532L295.62,58.956L296.2,57.491L296.78,56.159L297.35,54.967L297.93,53.909L298.51,71.842L299.08,69.727L299.66,68.058L300.24,66.574L300.81,65.23L301.39,64.006L301.97,62.888L302.54,61.862L303.12,60.918L303.7,60.045L304.27,59.236L304.85,58.482L305.43,57.776L306,57.114L306.58,56.49L307.16,55.9L307.73,55.341L308.31,54.809L308.89,54.302L309.46,43.259L310.04,79.701L310.62,81.86L311.19,76.877L311.77,70.967L312.35,66.331L312.92,63.042L313.5,61.831L314.08,53.519L314.65,58.733L315.23,50.243L315.81,68.392L316.38,69.931L316.96,66.38L317.54,62.17L318.11,58.867L318.69,56.523L319.26,55.661L319.84,52.601L320.42,51.654L320.99,82.334L321.57,78.825L322.15,76.034L322.72,73.535L323.3,71.283L323.88,69.259L324.45,67.446L325.03,65.823L325.61,64.37L326.18,63.067L326.76,61.894L327.34,60.834L327.91,59.872L328.49,58.994L329.07,58.189L329.64,57.446L330.22,56.116L330.8,55.515L331.37,54.95L331.95,54.417L332.53,53.913L333.1,53.433L333.68,52.976L334.26,52.54L334.83,52.123L335.41,51.723L335.99,51.339L336.56,50.97L337.14,50.615L337.72,50.273L338.29,49.944L338.87,49.626L339.45,49.32L340.02,49.024L340.6,48.739L341.18,48.463L341.75,48.197L342.33,47.939L342.9,47.691L343.48,47.45L344.06,47.218L344.63,46.993L345.21,46.776L345.79,46.566L346.36,46.363L346.94,46.166L347.52,45.977L348.09,45.793L348.67,45.615L349.25,45.443L349.82,45.277L350.4,45.117L350.98,44.961L351.55,44.811L352.13,44.665L352.71,44.525L353.28,44.389L353.86,44.257L354.44,44.13L355.01,44.007L355.59,43.888L356.17,43.772L356.74,43.661L357.32,43.553L357.9,43.449L358.47,43.348L359.05,43.251L359.63,43.156L360.2,43.065L360.78,42.977L361.36,42.891L361.93,42.809L362.51,42.729L363.09,42.652L363.66,42.577L364.24,42.505L364.82,42.435L365.39,42.367L365.97,42.302L366.54,42.238L367.12,42.177L367.7,42.118L368.27,42.061L368.85,42.005L369.43,41.952L370,41.9L370.58,41.85L371.16,41.801L371.73,41.754L372.31,41.709L372.89,41.665L373.46,41.622L374.04,41.581L374.62,41.542L375.19,41.503L375.77,41.466L376.35,41.43L376.92,41.395L377.5,41.362L378.08,41.329L378.65,41.298L379.23,41.267L379.81,41.238L380.38,41.209L380.96,41.182L381.54,41.155L382.11,41.129L382.69,41.104L383.27,41.08L383.84,41.057L384.42,41.035L385,41.013L385.57,40.992L386.15,40.971L386.73,40.951L387.3,40.914L387.88,40.896L388.46,40.879L389.03,40.862L389.61,40.846L390.19,40.83L390.76,40.815L391.34,40.801L391.91,40.787L392.49,40.773L393.07,40.76L393.64,40.747L394.22,40.734L394.8,40.723L395.37,40.711L395.95,40.7L396.53,40.689L397.1,40.678L397.68,40.668L398.26,40.659L398.83,95.978L399.41,93.923L399.99,51.914L400.56,185.59L401.14,193.56L401.72,175.16L402.29,153.34L402.87,136.22L403.45,124.08L404.02,119.61L404.6,87.724L405.18,99.687L405.75,84.388L406.33,143.83L406.91,149.51L407.48,136.4L408.06,120.86L408.64,108.66L409.21,100.01L409.79,111.97L410.37,55.161L410.94,140.43L411.52,145.92L412.1,133.24L412.67,118.21L413.25,106.41L413.83,98.046L414.4,94.965L414.98,78.522L415.55,87.455L416.13,90.123L416.71,90.089L417.28,88.473L417.86,85.866L418.44,82.74L419.01,93.672L419.59,89.153L420.17,85.256L420.74,81.65L421.32,78.358L421.9,75.393L422.47,72.749L423.05,47.478L423.63,105.1L424.2,108.66L424.78,100.46L425.36,90.729L425.93,83.099L426.51,77.685L427.09,75.692L427.66,61.876L428.24,69.875L428.82,57.338L429.39,86.492L429.97,89.023L430.55,114.23L431.12,102.27L431.7,92.893L432.28,86.238L432.85,83.788L433.43,74.877L434.01,72.704L434.58,70.357L435.16,68.119L435.74,66.045L436.31,64.161L436.89,62.47L437.47,45.109L438.04,88.224L438.62,90.85L439.19,84.788L439.77,77.597L440.35,71.957L440.92,67.954L441.5,66.481L442.08,56.371L442.65,83.576L443.23,63.475L443.81,106.16L444.38,109.77L444.96,101.44L445.54,91.551L446.11,83.797L446.69,78.294L447.27,76.268L447.84,69.021L448.42,66.955L449,64.862L449.57,62.92L450.15,61.158L450.73,59.582L451.3,58.185L451.88,56.951L452.46,55.863L453.03,54.904L453.61,54.055L454.19,53.301L454.76,52.628L455.34,52.023L455.92,51.477L456.49,50.98L457.07,50.525L457.65,50.106L458.22,49.719L458.8,42.297L459.38,66.712L459.95,68.158L460.53,64.821L461.11,106.09L461.68,96.134L462.26,89.068L462.83,86.467L463.41,68.549L463.99,79.691L464.56,61.771L465.14,100.56L465.72,103.87L466.29,96.24L466.87,87.196L467.45,80.101L468.02,75.066L468.6,73.213L469.18,66.602L469.75,64.668L470.33,62.728L470.91,60.938L471.48,59.319L472.06,57.875L472.64,56.597L473.21,55.471L473.79,54.48L474.37,53.606L474.94,52.834L475.52,52.148L476.1,51.535L476.67,50.985L477.25,50.489L477.83,50.037L478.4,49.623L478.98,49.243L479.56,48.89L480.13,48.561L480.71,48.253L481.29,66.47L481.86,65.486L482.44,64.719L483.02,64.001L483.59,63.301L484.17,45.149L484.75,105.71L485.32,109.29L485.9,101.02L486.48,91.198L487.05,83.497L487.63,78.032L488.2,76.02L488.78,62.166L489.36,70.762L489.93,56.929L490.51,86.921L491.09,89.476L491.66,83.578L492.24,76.584L492.82,71.097L493.39,67.203L493.97,65.77L494.55,60.663L495.12,59.153L495.7,57.65L496.28,56.265L496.85,55.013L497.43,53.898L498.01,52.911L498.58,52.042L499.16,51.277L499.74,50.602L500.31,50.006L500.89,49.476L501.47,49.003L502.04,48.195L502.62,47.846L503.2,47.527L503.77,47.233L504.35,46.96L504.93,46.706L505.5,46.468L506.08,46.245L506.66,46.033L507.23,45.833L507.81,45.642L508.39,45.461L508.96,45.287L509.54,45.121L510.12,44.961L510.69,44.808L511.27,44.66L511.84,44.518L512.42,44.381L513,44.249L513.57,44.122L514.15,43.999L514.73,43.88L515.3,43.765L515.88,43.654L516.46,43.547L517.03,43.443L517.61,43.343L518.19,43.246L518.76,43.152L519.34,43.061L519.92,42.974L520.49,42.889L521.07,42.807L521.65,42.727L522.22,42.65L522.8,42.576L523.38,42.504L523.95,42.435L524.53,42.367L525.11,42.302L525.68,42.239L526.26,42.178L526.84,42.119L527.41,42.062L527.99,42.007L528.57,41.954L529.14,41.902L529.72,41.852L530.3,41.804L530.87,41.757L531.45,41.712L532.03,41.668L532.6,41.625L533.18,41.584L533.76,41.545L534.33,41.506L534.91,41.469L535.48,41.433L536.06,41.399L536.64,41.365L537.21,41.333L537.79,41.301L538.37,41.271L538.94,41.241L539.52,41.213L540.1,41.185L540.67,41.159L541.25,41.133L541.83,41.108L542.4,41.084L542.98,41.06L543.56,41.038L544.13,41.016L544.71,40.995L545.29,40.974L545.86,40.955L546.44,40.936L547.02,40.917L547.59,40.899L548.17,40.882L548.75,40.865L549.32,40.849L549.9,40.833L550.48,40.818L551.05,40.803L551.63,40.789L552.21,40.775L552.78,40.762L553.36,40.749L553.94,40.737L554.51,40.725L555.09,40.713L555.67,40.702L556.24,40.691L556.82,40.681L557.4,40.671L557.97,40.661L558.55,40.651L559.12,40.642" style="fill:none;stroke:#FA8072" />
<path d="M43.656,41.554L44.233,41.554L44.809,41.554L45.386,41.554L45.963,41.554L46.539,41.554L47.116,41.554L47.692,41.554L48.269,41.554L48.846,41.554L49.422,41.554L49.999,41.554L50.575,41.554L51.152,41.554L51.728,41.554L52.305,41.554L52.882,41.554L53.458,41.554L54.035,41.554L54.611,41.554L55.188,84.152L55.765,108.65L56.341,123.69L56.918,133.08L57.494,357.52L58.071,378.47L58.648,311.47L59.224,248.88L59.801,206.1L60.377,178.03L60.954,159.14L61.53,135.67L62.107,183.71L62.684,240.96L63.26,216.18L63.837,214.54L64.413,205.52L64.99,173.35L65.567,148.95L66.143,132.44L66.72,121.11L67.296,106.31L67.873,103.21L68.449,99.369L69.026,95.502L69.603,91.729L70.179,88.152L70.756,84.827L71.332,140.8L71.909,143.99L72.486,125.6L73.062,108.88L73.639,97.246L74.215,89.409L74.792,84.003L75.369,76.539L75.945,92.658L76.522,109.59L77.098,108.28L77.675,109.64L78.251,97.54L78.828,86.628L79.405,79.027L79.981,73.896L80.558,70.345L81.134,65.383L81.711,80.192L82.288,80.922L82.864,79.417L83.441,77.346L84.017,75.144L84.594,72.981L85.171,121.89L85.747,124.96L86.324,110.23L86.9,96.738L87.477,87.325L88.053,80.983L88.63,76.609L89.207,70.435L89.783,83.726L90.36,95.828L90.936,97.454L91.513,98.764L92.09,88.633L92.666,79.476L93.243,73.093L93.819,87.502L94.396,85.995L94.972,78.941L95.549,76.906L96.126,74.498L96.702,72.096L97.279,69.809L97.855,110.24L98.432,112.71L99.009,100.15L99.585,88.672L100.16,80.663L100.74,75.26L101.31,71.525L101.89,66.254L102.47,77.265L103.04,86.208L103.62,89.136L104.2,90.276L104.77,81.67L105.35,73.888L105.93,68.459L106.5,64.788L107.08,62.242L107.66,58.658L108.23,57.239L108.81,55.908L109.39,54.699L109.96,53.616L110.54,52.654L111.12,51.803L111.69,51.052L112.27,50.39L112.85,49.805L113.42,49.286L114,48.825L114.58,48.414L115.15,48.045L115.73,47.712L116.31,47.411L116.88,47.137L117.46,61.605L118.04,66.417L118.61,68.511L119.19,69.379L119.77,69.566L120.34,69.355L120.92,68.91L121.5,68.328L122.07,67.671L122.65,66.973L123.23,66.257L123.8,65.537L124.38,64.822L124.96,64.117L125.53,63.425L126.11,119.73L126.68,123.27L127.26,109.01L127.84,95.865L128.41,86.708L128.99,80.57L129.57,76.37L130.14,70.299L130.72,83.711L131.3,94.834L131.87,98.465L132.45,100.05L133.03,89.799L133.6,80.491L134.18,74.012L134.76,69.653L135.33,66.651L135.91,62.356L136.49,60.752L137.06,59.222L137.64,57.823L138.22,56.561L138.79,55.434L139.37,54.434L139.95,53.549L140.52,52.766L141.1,52.074L141.68,51.461L142.25,50.915L142.83,50.427L143.41,49.99L143.98,63.056L144.56,66.619L145.14,67.88L145.71,68.202L146.29,68.031L146.87,67.586L147.44,66.991L148.02,133.89L148.6,138.27L149.17,121.34L149.75,105.67L150.32,94.753L150.9,87.432L151.48,82.421L152.05,75.228L152.63,90.873L153.21,103.47L153.78,108.05L154.36,109.8L154.94,97.716L155.51,86.781L156.09,79.177L156.67,74.06L157.24,70.537L157.82,65.539L158.4,61.804L158.97,60.154L159.55,58.674L160.13,57.357L160.7,56.192L161.28,55.164L161.86,54.258L162.43,53.458L163.01,52.749L163.59,52.119L164.16,51.558L164.74,51.054L165.32,50.601L165.89,50.19L166.47,49.817L167.05,49.475L167.62,49.161L168.2,48.871L168.78,48.603L169.35,48.352L169.93,48.118L170.51,47.898L171.08,47.691L171.66,47.495L172.24,47.309L172.81,47.133L173.39,46.966L173.96,46.806L174.54,46.653L175.12,46.507L175.69,46.367L176.27,46.233L176.85,46.104L177.42,45.98L178,45.861L178.58,45.746L179.15,45.635L179.73,45.529L180.31,45.426L180.88,45.326L181.46,45.23L182.04,45.138L182.61,45.048L183.19,44.961L183.77,44.877L184.34,44.796L184.92,44.718L185.5,44.642L186.07,44.569L186.65,44.497L187.23,44.429L187.8,44.362L188.38,44.297L188.96,44.235L189.53,44.174L190.11,44.115L190.69,44.058L191.26,44.003L191.84,43.949L192.42,43.897L192.99,43.847L193.57,43.798L194.15,43.751L194.72,43.705L195.3,43.66L195.88,43.617L196.45,43.575L197.03,43.534L197.6,43.495L198.18,43.456L198.76,43.419L199.33,43.383L199.91,43.348L200.49,43.314L201.06,43.281L201.64,43.249L202.22,43.218L202.79,43.188L203.37,43.159L203.95,43.13L204.52,43.103L205.1,43.076L205.68,43.05L206.25,43.024L206.83,43L207.41,42.976L207.98,42.953L208.56,42.93L209.14,42.909L209.71,42.887L210.29,42.867L210.87,42.847L211.44,42.827L212.02,42.809L212.6,42.79L213.17,42.772L213.75,42.755L214.33,42.738L214.9,42.722L215.48,42.691L216.06,42.676L216.63,42.661L217.21,42.647L217.79,42.634L218.36,42.62L218.94,42.607L219.52,42.595L220.09,42.583L220.67,42.571L221.25,42.559L221.82,42.548L222.4,42.537L222.97,42.526L223.55,42.516L224.13,42.506L224.7,42.496L225.28,42.487L225.86,42.478L226.43,42.469L227.01,42.46L227.59,42.452L228.16,69.694L228.74,210.28L229.32,253.45L229.89,230.79L230.47,198.04L231.05,172.1L231.62,153.63L232.2,140.55L232.78,122.1L233.35,163.48L233.93,208.21L234.51,198.47L235.08,199.13L235.66,167.97L236.24,140.93L236.81,122.57L237.39,110.41L237.97,102.13L238.54,91.147L239.12,87.875L239.7,95.834L240.27,93.91L240.85,162.69L241.43,167.09L242,144.35L242.58,123.62L243.16,109.22L243.73,99.555L244.31,92.904L244.89,83.752L245.46,102.82L246.04,119.68L246.61,122.3L247.19,123.93L247.77,109.1L248.34,95.777L248.92,86.519L249.5,80.283L250.07,75.977L250.65,69.988L251.23,99.169L251.8,100.97L252.38,116.79L252.96,106.09L253.53,96.037L254.11,88.846L254.69,83.762L255.26,76.345L255.84,84.697L256.42,87.263L256.99,87.126L257.57,85.282L258.15,82.21L258.72,78.5L259.3,121.48L259.88,128.54L260.45,114.03L261.03,100.06L261.61,90.185L262.18,83.483L262.76,78.838L263.34,72.253L263.91,86.149L264.49,97.062L265.07,100.93L265.64,102.33L266.22,91.523L266.8,81.763L267.37,74.963L267.95,70.371L268.53,67.191L269.1,62.726L269.68,60.839L270.25,59.102L270.83,57.553L271.41,56.184L271.98,54.98L272.56,53.924L273.14,53.001L273.71,52.191L274.29,51.479L274.87,50.851L275.44,50.295L276.02,49.8L276.6,49.357L277.17,48.959L277.75,48.6L278.33,48.273L278.9,47.975L279.48,47.701L280.06,47.449L280.63,47.215L281.21,46.998L281.79,59.107L282.36,63.359L282.94,65.269L283.52,66.099L284.09,66.322L284.67,140.08L285.25,145.59L285.82,127.67L286.4,110.84L286.98,99.065L287.55,91.163L288.13,85.756L288.71,77.95L289.28,94.829L289.86,107.42L290.44,113.86L291.01,115.78L291.59,102.58L292.17,90.637L292.74,82.344L293.32,76.775L293.89,72.947L294.47,67.513L295.05,65.318L295.62,63.276L296.2,61.448L296.78,59.826L297.35,58.396L297.93,57.14L298.51,66.339L299.08,67.26L299.66,66.756L300.24,65.872L300.81,64.872L301.39,63.855L301.97,62.867L302.54,61.931L303.12,61.051L303.7,60.229L304.27,59.461L304.85,58.744L305.43,58.073L306,57.443L306.58,56.85L307.16,56.292L307.73,55.764L308.31,55.263L308.89,54.788L309.46,54.336L310.04,88.919L310.62,91.042L311.19,82.495L311.77,74.631L312.35,69.16L312.92,65.493L313.5,62.984L314.08,59.289L314.65,67.364L315.23,73.172L315.81,76.946L316.38,78.077L316.96,71.767L317.54,66.019L318.11,62.018L318.69,59.329L319.26,57.48L319.84,54.78L320.42,53.652L320.99,67.363L321.57,69.048L322.15,68.534L322.72,67.379L323.3,66.019L323.88,64.633L324.45,63.305L325.03,62.071L325.61,60.941L326.18,59.913L326.76,58.98L327.34,58.132L327.91,57.36L328.49,56.655L329.07,56.007L329.64,55.41L330.22,54.342L330.8,53.861L331.37,53.411L331.95,52.987L332.53,52.587L333.1,52.208L333.68,51.849L334.26,51.508L334.83,51.183L335.41,50.873L335.99,50.577L336.56,50.293L337.14,50.022L337.72,49.761L338.29,49.511L338.87,49.272L339.45,49.041L340.02,48.819L340.6,48.606L341.18,48.401L341.75,48.203L342.33,48.013L342.9,47.829L343.48,47.653L344.06,47.482L344.63,47.318L345.21,47.159L345.79,47.007L346.36,46.859L346.94,46.717L347.52,46.579L348.09,46.447L348.67,46.319L349.25,46.195L349.82,46.076L350.4,45.96L350.98,45.849L351.55,45.741L352.13,45.637L352.71,45.536L353.28,45.439L353.86,45.345L354.44,45.254L355.01,45.166L355.59,45.081L356.17,44.999L356.74,44.92L357.32,44.843L357.9,44.768L358.47,44.696L359.05,44.627L359.63,44.559L360.2,44.494L360.78,44.431L361.36,44.37L361.93,44.311L362.51,44.253L363.09,44.198L363.66,44.144L364.24,44.092L364.82,44.042L365.39,43.993L365.97,43.946L366.54,43.9L367.12,43.856L367.7,43.813L368.27,43.771L368.85,43.731L369.43,43.692L370,43.654L370.58,43.617L371.16,43.582L371.73,43.547L372.31,43.514L372.89,43.482L373.46,43.45L374.04,43.42L374.62,43.39L375.19,43.362L375.77,43.334L376.35,43.307L376.92,43.281L377.5,43.256L378.08,43.232L378.65,43.208L379.23,43.185L379.81,43.162L380.38,43.141L380.96,43.12L381.54,43.099L382.11,43.08L382.69,43.06L383.27,43.042L383.84,43.024L384.42,43.006L385,42.989L385.57,42.973L386.15,42.957L386.73,42.941L387.3,42.912L387.88,42.897L388.46,42.884L389.03,42.87L389.61,42.857L390.19,42.845L390.76,42.833L391.34,42.821L391.91,42.809L392.49,42.798L393.07,42.787L393.64,42.777L394.22,42.767L394.8,42.757L395.37,42.747L395.95,42.738L396.53,42.729L397.1,42.72L397.68,42.711L398.26,42.703L398.83,65.867L399.41,77.978L399.99,84.792L400.56,220.62L401.14,238.25L401.72,205.91L402.29,173.11L402.87,149.66L403.45,133.8L404.02,122.92L404.6,107.9L405.18,140.99L405.75,175.01L406.33,171.08L406.91,172.55L407.48,147.54L408.06,125.54L408.64,110.48L409.21,100.47L409.79,106.21L410.37,96.53L410.94,157.29L411.52,160.99L412.1,139.28L412.67,119.6L413.25,105.94L413.83,96.77L414.4,90.463L414.98,81.78L415.55,88.317L416.13,89.902L416.71,88.929L417.28,86.457L417.86,83.193L418.44,79.656L419.01,87.455L419.59,85.272L420.17,81.937L420.74,78.589L421.32,75.482L421.9,72.682L422.47,70.196L423.05,68.004L423.63,111.36L424.2,114.03L424.78,101.3L425.36,89.656L425.93,81.535L426.51,76.07L427.09,72.307L427.66,66.939L428.24,78.337L428.82,87.341L429.39,90.996L429.97,92.315L430.55,106.23L431.12,97.193L431.7,88.651L432.28,82.526L432.85,78.194L433.43,71.781L434.01,69.439L434.58,67.146L435.16,65.038L435.74,63.132L436.31,61.429L436.89,59.918L437.47,58.583L438.04,89.733L438.62,91.58L439.19,82.863L439.77,74.884L440.35,69.321L440.92,65.574L441.5,62.992L442.08,59.274L442.65,86.093L443.23,101.93L443.81,111.6L444.38,114.81L444.96,102.2L445.54,90.471L446.11,82.24L446.69,76.68L447.27,72.841L447.84,67.348L448.42,65.118L449,63.041L449.57,61.181L450.15,59.532L450.73,58.079L451.3,56.804L451.88,55.686L452.46,54.706L453.03,53.843L453.61,53.082L454.19,52.407L454.76,51.806L455.34,51.268L455.92,50.783L456.49,50.345L457.07,49.947L457.65,49.582L458.22,49.247L458.8,48.938L459.38,68.405L459.95,69.584L460.53,64.765L461.11,88.197L461.68,87.715L462.26,84.469L462.83,81.401L463.41,75.003L463.99,92.039L464.56,104.42L465.14,111.77L465.72,114L466.29,101.16L466.87,89.489L467.45,81.385L468.02,75.947L468.6,72.214L469.18,66.869L469.75,64.682L470.33,62.658L470.91,60.854L471.48,59.259L472.06,57.856L472.64,56.627L473.21,55.552L473.79,54.608L474.37,53.78L474.94,53.049L475.52,52.401L476.1,51.825L476.67,51.31L477.25,50.846L477.83,50.426L478.4,50.045L478.98,49.696L479.56,49.376L480.13,49.08L480.71,48.805L481.29,58.612L481.86,61.741L482.44,63.019L483.02,63.486L483.59,63.509L484.17,63.276L484.75,126.34L485.32,130.64L485.9,115.21L486.48,100.86L487.05,90.85L487.63,84.145L488.2,79.562L488.78,72.898L489.36,87.355L489.93,97.865L490.51,104.03L491.09,105.83L491.66,94.509L492.24,84.241L492.82,77.105L493.39,72.311L493.97,69.018L494.55,64.295L495.12,62.349L495.7,60.556L496.28,58.957L496.85,57.544L497.43,56.301L498.01,55.212L498.58,54.259L499.16,53.423L499.74,52.688L500.31,52.041L500.89,51.468L501.47,50.958L502.04,50.092L502.62,49.722L503.2,49.386L503.77,49.079L504.35,48.796L504.93,48.536L505.5,48.295L506.08,48.07L506.66,47.86L507.23,47.662L507.81,47.477L508.39,47.301L508.96,47.135L509.54,46.977L510.12,46.826L510.69,46.683L511.27,46.545L511.84,46.414L512.42,46.288L513,46.168L513.57,46.052L514.15,45.94L514.73,45.833L515.3,45.729L515.88,45.629L516.46,45.533L517.03,45.44L517.61,45.35L518.19,45.264L518.76,45.18L519.34,45.099L519.92,45.021L520.49,44.945L521.07,44.872L521.65,44.801L522.22,44.732L522.8,44.666L523.38,44.601L523.95,44.539L524.53,44.479L525.11,44.42L525.68,44.363L526.26,44.308L526.84,44.255L527.41,44.203L527.99,44.153L528.57,44.105L529.14,44.058L529.72,44.012L530.3,43.968L530.87,43.925L531.45,43.883L532.03,43.843L532.6,43.803L533.18,43.765L533.76,43.729L534.33,43.693L534.91,43.658L535.48,43.624L536.06,43.592L536.64,43.56L537.21,43.529L537.79,43.499L538.37,43.47L538.94,43.442L539.52,43.415L540.1,43.388L540.67,43.363L541.25,43.338L541.83,43.313L542.4,43.29L542.98,43.267L543.56,43.245L544.13,43.223L544.71,43.202L545.29,43.182L545.86,43.162L546.44,43.143L547.02,43.125L547.59,43.107L548.17,43.089L548.75,43.072L549.32,43.056L549.9,43.04L550.48,43.024L551.05,43.009L551.63,42.994L552.21,42.98L552.78,42.966L553.36,42.953L553.94,42.94L554.51,42.927L555.09,42.915L555.67,42.903L556.24,42.892L556.82,42.88L557.4,42.869L557.97,42.859L558.55,42.849L559.12,42.839" style="fill:none;stroke:#A52A2A" />
<path d="M539.12,370.69L559.12,370.69" style="fill:none;stroke:#FA8072" />
<text x="520.45" y="-367.86" transform="scale(1, -1)"
	style="font-family:Liberation Sans;font-variant:normal;font-weight:normal;font-style:normal;font-size:12px">Ca</text>
<path d="M539.12,360.22L559.12,360.22" style="fill:none;stroke:#A52A2A" />
<text x="489.1" y="-357.39" transform="scale(1, -1)"
	style="font-family:Liberation Sans;font-variant:normal;font-weight:normal;font-style:normal;font-size:12px">PSD_Ca</text>
</g>
</svg>
