<?xml version="1.0"?>
<!-- Generated by SVGo and Plotinum VG -->
<svg width="560.62pt" height="265.88pt" viewBox="0 0 560.62 265.88"
	xmlns="http://www.w3.org/2000/svg"
	xmlns:xlink="http://www.w3.org/1999/xlink">
<g transform="scale(1, -1) translate(0, -265.88)">
<text x="235.29" y="-256.15" transform="scale(1, -1)"
	style="font-family:Liberation Sans;font-variant:normal;font-weight:normal;font-style:normal;font-size:12px">Kinase Time Plot</text>
<text x="293.2" y="-3.6797" transform="scale(1, -1)"
	style="font-family:Liberation Sans;font-variant:normal;font-weight:normal;font-style:normal;font-size:12px">Time</text>
<text x="93.128" y="-16.473" transform="scale(1, -1)"
	style="font-family:Liberation Sans;font-variant:normal;font-weight:normal;font-style:normal;font-size:10px">0.32</text>
<text x="299.36" y="-16.473" transform="scale(1, -1)"
	style="font-family:Liberation Sans;font-variant:normal;font-weight:normal;font-style:normal;font-size:10px">0.4</text>
<text x="500.03" y="-16.473" transform="scale(1, -1)"
	style="font-family:Liberation Sans;font-variant:normal;font-weight:normal;font-style:normal;font-size:10px">0.48</text>
<path d="M102.86,24.578L102.86,32.578" style="fill:none;stroke:#000000;stroke-width:0.5" />
<path d="M306.31,24.578L306.31,32.578" style="fill:none;stroke:#000000;stroke-width:0.5" />
<path d="M509.76,24.578L509.76,32.578" style="fill:none;stroke:#000000;stroke-width:0.5" />
<path d="M204.58,28.578L204.58,32.578" style="fill:none;stroke:#000000;stroke-width:0.5" />
<path d="M408.04,28.578L408.04,32.578" style="fill:none;stroke:#000000;stroke-width:0.5" />
<path d="M51.996,32.578L560.62,32.578" style="fill:none;stroke:#000000;stroke-width:0.5" />
<g transform="rotate(90)">
<text x="128.62" y="9.7266" transform="scale(1, -1)"
	style="font-family:Liberation Sans;font-variant:normal;font-weight:normal;font-style:normal;font-size:12px">Spike</text>
</g>
<text x="15.949" y="-37.852" transform="scale(1, -1)"
	style="font-family:Liberation Sans;font-variant:normal;font-weight:normal;font-style:normal;font-size:10px">0.00</text>
<text x="15.949" y="-141.11" transform="scale(1, -1)"
	style="font-family:Liberation Sans;font-variant:normal;font-weight:normal;font-style:normal;font-size:10px">2.50</text>
<text x="15.949" y="-244.36" transform="scale(1, -1)"
	style="font-family:Liberation Sans;font-variant:normal;font-weight:normal;font-style:normal;font-size:10px">5.00</text>
<path d="M38.19,40.371L46.19,40.371" style="fill:none;stroke:#000000;stroke-width:0.5" />
<path d="M38.19,143.63L46.19,143.63" style="fill:none;stroke:#000000;stroke-width:0.5" />
<path d="M38.19,246.88L46.19,246.88" style="fill:none;stroke:#000000;stroke-width:0.5" />
<path d="M42.19,61.022L46.19,61.022" style="fill:none;stroke:#000000;stroke-width:0.5" />
<path d="M42.19,81.673L46.19,81.673" style="fill:none;stroke:#000000;stroke-width:0.5" />
<path d="M42.19,102.32L46.19,102.32" style="fill:none;stroke:#000000;stroke-width:0.5" />
<path d="M42.19,122.98L46.19,122.98" style="fill:none;stroke:#000000;stroke-width:0.5" />
<path d="M42.19,164.28L46.19,164.28" style="fill:none;stroke:#000000;stroke-width:0.5" />
<path d="M42.19,184.93L46.19,184.93" style="fill:none;stroke:#000000;stroke-width:0.5" />
<path d="M42.19,205.58L46.19,205.58" style="fill:none;stroke:#000000;stroke-width:0.5" />
<path d="M42.19,226.23L46.19,226.23" style="fill:none;stroke:#000000;stroke-width:0.5" />
<path d="M46.19,40.371L46.19,246.88" style="fill:none;stroke:#000000;stroke-width:0.5" />
<path d="M54.539,40.371L57.082,40.371L59.625,40.371L62.169,40.371L64.712,40.371L67.255,40.371L69.798,40.371L72.341,40.371L74.884,40.371L77.428,40.371L79.971,40.371L82.514,40.371L85.057,40.371L87.6,40.371L90.143,81.673L92.686,40.371L95.23,40.371L97.773,40.371L100.32,40.371L102.86,40.371L105.4,40.371L107.95,40.371L110.49,40.371L113.03,40.371L115.57,81.673L118.12,40.371L120.66,40.371L123.2,40.371L125.75,40.371L128.29,40.371L130.83,40.371L133.38,40.371L135.92,81.673L138.46,40.371L141.01,40.371L143.55,40.371L146.09,40.371L148.64,40.371L151.18,40.371L153.72,40.371L156.26,40.371L158.81,40.371L161.35,81.673L163.89,40.371L166.44,40.371L168.98,40.371L171.52,40.371L174.07,40.371L176.61,40.371L179.15,40.371L181.7,81.673L184.24,40.371L186.78,40.371L189.33,40.371L191.87,40.371L194.41,40.371L196.96,40.371L199.5,40.371L202.04,40.371L204.58,40.371L207.13,81.673L209.67,40.371L212.21,40.371L214.76,40.371L217.3,40.371L219.84,40.371L222.39,40.371L224.93,40.371L227.47,40.371L230.02,40.371L232.56,40.371L235.1,40.371L237.65,40.371L240.19,40.371L242.73,40.371L245.28,40.371L247.82,40.371L250.36,40.371L252.9,81.673L255.45,40.371L257.99,40.371L260.53,40.371L263.08,40.371L265.62,40.371L268.16,40.371L270.71,40.371L273.25,40.371L275.79,40.371L278.34,81.673L280.88,40.371L283.42,40.371L285.97,40.371L288.51,40.371L291.05,40.371L293.59,40.371L296.14,40.371L298.68,40.371L301.22,40.371L303.77,40.371L306.31,40.371L308.85,40.371L311.4,40.371L313.94,40.371L316.48,40.371L319.03,40.371L321.57,40.371L324.11,40.371L326.66,40.371L329.2,40.371L331.74,40.371L334.29,40.371L336.83,40.371L339.37,40.371L341.91,40.371L344.46,40.371L347,40.371L349.54,40.371L352.09,40.371L354.63,40.371L357.17,40.371L359.72,40.371L362.26,40.371L364.8,81.673L367.35,40.371L369.89,40.371L372.43,40.371L374.98,40.371L377.52,40.371L380.06,40.371L382.6,40.371L385.15,40.371L387.69,40.371L390.23,81.673L392.78,40.371L395.32,40.371L397.86,40.371L400.41,40.371L402.95,40.371L405.49,40.371L408.04,40.371L410.58,40.371L413.12,40.371L415.67,40.371L418.21,40.371L420.75,40.371L423.3,40.371L425.84,40.371L428.38,40.371L430.92,40.371L433.47,40.371L436.01,40.371L438.55,40.371L441.1,40.371L443.64,40.371L446.18,40.371L448.73,40.371L451.27,40.371L453.81,40.371L456.36,40.371L458.9,40.371L461.44,40.371L463.99,40.371L466.53,40.371L469.07,40.371L471.61,40.371L474.16,40.371L476.7,40.371L479.24,40.371L481.79,40.371L484.33,81.673L486.87,40.371L489.42,40.371L491.96,40.371L494.5,40.371L497.05,40.371L499.59,40.371L502.13,40.371L504.68,40.371L507.22,40.371L509.76,81.673L512.31,40.371L514.85,40.371L517.39,40.371L519.93,40.371L522.48,40.371L525.02,40.371L527.56,40.371L530.11,40.371L532.65,40.371L535.19,40.371L537.74,40.371L540.28,40.371L542.82,40.371L545.37,40.371L547.91,40.371L550.45,40.371L553,40.371L555.54,40.371L558.08,40.371L560.62,40.371" style="fill:none;stroke:#800080" />
<path d="M54.539,40.395L57.082,40.393L59.625,40.392L62.169,40.391L64.712,40.389L67.255,40.388L69.798,40.387L72.341,40.386L74.884,40.385L77.428,40.384L79.971,40.383L82.514,40.382L85.057,40.382L87.6,40.381L90.143,95.45L92.686,91.778L95.23,88.351L97.773,85.152L100.32,82.167L102.86,79.381L105.4,76.78L107.95,74.353L110.49,72.087L113.03,69.973L115.57,123.07L118.12,117.56L120.66,112.41L123.2,107.61L125.75,103.13L128.29,98.942L130.83,95.037L133.38,146.46L135.92,194.46L138.46,184.19L141.01,174.6L143.55,165.65L146.09,157.3L148.64,149.5L151.18,142.23L153.72,135.44L156.26,129.1L158.81,123.18L161.35,172.73L163.89,163.91L166.44,155.67L168.98,147.99L171.52,140.81L174.07,134.12L176.61,182.94L179.15,173.43L181.7,219.63L184.24,207.68L186.78,196.53L189.33,186.12L191.87,176.4L194.41,167.33L196.96,158.87L199.5,150.97L202.04,143.59L204.58,136.71L207.13,185.36L209.67,175.69L212.21,166.67L214.76,158.25L217.3,150.39L219.84,143.06L222.39,136.21L224.93,184.89L227.47,175.26L230.02,166.27L232.56,157.87L235.1,150.04L237.65,142.73L240.19,135.9L242.73,129.54L245.28,123.59L247.82,118.04L250.36,112.87L252.9,163.1L255.45,154.92L257.99,147.28L260.53,140.16L263.08,133.5L265.62,127.29L268.16,121.5L270.71,116.09L273.25,111.04L275.79,106.33L278.34,157L280.88,149.23L283.42,141.97L285.97,135.2L288.51,128.88L291.05,122.98L293.59,117.47L296.14,112.33L298.68,107.53L301.22,103.05L303.77,98.876L306.31,94.975L308.85,91.335L311.4,87.937L313.94,84.766L316.48,81.807L319.03,79.044L321.57,76.466L324.11,74.06L326.66,71.814L329.2,69.718L331.74,67.761L334.29,65.935L336.83,64.231L339.37,62.64L341.91,61.156L344.46,59.77L347,58.477L349.54,57.27L352.09,56.143L354.63,55.092L357.17,54.11L359.72,53.194L362.26,52.339L364.8,106.61L367.35,102.2L369.89,98.074L372.43,94.227L374.98,90.637L377.52,87.285L380.06,84.158L382.6,81.239L385.15,78.514L387.69,75.971L390.23,128.67L392.78,122.78L395.32,117.29L397.86,112.16L400.41,107.37L402.95,102.91L405.49,98.738L408.04,94.847L410.58,91.215L413.12,87.825L415.67,84.662L418.21,81.709L420.75,78.953L423.3,76.381L425.84,73.98L428.38,71.74L430.92,69.649L433.47,67.697L436.01,65.875L438.55,64.175L441.1,62.588L443.64,61.107L446.18,59.724L448.73,58.434L451.27,57.23L453.81,56.106L456.36,55.057L458.9,54.078L461.44,108.23L463.99,103.71L466.53,99.487L469.07,95.546L471.61,91.868L474.16,88.435L476.7,85.23L479.24,82.24L481.79,79.449L484.33,131.91L486.87,125.81L489.42,120.11L491.96,114.8L494.5,109.84L497.05,105.21L499.59,100.88L502.13,96.849L504.68,93.084L507.22,89.57L509.76,141.36L512.31,134.63L514.85,128.34L517.39,122.48L519.93,117L522.48,111.9L525.02,107.13L527.56,102.68L530.11,98.523L532.65,94.646L535.19,91.028L537.74,87.651L540.28,84.499L542.82,81.557L545.37,78.811L547.91,76.249L550.45,73.857L553,69.541L555.54,67.596L558.08,65.781L560.62,64.087" style="fill:none;stroke:#FFC0CB" />
<path d="M54.539,40.371L57.082,40.371L59.625,40.371L62.169,40.371L64.712,40.371L67.255,40.371L69.798,40.371L72.341,40.371L74.884,40.371L77.428,40.371L79.971,40.371L82.514,40.371L85.057,40.371L87.6,40.371L90.143,81.673L92.686,40.371L95.23,40.371L97.773,40.371L100.32,40.371L102.86,40.371L105.4,40.371L107.95,40.371L110.49,40.371L113.03,40.371L115.57,40.371L118.12,40.371L120.66,40.371L123.2,40.371L125.75,40.371L128.29,40.371L130.83,40.371L133.38,81.673L135.92,40.371L138.46,40.371L141.01,40.371L143.55,40.371L146.09,40.371L148.64,40.371L151.18,40.371L153.72,40.371L156.26,40.371L158.81,40.371L161.35,40.371L163.89,40.371L166.44,40.371L168.98,40.371L171.52,40.371L174.07,40.371L176.61,81.673L179.15,40.371L181.7,40.371L184.24,40.371L186.78,40.371L189.33,40.371L191.87,40.371L194.41,40.371L196.96,40.371L199.5,40.371L202.04,40.371L204.58,40.371L207.13,40.371L209.67,40.371L212.21,40.371L214.76,40.371L217.3,40.371L219.84,40.371L222.39,40.371L224.93,81.673L227.47,40.371L230.02,40.371L232.56,40.371L235.1,40.371L237.65,40.371L240.19,40.371L242.73,40.371L245.28,40.371L247.82,40.371L250.36,40.371L252.9,40.371L255.45,40.371L257.99,40.371L260.53,40.371L263.08,40.371L265.62,40.371L268.16,40.371L270.71,40.371L273.25,40.371L275.79,40.371L278.34,81.673L280.88,40.371L283.42,40.371L285.97,40.371L288.51,40.371L291.05,40.371L293.59,40.371L296.14,40.371L298.68,40.371L301.22,40.371L303.77,40.371L306.31,40.371L308.85,40.371L311.4,40.371L313.94,40.371L316.48,40.371L319.03,40.371L321.57,40.371L324.11,40.371L326.66,40.371L329.2,40.371L331.74,40.371L334.29,40.371L336.83,40.371L339.37,40.371L341.91,40.371L344.46,40.371L347,40.371L349.54,40.371L352.09,40.371L354.63,40.371L357.17,40.371L359.72,40.371L362.26,40.371L364.8,81.673L367.35,40.371L369.89,40.371L372.43,40.371L374.98,40.371L377.52,40.371L380.06,40.371L382.6,40.371L385.15,40.371L387.69,40.371L390.23,40.371L392.78,40.371L395.32,40.371L397.86,40.371L400.41,40.371L402.95,40.371L405.49,40.371L408.04,40.371L410.58,40.371L413.12,40.371L415.67,40.371L418.21,40.371L420.75,40.371L423.3,40.371L425.84,40.371L428.38,40.371L430.92,40.371L433.47,40.371L436.01,40.371L438.55,40.371L441.1,40.371L443.64,40.371L446.18,40.371L448.73,40.371L451.27,40.371L453.81,40.371L456.36,40.371L458.9,40.371L461.44,81.673L463.99,40.371L466.53,40.371L469.07,40.371L471.61,40.371L474.16,40.371L476.7,40.371L479.24,40.371L481.79,40.371L484.33,40.371L486.87,40.371L489.42,40.371L491.96,40.371L494.5,40.371L497.05,40.371L499.59,40.371L502.13,40.371L504.68,40.371L507.22,40.371L509.76,40.371L512.31,40.371L514.85,40.371L517.39,40.371L519.93,40.371L522.48,40.371L525.02,40.371L527.56,40.371L530.11,40.371L532.65,40.371L535.19,40.371L537.74,40.371L540.28,40.371L542.82,40.371L545.37,40.371L547.91,40.371L550.45,40.371L553,40.371L555.54,40.371L558.08,40.371L560.62,40.371" style="fill:none;stroke:#FA8072" />
<path d="M54.539,44.291L57.082,44.267L59.625,44.244L62.169,44.222L64.712,44.201L67.255,44.18L69.798,44.159L72.341,44.139L74.884,44.12L77.428,44.102L79.971,44.083L82.514,44.066L85.057,44.049L87.6,44.032L90.143,90.891L105.4,234.65L107.95,212.36L110.49,180.77L125.75,213.95L128.29,182.33L130.83,161.39L133.38,170.39L135.92,150.6L143.55,232.6L146.09,193.75L148.64,166.88L151.18,148.88L153.72,136.5L156.26,119.66L158.81,154.5L161.35,186.17L163.89,189.18L166.44,191.9L168.98,164.88L171.52,140.64L174.07,123.81L176.61,136.67L179.15,130.43L181.7,115.69L184.24,195.76L186.78,200.88L189.33,172.69L191.87,146.99L194.41,129.07L196.96,116.98L199.5,108.63L202.04,96.964L204.58,120.89L207.13,139.38L209.67,146.83L212.21,149.25L214.76,130.31L217.3,113.19L219.84,101.27L222.39,93.208L224.93,112.02L227.47,103.87L230.02,100.17L232.56,95.826L235.1,91.588L237.65,87.651L240.19,84.084L242.73,80.898L245.28,78.072L247.82,75.573L250.36,73.363L252.9,71.405L255.45,133.79L257.99,137.35L260.53,120.73L263.08,105.51L265.62,94.912L268.16,87.776L270.71,82.86L273.25,75.799L275.79,90.333L278.34,146.16L280.88,172.83L283.42,181.35L285.97,158.22L288.51,136.08L291.05,120.41L293.59,109.78L296.14,102.41L298.68,91.84L301.22,87.48L303.77,83.43L306.31,79.819L308.85,76.628L311.4,73.825L313.94,71.37L316.48,69.222L319.03,67.339L321.57,65.684L324.11,64.224L326.66,62.93L329.2,61.778L331.74,60.747L334.29,59.818L336.83,58.977L339.37,58.212L341.91,57.511L344.46,56.867L347,56.273L349.54,55.721L352.09,55.207L354.63,54.726L357.17,54.275L359.72,53.85L362.26,53.45L364.8,72.981L367.35,199.13L369.89,222.52L372.43,198.11L374.98,170.71L377.52,150.35L380.06,136.24L382.6,126.39L385.15,111.65L387.69,144.37L390.23,168.53L392.78,181.21L395.32,184.89L397.86,159.38L400.41,136.34L402.95,120.36L405.49,109.64L408.04,102.27L410.58,91.849L413.12,87.618L415.67,83.686L418.21,80.173L420.75,77.061L423.3,74.323L425.84,71.92L428.38,69.815L430.92,67.969L433.47,66.346L436.01,64.915L438.55,63.647L441.1,62.519L443.64,61.51L446.18,60.602L448.73,59.781L451.27,59.035L453.81,58.354L456.36,57.727L458.9,57.149L461.44,75.161L463.99,80.491L466.53,82.534L469.07,83.185L471.61,83.084L474.16,82.552L476.7,81.775L479.24,80.86L481.79,79.872L484.33,78.85L486.87,179.77L489.42,186.09L491.96,161L494.5,137.87L497.05,121.77L499.59,110.99L502.13,103.63L504.68,92.932L507.22,116.14L509.76,133.22L512.31,142.9L514.85,145.82L517.39,127.68L519.93,111.21L522.48,99.755L525.02,92.058L527.56,86.768L530.11,79.164L532.65,76.052L535.19,73.179L537.74,70.612L540.28,68.338L542.82,66.336L545.37,64.579L547.91,63.039L550.45,61.688L553,59.452L555.54,58.524L558.08,57.698L560.62,56.959" style="fill:none;stroke:#A52A2A" />
<path d="M540.62,244.69L560.62,244.69" style="fill:none;stroke:#800080" />
<text x="507.27" y="-241.86" transform="scale(1, -1)"
	style="font-family:Liberation Sans;font-variant:normal;font-weight:normal;font-style:normal;font-size:12px">Spike</text>
<path d="M540.62,234.22L560.62,234.22" style="fill:none;stroke:#FFC0CB" />
<text x="511.96" y="-231.39" transform="scale(1, -1)"
	style="font-family:Liberation Sans;font-variant:normal;font-weight:normal;font-style:normal;font-size:12px">CaM</text>
<path d="M540.62,223.75L560.62,223.75" style="fill:none;stroke:#FA8072" />
<text x="488.6" y="-220.92" transform="scale(1, -1)"
	style="font-family:Liberation Sans;font-variant:normal;font-weight:normal;font-style:normal;font-size:12px">PreSpike</text>
<path d="M540.62,213.28L560.62,213.28" style="fill:none;stroke:#A52A2A" />
<text x="490.6" y="-210.45" transform="scale(1, -1)"
	style="font-family:Liberation Sans;font-variant:normal;font-weight:normal;font-style:normal;font-size:12px">PSD_Ca</text>
</g>
</svg>
