<?xml version="1.0"?>
<!-- Generated by SVGo and Plotinum VG -->
<svg width="560.62pt" height="265.88pt" viewBox="0 0 560.62 265.88"
	xmlns="http://www.w3.org/2000/svg"
	xmlns:xlink="http://www.w3.org/1999/xlink">
<g transform="scale(1, -1) translate(0, -265.88)">
<text x="235.29" y="-256.15" transform="scale(1, -1)"
	style="font-family:Liberation Sans;font-variant:normal;font-weight:normal;font-style:normal;font-size:12px">Kinase Time Plot</text>
<text x="293.2" y="-3.6797" transform="scale(1, -1)"
	style="font-family:Liberation Sans;font-variant:normal;font-weight:normal;font-style:normal;font-size:12px">Time</text>
<text x="45.045" y="-16.473" transform="scale(1, -1)"
	style="font-family:Liberation Sans;font-variant:normal;font-weight:normal;font-style:normal;font-size:10px">0.0</text>
<text x="272.62" y="-16.473" transform="scale(1, -1)"
	style="font-family:Liberation Sans;font-variant:normal;font-weight:normal;font-style:normal;font-size:10px">0.4</text>
<text x="500.19" y="-16.473" transform="scale(1, -1)"
	style="font-family:Liberation Sans;font-variant:normal;font-weight:normal;font-style:normal;font-size:10px">0.8</text>
<path d="M51.996,24.578L51.996,32.578" style="fill:none;stroke:#000000;stroke-width:0.5" />
<path d="M279.57,24.578L279.57,32.578" style="fill:none;stroke:#000000;stroke-width:0.5" />
<path d="M507.15,24.578L507.15,32.578" style="fill:none;stroke:#000000;stroke-width:0.5" />
<path d="M108.89,28.578L108.89,32.578" style="fill:none;stroke:#000000;stroke-width:0.5" />
<path d="M165.78,28.578L165.78,32.578" style="fill:none;stroke:#000000;stroke-width:0.5" />
<path d="M222.68,28.578L222.68,32.578" style="fill:none;stroke:#000000;stroke-width:0.5" />
<path d="M336.46,28.578L336.46,32.578" style="fill:none;stroke:#000000;stroke-width:0.5" />
<path d="M393.36,28.578L393.36,32.578" style="fill:none;stroke:#000000;stroke-width:0.5" />
<path d="M450.25,28.578L450.25,32.578" style="fill:none;stroke:#000000;stroke-width:0.5" />
<path d="M51.996,32.578L560.62,32.578" style="fill:none;stroke:#000000;stroke-width:0.5" />
<g transform="rotate(90)">
<text x="131.62" y="9.7266" transform="scale(1, -1)"
	style="font-family:Liberation Sans;font-variant:normal;font-weight:normal;font-style:normal;font-size:12px">RCa</text>
</g>
<text x="15.949" y="-37.852" transform="scale(1, -1)"
	style="font-family:Liberation Sans;font-variant:normal;font-weight:normal;font-style:normal;font-size:10px">0.00</text>
<text x="15.949" y="-141.11" transform="scale(1, -1)"
	style="font-family:Liberation Sans;font-variant:normal;font-weight:normal;font-style:normal;font-size:10px">2.50</text>
<text x="15.949" y="-244.36" transform="scale(1, -1)"
	style="font-family:Liberation Sans;font-variant:normal;font-weight:normal;font-style:normal;font-size:10px">5.00</text>
<path d="M38.19,40.371L46.19,40.371" style="fill:none;stroke:#000000;stroke-width:0.5" />
<path d="M38.19,143.63L46.19,143.63" style="fill:none;stroke:#000000;stroke-width:0.5" />
<path d="M38.19,246.88L46.19,246.88" style="fill:none;stroke:#000000;stroke-width:0.5" />
<path d="M42.19,61.022L46.19,61.022" style="fill:none;stroke:#000000;stroke-width:0.5" />
<path d="M42.19,81.673L46.19,81.673" style="fill:none;stroke:#000000;stroke-width:0.5" />
<path d="M42.19,102.32L46.19,102.32" style="fill:none;stroke:#000000;stroke-width:0.5" />
<path d="M42.19,122.98L46.19,122.98" style="fill:none;stroke:#000000;stroke-width:0.5" />
<path d="M42.19,164.28L46.19,164.28" style="fill:none;stroke:#000000;stroke-width:0.5" />
<path d="M42.19,184.93L46.19,184.93" style="fill:none;stroke:#000000;stroke-width:0.5" />
<path d="M42.19,205.58L46.19,205.58" style="fill:none;stroke:#000000;stroke-width:0.5" />
<path d="M42.19,226.23L46.19,226.23" style="fill:none;stroke:#000000;stroke-width:0.5" />
<path d="M46.19,40.371L46.19,246.88" style="fill:none;stroke:#000000;stroke-width:0.5" />
<path d="M51.996,40.371L52.565,40.371L53.134,40.371L53.703,40.371L54.272,40.371L54.841,40.371L55.41,40.371L55.979,40.371L56.548,40.371L57.117,40.371L57.685,40.371L58.254,40.371L58.823,40.371L59.392,47.794L59.961,66.277L60.53,67.697L61.099,67.398L61.668,66.566L62.237,65.357L62.806,63.843L63.375,62.242L63.944,60.554L64.513,61.7L65.082,63.466L65.651,94.667L66.219,103.55L66.788,103.21L67.357,102.26L67.926,100.78L68.495,98.627L69.064,95.844L69.633,97.616L70.202,97.84L70.771,97.596L71.34,93.306L71.909,87.96L72.478,82.73L73.047,78.113L73.616,74.287L74.185,71.105L74.754,71.306L75.322,71.192L75.891,70.911L76.46,70.493L77.029,69.969L77.598,69.365L78.167,68.703L78.736,68L79.305,67.271L79.874,66.528L80.443,65.78L81.012,65.033L81.581,88.238L82.15,124.88L82.719,123.91L83.288,122.47L83.857,120.24L84.425,117.06L84.994,113.1L85.563,108.64L86.132,103.94L86.701,106.26L87.27,108.4L87.839,115.67L88.408,109.65L88.977,101.71L89.546,94.181L90.115,87.824L90.684,82.714L91.253,78.677L91.822,75.492L92.391,75.133L92.959,74.614L93.528,73.999L94.097,95.524L94.666,145.04L95.235,143.73L95.804,141.84L96.373,139.03L96.942,135.12L97.511,130.29L98.08,124.85L98.649,119.16L99.218,121.92L99.787,124.21L100.36,133.74L100.92,125.89L101.49,116.03L102.06,106.87L102.63,99.238L103.2,93.146L103.77,88.352L104.34,84.575L104.91,84.065L105.48,83.371L106.05,82.566L106.61,81.683L107.18,102.42L107.75,160.16L108.32,158.69L108.89,156.48L109.46,153.1L110.03,148.49L110.6,142.9L111.17,136.67L111.73,130.18L112.3,133.23L112.87,135.44L113.44,147.19L114.01,137.54L114.58,125.81L115.15,115.32L115.72,106.8L116.29,100.11L116.85,94.889L117.42,90.791L117.99,90.111L118.56,89.255L119.13,88.284L119.7,87.237L120.27,86.143L120.84,85.025L121.41,83.901L121.98,82.783L122.54,81.681L123.11,80.602L123.68,79.55L124.25,78.602L124.82,77.701L125.39,76.833L125.96,75.994L126.53,75.181L127.1,74.394L127.66,73.631L128.23,72.891L128.8,72.175L129.37,71.48L129.94,89.05L130.51,142.4L131.08,150.03L131.65,150.11L132.22,147.57L132.79,143.58L133.35,138.52L133.92,132.75L134.49,126.67L135.06,129.73L135.63,132L136.2,143.48L136.77,134.22L137.34,123.23L137.91,113.23L138.47,104.99L139.04,98.447L139.61,93.311L140.18,89.27L140.75,88.647L141.32,87.833L141.89,86.902L142.46,85.893L143.03,84.834L143.59,83.748L144.16,82.654L144.73,81.563L145.3,80.485L145.87,79.429L146.44,78.397L147.01,77.395L147.58,76.423L148.15,75.484L148.72,74.578L149.28,73.703L149.85,72.861L150.42,90.7L150.99,143.45L151.56,150.81L152.13,150.92L152.7,148.41L153.27,144.42L153.84,139.33L154.4,133.52L154.97,127.39L155.54,130.46L156.11,132.77L156.68,144.17L157.25,134.98L157.82,124.21L158.39,114.25L158.96,105.93L159.53,99.269L160.09,94.023L160.66,89.887L161.23,89.271L161.8,88.447L162.37,87.503L162.94,86.476L163.51,85.397L164.08,84.29L164.65,83.173L165.21,80.958L165.78,79.878L166.35,78.824L166.92,77.799L167.49,76.806L168.06,75.847L168.63,74.921L169.2,74.028L169.77,73.168L170.33,72.34L170.9,71.544L171.47,70.777L172.04,70.04L172.61,69.33L173.18,68.647L173.75,67.988L174.32,67.354L174.89,66.742L175.46,66.152L176.02,65.582L176.59,65.032L177.16,64.5L177.73,63.985L178.3,63.486L178.87,63.004L179.44,62.535L180.01,62.081L180.58,61.64L181.14,61.212L181.71,60.796L182.28,60.391L182.85,59.997L183.42,59.613L183.99,59.239L184.56,58.874L185.13,58.518L185.7,58.17L186.27,57.83L186.83,57.498L187.4,57.174L187.97,56.856L188.54,56.545L189.11,56.241L189.68,55.942L190.25,55.649L190.82,55.363L191.39,55.081L191.95,54.805L192.52,54.533L193.09,54.267L193.66,54.005L194.23,53.747L194.8,53.494L195.37,53.245L195.94,53L196.51,52.759L197.07,52.521L197.64,52.287L198.21,52.057L198.78,51.83L199.35,51.606L199.92,51.385L200.49,51.168L201.06,50.953L201.63,50.742L202.2,50.533L202.76,50.327L203.33,50.123L203.9,49.922L204.47,49.724L205.04,49.528L205.61,49.335L206.18,49.144L206.75,48.955L207.32,48.769L207.88,48.584L208.45,48.402L209.02,48.222L209.59,48.044L210.16,47.868L210.73,47.694L211.3,47.522L211.87,47.352L212.44,47.183L213.01,47.017L213.57,46.852L214.14,46.689L214.71,46.528L215.28,46.369L215.85,46.211L216.42,46.055L216.99,45.9L217.56,45.747L218.13,45.596L218.69,45.446L219.26,45.298L219.83,45.151L220.4,45.006L220.97,44.862L221.54,44.578L222.11,44.439L222.68,44.301L223.25,44.164L223.81,44.028L224.38,43.894L224.95,43.762L225.52,43.63L226.09,43.5L226.66,43.371L227.23,43.243L227.8,43.117L228.37,42.991L228.94,42.867L229.5,42.744L230.07,42.623L230.64,58.622L231.21,88.628L231.78,94.958L232.35,95.294L232.92,94.311L233.49,92.45L234.06,89.939L234.62,86.981L235.19,83.784L235.76,85.606L236.33,87.498L236.9,92.555L237.47,88.543L238.04,83.299L238.61,78.003L239.18,73.306L239.75,69.422L240.31,66.31L240.88,63.839L241.45,63.61L242.02,63.238L242.59,85.603L243.16,125.09L243.73,124.01L244.3,122.54L244.87,120.21L245.43,116.94L246,112.89L246.57,108.41L247.14,103.71L247.71,106L248.28,107.9L248.85,115.72L249.42,109.29L249.99,101.33L250.55,93.836L251.12,87.511L251.69,82.428L252.26,78.413L252.83,75.245L253.4,74.821L253.97,74.235L254.54,73.555L255.11,72.848L255.68,72.096L256.24,71.316L256.81,91.884L257.38,141.62L257.95,140.98L258.52,139.27L259.09,136.45L259.66,132.54L260.23,127.74L260.8,122.37L261.36,116.76L261.93,119.41L262.5,121.31L263.07,131.55L263.64,123.18L264.21,113.23L264.78,104.24L265.35,96.854L265.92,115.75L266.49,155.34L267.05,160.42L267.62,153.97L268.19,161.07L268.76,158.38L269.33,152.29L269.9,144.87L270.47,137.12L271.04,129.58L271.61,122.54L272.17,124.46L272.74,125.08L273.31,124.91L273.88,124.11L274.45,122.8L275.02,121.12L275.59,119.17L276.16,117.04L276.73,114.8L277.29,112.49L277.86,110.15L278.43,107.88L279,105.63L279.57,103.42L280.14,101.27L280.71,99.167L281.28,97.136L281.85,95.178L282.42,93.295L282.98,91.49L283.55,89.763L284.12,88.112L284.69,86.536L285.26,85.033L285.83,83.601L286.4,82.236L286.97,80.935L287.54,79.695L288.1,78.514L288.67,77.387L289.24,76.313L289.81,75.288L290.38,74.309L290.95,73.374L291.52,72.48L292.09,90.682L292.66,141.52L293.23,148.34L293.79,147.96L294.36,145.31L294.93,141.3L295.5,136.27L296.07,130.59L296.64,124.6L297.21,127.57L297.78,129.63L298.35,141.42L298.91,131.9L299.48,120.64L300.05,110.69L300.62,102.66L301.19,96.573L301.76,91.8L302.33,88.019L302.9,87.474L303.47,86.717L304.03,85.837L304.6,84.872L305.17,83.851L305.74,82.798L306.31,81.73L306.88,80.663L307.45,79.606L308.02,78.567L308.59,77.551L309.16,76.562L309.72,75.603L310.29,74.674L310.86,73.777L311.43,72.912L312,72.078L312.57,71.275L313.14,70.501L313.71,69.757L314.28,69.04L314.84,68.349L315.41,67.684L315.98,67.043L316.55,84.039L317.12,133.59L317.69,142.8L318.26,143.07L318.83,140.91L319.4,137.27L319.97,132.57L320.53,127.19L321.1,121.47L321.67,124.39L322.24,126.53L322.81,137.52L323.38,128.71L323.95,118.48L324.52,109.09L325.09,101.28L325.65,95.05L326.22,90.143L326.79,86.277L327.36,85.679L327.93,84.89L328.5,83.989L329.07,83.012L329.64,81.987L330.21,80.936L330.77,79.877L331.34,78.822L331.91,77.78L332.48,76.759L333.05,75.764L333.62,74.796L334.19,73.859L334.76,72.08L335.33,71.239L335.9,70.429L336.46,69.649L337.03,68.899L337.6,68.178L338.17,67.485L338.74,66.817L339.31,66.174L339.88,65.556L340.45,64.959L341.02,64.385L341.58,63.83L342.15,63.295L342.72,62.778L343.29,62.279L343.86,61.796L344.43,61.328L345,60.875L345.57,60.436L346.14,60.01L346.71,59.597L347.27,59.196L347.84,58.805L348.41,58.426L348.98,58.057L349.55,57.697L350.12,57.346L350.69,57.004L351.26,56.671L351.83,56.345L352.39,56.027L352.96,55.717L353.53,55.413L354.1,55.115L354.67,54.824L355.24,54.539L355.81,54.26L356.38,53.986L356.95,53.717L357.51,53.454L358.08,53.195L358.65,52.942L359.22,52.692L359.79,52.447L360.36,52.206L360.93,51.969L361.5,51.736L362.07,51.507L362.64,51.282L363.2,51.059L363.77,50.841L364.34,50.625L364.91,50.413L365.48,50.204L366.05,49.997L366.62,49.794L367.19,49.593L367.76,49.395L368.32,49.2L368.89,49.007L369.46,48.817L370.03,48.629L370.6,48.444L371.17,48.261L371.74,48.08L372.31,47.901L372.88,47.725L373.45,47.551L374.01,47.378L374.58,47.208L375.15,47.04L375.72,46.873L376.29,46.709L376.86,46.546L377.43,46.385L378,46.226L378.57,46.069L379.13,45.913L379.7,45.759L380.27,45.607L380.84,45.456L381.41,45.307L381.98,45.16L382.55,45.014L383.12,44.869L383.69,44.726L384.25,44.585L384.82,44.445L385.39,44.306L385.96,44.169L386.53,44.033L387.1,43.899L387.67,43.766L388.24,43.634L388.81,43.503L389.38,43.374L389.94,43.246L390.51,43.12L391.08,42.87L391.65,42.747L392.22,42.626L392.79,42.505L393.36,42.386L393.93,42.268L394.5,42.151L395.06,42.035L395.63,41.92L396.2,41.806L396.77,41.694L397.34,41.582L397.91,41.472L398.48,41.362L399.05,41.254L399.62,41.146L400.19,57.074L400.75,85.463L401.32,91.673L401.89,92.04L402.46,90.861L403.03,88.888L403.6,86.498L404.17,83.742L404.74,80.775L405.31,82.545L405.87,84.309L406.44,89.438L407.01,85.44L407.58,80.439L408.15,75.438L408.72,71.016L409.29,67.361L409.86,64.432L410.43,62.104L410.99,61.886L411.56,61.529L412.13,83.854L412.7,122.34L413.27,121.29L413.84,119.86L414.41,117.59L414.98,114.4L415.55,110.46L416.12,106.05L416.68,101.44L417.25,103.66L417.82,105.49L418.39,113.21L418.96,106.9L419.53,99.178L420.1,91.921L420.67,85.794L421.24,80.868L421.8,76.975L422.37,96.126L422.94,146.03L423.51,144.7L424.08,142.81L424.65,139.85L425.22,135.76L425.79,130.76L426.36,125.18L426.93,119.36L427.49,122.09L428.06,124.11L428.63,134.41L429.2,125.96L429.77,115.95L430.34,106.77L430.91,99.136L431.48,93.06L432.05,88.282L432.61,84.523L433.18,83.918L433.75,83.13L434.32,82.234L434.89,81.265L435.46,80.251L436.03,79.214L436.6,98.978L437.17,154.72L437.73,155.88L438.3,154.17L438.87,150.94L439.44,146.46L440.01,140.98L440.58,134.86L441.15,128.55L441.72,131.59L442.29,133.62L442.86,145.15L443.42,134.56L443.99,123.42L444.56,113.54L445.13,105.44L445.7,99.006L446.27,93.951L446.84,89.965L447.41,89.32L447.98,88.47L448.54,87.497L449.11,86.439L449.68,85.329L450.25,84.192L450.82,83.045L451.39,81.904L451.96,80.778L452.53,79.675L453.1,78.601L453.67,77.558L454.23,76.549L454.8,75.576L455.37,74.638L455.94,73.736L456.51,72.868L457.08,72.034L457.65,71.233L458.22,70.463L458.79,69.723L459.35,69.012L459.92,68.328L460.49,67.671L461.06,67.038L461.63,66.458L462.2,65.907L462.77,65.377L463.34,64.865L463.91,81.154L464.47,130.18L465.04,141.17L465.61,142.16L466.18,140.01L466.75,136.34L467.32,131.61L467.89,126.21L468.46,120.51L469.03,123.35L469.6,125.3L470.16,136.62L470.73,127.53L471.3,117.06L471.87,107.66L472.44,99.964L473.01,93.879L473.58,89.113L474.15,85.367L474.72,84.72L475.28,83.902L475.85,82.978L476.42,81.984L476.99,80.948L477.56,79.892L478.13,78.832L478.7,77.78L479.27,76.744L479.84,75.731L480.41,74.745L480.97,73.789L481.54,72.865L482.11,71.973L482.68,71.114L483.25,70.288L483.82,69.493L484.39,68.729L484.96,86.072L485.53,135.73L486.09,144.3L486.66,144.34L487.23,141.86L487.8,137.98L488.37,133.23L488.94,127.81L489.51,122.06L490.08,125L490.65,127.04L491.21,138.55L491.78,129.38L492.35,119L492.92,109.55L493.49,101.7L494.06,95.449L494.63,90.528L495.2,86.652L495.77,86.013L496.34,85.183L496.9,84.242L497.47,83.226L498.04,82.164L498.61,81.08L499.18,79.99L499.75,78.907L500.32,77.839L500.89,76.795L501.46,75.778L502.02,74.792L502.59,73.839L503.16,72.951L503.73,72.101L504.3,70.495L504.87,69.736L505.44,69.004L506.01,68.298L506.58,67.619L507.15,66.963L507.71,66.331L508.28,65.721L508.85,65.132L509.42,64.563L509.99,64.014L510.56,63.483L511.13,62.969L511.7,62.471L512.27,61.99L512.83,61.522L513.4,61.07L513.97,60.631L514.54,60.204L515.11,59.789L515.68,59.386L516.25,58.994L516.82,58.613L517.39,58.241L517.95,57.878L518.52,57.525L519.09,57.181L519.66,56.844L520.23,56.515L520.8,56.194L521.37,55.88L521.94,55.573L522.51,55.272L523.08,54.978L523.64,54.689L524.21,54.406L524.78,54.129L525.35,53.857L525.92,53.59L526.49,53.329L527.06,53.071L527.63,52.819L528.2,52.57L528.76,52.326L529.33,52.087L529.9,51.85L530.47,51.618L531.04,51.39L531.61,51.165L532.18,50.943L532.75,50.725L533.32,50.51L533.89,50.298L534.45,50.089L535.02,49.883L535.59,49.68L536.16,49.48L536.73,49.282L537.3,49.087L537.87,48.895L538.44,48.705L539.01,48.518L539.57,48.332L540.14,48.15L540.71,47.969L541.28,47.791L541.85,47.615L542.42,47.441L542.99,47.269L543.56,47.099L544.13,46.931L544.69,46.765L545.26,46.601L545.83,46.439L546.4,46.278L546.97,46.12L547.54,45.963L548.11,45.808L548.68,45.654L549.25,45.502L549.82,45.352L550.38,45.204L550.95,45.057L551.52,44.911L552.09,44.767L552.66,44.625L553.23,44.484L553.8,44.345L554.37,44.207L554.94,44.07L555.5,43.935L556.07,43.801L556.64,43.669L557.21,43.538L557.78,43.408L558.35,43.279L558.92,43.152L559.49,43.026L560.06,42.901L560.62,42.778" style="fill:none;stroke:#D2B48C" />
<path d="M51.996,40.371L52.565,40.371L53.134,40.371L53.703,40.371L54.272,40.371L54.841,40.371L55.41,40.371L55.979,40.371L56.548,40.371L57.117,40.371L57.685,40.371L58.254,40.371L58.823,40.371L59.392,40.371L59.961,40.371L60.53,40.371L61.099,40.371L61.668,40.371L62.237,81.673L62.806,40.371L63.375,40.371L63.944,40.371L64.513,40.371L65.082,40.371L65.651,40.371L66.219,40.371L66.788,40.371L67.357,40.371L67.926,40.371L68.495,40.371L69.064,40.371L69.633,40.371L70.202,40.371L70.771,40.371L71.34,40.371L71.909,40.371L72.478,81.673L73.047,40.371L73.616,40.371L74.185,40.371L74.754,40.371L75.322,40.371L75.891,40.371L76.46,40.371L77.029,40.371L77.598,40.371L78.167,40.371L78.736,40.371L79.305,40.371L79.874,40.371L80.443,40.371L81.012,40.371L81.581,40.371L82.15,40.371L82.719,81.673L83.288,40.371L83.857,40.371L84.425,40.371L84.994,40.371L85.563,40.371L86.132,40.371L86.701,40.371L87.27,40.371L87.839,40.371L88.408,40.371L88.977,40.371L89.546,40.371L90.115,40.371L90.684,40.371L91.253,40.371L91.822,40.371L92.391,40.371L92.959,40.371L93.528,40.371L94.097,40.371L94.666,40.371L95.235,81.673L95.804,40.371L96.373,40.371L96.942,40.371L97.511,40.371L98.08,40.371L98.649,40.371L99.218,40.371L99.787,40.371L100.36,40.371L100.92,40.371L101.49,40.371L102.06,40.371L102.63,40.371L103.2,40.371L103.77,40.371L104.34,40.371L104.91,40.371L105.48,40.371L106.05,40.371L106.61,40.371L107.18,40.371L107.75,40.371L108.32,40.371L108.89,40.371L109.46,40.371L110.03,40.371L110.6,40.371L111.17,40.371L111.73,40.371L112.3,40.371L112.87,40.371L113.44,40.371L114.01,40.371L114.58,40.371L115.15,40.371L115.72,40.371L116.29,40.371L116.85,40.371L117.42,40.371L117.99,40.371L118.56,40.371L119.13,40.371L119.7,40.371L120.27,40.371L120.84,40.371L121.41,40.371L121.98,40.371L122.54,40.371L123.11,81.673L123.68,40.371L124.25,40.371L124.82,40.371L125.39,40.371L125.96,40.371L126.53,40.371L127.1,40.371L127.66,40.371L128.23,40.371L128.8,40.371L129.37,40.371L129.94,40.371L130.51,40.371L131.08,40.371L131.65,40.371L132.22,40.371L132.79,40.371L133.35,40.371L133.92,40.371L134.49,40.371L135.06,40.371L135.63,40.371L136.2,40.371L136.77,40.371L137.34,40.371L137.91,40.371L138.47,40.371L139.04,40.371L139.61,40.371L140.18,40.371L140.75,40.371L141.32,40.371L141.89,40.371L142.46,40.371L143.03,40.371L143.59,40.371L144.16,40.371L144.73,40.371L145.3,40.371L145.87,40.371L146.44,40.371L147.01,40.371L147.58,40.371L148.15,40.371L148.72,40.371L149.28,40.371L149.85,40.371L150.42,81.673L150.99,40.371L151.56,40.371L152.13,40.371L152.7,40.371L153.27,40.371L153.84,40.371L154.4,40.371L154.97,40.371L155.54,40.371L156.11,40.371L156.68,40.371L157.25,40.371L157.82,40.371L158.39,40.371L158.96,40.371L159.53,40.371L160.09,40.371L160.66,40.371L161.23,40.371L161.8,40.371L162.37,40.371L162.94,40.371L163.51,40.371L164.08,40.371L164.65,40.371L165.21,40.371L165.78,40.371L166.35,40.371L166.92,40.371L167.49,40.371L168.06,40.371L168.63,40.371L169.2,40.371L169.77,40.371L170.33,40.371L170.9,40.371L171.47,40.371L172.04,40.371L172.61,40.371L173.18,40.371L173.75,40.371L174.32,40.371L174.89,40.371L175.46,40.371L176.02,40.371L176.59,40.371L177.16,40.371L177.73,40.371L178.3,40.371L178.87,40.371L179.44,40.371L180.01,40.371L180.58,40.371L181.14,40.371L181.71,40.371L182.28,40.371L182.85,40.371L183.42,40.371L183.99,40.371L184.56,40.371L185.13,40.371L185.7,40.371L186.27,40.371L186.83,40.371L187.4,40.371L187.97,40.371L188.54,40.371L189.11,40.371L189.68,40.371L190.25,40.371L190.82,40.371L191.39,40.371L191.95,40.371L192.52,40.371L193.09,40.371L193.66,40.371L194.23,40.371L194.8,40.371L195.37,40.371L195.94,40.371L196.51,40.371L197.07,40.371L197.64,40.371L198.21,40.371L198.78,40.371L199.35,40.371L199.92,40.371L200.49,40.371L201.06,40.371L201.63,40.371L202.2,40.371L202.76,40.371L203.33,40.371L203.9,40.371L204.47,40.371L205.04,40.371L205.61,40.371L206.18,40.371L206.75,40.371L207.32,40.371L207.88,40.371L208.45,40.371L209.02,40.371L209.59,40.371L210.16,40.371L210.73,40.371L211.3,40.371L211.87,40.371L212.44,40.371L213.01,40.371L213.57,40.371L214.14,40.371L214.71,40.371L215.28,40.371L215.85,40.371L216.42,40.371L216.99,40.371L217.56,40.371L218.13,40.371L218.69,40.371L219.26,40.371L219.83,40.371L220.4,40.371L220.97,40.371L221.54,40.371L222.11,40.371L222.68,40.371L223.25,40.371L223.81,40.371L224.38,40.371L224.95,40.371L225.52,40.371L226.09,40.371L226.66,40.371L227.23,40.371L227.8,40.371L228.37,40.371L228.94,40.371L229.5,40.371L230.07,40.371L230.64,40.371L231.21,40.371L231.78,81.673L232.35,40.371L232.92,40.371L233.49,40.371L234.06,40.371L234.62,40.371L235.19,40.371L235.76,40.371L236.33,40.371L236.9,40.371L237.47,40.371L238.04,40.371L238.61,40.371L239.18,40.371L239.75,40.371L240.31,40.371L240.88,40.371L241.45,40.371L242.02,40.371L242.59,40.371L243.16,40.371L243.73,40.371L244.3,40.371L244.87,40.371L245.43,81.673L246,40.371L246.57,40.371L247.14,40.371L247.71,40.371L248.28,40.371L248.85,40.371L249.42,40.371L249.99,40.371L250.55,40.371L251.12,40.371L251.69,40.371L252.26,40.371L252.83,40.371L253.4,40.371L253.97,81.673L254.54,40.371L255.11,40.371L255.68,40.371L256.24,40.371L256.81,40.371L257.38,40.371L257.95,40.371L258.52,40.371L259.09,40.371L259.66,40.371L260.23,40.371L260.8,40.371L261.36,40.371L261.93,40.371L262.5,40.371L263.07,40.371L263.64,40.371L264.21,40.371L264.78,40.371L265.35,40.371L265.92,81.673L266.49,40.371L267.05,40.371L267.62,40.371L268.19,40.371L268.76,40.371L269.33,40.371L269.9,40.371L270.47,40.371L271.04,40.371L271.61,40.371L272.17,40.371L272.74,40.371L273.31,40.371L273.88,40.371L274.45,40.371L275.02,40.371L275.59,40.371L276.16,40.371L276.73,40.371L277.29,81.673L277.86,40.371L278.43,40.371L279,40.371L279.57,40.371L280.14,40.371L280.71,40.371L281.28,40.371L281.85,40.371L282.42,40.371L282.98,40.371L283.55,40.371L284.12,40.371L284.69,40.371L285.26,40.371L285.83,40.371L286.4,40.371L286.97,40.371L287.54,40.371L288.1,40.371L288.67,40.371L289.24,40.371L289.81,40.371L290.38,40.371L290.95,40.371L291.52,40.371L292.09,40.371L292.66,40.371L293.23,40.371L293.79,40.371L294.36,40.371L294.93,40.371L295.5,40.371L296.07,40.371L296.64,40.371L297.21,40.371L297.78,40.371L298.35,40.371L298.91,40.371L299.48,40.371L300.05,81.673L300.62,40.371L301.19,40.371L301.76,40.371L302.33,40.371L302.9,40.371L303.47,40.371L304.03,40.371L304.6,40.371L305.17,40.371L305.74,40.371L306.31,40.371L306.88,40.371L307.45,40.371L308.02,40.371L308.59,40.371L309.16,40.371L309.72,40.371L310.29,40.371L310.86,40.371L311.43,40.371L312,40.371L312.57,40.371L313.14,40.371L313.71,40.371L314.28,40.371L314.84,40.371L315.41,40.371L315.98,40.371L316.55,40.371L317.12,40.371L317.69,81.673L318.26,40.371L318.83,40.371L319.4,40.371L319.97,40.371L320.53,40.371L321.1,40.371L321.67,40.371L322.24,40.371L322.81,40.371L323.38,40.371L323.95,40.371L324.52,40.371L325.09,40.371L325.65,40.371L326.22,40.371L326.79,40.371L327.36,40.371L327.93,40.371L328.5,40.371L329.07,40.371L329.64,40.371L330.21,40.371L330.77,40.371L331.34,40.371L331.91,40.371L332.48,40.371L333.05,40.371L333.62,40.371L334.19,40.371L334.76,40.371L335.33,40.371L335.9,40.371L336.46,40.371L337.03,40.371L337.6,40.371L338.17,40.371L338.74,40.371L339.31,40.371L339.88,40.371L340.45,40.371L341.02,40.371L341.58,40.371L342.15,40.371L342.72,40.371L343.29,40.371L343.86,40.371L344.43,40.371L345,40.371L345.57,40.371L346.14,40.371L346.71,40.371L347.27,40.371L347.84,40.371L348.41,40.371L348.98,40.371L349.55,40.371L350.12,40.371L350.69,40.371L351.26,40.371L351.83,40.371L352.39,40.371L352.96,40.371L353.53,40.371L354.1,40.371L354.67,40.371L355.24,40.371L355.81,40.371L356.38,40.371L356.95,40.371L357.51,40.371L358.08,40.371L358.65,40.371L359.22,40.371L359.79,40.371L360.36,40.371L360.93,40.371L361.5,40.371L362.07,40.371L362.64,40.371L363.2,40.371L363.77,40.371L364.34,40.371L364.91,40.371L365.48,40.371L366.05,40.371L366.62,40.371L367.19,40.371L367.76,40.371L368.32,40.371L368.89,40.371L369.46,40.371L370.03,40.371L370.6,40.371L371.17,40.371L371.74,40.371L372.31,40.371L372.88,40.371L373.45,40.371L374.01,40.371L374.58,40.371L375.15,40.371L375.72,40.371L376.29,40.371L376.86,40.371L377.43,40.371L378,40.371L378.57,40.371L379.13,40.371L379.7,40.371L380.27,40.371L380.84,40.371L381.41,40.371L381.98,40.371L382.55,40.371L383.12,40.371L383.69,40.371L384.25,40.371L384.82,40.371L385.39,40.371L385.96,40.371L386.53,40.371L387.1,40.371L387.67,40.371L388.24,40.371L388.81,40.371L389.38,40.371L389.94,40.371L390.51,40.371L391.08,40.371L391.65,40.371L392.22,40.371L392.79,40.371L393.36,40.371L393.93,40.371L394.5,40.371L395.06,40.371L395.63,40.371L396.2,40.371L396.77,40.371L397.34,40.371L397.91,40.371L398.48,40.371L399.05,40.371L399.62,40.371L400.19,40.371L400.75,40.371L401.32,40.371L401.89,40.371L402.46,81.673L403.03,40.371L403.6,40.371L404.17,40.371L404.74,40.371L405.31,40.371L405.87,40.371L406.44,40.371L407.01,40.371L407.58,40.371L408.15,40.371L408.72,40.371L409.29,40.371L409.86,40.371L410.43,40.371L410.99,40.371L411.56,40.371L412.13,40.371L412.7,40.371L413.27,40.371L413.84,40.371L414.41,40.371L414.98,40.371L415.55,40.371L416.12,81.673L416.68,40.371L417.25,40.371L417.82,40.371L418.39,40.371L418.96,40.371L419.53,40.371L420.1,40.371L420.67,40.371L421.24,40.371L421.8,40.371L422.37,40.371L422.94,40.371L423.51,40.371L424.08,40.371L424.65,40.371L425.22,40.371L425.79,40.371L426.36,81.673L426.93,40.371L427.49,40.371L428.06,40.371L428.63,40.371L429.2,40.371L429.77,40.371L430.34,40.371L430.91,40.371L431.48,40.371L432.05,40.371L432.61,40.371L433.18,40.371L433.75,40.371L434.32,40.371L434.89,40.371L435.46,40.371L436.03,40.371L436.6,40.371L437.17,40.371L437.73,40.371L438.3,40.371L438.87,40.371L439.44,40.371L440.01,81.673L440.58,40.371L441.15,40.371L441.72,40.371L442.29,40.371L442.86,40.371L443.42,40.371L443.99,40.371L444.56,40.371L445.13,40.371L445.7,40.371L446.27,81.673L446.84,40.371L447.41,40.371L447.98,40.371L448.54,40.371L449.11,40.371L449.68,40.371L450.25,40.371L450.82,40.371L451.39,40.371L451.96,40.371L452.53,40.371L453.1,40.371L453.67,40.371L454.23,40.371L454.8,40.371L455.37,40.371L455.94,40.371L456.51,40.371L457.08,40.371L457.65,40.371L458.22,40.371L458.79,40.371L459.35,40.371L459.92,40.371L460.49,81.673L461.06,40.371L461.63,40.371L462.2,40.371L462.77,40.371L463.34,40.371L463.91,40.371L464.47,40.371L465.04,40.371L465.61,40.371L466.18,40.371L466.75,40.371L467.32,40.371L467.89,40.371L468.46,40.371L469.03,40.371L469.6,40.371L470.16,40.371L470.73,40.371L471.3,40.371L471.87,40.371L472.44,40.371L473.01,40.371L473.58,40.371L474.15,40.371L474.72,40.371L475.28,40.371L475.85,40.371L476.42,40.371L476.99,40.371L477.56,40.371L478.13,40.371L478.7,40.371L479.27,40.371L479.84,40.371L480.41,40.371L480.97,40.371L481.54,40.371L482.11,40.371L482.68,40.371L483.25,40.371L483.82,40.371L484.39,40.371L484.96,40.371L485.53,40.371L486.09,40.371L486.66,40.371L487.23,81.673L487.8,40.371L488.37,40.371L488.94,40.371L489.51,40.371L490.08,40.371L490.65,40.371L491.21,40.371L491.78,40.371L492.35,40.371L492.92,40.371L493.49,40.371L494.06,40.371L494.63,40.371L495.2,40.371L495.77,40.371L496.34,40.371L496.9,40.371L497.47,40.371L498.04,40.371L498.61,40.371L499.18,40.371L499.75,40.371L500.32,40.371L500.89,40.371L501.46,40.371L502.02,81.673L502.59,40.371L503.16,40.371L503.73,40.371L504.3,40.371L504.87,40.371L505.44,40.371L506.01,40.371L506.58,40.371L507.15,40.371L507.71,40.371L508.28,40.371L508.85,40.371L509.42,40.371L509.99,40.371L510.56,40.371L511.13,40.371L511.7,40.371L512.27,40.371L512.83,40.371L513.4,40.371L513.97,40.371L514.54,40.371L515.11,40.371L515.68,40.371L516.25,40.371L516.82,40.371L517.39,40.371L517.95,40.371L518.52,40.371L519.09,40.371L519.66,40.371L520.23,40.371L520.8,40.371L521.37,40.371L521.94,40.371L522.51,40.371L523.08,40.371L523.64,40.371L524.21,40.371L524.78,40.371L525.35,40.371L525.92,40.371L526.49,40.371L527.06,40.371L527.63,40.371L528.2,40.371L528.76,40.371L529.33,40.371L529.9,40.371L530.47,40.371L531.04,40.371L531.61,40.371L532.18,40.371L532.75,40.371L533.32,40.371L533.89,40.371L534.45,40.371L535.02,40.371L535.59,40.371L536.16,40.371L536.73,40.371L537.3,40.371L537.87,40.371L538.44,40.371L539.01,40.371L539.57,40.371L540.14,40.371L540.71,40.371L541.28,40.371L541.85,40.371L542.42,40.371L542.99,40.371L543.56,40.371L544.13,40.371L544.69,40.371L545.26,40.371L545.83,40.371L546.4,40.371L546.97,40.371L547.54,40.371L548.11,40.371L548.68,40.371L549.25,40.371L549.82,40.371L550.38,40.371L550.95,40.371L551.52,40.371L552.09,40.371L552.66,40.371L553.23,40.371L553.8,40.371L554.37,40.371L554.94,40.371L555.5,40.371L556.07,40.371L556.64,40.371L557.21,40.371L557.78,40.371L558.35,40.371L558.92,40.371L559.49,40.371L560.06,40.371L560.62,40.371" style="fill:none;stroke:#FA8072" />
<path d="M51.996,42.436L52.565,42.436L53.134,42.436L53.703,42.436L54.272,42.436L54.841,42.436L55.41,42.436L55.979,42.436L56.548,42.436L57.117,42.436L57.685,42.436L58.254,42.436L58.823,42.436L59.392,42.436L59.961,42.436L60.53,42.436L61.099,42.436L61.668,42.436L62.237,208.51L68.495,225.33L69.064,191.38L71.909,224.36L72.478,223.58L73.047,201.43L73.616,183.05L74.185,157.29L74.754,159.12L75.322,155.82L75.891,150.33L76.46,143.64L77.029,136.53L77.598,129.47L78.167,122.75L78.736,116.52L79.305,110.85L79.874,105.73L80.443,101.15L81.012,97.069L81.581,93.429L82.15,176.39L82.719,239.72L83.288,213.87L83.857,181.84L84.425,158.44L84.994,142.42L85.563,131.28L86.132,115.47L86.701,150.39L87.27,185.42L87.839,184.46L88.408,187.34L88.977,161.21L89.546,137.71L90.115,121.38L90.684,110.37L91.253,102.75L91.822,92.188L92.391,88.758L92.959,85.287L93.528,82.005L94.097,78.967L94.666,128L95.235,197.18L95.804,181.42L96.373,157.1L96.942,138.69L97.511,125.88L98.08,116.87L98.649,103.75L99.218,132.7L99.787,158.37L100.36,162.51L100.92,165.28L101.49,143.3L102.06,123.48L102.63,109.68L103.2,100.37L103.77,93.922L104.34,84.916L104.91,81.615L105.48,78.42L106.05,75.475L106.61,72.804L107.18,70.407L107.75,112.84L108.32,115.33L108.89,102.68L109.46,91.109L110.03,83.02L110.6,77.55L111.17,73.762L111.73,68.357L112.3,79.606L112.87,88.162L113.44,92.348L114.01,93.691L114.58,84.776L115.15,76.689L115.72,71.047L116.29,67.234L116.85,64.593L117.42,60.813L117.99,59.252L118.56,57.815L119.13,56.525L119.7,55.377L120.27,54.363L120.84,53.471L121.41,52.686L121.98,51.996L122.54,51.387L123.11,79.809L123.68,88.496L124.25,91.887L124.82,92.985L125.39,92.867L125.96,92.081L126.53,90.935L127.1,89.608L127.66,88.201L128.23,86.771L128.8,85.352L129.37,83.962L129.94,82.61L130.51,187.17L131.08,193.73L131.65,167.26L132.22,142.85L132.79,125.85L133.35,114.46L133.92,106.67L134.49,95.436L135.06,119.85L135.63,138.97L136.2,147.19L136.77,150.08L137.34,131.16L137.91,114L138.47,102.05L139.04,94.013L139.61,88.48L140.18,80.582L140.75,77.494L141.32,74.594L141.89,71.971L142.46,69.625L143.03,67.543L143.59,65.706L144.16,64.086L144.73,62.659L145.3,61.4L145.87,60.286L146.44,59.296L147.01,58.413L147.58,57.622L148.15,56.91L148.72,56.264L149.28,55.677L149.85,55.14L150.42,78.615L150.99,217.25L151.56,242.32L152.13,214.64L152.7,183.93L153.27,161.18L153.84,145.44L154.4,134.45L154.97,118.22L155.54,154.19L156.11,182.47L156.68,193.32L157.25,197L157.82,169.15L158.39,144.05L158.96,126.65L159.53,114.98L160.09,106.95L160.66,95.691L161.23,91.313L161.8,87.173L162.37,83.436L162.94,80.098L163.51,77.14L164.08,74.532L164.65,72.236L165.21,68.434L165.78,66.859L166.35,65.462L166.92,64.217L167.49,63.102L168.06,62.098L168.63,61.19L169.2,60.364L169.77,59.609L170.33,58.914L170.9,58.273L171.47,57.679L172.04,57.125L172.61,56.607L173.18,56.12L173.75,55.662L174.32,55.23L174.89,54.82L175.46,54.43L176.02,54.06L176.59,53.706L177.16,53.369L177.73,53.046L178.3,52.737L178.87,52.44L179.44,52.155L180.01,51.881L180.58,51.617L181.14,51.363L181.71,51.119L182.28,50.883L182.85,50.656L183.42,50.436L183.99,50.224L184.56,50.02L185.13,49.822L185.7,49.631L186.27,49.446L186.83,49.267L187.4,49.095L187.97,48.927L188.54,48.765L189.11,48.609L189.68,48.457L190.25,48.31L190.82,48.168L191.39,48.03L191.95,47.896L192.52,47.767L193.09,47.641L193.66,47.52L194.23,47.402L194.8,47.287L195.37,47.177L195.94,47.069L196.51,46.965L197.07,46.864L197.64,46.766L198.21,46.671L198.78,46.579L199.35,46.49L199.92,46.403L200.49,46.319L201.06,46.237L201.63,46.158L202.2,46.081L202.76,46.006L203.33,45.934L203.9,45.864L204.47,45.796L205.04,45.729L205.61,45.665L206.18,45.603L206.75,45.542L207.32,45.483L207.88,45.426L208.45,45.371L209.02,45.317L209.59,45.265L210.16,45.214L210.73,45.165L211.3,45.117L211.87,45.07L212.44,45.025L213.01,44.981L213.57,44.939L214.14,44.897L214.71,44.857L215.28,44.818L215.85,44.78L216.42,44.743L216.99,44.708L217.56,44.673L218.13,44.639L218.69,44.606L219.26,44.575L219.83,44.544L220.4,44.514L220.97,44.484L221.54,44.428L222.11,44.402L222.68,44.376L223.25,44.35L223.81,44.326L224.38,44.302L224.95,44.279L225.52,44.256L226.09,44.234L226.66,44.213L227.23,44.192L227.8,44.172L228.37,44.153L228.94,44.134L229.5,44.115L230.07,44.097L230.64,44.08L231.21,48.347L234.62,228.48L235.19,195.82L238.61,236.55L239.18,200.06L239.75,175.99L240.31,159.66L240.88,138.15L241.45,131.85L242.02,125.17L242.59,118.87L243.16,212.96L243.73,218.35L244.3,186.73L244.87,158.03L245.43,170.77L246,158.1L246.57,146.28L247.14,128.04L247.71,168.7L248.28,204.75L248.85,209.71L249.42,213.03L249.99,181.94L250.55,154.06L251.12,134.75L251.69,121.77L252.26,112.82L252.83,100.45L253.4,95.915L253.97,108.33L254.54,106.27L255.11,102.34L255.68,98.233L256.24,94.332L256.81,90.742L257.38,176.83L257.95,182L258.52,157.41L259.09,134.88L259.66,119.17L260.23,108.59L260.8,101.29L261.36,90.957L261.93,112.37L262.5,128.33L263.07,136.45L263.64,138.84L264.21,121.83L264.78,106.44L265.35,95.71L265.92,116.13L266.49,113.36L267.05,102.08L267.62,170.18L268.19,175.09L268.76,151.81L269.33,130.42L269.9,115.48L270.47,105.4L271.04,98.433L271.61,88.578L272.17,98.8L272.74,101.61L273.31,100.77L273.88,97.724L274.45,93.363L275.02,88.544L275.59,83.852L276.16,79.559L276.73,75.748L277.29,93.535L277.86,93.359L278.43,90.616L279,87.443L279.57,84.333L280.14,81.441L280.71,78.816L281.28,76.461L281.85,74.356L282.42,72.475L282.98,70.791L283.55,69.278L284.12,67.911L284.69,66.671L285.26,65.539L285.83,64.502L286.4,63.546L286.97,62.662L287.54,61.839L288.1,61.071L288.67,60.352L289.24,59.675L289.81,59.038L290.38,58.435L290.95,57.864L291.52,57.322L292.09,56.807L292.66,95.814L293.23,98.15L293.79,88.516L294.36,79.685L294.93,73.55L295.5,69.442L296.07,66.63L296.64,62.469L297.21,71.6L297.78,78.18L298.35,82.479L298.91,83.787L299.48,76.66L300.05,123.25L300.62,122.37L301.19,116.42L301.76,110.91L302.33,99.814L302.9,96.041L303.47,92.021L304.03,88.194L304.6,84.668L305.17,81.483L305.74,78.641L306.31,76.12L306.88,73.888L307.45,71.913L308.02,70.161L308.59,68.602L309.16,67.208L309.72,65.955L310.29,64.824L310.86,63.797L311.43,62.859L312,61.999L312.57,61.205L313.14,60.47L313.71,59.786L314.28,59.146L314.84,58.546L315.41,57.982L315.98,57.449L316.55,56.945L317.12,96.33L317.69,180.69L318.26,179.71L318.83,161.88L319.4,145.88L319.97,133.88L320.53,125.11L321.1,110.93L321.67,144.52L322.24,170.3L322.81,181.98L323.38,185.86L323.95,160.22L324.52,137.03L325.09,120.94L325.65,110.14L326.22,102.73L326.79,92.224L327.36,88.085L327.93,84.195L328.5,80.696L329.07,77.58L329.64,74.825L330.21,72.401L330.77,70.271L331.34,68.399L331.91,66.751L332.48,65.295L333.05,64.005L333.62,62.855L334.19,61.827L334.76,60.064L335.33,59.303L335.9,58.607L336.46,57.967L337.03,57.377L337.6,56.829L338.17,56.319L338.74,55.842L339.31,55.395L339.88,54.973L340.45,54.575L341.02,54.197L341.58,53.839L342.15,53.498L342.72,53.173L343.29,52.863L343.86,52.566L344.43,52.282L345,52.009L345.57,51.747L346.14,51.495L346.71,51.253L347.27,51.02L347.84,50.796L348.41,50.58L348.98,50.371L349.55,50.17L350.12,49.976L350.69,49.789L351.26,49.608L351.83,49.433L352.39,49.264L352.96,49.1L353.53,48.942L354.1,48.789L354.67,48.641L355.24,48.498L355.81,48.36L356.38,48.226L356.95,48.096L357.51,47.971L358.08,47.849L358.65,47.731L359.22,47.617L359.79,47.506L360.36,47.399L360.93,47.295L361.5,47.195L362.07,47.097L362.64,47.003L363.2,46.911L363.77,46.823L364.34,46.737L364.91,46.653L365.48,46.572L366.05,46.494L366.62,46.418L367.19,46.344L367.76,46.272L368.32,46.203L368.89,46.136L369.46,46.07L370.03,46.007L370.6,45.946L371.17,45.886L371.74,45.828L372.31,45.772L372.88,45.718L373.45,45.665L374.01,45.614L374.58,45.564L375.15,45.516L375.72,45.469L376.29,45.423L376.86,45.379L377.43,45.336L378,45.295L378.57,45.255L379.13,45.215L379.7,45.177L380.27,45.14L380.84,45.105L381.41,45.07L381.98,45.036L382.55,45.003L383.12,44.972L383.69,44.941L384.25,44.911L384.82,44.882L385.39,44.853L385.96,44.826L386.53,44.799L387.1,44.774L387.67,44.748L388.24,44.724L388.81,44.7L389.38,44.677L389.94,44.655L390.51,44.634L391.08,44.592L391.65,44.572L392.22,44.553L392.79,44.534L393.36,44.516L393.93,44.499L394.5,44.481L395.06,44.465L395.63,44.449L396.2,44.433L396.77,44.418L397.34,44.403L397.91,44.389L398.48,44.375L399.05,44.361L399.62,44.348L400.19,44.335L400.75,49.332L401.32,49.816L401.89,48.688L402.46,166.23L403.03,199.71L403.6,206.05L404.17,203.27L404.74,180.98L408.15,236.06L408.72,200.1L409.29,176.33L409.86,160.21L410.43,138.65L410.99,132.42L411.56,125.78L412.13,119.49L412.7,216.28L413.27,221.97L413.84,189.69L414.41,160.37L414.98,140.03L415.55,126.38L416.12,141.58L416.68,127.85L417.25,170.64L417.82,207.63L418.39,214.35L418.96,218.14L419.53,186.15L420.1,157.41L420.67,137.51L421.24,124.15L421.8,114.95L422.37,102.19L422.94,164.39L423.51,168.16L424.08,146.04L424.65,125.89L425.22,111.83L425.79,102.34L426.36,117.62L426.93,107.98L427.49,140.56L428.06,165.45L428.63,175.91L429.2,179.44L429.77,154.98L430.34,132.83L430.91,117.42L431.48,107.04L432.05,99.879L432.61,89.815L433.18,85.656L433.75,81.797L434.32,78.349L434.89,75.297L435.46,72.612L436.03,70.258L436.6,68.196L437.17,116.23L437.73,119.08L438.3,105.83L438.87,93.675L439.44,85.193L440.01,107.82L440.58,106.69L441.15,96.941L441.72,124.01L442.29,142.4L442.86,155.79L443.42,159.24L443.99,138.52L444.56,119.7L445.13,106.6L445.7,97.792L446.27,108.64L446.84,99.778L447.41,95.583L447.98,91.168L448.54,87.052L449.11,83.331L449.68,80.022L450.25,77.104L450.82,74.54L451.39,72.288L451.96,70.307L452.53,68.557L453.1,67.006L453.67,65.623L454.23,64.384L454.8,63.268L455.37,62.256L455.94,61.335L456.51,60.491L457.08,59.715L457.65,58.996L458.22,58.329L458.79,57.707L459.35,57.125L459.92,56.579L460.49,71.015L461.06,75.325L461.63,76.949L462.2,77.43L462.77,77.296L463.34,76.81L463.91,76.123L464.47,173.71L465.04,179.95L465.61,156.01L466.18,133.89L466.75,118.49L467.32,108.17L467.89,101.11L468.46,90.832L469.03,112.93L469.6,128.51L470.16,138.8L470.73,141.62L471.3,124.22L471.87,108.41L472.44,97.419L473.01,90.03L473.58,84.948L474.15,77.644L474.72,74.555L475.28,71.736L475.85,69.236L476.42,67.034L476.99,65.104L477.56,63.417L478.13,61.943L478.7,60.651L479.27,59.518L479.84,58.52L480.41,57.636L480.97,56.85L481.54,56.148L482.11,55.517L482.68,54.946L483.25,54.428L483.82,53.955L484.39,53.52L484.96,53.119L485.53,81.878L486.09,83.774L486.66,76.793L487.23,127.52L487.8,130.15L488.37,125.64L488.94,120.57L489.51,108.41L490.08,142.73L490.65,167.5L491.21,182.74L491.78,187.29L492.35,161.55L492.92,138.13L493.49,121.89L494.06,111L494.63,103.55L495.2,92.885L495.77,88.517L496.34,84.474L496.9,80.877L497.47,77.703L498.04,74.917L498.61,72.48L499.18,70.347L499.75,68.48L500.32,66.841L500.89,65.397L501.46,64.119L502.02,77.452L502.59,79.879L503.16,80.065L503.73,79.495L504.3,77.528L504.87,76.409L505.44,75.283L506.01,74.177L506.58,73.104L507.15,72.069L507.71,71.076L508.28,70.123L508.85,69.21L509.42,68.334L509.99,67.495L510.56,66.689L511.13,65.916L511.7,65.173L512.27,64.46L512.83,63.774L513.4,63.114L513.97,62.479L514.54,61.868L515.11,61.279L515.68,60.712L516.25,60.166L516.82,59.64L517.39,59.133L517.95,58.644L518.52,58.172L519.09,57.718L519.66,57.279L520.23,56.856L520.8,56.448L521.37,56.053L521.94,55.673L522.51,55.306L523.08,54.952L523.64,54.609L524.21,54.279L524.78,53.96L525.35,53.651L525.92,53.353L526.49,53.066L527.06,52.788L527.63,52.519L528.2,52.259L528.76,52.008L529.33,51.765L529.9,51.531L530.47,51.304L531.04,51.084L531.61,50.872L532.18,50.667L532.75,50.468L533.32,50.276L533.89,50.09L534.45,49.911L535.02,49.737L535.59,49.568L536.16,49.405L536.73,49.247L537.3,49.095L537.87,48.947L538.44,48.803L539.01,48.665L539.57,48.531L540.14,48.401L540.71,48.275L541.28,48.153L541.85,48.034L542.42,47.92L542.99,47.809L543.56,47.702L544.13,47.598L544.69,47.497L545.26,47.399L545.83,47.304L546.4,47.212L546.97,47.123L547.54,47.037L548.11,46.953L548.68,46.872L549.25,46.794L549.82,46.717L550.38,46.643L550.95,46.572L551.52,46.502L552.09,46.435L552.66,46.37L553.23,46.306L553.8,46.245L554.37,46.185L554.94,46.127L555.5,46.071L556.07,46.017L556.64,45.964L557.21,45.913L557.78,45.863L558.35,45.815L558.92,45.768L559.49,45.723L560.06,45.678L560.62,45.636" style="fill:none;stroke:#A52A2A" />
<path d="M540.62,244.69L560.62,244.69" style="fill:none;stroke:#D2B48C" />
<text x="513.29" y="-241.86" transform="scale(1, -1)"
	style="font-family:Liberation Sans;font-variant:normal;font-weight:normal;font-style:normal;font-size:12px">RCa</text>
<path d="M540.62,234.22L560.62,234.22" style="fill:none;stroke:#FA8072" />
<text x="488.6" y="-231.39" transform="scale(1, -1)"
	style="font-family:Liberation Sans;font-variant:normal;font-weight:normal;font-style:normal;font-size:12px">PreSpike</text>
<path d="M540.62,223.75L560.62,223.75" style="fill:none;stroke:#A52A2A" />
<text x="490.6" y="-220.92" transform="scale(1, -1)"
	style="font-family:Liberation Sans;font-variant:normal;font-weight:normal;font-style:normal;font-size:12px">PSD_Ca</text>
</g>
</svg>
