<?xml version="1.0"?>
<!-- Generated by SVGo and Plotinum VG -->
<svg width="560.62pt" height="265.88pt" viewBox="0 0 560.62 265.88"
	xmlns="http://www.w3.org/2000/svg"
	xmlns:xlink="http://www.w3.org/1999/xlink">
<g transform="scale(1, -1) translate(0, -265.88)">
<text x="235.29" y="-256.15" transform="scale(1, -1)"
	style="font-family:Liberation Sans;font-variant:normal;font-weight:normal;font-style:normal;font-size:12px">Kinase Time Plot</text>
<text x="290.42" y="-3.6797" transform="scale(1, -1)"
	style="font-family:Liberation Sans;font-variant:normal;font-weight:normal;font-style:normal;font-size:12px">Time</text>
<text x="39.484" y="-16.473" transform="scale(1, -1)"
	style="font-family:Liberation Sans;font-variant:normal;font-weight:normal;font-style:normal;font-size:10px">0.0</text>
<text x="269.55" y="-16.473" transform="scale(1, -1)"
	style="font-family:Liberation Sans;font-variant:normal;font-weight:normal;font-style:normal;font-size:10px">0.4</text>
<text x="499.61" y="-16.473" transform="scale(1, -1)"
	style="font-family:Liberation Sans;font-variant:normal;font-weight:normal;font-style:normal;font-size:10px">0.8</text>
<path d="M46.435,24.578L46.435,32.578" style="fill:none;stroke:#000000;stroke-width:0.5" />
<path d="M276.5,24.578L276.5,32.578" style="fill:none;stroke:#000000;stroke-width:0.5" />
<path d="M506.56,24.578L506.56,32.578" style="fill:none;stroke:#000000;stroke-width:0.5" />
<path d="M103.95,28.578L103.95,32.578" style="fill:none;stroke:#000000;stroke-width:0.5" />
<path d="M161.47,28.578L161.47,32.578" style="fill:none;stroke:#000000;stroke-width:0.5" />
<path d="M218.98,28.578L218.98,32.578" style="fill:none;stroke:#000000;stroke-width:0.5" />
<path d="M334.01,28.578L334.01,32.578" style="fill:none;stroke:#000000;stroke-width:0.5" />
<path d="M391.53,28.578L391.53,32.578" style="fill:none;stroke:#000000;stroke-width:0.5" />
<path d="M449.04,28.578L449.04,32.578" style="fill:none;stroke:#000000;stroke-width:0.5" />
<path d="M46.435,32.578L560.62,32.578" style="fill:none;stroke:#000000;stroke-width:0.5" />
<g transform="rotate(90)">
<text x="122.62" y="9.7266" transform="scale(1, -1)"
	style="font-family:Liberation Sans;font-variant:normal;font-weight:normal;font-style:normal;font-size:12px">NMDAo</text>
</g>
<text x="15.949" y="-37.852" transform="scale(1, -1)"
	style="font-family:Liberation Sans;font-variant:normal;font-weight:normal;font-style:normal;font-size:10px">0.0</text>
<text x="15.949" y="-141.11" transform="scale(1, -1)"
	style="font-family:Liberation Sans;font-variant:normal;font-weight:normal;font-style:normal;font-size:10px">0.5</text>
<text x="15.949" y="-244.36" transform="scale(1, -1)"
	style="font-family:Liberation Sans;font-variant:normal;font-weight:normal;font-style:normal;font-size:10px">1.0</text>
<path d="M32.629,40.371L40.629,40.371" style="fill:none;stroke:#000000;stroke-width:0.5" />
<path d="M32.629,143.63L40.629,143.63" style="fill:none;stroke:#000000;stroke-width:0.5" />
<path d="M32.629,246.88L40.629,246.88" style="fill:none;stroke:#000000;stroke-width:0.5" />
<path d="M36.629,61.022L40.629,61.022" style="fill:none;stroke:#000000;stroke-width:0.5" />
<path d="M36.629,81.673L40.629,81.673" style="fill:none;stroke:#000000;stroke-width:0.5" />
<path d="M36.629,102.32L40.629,102.32" style="fill:none;stroke:#000000;stroke-width:0.5" />
<path d="M36.629,122.98L40.629,122.98" style="fill:none;stroke:#000000;stroke-width:0.5" />
<path d="M36.629,164.28L40.629,164.28" style="fill:none;stroke:#000000;stroke-width:0.5" />
<path d="M36.629,184.93L40.629,184.93" style="fill:none;stroke:#000000;stroke-width:0.5" />
<path d="M36.629,205.58L40.629,205.58" style="fill:none;stroke:#000000;stroke-width:0.5" />
<path d="M36.629,226.23L40.629,226.23" style="fill:none;stroke:#000000;stroke-width:0.5" />
<path d="M40.629,40.371L40.629,246.88" style="fill:none;stroke:#000000;stroke-width:0.5" />
<path d="M46.435,40.371L47.01,40.371L47.585,40.371L48.16,40.371L48.735,40.371L49.31,40.371L49.886,40.371L50.461,40.371L51.036,40.371L51.611,40.371L52.186,40.371L52.761,40.371L53.336,40.371L53.912,40.371L54.487,40.371L55.062,40.371L55.637,40.371L56.212,40.371L56.787,91.999L57.363,90.278L57.938,88.615L58.513,87.006L59.088,85.452L59.663,83.949L60.238,82.497L60.813,81.092L61.389,79.735L61.964,78.423L62.539,77.155L63.114,75.928L63.689,74.743L64.264,73.597L64.84,72.49L65.415,71.419L65.99,70.384L66.565,69.384L67.14,72.319L67.715,71.254L68.291,70.225L68.866,69.23L69.441,68.268L70.016,67.338L70.591,66.439L71.166,65.57L71.741,64.73L72.317,63.918L72.892,63.133L73.467,62.375L74.042,61.641L74.617,60.932L75.192,60.247L75.768,59.584L76.343,58.944L76.918,58.325L77.493,63.398L78.068,62.63L78.643,61.888L79.219,61.171L79.794,60.478L80.369,59.808L80.944,59.16L81.519,58.533L82.094,57.928L82.669,57.343L83.245,56.777L83.82,56.23L84.395,55.702L84.97,55.191L85.545,54.697L86.12,54.219L86.696,53.757L87.271,53.311L87.846,52.88L88.421,52.463L88.996,52.06L89.571,51.67L90.147,59.368L90.722,58.735L91.297,58.123L91.872,57.531L92.447,56.959L93.022,56.406L93.597,55.872L94.173,55.355L94.748,54.856L95.323,54.373L95.898,53.906L96.473,53.455L97.048,53.019L97.624,52.597L98.199,52.19L98.774,51.796L99.349,51.415L99.924,51.047L100.5,50.691L101.07,50.347L101.65,50.014L102.22,49.693L102.8,49.382L103.38,49.082L103.95,48.791L104.53,48.511L105.1,48.239L105.68,47.977L106.25,47.724L106.83,47.479L107.4,47.242L107.98,47.013L108.55,46.791L109.13,46.577L109.7,46.37L110.28,46.17L110.85,45.977L111.43,45.79L112,45.61L112.58,45.435L113.15,45.266L113.73,45.103L114.3,44.945L114.88,44.793L115.45,44.645L116.03,44.503L116.6,44.365L117.18,44.232L117.75,44.103L118.33,62.653L118.9,61.91L119.48,61.192L120.05,60.498L120.63,59.827L121.2,59.179L121.78,58.552L122.36,57.946L122.93,57.36L123.51,56.794L124.08,56.246L124.66,55.717L125.23,55.206L125.81,54.711L126.38,54.233L126.96,53.771L127.53,53.324L128.11,52.893L128.68,52.475L129.26,52.072L129.83,51.682L130.41,51.305L130.98,50.94L131.56,50.588L132.13,50.247L132.71,49.918L133.28,49.6L133.86,49.292L134.43,48.995L135.01,48.708L135.58,48.43L136.16,48.161L136.73,47.901L137.31,47.65L137.88,47.408L138.46,47.173L139.03,46.946L139.61,46.727L140.19,46.515L140.76,46.311L141.34,46.113L141.91,45.921L142.49,45.736L143.06,45.557L143.64,45.384L144.21,45.217L144.79,45.056L145.36,44.9L145.94,62.832L146.51,62.083L147.09,61.359L147.66,60.66L148.24,59.984L148.81,59.33L149.39,58.698L149.96,58.087L150.54,57.496L151.11,56.926L151.69,56.374L152.26,55.84L152.84,55.325L153.41,54.826L153.99,54.344L154.56,53.879L155.14,53.428L155.71,52.993L156.29,52.572L156.86,52.166L157.44,51.773L158.02,51.392L158.59,51.025L159.17,50.67L159.74,50.327L160.32,49.995L160.89,49.364L161.47,49.064L162.04,48.774L162.62,48.494L163.19,48.224L163.77,47.962L164.34,47.709L164.92,47.464L165.49,47.228L166.07,46.999L166.64,46.778L167.22,46.565L167.79,46.358L168.37,46.159L168.94,45.966L169.52,45.779L170.09,45.599L170.67,45.425L171.24,45.256L171.82,45.093L172.39,44.936L172.97,44.784L173.54,44.637L174.12,44.495L174.69,44.357L175.27,44.224L175.84,44.096L176.42,43.972L177,43.852L177.57,43.736L178.15,43.623L178.72,43.515L179.3,43.41L179.87,43.309L180.45,43.211L181.02,43.116L181.6,43.025L182.17,42.936L182.75,42.851L183.32,42.768L183.9,42.688L184.47,42.611L185.05,42.536L185.62,42.464L186.2,42.394L186.77,42.327L187.35,42.262L187.92,42.199L188.5,42.138L189.07,42.079L189.65,42.022L190.22,41.967L190.8,41.914L191.37,41.862L191.95,41.813L192.52,41.765L193.1,41.718L193.67,41.673L194.25,41.63L194.83,41.588L195.4,41.547L195.98,41.508L196.55,41.47L197.13,41.434L197.7,41.398L198.28,41.364L198.85,41.331L199.43,41.299L200,41.268L200.58,41.238L201.15,41.209L201.73,41.181L202.3,41.154L202.88,41.128L203.45,41.103L204.03,41.078L204.6,41.055L205.18,41.032L205.75,41.01L206.33,40.989L206.9,40.968L207.48,40.948L208.05,40.929L208.63,40.91L209.2,40.892L209.78,40.875L210.35,40.858L210.93,40.842L211.5,40.826L212.08,40.811L212.65,40.797L213.23,40.782L213.81,40.769L214.38,40.755L214.96,40.743L215.53,40.73L216.11,40.718L216.68,40.707L217.26,40.695L217.83,40.674L218.41,40.664L218.98,40.654L219.56,40.645L220.13,40.636L220.71,40.627L221.28,40.618L221.86,40.61L222.43,40.602L223.01,40.594L223.58,40.587L224.16,40.58L224.73,40.573L225.31,40.566L225.88,40.56L226.46,40.553L227.03,40.547L227.61,40.541L228.18,80.015L228.76,78.694L229.33,77.416L229.91,76.181L230.48,74.988L231.06,73.834L231.64,72.718L232.21,71.64L232.79,70.598L233.36,69.59L233.94,68.616L234.51,67.675L235.09,66.765L235.66,65.885L236.24,65.034L236.81,64.212L237.39,63.418L237.96,62.649L238.54,61.907L239.11,61.189L239.69,60.495L240.26,59.824L240.84,59.176L241.41,58.549L241.99,65.242L242.56,64.413L243.14,63.612L243.71,62.837L244.29,62.088L244.86,61.364L245.44,60.664L246.01,59.988L246.59,59.334L247.16,58.702L247.74,58.091L248.31,57.5L248.89,56.929L249.47,56.377L250.04,55.844L250.62,60.46L251.19,59.79L251.77,59.143L252.34,58.517L252.92,57.912L253.49,57.328L254.07,56.762L254.64,56.216L255.22,55.688L255.79,55.177L256.37,54.684L256.94,54.207L257.52,53.745L258.09,53.3L258.67,52.869L259.24,52.452L259.82,52.049L260.39,51.66L260.97,51.284L261.54,50.92L262.12,50.568L262.69,58.176L263.27,57.583L263.84,57.009L264.42,56.454L264.99,55.918L265.57,55.4L266.14,54.899L266.72,54.415L267.29,53.947L267.87,53.494L268.45,53.057L269.02,52.634L269.6,52.225L270.17,51.83L270.75,51.448L271.32,51.079L271.9,50.722L272.47,50.377L273.05,50.043L273.62,49.721L274.2,57.165L274.77,56.605L275.35,56.064L275.92,55.541L276.5,55.035L277.07,54.546L277.65,54.074L278.22,53.617L278.8,53.175L279.37,52.749L279.95,52.336L280.52,51.937L281.1,51.552L281.67,51.179L282.25,50.819L282.82,50.47L283.4,50.134L283.97,49.808L284.55,49.494L285.12,49.19L285.7,48.896L286.28,48.612L286.85,48.337L287.43,48.071L288,47.815L288.58,47.567L289.15,47.327L289.73,47.095L290.3,46.871L290.88,46.654L291.45,46.445L292.03,46.242L292.6,46.046L293.18,45.857L293.75,45.674L294.33,45.498L294.9,45.327L295.48,45.162L296.05,45.002L296.63,44.848L297.2,60.356L297.78,59.69L298.35,59.046L298.93,58.424L299.5,57.822L300.08,57.24L300.65,56.678L301.23,56.134L301.8,55.609L302.38,55.101L302.95,54.61L303.53,54.135L304.1,53.676L304.68,53.233L305.26,52.804L305.83,52.39L306.41,51.989L306.98,51.602L307.56,51.228L308.13,50.866L308.71,50.516L309.28,50.178L309.86,49.851L310.43,49.535L311.01,49.229L311.58,48.934L312.16,48.649L312.73,48.373L313.31,48.106L313.88,47.848L314.46,47.599L315.03,59.308L315.61,58.677L316.18,58.067L316.76,57.477L317.33,56.907L317.91,56.356L318.48,55.823L319.06,55.308L319.63,54.81L320.21,54.329L320.78,53.863L321.36,53.414L321.93,52.979L322.51,52.559L323.09,52.152L323.66,51.76L324.24,51.38L324.81,51.013L325.39,50.658L325.96,50.315L326.54,49.984L327.11,49.663L327.69,49.354L328.26,49.054L328.84,48.765L329.41,48.485L329.99,48.215L330.56,47.953L331.14,47.7L331.71,47.456L332.29,46.992L332.86,46.771L333.44,46.558L334.01,46.351L334.59,46.152L335.16,45.959L335.74,45.773L336.31,45.593L336.89,45.419L337.46,45.251L338.04,45.088L338.61,44.931L339.19,44.779L339.76,44.632L340.34,44.49L340.91,44.353L341.49,44.22L342.07,44.092L342.64,43.968L343.22,43.848L343.79,43.732L344.37,43.62L344.94,43.511L345.52,43.407L346.09,43.306L346.67,43.208L347.24,43.113L347.82,43.022L348.39,42.933L348.97,42.848L349.54,42.765L350.12,42.686L350.69,42.609L351.27,42.534L351.84,42.462L352.42,42.392L352.99,42.325L353.57,42.26L354.14,42.197L354.72,42.136L355.29,42.077L355.87,42.02L356.44,41.965L357.02,41.912L357.59,41.861L358.17,41.811L358.74,41.763L359.32,41.717L359.9,41.672L360.47,41.628L361.05,41.587L361.62,41.546L362.2,41.507L362.77,41.469L363.35,41.432L363.92,41.397L364.5,41.363L365.07,41.33L365.65,41.298L366.22,41.267L366.8,41.237L367.37,41.208L367.95,41.18L368.52,41.153L369.1,41.127L369.67,41.102L370.25,41.078L370.82,41.054L371.4,41.031L371.97,41.009L372.55,40.988L373.12,40.968L373.7,40.948L374.27,40.928L374.85,40.91L375.42,40.892L376,40.875L376.57,40.858L377.15,40.842L377.73,40.826L378.3,40.811L378.88,40.796L379.45,40.782L380.03,40.768L380.6,40.755L381.18,40.742L381.75,40.73L382.33,40.718L382.9,40.706L383.48,40.695L384.05,40.684L384.63,40.674L385.2,40.664L385.78,40.654L386.35,40.645L386.93,40.635L387.5,40.627L388.08,40.618L388.65,40.61L389.23,40.594L389.8,40.587L390.38,40.58L390.95,40.573L391.53,40.566L392.1,40.559L392.68,40.553L393.25,40.547L393.83,40.541L394.4,40.536L394.98,40.53L395.55,40.525L396.13,40.52L396.71,40.515L397.28,40.51L397.86,40.505L398.43,40.501L399.01,40.496L399.58,40.492L400.16,40.488L400.73,80.705L401.31,79.361L401.88,78.061L402.46,76.805L403.03,75.59L403.61,74.416L404.18,73.281L404.76,72.184L405.33,71.124L405.91,70.099L406.48,69.108L407.06,68.15L407.63,67.224L408.21,66.329L408.78,65.464L409.36,64.627L409.93,63.819L410.51,63.037L411.08,62.282L411.66,61.551L412.23,60.845L412.81,60.163L413.38,59.503L413.96,58.865L414.54,65.482L415.11,64.645L415.69,63.836L416.26,63.054L416.84,62.298L417.41,61.567L417.99,60.86L418.56,60.177L419.14,59.517L419.71,58.879L420.29,58.262L420.86,57.666L421.44,57.089L422.01,56.532L422.59,55.993L423.16,55.473L423.74,54.969L424.31,54.483L424.89,60.298L425.46,59.634L426.04,58.992L426.61,58.371L427.19,57.771L427.76,57.191L428.34,56.631L428.91,56.089L429.49,55.565L430.06,55.058L430.64,54.569L431.21,54.096L431.79,53.638L432.36,53.196L432.94,52.768L433.52,52.355L434.09,51.956L434.67,51.569L435.24,51.196L435.82,50.835L436.39,50.487L436.97,50.149L437.54,49.823L438.12,49.508L438.69,58.376L439.27,57.776L439.84,57.195L440.42,56.635L440.99,56.092L441.57,55.568L442.14,55.062L442.72,54.572L443.29,54.099L443.87,53.641L444.44,53.199L445.02,56.877L445.59,56.327L446.17,55.795L446.74,55.281L447.32,54.784L447.89,54.303L448.47,53.839L449.04,53.39L449.62,52.956L450.19,52.537L450.77,52.131L451.35,51.739L451.92,51.36L452.5,50.994L453.07,50.64L453.65,50.297L454.22,49.967L454.8,49.647L455.37,49.338L455.95,49.039L456.52,48.75L457.1,48.47L457.67,48.2L458.25,47.939L458.82,47.687L459.4,57.343L459.97,56.777L460.55,56.23L461.12,55.701L461.7,55.19L462.27,54.696L462.85,54.219L463.42,53.757L464,53.311L464.57,52.88L465.15,52.463L465.72,52.06L466.3,51.67L466.87,51.294L467.45,50.929L468.02,50.577L468.6,50.237L469.18,49.908L469.75,49.59L470.33,49.283L470.9,48.986L471.48,48.699L472.05,48.421L472.63,48.153L473.2,47.894L473.78,47.643L474.35,47.4L474.93,47.166L475.5,46.94L476.08,46.721L476.65,46.509L477.23,46.304L477.8,46.107L478.38,45.915L478.95,45.731L479.53,45.552L480.1,45.379L480.68,45.212L481.25,45.051L481.83,44.895L482.4,44.744L482.98,44.598L483.55,44.458L484.13,44.321L484.7,44.19L485.28,44.062L485.85,43.939L486.43,61.958L487,61.239L487.58,60.543L488.16,59.871L488.73,59.221L489.31,58.593L489.88,57.985L490.46,57.398L491.03,56.83L491.61,56.282L492.18,55.751L492.76,55.239L493.33,54.743L493.91,54.264L494.48,53.801L495.06,53.353L495.63,52.921L496.21,52.502L496.78,52.098L497.36,51.707L497.93,51.329L498.51,50.964L499.08,50.611L499.66,50.269L500.23,49.94L500.81,49.621L501.38,59.128L501.96,58.503L502.53,57.899L503.11,57.314L503.68,56.204L504.26,55.676L504.83,55.166L505.41,54.673L505.99,54.196L506.56,53.735L507.14,53.29L507.71,52.859L508.29,52.443L508.86,52.04L509.44,51.651L510.01,51.275L510.59,50.912L511.16,50.561L511.74,50.221L512.31,49.893L512.89,49.575L513.46,49.268L514.04,48.972L514.61,48.685L515.19,48.408L515.76,48.14L516.34,47.881L516.91,47.631L517.49,47.389L518.06,47.155L518.64,46.929L519.21,46.71L519.79,46.499L520.36,46.295L520.94,46.097L521.51,45.906L522.09,45.722L522.66,45.543L523.24,45.371L523.81,45.204L524.39,45.043L524.97,44.888L525.54,44.737L526.12,44.591L526.69,44.451L527.27,44.315L527.84,44.183L528.42,44.056L528.99,43.933L529.57,43.815L530.14,43.7L530.72,43.589L531.29,43.482L531.87,43.378L532.44,43.278L533.02,43.181L533.59,43.087L534.17,42.997L534.74,42.909L535.32,42.825L535.89,42.743L536.47,42.664L537.04,42.587L537.62,42.513L538.19,42.442L538.77,42.373L539.34,42.306L539.92,42.242L540.49,42.179L541.07,42.119L541.64,42.061L542.22,42.005L542.8,41.95L543.37,41.897L543.95,41.847L544.52,41.797L545.1,41.75L545.67,41.704L546.25,41.659L546.82,41.616L547.4,41.575L547.97,41.535L548.55,41.496L549.12,41.459L549.7,41.422L550.27,41.387L550.85,41.353L551.42,41.321L552,41.289L552.57,41.258L553.15,41.229L553.72,41.2L554.3,41.173L554.87,41.146L555.45,41.12L556.02,41.095L556.6,41.071L557.17,41.048L557.75,41.025L558.32,41.003L558.9,40.982L559.47,40.962L560.05,40.942L560.62,40.923" style="fill:none;stroke:#FF00FF" />
<path d="M46.435,40.371L47.01,40.371L47.585,40.371L48.16,40.371L48.735,40.371L49.31,40.371L49.886,40.371L50.461,40.371L51.036,40.371L51.611,40.371L52.186,40.371L52.761,40.371L53.336,40.371L53.912,40.371L54.487,40.371L55.062,40.371L55.637,40.371L56.212,40.371L56.787,246.88L57.363,40.371L57.938,40.371L58.513,40.371L59.088,40.371L59.663,40.371L60.238,40.371L60.813,40.371L61.389,40.371L61.964,40.371L62.539,40.371L63.114,40.371L63.689,40.371L64.264,40.371L64.84,40.371L65.415,40.371L65.99,40.371L66.565,40.371L67.14,246.88L67.715,40.371L68.291,40.371L68.866,40.371L69.441,40.371L70.016,40.371L70.591,40.371L71.166,40.371L71.741,40.371L72.317,40.371L72.892,40.371L73.467,40.371L74.042,40.371L74.617,40.371L75.192,40.371L75.768,40.371L76.343,40.371L76.918,40.371L77.493,246.88L78.068,40.371L78.643,40.371L79.219,40.371L79.794,40.371L80.369,40.371L80.944,40.371L81.519,40.371L82.094,40.371L82.669,40.371L83.245,40.371L83.82,40.371L84.395,40.371L84.97,40.371L85.545,40.371L86.12,40.371L86.696,40.371L87.271,40.371L87.846,40.371L88.421,40.371L88.996,40.371L89.571,40.371L90.147,246.88L90.722,40.371L91.297,40.371L91.872,40.371L92.447,40.371L93.022,40.371L93.597,40.371L94.173,40.371L94.748,40.371L95.323,40.371L95.898,40.371L96.473,40.371L97.048,40.371L97.624,40.371L98.199,40.371L98.774,40.371L99.349,40.371L99.924,40.371L100.5,40.371L101.07,40.371L101.65,40.371L102.22,40.371L102.8,40.371L103.38,40.371L103.95,40.371L104.53,40.371L105.1,40.371L105.68,40.371L106.25,40.371L106.83,40.371L107.4,40.371L107.98,40.371L108.55,40.371L109.13,40.371L109.7,40.371L110.28,40.371L110.85,40.371L111.43,40.371L112,40.371L112.58,40.371L113.15,40.371L113.73,40.371L114.3,40.371L114.88,40.371L115.45,40.371L116.03,40.371L116.6,40.371L117.18,40.371L117.75,40.371L118.33,246.88L118.9,40.371L119.48,40.371L120.05,40.371L120.63,40.371L121.2,40.371L121.78,40.371L122.36,40.371L122.93,40.371L123.51,40.371L124.08,40.371L124.66,40.371L125.23,40.371L125.81,40.371L126.38,40.371L126.96,40.371L127.53,40.371L128.11,40.371L128.68,40.371L129.26,40.371L129.83,40.371L130.41,40.371L130.98,40.371L131.56,40.371L132.13,40.371L132.71,40.371L133.28,40.371L133.86,40.371L134.43,40.371L135.01,40.371L135.58,40.371L136.16,40.371L136.73,40.371L137.31,40.371L137.88,40.371L138.46,40.371L139.03,40.371L139.61,40.371L140.19,40.371L140.76,40.371L141.34,40.371L141.91,40.371L142.49,40.371L143.06,40.371L143.64,40.371L144.21,40.371L144.79,40.371L145.36,40.371L145.94,246.88L146.51,40.371L147.09,40.371L147.66,40.371L148.24,40.371L148.81,40.371L149.39,40.371L149.96,40.371L150.54,40.371L151.11,40.371L151.69,40.371L152.26,40.371L152.84,40.371L153.41,40.371L153.99,40.371L154.56,40.371L155.14,40.371L155.71,40.371L156.29,40.371L156.86,40.371L157.44,40.371L158.02,40.371L158.59,40.371L159.17,40.371L159.74,40.371L160.32,40.371L160.89,40.371L161.47,40.371L162.04,40.371L162.62,40.371L163.19,40.371L163.77,40.371L164.34,40.371L164.92,40.371L165.49,40.371L166.07,40.371L166.64,40.371L167.22,40.371L167.79,40.371L168.37,40.371L168.94,40.371L169.52,40.371L170.09,40.371L170.67,40.371L171.24,40.371L171.82,40.371L172.39,40.371L172.97,40.371L173.54,40.371L174.12,40.371L174.69,40.371L175.27,40.371L175.84,40.371L176.42,40.371L177,40.371L177.57,40.371L178.15,40.371L178.72,40.371L179.3,40.371L179.87,40.371L180.45,40.371L181.02,40.371L181.6,40.371L182.17,40.371L182.75,40.371L183.32,40.371L183.9,40.371L184.47,40.371L185.05,40.371L185.62,40.371L186.2,40.371L186.77,40.371L187.35,40.371L187.92,40.371L188.5,40.371L189.07,40.371L189.65,40.371L190.22,40.371L190.8,40.371L191.37,40.371L191.95,40.371L192.52,40.371L193.1,40.371L193.67,40.371L194.25,40.371L194.83,40.371L195.4,40.371L195.98,40.371L196.55,40.371L197.13,40.371L197.7,40.371L198.28,40.371L198.85,40.371L199.43,40.371L200,40.371L200.58,40.371L201.15,40.371L201.73,40.371L202.3,40.371L202.88,40.371L203.45,40.371L204.03,40.371L204.6,40.371L205.18,40.371L205.75,40.371L206.33,40.371L206.9,40.371L207.48,40.371L208.05,40.371L208.63,40.371L209.2,40.371L209.78,40.371L210.35,40.371L210.93,40.371L211.5,40.371L212.08,40.371L212.65,40.371L213.23,40.371L213.81,40.371L214.38,40.371L214.96,40.371L215.53,40.371L216.11,40.371L216.68,40.371L217.26,40.371L217.83,40.371L218.41,40.371L218.98,40.371L219.56,40.371L220.13,40.371L220.71,40.371L221.28,40.371L221.86,40.371L222.43,40.371L223.01,40.371L223.58,40.371L224.16,40.371L224.73,40.371L225.31,40.371L225.88,40.371L226.46,40.371L227.03,40.371L227.61,40.371L228.18,246.88L228.76,40.371L229.33,40.371L229.91,40.371L230.48,40.371L231.06,40.371L231.64,40.371L232.21,40.371L232.79,40.371L233.36,40.371L233.94,40.371L234.51,40.371L235.09,40.371L235.66,40.371L236.24,40.371L236.81,40.371L237.39,40.371L237.96,40.371L238.54,40.371L239.11,40.371L239.69,40.371L240.26,40.371L240.84,40.371L241.41,40.371L241.99,246.88L242.56,40.371L243.14,40.371L243.71,40.371L244.29,40.371L244.86,40.371L245.44,40.371L246.01,40.371L246.59,40.371L247.16,40.371L247.74,40.371L248.31,40.371L248.89,40.371L249.47,40.371L250.04,40.371L250.62,246.88L251.19,40.371L251.77,40.371L252.34,40.371L252.92,40.371L253.49,40.371L254.07,40.371L254.64,40.371L255.22,40.371L255.79,40.371L256.37,40.371L256.94,40.371L257.52,40.371L258.09,40.371L258.67,40.371L259.24,40.371L259.82,40.371L260.39,40.371L260.97,40.371L261.54,40.371L262.12,40.371L262.69,246.88L263.27,40.371L263.84,40.371L264.42,40.371L264.99,40.371L265.57,40.371L266.14,40.371L266.72,40.371L267.29,40.371L267.87,40.371L268.45,40.371L269.02,40.371L269.6,40.371L270.17,40.371L270.75,40.371L271.32,40.371L271.9,40.371L272.47,40.371L273.05,40.371L273.62,40.371L274.2,246.88L274.77,40.371L275.35,40.371L275.92,40.371L276.5,40.371L277.07,40.371L277.65,40.371L278.22,40.371L278.8,40.371L279.37,40.371L279.95,40.371L280.52,40.371L281.1,40.371L281.67,40.371L282.25,40.371L282.82,40.371L283.4,40.371L283.97,40.371L284.55,40.371L285.12,40.371L285.7,40.371L286.28,40.371L286.85,40.371L287.43,40.371L288,40.371L288.58,40.371L289.15,40.371L289.73,40.371L290.3,40.371L290.88,40.371L291.45,40.371L292.03,40.371L292.6,40.371L293.18,40.371L293.75,40.371L294.33,40.371L294.9,40.371L295.48,40.371L296.05,40.371L296.63,40.371L297.2,246.88L297.78,40.371L298.35,40.371L298.93,40.371L299.5,40.371L300.08,40.371L300.65,40.371L301.23,40.371L301.8,40.371L302.38,40.371L302.95,40.371L303.53,40.371L304.1,40.371L304.68,40.371L305.26,40.371L305.83,40.371L306.41,40.371L306.98,40.371L307.56,40.371L308.13,40.371L308.71,40.371L309.28,40.371L309.86,40.371L310.43,40.371L311.01,40.371L311.58,40.371L312.16,40.371L312.73,40.371L313.31,40.371L313.88,40.371L314.46,40.371L315.03,246.88L315.61,40.371L316.18,40.371L316.76,40.371L317.33,40.371L317.91,40.371L318.48,40.371L319.06,40.371L319.63,40.371L320.21,40.371L320.78,40.371L321.36,40.371L321.93,40.371L322.51,40.371L323.09,40.371L323.66,40.371L324.24,40.371L324.81,40.371L325.39,40.371L325.96,40.371L326.54,40.371L327.11,40.371L327.69,40.371L328.26,40.371L328.84,40.371L329.41,40.371L329.99,40.371L330.56,40.371L331.14,40.371L331.71,40.371L332.29,40.371L332.86,40.371L333.44,40.371L334.01,40.371L334.59,40.371L335.16,40.371L335.74,40.371L336.31,40.371L336.89,40.371L337.46,40.371L338.04,40.371L338.61,40.371L339.19,40.371L339.76,40.371L340.34,40.371L340.91,40.371L341.49,40.371L342.07,40.371L342.64,40.371L343.22,40.371L343.79,40.371L344.37,40.371L344.94,40.371L345.52,40.371L346.09,40.371L346.67,40.371L347.24,40.371L347.82,40.371L348.39,40.371L348.97,40.371L349.54,40.371L350.12,40.371L350.69,40.371L351.27,40.371L351.84,40.371L352.42,40.371L352.99,40.371L353.57,40.371L354.14,40.371L354.72,40.371L355.29,40.371L355.87,40.371L356.44,40.371L357.02,40.371L357.59,40.371L358.17,40.371L358.74,40.371L359.32,40.371L359.9,40.371L360.47,40.371L361.05,40.371L361.62,40.371L362.2,40.371L362.77,40.371L363.35,40.371L363.92,40.371L364.5,40.371L365.07,40.371L365.65,40.371L366.22,40.371L366.8,40.371L367.37,40.371L367.95,40.371L368.52,40.371L369.1,40.371L369.67,40.371L370.25,40.371L370.82,40.371L371.4,40.371L371.97,40.371L372.55,40.371L373.12,40.371L373.7,40.371L374.27,40.371L374.85,40.371L375.42,40.371L376,40.371L376.57,40.371L377.15,40.371L377.73,40.371L378.3,40.371L378.88,40.371L379.45,40.371L380.03,40.371L380.6,40.371L381.18,40.371L381.75,40.371L382.33,40.371L382.9,40.371L383.48,40.371L384.05,40.371L384.63,40.371L385.2,40.371L385.78,40.371L386.35,40.371L386.93,40.371L387.5,40.371L388.08,40.371L388.65,40.371L389.23,40.371L389.8,40.371L390.38,40.371L390.95,40.371L391.53,40.371L392.1,40.371L392.68,40.371L393.25,40.371L393.83,40.371L394.4,40.371L394.98,40.371L395.55,40.371L396.13,40.371L396.71,40.371L397.28,40.371L397.86,40.371L398.43,40.371L399.01,40.371L399.58,40.371L400.16,40.371L400.73,246.88L401.31,40.371L401.88,40.371L402.46,40.371L403.03,40.371L403.61,40.371L404.18,40.371L404.76,40.371L405.33,40.371L405.91,40.371L406.48,40.371L407.06,40.371L407.63,40.371L408.21,40.371L408.78,40.371L409.36,40.371L409.93,40.371L410.51,40.371L411.08,40.371L411.66,40.371L412.23,40.371L412.81,40.371L413.38,40.371L413.96,40.371L414.54,246.88L415.11,40.371L415.69,40.371L416.26,40.371L416.84,40.371L417.41,40.371L417.99,40.371L418.56,40.371L419.14,40.371L419.71,40.371L420.29,40.371L420.86,40.371L421.44,40.371L422.01,40.371L422.59,40.371L423.16,40.371L423.74,40.371L424.31,40.371L424.89,246.88L425.46,40.371L426.04,40.371L426.61,40.371L427.19,40.371L427.76,40.371L428.34,40.371L428.91,40.371L429.49,40.371L430.06,40.371L430.64,40.371L431.21,40.371L431.79,40.371L432.36,40.371L432.94,40.371L433.52,40.371L434.09,40.371L434.67,40.371L435.24,40.371L435.82,40.371L436.39,40.371L436.97,40.371L437.54,40.371L438.12,40.371L438.69,246.88L439.27,40.371L439.84,40.371L440.42,40.371L440.99,40.371L441.57,40.371L442.14,40.371L442.72,40.371L443.29,40.371L443.87,40.371L444.44,40.371L445.02,246.88L445.59,40.371L446.17,40.371L446.74,40.371L447.32,40.371L447.89,40.371L448.47,40.371L449.04,40.371L449.62,40.371L450.19,40.371L450.77,40.371L451.35,40.371L451.92,40.371L452.5,40.371L453.07,40.371L453.65,40.371L454.22,40.371L454.8,40.371L455.37,40.371L455.95,40.371L456.52,40.371L457.1,40.371L457.67,40.371L458.25,40.371L458.82,40.371L459.4,246.88L459.97,40.371L460.55,40.371L461.12,40.371L461.7,40.371L462.27,40.371L462.85,40.371L463.42,40.371L464,40.371L464.57,40.371L465.15,40.371L465.72,40.371L466.3,40.371L466.87,40.371L467.45,40.371L468.02,40.371L468.6,40.371L469.18,40.371L469.75,40.371L470.33,40.371L470.9,40.371L471.48,40.371L472.05,40.371L472.63,40.371L473.2,40.371L473.78,40.371L474.35,40.371L474.93,40.371L475.5,40.371L476.08,40.371L476.65,40.371L477.23,40.371L477.8,40.371L478.38,40.371L478.95,40.371L479.53,40.371L480.1,40.371L480.68,40.371L481.25,40.371L481.83,40.371L482.4,40.371L482.98,40.371L483.55,40.371L484.13,40.371L484.7,40.371L485.28,40.371L485.85,40.371L486.43,246.88L487,40.371L487.58,40.371L488.16,40.371L488.73,40.371L489.31,40.371L489.88,40.371L490.46,40.371L491.03,40.371L491.61,40.371L492.18,40.371L492.76,40.371L493.33,40.371L493.91,40.371L494.48,40.371L495.06,40.371L495.63,40.371L496.21,40.371L496.78,40.371L497.36,40.371L497.93,40.371L498.51,40.371L499.08,40.371L499.66,40.371L500.23,40.371L500.81,40.371L501.38,246.88L501.96,40.371L502.53,40.371L503.11,40.371L503.68,40.371L504.26,40.371L504.83,40.371L505.41,40.371L505.99,40.371L506.56,40.371L507.14,40.371L507.71,40.371L508.29,40.371L508.86,40.371L509.44,40.371L510.01,40.371L510.59,40.371L511.16,40.371L511.74,40.371L512.31,40.371L512.89,40.371L513.46,40.371L514.04,40.371L514.61,40.371L515.19,40.371L515.76,40.371L516.34,40.371L516.91,40.371L517.49,40.371L518.06,40.371L518.64,40.371L519.21,40.371L519.79,40.371L520.36,40.371L520.94,40.371L521.51,40.371L522.09,40.371L522.66,40.371L523.24,40.371L523.81,40.371L524.39,40.371L524.97,40.371L525.54,40.371L526.12,40.371L526.69,40.371L527.27,40.371L527.84,40.371L528.42,40.371L528.99,40.371L529.57,40.371L530.14,40.371L530.72,40.371L531.29,40.371L531.87,40.371L532.44,40.371L533.02,40.371L533.59,40.371L534.17,40.371L534.74,40.371L535.32,40.371L535.89,40.371L536.47,40.371L537.04,40.371L537.62,40.371L538.19,40.371L538.77,40.371L539.34,40.371L539.92,40.371L540.49,40.371L541.07,40.371L541.64,40.371L542.22,40.371L542.8,40.371L543.37,40.371L543.95,40.371L544.52,40.371L545.1,40.371L545.67,40.371L546.25,40.371L546.82,40.371L547.4,40.371L547.97,40.371L548.55,40.371L549.12,40.371L549.7,40.371L550.27,40.371L550.85,40.371L551.42,40.371L552,40.371L552.57,40.371L553.15,40.371L553.72,40.371L554.3,40.371L554.87,40.371L555.45,40.371L556.02,40.371L556.6,40.371L557.17,40.371L557.75,40.371L558.32,40.371L558.9,40.371L559.47,40.371L560.05,40.371L560.62,40.371" style="fill:none;stroke:#FA8072" />
<path d="M46.435,40.371L47.01,40.371L47.585,40.371L48.16,40.371L48.735,40.371L49.31,40.371L49.886,40.371L50.461,40.371L51.036,40.371L51.611,40.371L52.186,40.371L52.761,40.371L53.336,40.371L53.912,40.371L54.487,40.371L55.062,40.371L55.637,40.371L56.212,40.371L56.787,70.773L57.363,86.377L57.938,93.718L58.513,96.28L59.088,96.048L59.663,93.763L60.238,90.109L60.813,86.076L61.389,82.317L61.964,79.041L62.539,76.239L63.114,73.836L63.689,71.764L64.264,69.885L64.84,67.994L65.415,66.135L65.99,64.382L66.565,62.818L67.14,67.439L67.715,66.694L68.291,65.427L68.866,64.199L69.441,63.067L70.016,62.016L70.591,61.034L71.166,60.116L71.741,59.257L72.317,58.452L72.892,57.698L73.467,56.991L74.042,56.326L74.617,55.7L75.192,55.109L75.768,54.55L76.343,54.02L76.918,53.507L77.493,58.981L78.068,59.075L78.643,58.463L79.219,57.749L79.794,57.035L80.369,56.346L80.944,55.688L81.519,55.062L82.094,54.45L82.669,53.848L83.245,53.261L83.82,52.696L84.395,52.161L84.97,51.661L85.545,51.194L86.12,50.756L86.696,50.345L87.271,49.957L87.846,49.59L88.421,49.242L88.996,48.911L89.571,48.592L90.147,55.077L90.722,55.644L91.297,55.352L91.872,54.878L92.447,54.354L93.022,53.819L93.597,53.294L94.173,52.783L94.748,52.284L95.323,51.795L95.898,51.318L96.473,50.857L97.048,50.42L97.624,50.006L98.199,49.617L98.774,49.249L99.349,48.9L99.924,48.57L100.5,48.257L101.07,47.958L101.65,47.674L102.22,47.402L102.8,47.141L103.38,46.888L103.95,46.642L104.53,46.406L105.1,46.181L105.68,45.967L106.25,45.763L106.83,45.568L107.4,45.382L107.98,45.203L108.55,45.03L109.13,44.863L109.7,44.703L110.28,44.549L110.85,44.402L111.43,44.262L112,44.128L112.58,43.999L113.15,43.877L113.73,43.759L114.3,43.646L114.88,43.538L115.45,43.434L116.03,43.334L116.6,43.238L117.18,43.146L117.75,43.057L118.33,54.794L118.9,58.161L119.48,59.389L120.05,59.724L120.63,59.604L121.2,59.246L121.78,58.767L122.36,58.23L122.93,57.673L123.51,57.113L124.08,56.561L124.66,56.023L125.23,55.501L125.81,54.986L126.38,54.451L126.96,53.904L127.53,53.371L128.11,52.864L128.68,52.388L129.26,51.941L129.83,51.52L130.41,51.121L130.98,50.733L131.56,50.35L132.13,49.973L132.71,49.607L133.28,49.259L133.86,48.932L134.43,48.624L135.01,48.335L135.58,48.062L136.16,47.803L136.73,47.558L137.31,47.324L137.88,47.1L138.46,46.886L139.03,46.681L139.61,46.484L140.19,46.295L140.76,46.113L141.34,45.938L141.91,45.77L142.49,45.608L143.06,45.451L143.64,45.3L144.21,45.155L144.79,45.015L145.36,44.879L145.94,55.627L146.51,58.51L147.09,59.42L147.66,59.484L148.24,59.132L148.81,58.587L149.39,57.965L149.96,57.323L150.54,56.691L151.11,56.075L151.69,55.462L152.26,54.846L152.84,54.233L153.41,53.634L153.99,53.068L154.56,52.542L155.14,52.054L155.71,51.601L156.29,51.177L156.86,50.781L157.44,50.407L158.02,50.054L158.59,49.719L159.17,49.4L159.74,49.096L160.32,48.805L160.89,48.262L161.47,48.007L162.04,47.763L162.62,47.528L163.19,47.302L163.77,47.085L164.34,46.876L164.92,46.675L165.49,46.482L166.07,46.295L166.64,46.115L167.22,45.942L167.79,45.775L168.37,45.613L168.94,45.458L169.52,45.307L170.09,45.162L170.67,45.022L171.24,44.887L171.82,44.757L172.39,44.63L172.97,44.509L173.54,44.391L174.12,44.277L174.69,44.167L175.27,44.061L175.84,43.958L176.42,43.858L177,43.762L177.57,43.669L178.15,43.579L178.72,43.492L179.3,43.408L179.87,43.326L180.45,43.248L181.02,43.171L181.6,43.097L182.17,43.026L182.75,42.957L183.32,42.89L183.9,42.825L184.47,42.762L185.05,42.701L185.62,42.642L186.2,42.585L186.77,42.53L187.35,42.476L187.92,42.425L188.5,42.374L189.07,42.326L189.65,42.278L190.22,42.233L190.8,42.188L191.37,42.145L191.95,42.104L192.52,42.063L193.1,42.024L193.67,41.986L194.25,41.95L194.83,41.914L195.4,41.879L195.98,41.846L196.55,41.813L197.13,41.782L197.7,41.751L198.28,41.722L198.85,41.693L199.43,41.665L200,41.638L200.58,41.612L201.15,41.586L201.73,41.561L202.3,41.537L202.88,41.514L203.45,41.492L204.03,41.47L204.6,41.448L205.18,41.428L205.75,41.408L206.33,41.388L206.9,41.369L207.48,41.351L208.05,41.333L208.63,41.316L209.2,41.299L209.78,41.283L210.35,41.267L210.93,41.252L211.5,41.237L212.08,41.223L212.65,41.208L213.23,41.195L213.81,41.182L214.38,41.169L214.96,41.156L215.53,41.144L216.11,41.132L216.68,41.121L217.26,41.11L217.83,41.089L218.41,41.078L218.98,41.069L219.56,41.059L220.13,41.05L220.71,41.041L221.28,41.032L221.86,41.023L222.43,41.015L223.01,41.007L223.58,40.999L224.16,40.991L224.73,40.984L225.31,40.977L225.88,40.97L226.46,40.963L227.03,40.956L227.61,40.95L228.18,61.683L228.76,71.374L229.33,75.732L229.91,77.159L230.48,77.022L231.06,76.101L231.64,74.832L232.21,73.404L232.79,71.768L233.36,69.944L233.94,68.08L234.51,66.279L235.09,64.646L235.66,63.212L236.24,61.961L236.81,60.86L237.39,59.884L237.96,59.013L238.54,58.222L239.11,57.497L239.69,56.802L240.26,56.083L240.84,55.364L241.41,54.684L241.99,59.874L242.56,59.797L243.14,59.108L243.71,58.365L244.29,57.638L244.86,56.916L245.44,56.194L246.01,55.482L246.59,54.793L247.16,54.145L247.74,53.545L248.31,52.991L248.89,52.477L249.47,51.998L250.04,51.551L250.62,55.912L251.19,56.045L251.77,55.624L252.34,55.113L252.92,54.586L253.49,54.065L254.07,53.551L254.64,53.032L255.22,52.518L255.79,52.022L256.37,51.552L256.94,51.108L257.52,50.689L258.09,50.293L258.67,49.917L259.24,49.555L259.82,49.203L260.39,48.861L260.97,48.531L261.54,48.217L262.12,47.92L262.69,53.152L263.27,53.518L263.84,53.23L264.42,52.818L264.99,52.364L265.57,51.896L266.14,51.435L266.72,50.991L267.29,50.568L267.87,50.165L268.45,49.783L269.02,49.42L269.6,49.072L270.17,48.738L270.75,48.419L271.32,48.113L271.9,47.821L272.47,47.543L273.05,47.277L273.62,47.024L274.2,52.505L274.77,53.143L275.35,53.027L275.92,52.723L276.5,52.348L277.07,51.947L277.65,51.539L278.22,51.136L278.8,50.744L279.37,50.364L279.95,49.998L280.52,49.647L281.1,49.31L281.67,48.987L282.25,48.677L282.82,48.38L283.4,48.095L283.97,47.822L284.55,47.56L285.12,47.309L285.7,47.068L286.28,46.837L286.85,46.615L287.43,46.402L288,46.197L288.58,46.001L289.15,45.812L289.73,45.63L290.3,45.453L290.88,45.282L291.45,45.116L292.03,44.958L292.6,44.806L293.18,44.661L293.75,44.522L294.33,44.388L294.9,44.259L295.48,44.135L296.05,44.015L296.63,43.899L297.2,51.696L297.78,53.179L298.35,53.472L298.93,53.376L299.5,53.105L300.08,52.751L300.65,52.361L301.23,51.96L301.8,51.56L302.38,51.17L302.95,50.791L303.53,50.426L304.1,50.075L304.68,49.739L305.26,49.415L305.83,49.105L306.41,48.808L306.98,48.522L307.56,48.248L308.13,47.985L308.71,47.732L309.28,47.49L309.86,47.256L310.43,47.032L311.01,46.816L311.58,46.609L312.16,46.41L312.73,46.218L313.31,46.033L313.88,45.856L314.46,45.684L315.03,53.865L315.61,55.922L316.18,56.505L316.76,56.504L317.33,56.222L317.91,55.804L318.48,55.326L319.06,54.825L319.63,54.307L320.21,53.778L320.78,53.246L321.36,52.722L321.93,52.222L322.51,51.753L323.09,51.315L323.66,50.905L324.24,50.519L324.81,50.157L325.39,49.814L325.96,49.489L326.54,49.18L327.11,48.885L327.69,48.604L328.26,48.335L328.84,48.077L329.41,47.83L329.99,47.593L330.56,47.366L331.14,47.148L331.71,46.938L332.29,46.541L332.86,46.354L333.44,46.174L334.01,46.001L334.59,45.833L335.16,45.672L335.74,45.517L336.31,45.367L336.89,45.222L337.46,45.082L338.04,44.948L338.61,44.818L339.19,44.692L339.76,44.571L340.34,44.454L340.91,44.341L341.49,44.231L342.07,44.126L342.64,44.024L343.22,43.925L343.79,43.83L344.37,43.738L344.94,43.649L345.52,43.563L346.09,43.48L346.67,43.4L347.24,43.322L347.82,43.247L348.39,43.174L348.97,43.103L349.54,43.035L350.12,42.969L350.69,42.906L351.27,42.844L351.84,42.784L352.42,42.726L352.99,42.67L353.57,42.616L354.14,42.564L354.72,42.513L355.29,42.464L355.87,42.416L356.44,42.37L357.02,42.325L357.59,42.282L358.17,42.24L358.74,42.2L359.32,42.16L359.9,42.122L360.47,42.085L361.05,42.049L361.62,42.015L362.2,41.981L362.77,41.948L363.35,41.917L363.92,41.886L364.5,41.857L365.07,41.828L365.65,41.8L366.22,41.773L366.8,41.747L367.37,41.721L367.95,41.697L368.52,41.673L369.1,41.649L369.67,41.627L370.25,41.605L370.82,41.584L371.4,41.563L371.97,41.544L372.55,41.524L373.12,41.506L373.7,41.487L374.27,41.47L374.85,41.453L375.42,41.436L376,41.42L376.57,41.404L377.15,41.389L377.73,41.374L378.3,41.36L378.88,41.346L379.45,41.333L380.03,41.32L380.6,41.307L381.18,41.295L381.75,41.283L382.33,41.271L382.9,41.26L383.48,41.249L384.05,41.238L384.63,41.228L385.2,41.218L385.78,41.208L386.35,41.199L386.93,41.19L387.5,41.181L388.08,41.172L388.65,41.164L389.23,41.148L389.8,41.14L390.38,41.133L390.95,41.126L391.53,41.119L392.1,41.112L392.68,41.105L393.25,41.099L393.83,41.093L394.4,41.086L394.98,41.081L395.55,41.075L396.13,41.069L396.71,41.064L397.28,41.059L397.86,41.054L398.43,41.049L399.01,41.044L399.58,41.039L400.16,41.035L400.73,58.897L401.31,67.107L401.88,70.938L402.46,72.409L403.03,72.588L403.61,72.053L404.18,71.006L404.76,69.584L405.33,67.985L405.91,66.355L406.48,64.83L407.06,63.463L407.63,62.253L408.21,61.179L408.78,60.218L409.36,59.356L409.93,58.57L410.51,57.847L411.08,57.151L411.66,56.427L412.23,55.7L412.81,55.011L413.38,54.377L413.96,53.799L414.54,58.624L415.11,58.638L415.69,58.062L416.26,57.386L416.84,56.677L417.41,55.961L417.99,55.26L418.56,54.597L419.14,53.982L419.71,53.413L420.29,52.886L420.86,52.394L421.44,51.928L422.01,51.469L422.59,51.02L423.16,50.594L423.74,50.193L424.31,49.819L424.89,54.207L425.46,54.385L426.04,54.015L426.61,53.546L427.19,53.048L427.76,52.543L428.34,52.045L428.91,51.567L429.49,51.114L430.06,50.687L430.64,50.285L431.21,49.904L431.79,49.545L432.36,49.204L432.94,48.88L433.52,48.572L434.09,48.278L434.67,47.997L435.24,47.729L435.82,47.471L436.39,47.218L436.97,46.973L437.54,46.736L438.12,46.511L438.69,51.908L439.27,52.474L439.84,52.327L440.42,52.017L440.99,51.645L441.57,51.246L442.14,50.837L442.72,50.43L443.29,50.035L443.87,49.659L444.44,49.301L445.02,52.619L445.59,52.717L446.17,52.388L446.74,51.986L447.32,51.571L447.89,51.159L448.47,50.758L449.04,50.37L449.62,49.998L450.19,49.64L450.77,49.298L451.35,48.97L451.92,48.656L452.5,48.355L453.07,48.067L453.65,47.792L454.22,47.528L454.8,47.275L455.37,47.032L455.95,46.8L456.52,46.577L457.1,46.363L457.67,46.158L458.25,45.961L458.82,45.773L459.4,52.667L459.97,54.377L460.55,54.876L461.12,54.9L461.7,54.69L462.27,54.361L462.85,53.974L463.42,53.556L464,53.107L464.57,52.644L465.15,52.186L465.72,51.746L466.3,51.327L466.87,50.93L467.45,50.553L468.02,50.194L468.6,49.846L469.18,49.506L469.75,49.172L470.33,48.848L470.9,48.539L471.48,48.247L472.05,47.971L472.63,47.71L473.2,47.463L473.78,47.228L474.35,47.004L474.93,46.791L475.5,46.587L476.08,46.391L476.65,46.204L477.23,46.024L477.8,45.851L478.38,45.685L478.95,45.526L479.53,45.372L480.1,45.224L480.68,45.082L481.25,44.944L481.83,44.812L482.4,44.685L482.98,44.562L483.55,44.443L484.13,44.329L484.7,44.218L485.28,44.11L485.85,44.005L486.43,52.421L487,54.591L487.58,55.279L488.16,55.38L488.73,55.191L489.31,54.853L489.88,54.43L490.46,53.956L491.03,53.454L491.61,52.946L492.18,52.454L492.76,51.987L493.33,51.549L493.91,51.137L494.48,50.75L495.06,50.385L495.63,50.039L496.21,49.711L496.78,49.399L497.36,49.101L497.93,48.816L498.51,48.544L499.08,48.284L499.66,48.034L500.23,47.794L500.81,47.564L501.38,53.581L501.96,54.634L502.53,54.754L503.11,54.572L503.68,53.874L504.26,53.466L504.83,53.051L505.41,52.638L505.99,52.235L506.56,51.843L507.14,51.465L507.71,51.1L508.29,50.748L508.86,50.409L509.44,50.084L510.01,49.77L510.59,49.468L511.16,49.178L511.74,48.898L512.31,48.629L512.89,48.37L513.46,48.121L514.04,47.881L514.61,47.65L515.19,47.427L515.76,47.212L516.34,47.005L516.91,46.806L517.49,46.614L518.06,46.428L518.64,46.25L519.21,46.078L519.79,45.911L520.36,45.751L520.94,45.597L521.51,45.447L522.09,45.303L522.66,45.165L523.24,45.03L523.81,44.901L524.39,44.776L524.97,44.655L525.54,44.539L526.12,44.426L526.69,44.317L527.27,44.212L527.84,44.111L528.42,44.013L528.99,43.918L529.57,43.827L530.14,43.738L530.72,43.652L531.29,43.57L531.87,43.49L532.44,43.412L533.02,43.337L533.59,43.265L534.17,43.195L534.74,43.127L535.32,43.062L535.89,42.998L536.47,42.937L537.04,42.878L537.62,42.82L538.19,42.765L538.77,42.711L539.34,42.659L539.92,42.608L540.49,42.56L541.07,42.512L541.64,42.466L542.22,42.422L542.8,42.379L543.37,42.338L543.95,42.297L544.52,42.258L545.1,42.22L545.67,42.184L546.25,42.148L546.82,42.114L547.4,42.081L547.97,42.048L548.55,42.017L549.12,41.987L549.7,41.957L550.27,41.929L550.85,41.901L551.42,41.874L552,41.848L552.57,41.823L553.15,41.799L553.72,41.775L554.3,41.752L554.87,41.73L555.45,41.708L556.02,41.687L556.6,41.667L557.17,41.647L557.75,41.628L558.32,41.609L558.9,41.591L559.47,41.574L560.05,41.557L560.62,41.541" style="fill:none;stroke:#87CEEB" />
<path d="M540.62,244.69L560.62,244.69" style="fill:none;stroke:#FF00FF" />
<text x="495.29" y="-241.86" transform="scale(1, -1)"
	style="font-family:Liberation Sans;font-variant:normal;font-weight:normal;font-style:normal;font-size:12px">NMDAo</text>
<path d="M540.62,234.22L560.62,234.22" style="fill:none;stroke:#FA8072" />
<text x="488.6" y="-231.39" transform="scale(1, -1)"
	style="font-family:Liberation Sans;font-variant:normal;font-weight:normal;font-style:normal;font-size:12px">PreSpike</text>
<path d="M540.62,223.75L560.62,223.75" style="fill:none;stroke:#87CEEB" />
<text x="459.92" y="-220.92" transform="scale(1, -1)"
	style="font-family:Liberation Sans;font-variant:normal;font-weight:normal;font-style:normal;font-size:12px">NMDA_Nopen</text>
</g>
</svg>
