<?xml version="1.0"?>
<!-- Generated by SVGo and Plotinum VG -->
<svg width="559.12pt" height="391.88pt" viewBox="0 0 559.12 391.88"
	xmlns="http://www.w3.org/2000/svg"
	xmlns:xlink="http://www.w3.org/1999/xlink">
<g transform="scale(1, -1) translate(0, -391.88)">
<text x="234.54" y="-382.15" transform="scale(1, -1)"
	style="font-family:Liberation Sans;font-variant:normal;font-weight:normal;font-style:normal;font-size:12px">Kinase Time Plot</text>
<text x="288.28" y="-3.6797" transform="scale(1, -1)"
	style="font-family:Liberation Sans;font-variant:normal;font-weight:normal;font-style:normal;font-size:12px">Time</text>
<text x="33.925" y="-16.473" transform="scale(1, -1)"
	style="font-family:Liberation Sans;font-variant:normal;font-weight:normal;font-style:normal;font-size:10px">0.00</text>
<text x="466.37" y="-16.473" transform="scale(1, -1)"
	style="font-family:Liberation Sans;font-variant:normal;font-weight:normal;font-style:normal;font-size:10px">0.25</text>
<path d="M43.656,24.578L43.656,32.578" style="fill:none;stroke:#000000;stroke-width:0.5" />
<path d="M476.1,24.578L476.1,32.578" style="fill:none;stroke:#000000;stroke-width:0.5" />
<path d="M130.14,28.578L130.14,32.578" style="fill:none;stroke:#000000;stroke-width:0.5" />
<path d="M216.63,28.578L216.63,32.578" style="fill:none;stroke:#000000;stroke-width:0.5" />
<path d="M303.12,28.578L303.12,32.578" style="fill:none;stroke:#000000;stroke-width:0.5" />
<path d="M389.61,28.578L389.61,32.578" style="fill:none;stroke:#000000;stroke-width:0.5" />
<path d="M43.656,32.578L559.12,32.578" style="fill:none;stroke:#000000;stroke-width:0.5" />
<g transform="rotate(90)">
<text x="194.41" y="9.7266" transform="scale(1, -1)"
	style="font-family:Liberation Sans;font-variant:normal;font-weight:normal;font-style:normal;font-size:12px">Spike</text>
</g>
<text x="21.511" y="-37.852" transform="scale(1, -1)"
	style="font-family:Liberation Sans;font-variant:normal;font-weight:normal;font-style:normal;font-size:10px">0</text>
<text x="21.511" y="-147.73" transform="scale(1, -1)"
	style="font-family:Liberation Sans;font-variant:normal;font-weight:normal;font-style:normal;font-size:10px">5</text>
<text x="15.949" y="-257.61" transform="scale(1, -1)"
	style="font-family:Liberation Sans;font-variant:normal;font-weight:normal;font-style:normal;font-size:10px">10</text>
<text x="15.949" y="-367.49" transform="scale(1, -1)"
	style="font-family:Liberation Sans;font-variant:normal;font-weight:normal;font-style:normal;font-size:10px">15</text>
<path d="M29.851,40.371L37.851,40.371" style="fill:none;stroke:#000000;stroke-width:0.5" />
<path d="M29.851,150.25L37.851,150.25" style="fill:none;stroke:#000000;stroke-width:0.5" />
<path d="M29.851,260.13L37.851,260.13" style="fill:none;stroke:#000000;stroke-width:0.5" />
<path d="M29.851,370.01L37.851,370.01" style="fill:none;stroke:#000000;stroke-width:0.5" />
<path d="M33.851,62.347L37.851,62.347" style="fill:none;stroke:#000000;stroke-width:0.5" />
<path d="M33.851,84.322L37.851,84.322" style="fill:none;stroke:#000000;stroke-width:0.5" />
<path d="M33.851,106.3L37.851,106.3" style="fill:none;stroke:#000000;stroke-width:0.5" />
<path d="M33.851,128.27L37.851,128.27" style="fill:none;stroke:#000000;stroke-width:0.5" />
<path d="M33.851,172.23L37.851,172.23" style="fill:none;stroke:#000000;stroke-width:0.5" />
<path d="M33.851,194.2L37.851,194.2" style="fill:none;stroke:#000000;stroke-width:0.5" />
<path d="M33.851,216.18L37.851,216.18" style="fill:none;stroke:#000000;stroke-width:0.5" />
<path d="M33.851,238.15L37.851,238.15" style="fill:none;stroke:#000000;stroke-width:0.5" />
<path d="M33.851,282.1L37.851,282.1" style="fill:none;stroke:#000000;stroke-width:0.5" />
<path d="M33.851,304.08L37.851,304.08" style="fill:none;stroke:#000000;stroke-width:0.5" />
<path d="M33.851,326.05L37.851,326.05" style="fill:none;stroke:#000000;stroke-width:0.5" />
<path d="M33.851,348.03L37.851,348.03" style="fill:none;stroke:#000000;stroke-width:0.5" />
<path d="M37.851,40.371L37.851,378.47" style="fill:none;stroke:#000000;stroke-width:0.5" />
<path d="M43.656,40.371L45.386,40.371L47.116,40.371L48.846,40.371L50.575,40.371L52.305,40.371L54.035,40.371L55.765,40.371L57.494,40.371L59.224,40.371L60.954,40.371L62.684,40.371L64.413,40.371L66.143,40.371L67.873,40.371L69.603,40.371L71.332,40.371L73.062,40.371L74.792,40.371L76.522,40.371L78.251,40.371L79.981,40.371L81.711,40.371L83.441,62.347L85.171,40.371L86.9,40.371L88.63,40.371L90.36,40.371L92.09,40.371L93.819,40.371L95.549,40.371L97.279,40.371L99.009,62.347L100.74,40.371L102.47,40.371L104.2,40.371L105.93,40.371L107.66,40.371L109.39,40.371L111.12,40.371L112.85,40.371L114.58,40.371L116.31,40.371L118.04,62.347L119.77,40.371L121.5,40.371L123.23,40.371L124.96,40.371L126.68,40.371L128.41,40.371L130.14,40.371L131.87,40.371L133.6,40.371L135.33,62.347L137.06,40.371L138.79,40.371L140.52,40.371L142.25,40.371L143.98,40.371L145.71,40.371L147.44,40.371L149.17,40.371L150.9,40.371L152.63,62.347L154.36,40.371L156.09,40.371L157.82,40.371L159.55,40.371L161.28,40.371L163.01,40.371L164.74,40.371L166.47,40.371L168.2,40.371L169.93,62.347L171.66,40.371L173.39,40.371L175.12,40.371L176.85,40.371L178.58,40.371L180.31,40.371L182.04,40.371L183.77,40.371L185.5,62.347L187.23,40.371L188.96,40.371L190.69,40.371L192.42,40.371L194.15,40.371L195.88,40.371L197.6,40.371L199.33,40.371L201.06,40.371L202.79,40.371L204.52,40.371L206.25,40.371L207.98,62.347L209.71,40.371L211.44,40.371L213.17,40.371L214.9,40.371L216.63,40.371L218.36,40.371L220.09,40.371L221.82,40.371L223.55,40.371L225.28,62.347L227.01,40.371L228.74,40.371L230.47,40.371L232.2,40.371L233.93,40.371L235.66,40.371L237.39,40.371L239.12,40.371L240.85,40.371L242.58,40.371L244.31,40.371L246.04,40.371L247.77,40.371L249.5,40.371L251.23,40.371L252.96,40.371L254.69,40.371L256.42,40.371L258.15,40.371L259.88,40.371L261.61,40.371L263.34,40.371L265.07,40.371L266.8,40.371L268.53,40.371L270.25,40.371L271.98,62.347L273.71,40.371L275.44,40.371L277.17,40.371L278.9,40.371L280.63,40.371L282.36,40.371L284.09,40.371L285.82,40.371L287.55,40.371L289.28,62.347L291.01,40.371L292.74,40.371L294.47,40.371L296.2,40.371L297.93,40.371L299.66,40.371L301.39,40.371L303.12,40.371L304.85,40.371L306.58,40.371L308.31,40.371L310.04,40.371L311.77,40.371L313.5,40.371L315.23,40.371L316.96,40.371L318.69,40.371L320.42,40.371L322.15,40.371L323.88,40.371L325.61,40.371L327.34,40.371L329.07,40.371L330.8,40.371L332.53,40.371L334.26,40.371L335.99,40.371L337.72,40.371L339.45,40.371L341.18,40.371L342.9,40.371L344.63,40.371L346.36,40.371L348.09,62.347L349.82,40.371L351.55,40.371L353.28,40.371L355.01,40.371L356.74,40.371L358.47,40.371L360.2,40.371L361.93,40.371L363.66,40.371L365.39,62.347L367.12,40.371L368.85,40.371L370.58,40.371L372.31,40.371L374.04,40.371L375.77,40.371L377.5,40.371L379.23,40.371L380.96,40.371L382.69,40.371L384.42,40.371L386.15,40.371L387.88,40.371L389.61,40.371L391.34,40.371L393.07,40.371L394.8,40.371L396.53,40.371L398.26,40.371L399.99,40.371L401.72,40.371L403.45,40.371L405.18,40.371L406.91,40.371L408.64,40.371L410.37,40.371L412.1,40.371L413.83,40.371L415.55,40.371L417.28,40.371L419.01,40.371L420.74,40.371L422.47,40.371L424.2,40.371L425.93,40.371L427.66,40.371L429.39,40.371L431.12,40.371L432.85,40.371L434.58,40.371L436.31,40.371L438.04,40.371L439.77,40.371L441.5,40.371L443.23,40.371L444.96,40.371L446.69,40.371L448.42,40.371L450.15,40.371L451.88,40.371L453.61,40.371L455.34,40.371L457.07,40.371L458.8,40.371L460.53,40.371L462.26,40.371L463.99,40.371L465.72,40.371L467.45,40.371L469.18,40.371L470.91,40.371L472.64,40.371L474.37,40.371L476.1,40.371L477.83,40.371L479.56,40.371L481.29,40.371L483.02,40.371L484.75,40.371L486.48,40.371L488.2,40.371L489.93,40.371L491.66,40.371L493.39,40.371L495.12,40.371L496.85,40.371L498.58,40.371L500.31,40.371L502.04,40.371L503.77,40.371L505.5,40.371L507.23,40.371L508.96,40.371L510.69,40.371L512.42,40.371L514.15,40.371L515.88,40.371L517.61,40.371L519.34,40.371L521.07,40.371L522.8,40.371L524.53,40.371L526.26,40.371L527.99,40.371L529.72,40.371L531.45,40.371L533.18,40.371L534.91,40.371L536.64,40.371L538.37,40.371L540.1,40.371L541.83,40.371L543.56,40.371L545.29,40.371L547.02,40.371L548.75,40.371L550.48,40.371L552.21,40.371L553.94,40.371L555.67,40.371L557.4,40.371L559.12,40.371" style="fill:none;stroke:#800080" />
<path d="M43.656,40.371L45.386,40.371L47.116,40.371L48.846,40.371L50.575,40.371L52.305,40.371L54.035,40.371L55.765,40.371L57.494,40.371L59.224,40.371L60.954,40.371L62.684,40.371L64.413,40.371L66.143,40.371L67.873,40.371L69.603,40.371L71.332,40.371L73.062,40.371L74.792,40.371L76.522,40.371L78.251,40.371L79.981,115.92L81.711,112.81L83.441,56.788L85.171,220.51L86.9,230.4L88.63,226.04L90.36,287.7L92.09,210.42L93.819,164.92L95.549,146.84L97.279,100.49L99.009,87.671L100.74,180.62L102.47,187.76L104.2,183.85L105.93,232.46L107.66,167.65L109.39,135.01L111.12,121.89L112.85,101.93L114.58,101.9L116.31,99.631L118.04,55.314L119.77,138.03L121.5,143.38L123.23,146.09L124.96,203.95L126.68,146.65L128.41,113.74L130.14,100.45L131.87,74.72L133.6,78.473L135.33,72.311L137.06,144.04L138.79,138.7L140.52,139.93L142.25,188.61L143.98,138.06L145.71,108.98L147.44,97.199L149.17,82.495L150.9,80.309L152.63,50.243L154.36,106.82L156.09,110.43L157.82,114.73L159.55,165.87L161.28,119.47L163.01,93.184L164.74,82.442L166.47,64.497L168.2,69.192L169.93,60.049L171.66,124.39L173.39,119.5L175.12,121.51L176.85,165.59L178.58,121.83L180.31,96.852L182.04,86.646L183.77,62.469L185.5,61.264L187.23,105.25L188.96,98.695L190.69,102.45L192.42,145.87L194.15,106.72L195.88,84.67L197.6,90.015L199.33,76.4L201.06,76.48L202.79,75.177L204.52,73.323L206.25,71.216L207.98,47.645L209.71,92.988L211.44,95.874L213.17,101.05L214.9,150.08L216.63,107.95L218.36,84.294L220.09,74.558L221.82,59.992L223.55,64.637L225.28,54.907L227.01,86.356L228.74,79.916L230.47,86.186L232.2,133.53L233.93,95.692L235.66,74.689L237.39,65.967L239.12,58.725L240.85,56.578L242.58,54.934L244.31,53.595L246.04,52.464L247.77,71.109L249.5,68.735L251.23,66.888L252.96,65.251L254.69,63.784L256.42,62.465L258.15,61.279L259.88,60.208L261.61,59.239L263.34,58.357L265.07,57.552L266.8,56.812L268.53,56.13L270.25,55.496L271.98,43.513L273.71,81.907L275.44,84.187L277.17,93.437L278.9,156.96L280.63,108.02L282.36,80.778L284.09,69.601L285.82,56.815L287.55,60.068L289.28,51.682L291.01,79.872L292.74,71.589L294.47,80.779L296.2,138.53L297.93,95.787L299.66,72.203L301.39,62.443L303.12,55.625L304.85,80.3L306.58,76.691L308.31,73.781L310.04,71.169L311.77,68.83L313.5,66.752L315.23,64.914L316.96,63.291L318.69,61.858L320.42,60.589L322.15,59.461L323.88,58.455L325.61,57.551L327.34,56.735L329.07,55.993L330.8,55.315L332.53,54.691L334.26,54.114L335.99,53.577L337.72,53.075L339.45,52.604L341.18,52.159L342.9,51.738L344.63,51.338L346.36,50.956L348.09,42.564L349.82,70.394L351.55,72.042L353.28,84.192L355.01,156.37L356.74,104.4L358.47,75.692L360.2,63.907L361.93,53.239L363.66,54.878L365.39,48.661L367.12,72.452L368.85,62.936L370.58,74.176L372.31,188.32L374.04,135.84L375.77,105.83L377.5,93.658L379.23,80.009L380.96,76.902L382.69,73.8L384.42,70.986L386.15,68.475L387.88,64.306L389.61,62.598L391.34,61.1L393.07,59.785L394.8,58.626L396.53,57.6L398.26,56.687L399.99,55.868L401.72,55.131L403.45,54.461L405.18,53.85L406.91,53.288L408.64,52.768L410.37,52.284L412.1,51.832L413.83,51.408L415.55,51.007L417.28,50.628L419.01,50.267L420.74,49.924L422.47,49.596L424.2,49.283L425.93,48.982L427.66,48.693L429.39,48.415L431.12,48.148L432.85,47.89L434.58,47.642L436.31,47.403L438.04,47.171L439.77,46.948L441.5,46.733L443.23,46.524L444.96,46.323L446.69,46.129L448.42,45.94L450.15,45.759L451.88,45.583L453.61,45.413L455.34,45.248L457.07,45.089L458.8,44.935L460.53,44.786L462.26,44.642L463.99,44.503L465.72,44.368L467.45,44.237L469.18,44.111L470.91,43.989L472.64,43.871L474.37,43.757L476.1,43.647L477.83,43.54L479.56,43.436L481.29,43.336L483.02,43.239L484.75,43.146L486.48,43.055L488.2,42.967L489.93,42.883L491.66,42.8L493.39,42.721L495.12,42.644L496.85,42.57L498.58,42.498L500.31,42.429L502.04,42.361L503.77,42.296L505.5,42.233L507.23,42.172L508.96,42.113L510.69,42.056L512.42,42.001L514.15,41.948L515.88,41.896L517.61,41.846L519.34,41.798L521.07,41.751L522.8,41.706L524.53,41.662L526.26,41.62L527.99,41.579L529.72,41.54L531.45,41.501L533.18,41.464L534.91,41.428L536.64,41.394L538.37,41.36L540.1,41.328L541.83,41.296L543.56,41.266L545.29,41.237L547.02,41.208L548.75,41.181L550.48,41.154L552.21,41.129L553.94,41.104L555.67,41.08L557.4,41.056L559.12,41.034" style="fill:none;stroke:#FA8072" />
<path d="M43.656,40.371L45.386,40.371L47.116,40.371L48.846,40.371L50.575,40.371L52.305,40.371L54.035,40.371L55.765,40.371L57.494,40.371L59.224,40.371L60.954,40.371L62.684,40.371L64.413,40.371L66.143,40.371L67.873,40.371L69.603,40.371L71.332,40.371L73.062,40.371L74.792,40.371L76.522,40.371L78.251,40.371L79.981,62.347L81.711,40.371L83.441,40.371L85.171,40.371L86.9,40.371L88.63,40.371L90.36,40.371L92.09,40.371L93.819,40.371L95.549,40.371L97.279,40.371L99.009,40.371L100.74,40.371L102.47,62.347L104.2,40.371L105.93,40.371L107.66,40.371L109.39,40.371L111.12,40.371L112.85,40.371L114.58,40.371L116.31,40.371L118.04,40.371L119.77,40.371L121.5,40.371L123.23,40.371L124.96,40.371L126.68,40.371L128.41,40.371L130.14,40.371L131.87,40.371L133.6,40.371L135.33,40.371L137.06,62.347L138.79,40.371L140.52,40.371L142.25,40.371L143.98,40.371L145.71,40.371L147.44,40.371L149.17,40.371L150.9,40.371L152.63,40.371L154.36,40.371L156.09,40.371L157.82,40.371L159.55,40.371L161.28,40.371L163.01,40.371L164.74,40.371L166.47,40.371L168.2,40.371L169.93,40.371L171.66,62.347L173.39,40.371L175.12,40.371L176.85,40.371L178.58,40.371L180.31,40.371L182.04,40.371L183.77,40.371L185.5,40.371L187.23,40.371L188.96,40.371L190.69,40.371L192.42,40.371L194.15,40.371L195.88,40.371L197.6,62.347L199.33,40.371L201.06,40.371L202.79,40.371L204.52,40.371L206.25,40.371L207.98,40.371L209.71,40.371L211.44,40.371L213.17,40.371L214.9,40.371L216.63,40.371L218.36,40.371L220.09,40.371L221.82,40.371L223.55,40.371L225.28,40.371L227.01,40.371L228.74,40.371L230.47,40.371L232.2,40.371L233.93,40.371L235.66,40.371L237.39,40.371L239.12,40.371L240.85,40.371L242.58,40.371L244.31,40.371L246.04,40.371L247.77,62.347L249.5,40.371L251.23,40.371L252.96,40.371L254.69,40.371L256.42,40.371L258.15,40.371L259.88,40.371L261.61,40.371L263.34,40.371L265.07,40.371L266.8,40.371L268.53,40.371L270.25,40.371L271.98,40.371L273.71,40.371L275.44,40.371L277.17,40.371L278.9,40.371L280.63,40.371L282.36,40.371L284.09,40.371L285.82,40.371L287.55,40.371L289.28,40.371L291.01,40.371L292.74,40.371L294.47,40.371L296.2,40.371L297.93,40.371L299.66,40.371L301.39,40.371L303.12,40.371L304.85,62.347L306.58,40.371L308.31,40.371L310.04,40.371L311.77,40.371L313.5,40.371L315.23,40.371L316.96,40.371L318.69,40.371L320.42,40.371L322.15,40.371L323.88,40.371L325.61,40.371L327.34,40.371L329.07,40.371L330.8,40.371L332.53,40.371L334.26,40.371L335.99,40.371L337.72,40.371L339.45,40.371L341.18,40.371L342.9,40.371L344.63,40.371L346.36,40.371L348.09,40.371L349.82,40.371L351.55,40.371L353.28,40.371L355.01,40.371L356.74,40.371L358.47,40.371L360.2,40.371L361.93,40.371L363.66,40.371L365.39,40.371L367.12,40.371L368.85,40.371L370.58,40.371L372.31,62.347L374.04,40.371L375.77,40.371L377.5,40.371L379.23,40.371L380.96,40.371L382.69,40.371L384.42,40.371L386.15,40.371L387.88,40.371L389.61,40.371L391.34,40.371L393.07,40.371L394.8,40.371L396.53,40.371L398.26,40.371L399.99,40.371L401.72,40.371L403.45,40.371L405.18,40.371L406.91,40.371L408.64,40.371L410.37,40.371L412.1,40.371L413.83,40.371L415.55,40.371L417.28,40.371L419.01,40.371L420.74,40.371L422.47,40.371L424.2,40.371L425.93,40.371L427.66,40.371L429.39,40.371L431.12,40.371L432.85,40.371L434.58,40.371L436.31,40.371L438.04,40.371L439.77,40.371L441.5,40.371L443.23,40.371L444.96,40.371L446.69,40.371L448.42,40.371L450.15,40.371L451.88,40.371L453.61,40.371L455.34,40.371L457.07,40.371L458.8,40.371L460.53,40.371L462.26,40.371L463.99,40.371L465.72,40.371L467.45,40.371L469.18,40.371L470.91,40.371L472.64,40.371L474.37,40.371L476.1,40.371L477.83,40.371L479.56,40.371L481.29,40.371L483.02,40.371L484.75,40.371L486.48,40.371L488.2,40.371L489.93,40.371L491.66,40.371L493.39,40.371L495.12,40.371L496.85,40.371L498.58,40.371L500.31,40.371L502.04,40.371L503.77,40.371L505.5,40.371L507.23,40.371L508.96,40.371L510.69,40.371L512.42,40.371L514.15,40.371L515.88,40.371L517.61,40.371L519.34,40.371L521.07,40.371L522.8,40.371L524.53,40.371L526.26,40.371L527.99,40.371L529.72,40.371L531.45,40.371L533.18,40.371L534.91,40.371L536.64,40.371L538.37,40.371L540.1,40.371L541.83,40.371L543.56,40.371L545.29,40.371L547.02,40.371L548.75,40.371L550.48,40.371L552.21,40.371L553.94,40.371L555.67,40.371L557.4,40.371L559.12,40.371" style="fill:none;stroke:#FA8072" />
<path d="M43.656,41.47L45.386,41.47L47.116,41.47L48.846,41.47L50.575,41.47L52.305,41.47L54.035,41.47L55.765,41.47L57.494,41.47L59.224,41.47L60.954,41.47L62.684,41.47L64.413,41.47L66.143,41.47L67.873,41.47L69.603,41.47L71.332,41.47L73.062,41.47L74.792,41.47L76.522,41.47L78.251,41.47L79.981,81.027L81.711,103.78L83.441,117.74L85.171,328.78L86.9,356.74L88.63,316.54L90.36,378.47L92.09,286.75L93.819,218.49L95.549,177.73L97.279,144.43L99.009,178.13L100.74,214.04L102.47,222.24L104.2,204.28L105.93,273.33L107.66,201.18L109.39,156.75L111.12,131.23L112.85,111.55L114.58,104.71L116.31,98.479L118.04,92.948L119.77,133.55L121.5,134.18L123.23,132.31L124.96,215.21L126.68,163.77L128.41,125.2L130.14,103.65L131.87,89.062L133.6,95.217L135.33,105.95L137.06,131.77L138.79,136.62L140.52,133.33L142.25,203.12L143.98,156.73L145.71,122.35L147.44,102.87L149.17,88.99L150.9,82.659L152.63,77.707L154.36,103.14L156.09,103.31L157.82,105.27L159.55,178.12L161.28,136.78L163.01,106.08L164.74,89.004L166.47,77.892L168.2,80.651L169.93,85.782L171.66,115.7L173.39,121.16L175.12,119.54L176.85,181.93L178.58,141.47L180.31,111.79L182.04,94.943L183.77,82.95L185.5,98.591L187.23,100.67L188.96,99.373L190.69,100.05L192.42,161.05L194.15,125.36L195.88,99.11L197.6,97.334L199.33,86.994L201.06,83.462L202.79,79.836L204.52,76.314L206.25,72.983L207.98,69.913L209.71,96.894L211.44,97.848L213.17,99.941L214.9,167.77L216.63,129.14L218.36,100.98L220.09,85.369L221.82,75.129L223.55,78.19L225.28,82.337L227.01,83.048L228.74,81.836L230.47,86.025L232.2,151.42L233.93,116.95L235.66,91.677L237.39,77.68L239.12,69.042L240.85,64.157L242.58,60.74L244.31,58.142L246.04,56.065L247.77,65.818L249.5,65.72L251.23,64.272L252.96,62.682L254.69,61.167L256.42,59.776L258.15,58.517L259.88,57.383L261.61,56.363L263.34,55.444L265.07,54.615L266.8,53.863L268.53,53.18L270.25,52.556L271.98,51.984L273.71,77.381L275.44,78.58L277.17,86.836L278.9,174.17L280.63,130.33L282.36,98.474L284.09,81.475L285.82,71.459L287.55,71.625L289.28,73.482L291.01,74.182L292.74,72.657L294.47,80.542L296.2,160.22L297.93,121.39L299.66,92.64L301.39,77.085L303.12,68.172L304.85,77.051L306.58,74.848L308.31,71.571L310.04,68.515L311.77,65.824L313.5,63.48L315.23,61.444L316.96,59.674L318.69,58.132L320.42,56.785L322.15,55.604L323.88,54.564L325.61,53.644L327.34,52.826L329.07,52.097L330.8,51.442L332.53,50.851L334.26,50.317L335.99,49.83L337.72,49.386L339.45,48.979L341.18,48.604L342.9,48.258L344.63,47.937L346.36,47.639L348.09,47.361L349.82,62.269L351.55,62.978L353.28,75.633L355.01,174.74L356.74,128.64L358.47,95.011L360.2,77.408L361.93,67.881L363.66,65.284L365.39,65.153L367.12,65.189L368.85,63.31L370.58,73.979L372.31,189.17L374.04,148.2L375.77,114.98L377.5,96.364L379.23,83.724L380.96,77.364L382.69,72.573L384.42,68.76L386.15,65.622L387.88,60.76L389.61,58.855L391.34,57.218L393.07,55.807L394.8,54.582L396.53,53.516L398.26,52.583L399.99,51.762L401.72,51.037L403.45,50.393L405.18,49.818L406.91,49.303L408.64,48.839L410.37,48.42L412.1,48.039L413.83,47.691L415.55,47.373L417.28,47.081L419.01,46.812L420.74,46.563L422.47,46.332L424.2,46.118L425.93,45.917L427.66,45.73L429.39,45.555L431.12,45.39L432.85,45.236L434.58,45.09L436.31,44.953L438.04,44.823L439.77,44.7L441.5,44.584L443.23,44.473L444.96,44.368L446.69,44.269L448.42,44.174L450.15,44.084L451.88,43.998L453.61,43.916L455.34,43.838L457.07,43.764L458.8,43.693L460.53,43.625L462.26,43.56L463.99,43.498L465.72,43.439L467.45,43.382L469.18,43.327L470.91,43.275L472.64,43.225L474.37,43.177L476.1,43.132L477.83,43.088L479.56,43.046L481.29,43.005L483.02,42.966L484.75,42.929L486.48,42.893L488.2,42.859L489.93,42.826L491.66,42.795L493.39,42.764L495.12,42.735L496.85,42.707L498.58,42.68L500.31,42.655L502.04,42.63L503.77,42.606L505.5,42.583L507.23,42.561L508.96,42.54L510.69,42.519L512.42,42.5L514.15,42.481L515.88,42.463L517.61,42.445L519.34,42.428L521.07,42.412L522.8,42.397L524.53,42.382L526.26,42.367L527.99,42.354L529.72,42.34L531.45,42.327L533.18,42.315L534.91,42.303L536.64,42.292L538.37,42.281L540.1,42.27L541.83,42.26L543.56,42.25L545.29,42.241L547.02,42.232L548.75,42.223L550.48,42.214L552.21,42.206L553.94,42.198L555.67,42.191L557.4,42.184L559.12,42.177" style="fill:none;stroke:#A52A2A" />
<path d="M539.12,370.69L559.12,370.69" style="fill:none;stroke:#800080" />
<text x="505.77" y="-367.86" transform="scale(1, -1)"
	style="font-family:Liberation Sans;font-variant:normal;font-weight:normal;font-style:normal;font-size:12px">Spike</text>
<path d="M539.12,360.22L559.12,360.22" style="fill:none;stroke:#FA8072" />
<text x="520.45" y="-357.39" transform="scale(1, -1)"
	style="font-family:Liberation Sans;font-variant:normal;font-weight:normal;font-style:normal;font-size:12px">Ca</text>
<path d="M539.12,349.75L559.12,349.75" style="fill:none;stroke:#FA8072" />
<text x="487.1" y="-346.92" transform="scale(1, -1)"
	style="font-family:Liberation Sans;font-variant:normal;font-weight:normal;font-style:normal;font-size:12px">PreSpike</text>
<path d="M539.12,339.28L559.12,339.28" style="fill:none;stroke:#A52A2A" />
<text x="489.1" y="-336.45" transform="scale(1, -1)"
	style="font-family:Liberation Sans;font-variant:normal;font-weight:normal;font-style:normal;font-size:12px">PSD_Ca</text>
</g>
</svg>
