<?xml version="1.0"?>
<!-- Generated by SVGo and Plotinum VG -->
<svg width="559.12pt" height="391.88pt" viewBox="0 0 559.12 391.88"
	xmlns="http://www.w3.org/2000/svg"
	xmlns:xlink="http://www.w3.org/1999/xlink">
<g transform="scale(1, -1) translate(0, -391.88)">
<text x="234.54" y="-382.15" transform="scale(1, -1)"
	style="font-family:Liberation Sans;font-variant:normal;font-weight:normal;font-style:normal;font-size:12px">Kinase Time Plot</text>
<text x="280.63" y="-3.6797" transform="scale(1, -1)"
	style="font-family:Liberation Sans;font-variant:normal;font-weight:normal;font-style:normal;font-size:12px">Time</text>
<text x="130.62" y="-16.473" transform="scale(1, -1)"
	style="font-family:Liberation Sans;font-variant:normal;font-weight:normal;font-style:normal;font-size:10px">0.65</text>
<text x="335.14" y="-16.473" transform="scale(1, -1)"
	style="font-family:Liberation Sans;font-variant:normal;font-weight:normal;font-style:normal;font-size:10px">0.75</text>
<text x="539.66" y="-16.473" transform="scale(1, -1)"
	style="font-family:Liberation Sans;font-variant:normal;font-weight:normal;font-style:normal;font-size:10px">0.85</text>
<path d="M140.35,24.578L140.35,32.578" style="fill:none;stroke:#000000;stroke-width:0.5" />
<path d="M344.87,24.578L344.87,32.578" style="fill:none;stroke:#000000;stroke-width:0.5" />
<path d="M549.39,24.578L549.39,32.578" style="fill:none;stroke:#000000;stroke-width:0.5" />
<path d="M242.61,28.578L242.61,32.578" style="fill:none;stroke:#000000;stroke-width:0.5" />
<path d="M447.13,28.578L447.13,32.578" style="fill:none;stroke:#000000;stroke-width:0.5" />
<path d="M38.095,32.578L549.39,32.578" style="fill:none;stroke:#000000;stroke-width:0.5" />
<g transform="rotate(90)">
<text x="194.41" y="9.7266" transform="scale(1, -1)"
	style="font-family:Liberation Sans;font-variant:normal;font-weight:normal;font-style:normal;font-size:12px">Spike</text>
</g>
<text x="15.949" y="-37.852" transform="scale(1, -1)"
	style="font-family:Liberation Sans;font-variant:normal;font-weight:normal;font-style:normal;font-size:10px">0</text>
<text x="15.949" y="-190.61" transform="scale(1, -1)"
	style="font-family:Liberation Sans;font-variant:normal;font-weight:normal;font-style:normal;font-size:10px">4</text>
<text x="15.949" y="-343.37" transform="scale(1, -1)"
	style="font-family:Liberation Sans;font-variant:normal;font-weight:normal;font-style:normal;font-size:10px">8</text>
<path d="M24.289,40.371L32.289,40.371" style="fill:none;stroke:#000000;stroke-width:0.5" />
<path d="M24.289,193.13L32.289,193.13" style="fill:none;stroke:#000000;stroke-width:0.5" />
<path d="M24.289,345.89L32.289,345.89" style="fill:none;stroke:#000000;stroke-width:0.5" />
<path d="M28.289,78.561L32.289,78.561" style="fill:none;stroke:#000000;stroke-width:0.5" />
<path d="M28.289,116.75L32.289,116.75" style="fill:none;stroke:#000000;stroke-width:0.5" />
<path d="M28.289,154.94L32.289,154.94" style="fill:none;stroke:#000000;stroke-width:0.5" />
<path d="M28.289,231.32L32.289,231.32" style="fill:none;stroke:#000000;stroke-width:0.5" />
<path d="M28.289,269.51L32.289,269.51" style="fill:none;stroke:#000000;stroke-width:0.5" />
<path d="M28.289,307.7L32.289,307.7" style="fill:none;stroke:#000000;stroke-width:0.5" />
<path d="M32.289,40.371L32.289,378.47" style="fill:none;stroke:#000000;stroke-width:0.5" />
<path d="M40.14,40.371L42.185,40.371L44.23,40.371L46.275,40.371L48.321,40.371L50.366,40.371L52.411,40.371L54.456,40.371L56.501,40.371L58.547,40.371L60.592,40.371L62.637,78.561L64.682,40.371L66.727,40.371L68.773,40.371L70.818,40.371L72.863,40.371L74.908,40.371L76.953,40.371L78.999,40.371L81.044,40.371L83.089,78.561L85.134,40.371L87.179,40.371L89.225,40.371L91.27,40.371L93.315,40.371L95.36,40.371L97.405,40.371L99.451,40.371L101.5,40.371L103.54,40.371L105.59,78.561L107.63,40.371L109.68,40.371L111.72,40.371L113.77,40.371L115.81,40.371L117.86,40.371L119.9,40.371L121.95,40.371L123.99,40.371L126.04,78.561L128.08,40.371L130.13,40.371L132.17,40.371L134.22,40.371L136.26,40.371L138.31,40.371L140.35,40.371L142.4,78.561L144.44,40.371L146.49,40.371L148.54,40.371L150.58,40.371L152.63,40.371L154.67,40.371L156.72,40.371L158.76,40.371L160.81,40.371L162.85,78.561L164.9,40.371L166.94,40.371L168.99,40.371L171.03,40.371L173.08,40.371L175.12,40.371L177.17,40.371L179.21,40.371L181.26,40.371L183.3,40.371L185.35,40.371L187.39,40.371L189.44,40.371L191.48,40.371L193.53,78.561L195.57,40.371L197.62,40.371L199.67,40.371L201.71,40.371L203.76,40.371L205.8,40.371L207.85,40.371L209.89,40.371L211.94,40.371L213.98,78.561L216.03,40.371L218.07,40.371L220.12,40.371L222.16,40.371L224.21,40.371L226.25,40.371L228.3,40.371L230.34,40.371L232.39,40.371L234.43,40.371L236.48,40.371L238.52,40.371L240.57,40.371L242.61,40.371L244.66,40.371L246.7,40.371L248.75,40.371L250.8,40.371L252.84,40.371L254.89,40.371L256.93,40.371L258.98,40.371L261.02,40.371L263.07,40.371L265.11,40.371L267.16,40.371L269.2,40.371L271.25,40.371L273.29,40.371L275.34,40.371L277.38,40.371L279.43,40.371L281.47,40.371L283.52,40.371L285.56,40.371L287.61,40.371L289.65,40.371L291.7,78.561L293.74,40.371L295.79,40.371L297.83,40.371L299.88,40.371L301.92,40.371L303.97,40.371L306.02,40.371L308.06,40.371L310.11,40.371L312.15,78.561L314.2,40.371L316.24,40.371L318.29,40.371L320.33,40.371L322.38,40.371L324.42,40.371L326.47,40.371L328.51,40.371L330.56,40.371L332.6,40.371L334.65,40.371L336.69,40.371L338.74,40.371L340.78,40.371L342.83,40.371L344.87,40.371L346.92,40.371L348.96,40.371L351.01,40.371L353.05,40.371L355.1,40.371L357.15,40.371L359.19,40.371L361.24,40.371L363.28,40.371L365.33,40.371L367.37,78.561L369.42,40.371L371.46,40.371L373.51,40.371L375.55,40.371L377.6,40.371L379.64,40.371L381.69,40.371L383.73,40.371L385.78,40.371L387.82,78.561L389.87,40.371L391.91,40.371L393.96,40.371L396,40.371L398.05,40.371L400.09,40.371L402.14,40.371L404.18,40.371L406.23,40.371L408.28,40.371L410.32,40.371L412.37,40.371L414.41,40.371L416.46,40.371L418.5,40.371L420.55,40.371L422.59,40.371L424.64,40.371L426.68,40.371L428.73,40.371L430.77,40.371L432.82,40.371L434.86,40.371L436.91,40.371L438.95,40.371L441,40.371L443.04,40.371L445.09,40.371L447.13,40.371L449.18,40.371L451.22,40.371L453.27,40.371L455.31,40.371L457.36,40.371L459.4,40.371L461.45,40.371L463.5,40.371L465.54,40.371L467.59,40.371L469.63,40.371L471.68,40.371L473.72,40.371L475.77,40.371L477.81,40.371L479.86,40.371L481.9,40.371L483.95,40.371L485.99,40.371L488.04,40.371L490.08,40.371L492.13,40.371L494.17,40.371L496.22,40.371L498.26,40.371L500.31,40.371L502.35,40.371L504.4,40.371L506.44,40.371L508.49,40.371L510.53,40.371L512.58,40.371L514.63,40.371L516.67,40.371L518.72,40.371L520.76,40.371L522.81,40.371L524.85,40.371L526.9,40.371L528.94,40.371L530.99,40.371L533.03,40.371L535.08,40.371L537.12,40.371L539.17,40.371L541.21,40.371L543.26,40.371L545.3,40.371L547.35,40.371L549.39,40.371" style="fill:none;stroke:#800080" />
<path d="M40.14,40.371L42.185,40.371L44.23,40.371L46.275,40.371L48.321,40.371L50.366,40.371L52.411,40.371L54.456,40.371L56.501,40.371L58.547,40.371L60.592,40.371L62.637,154.94L64.682,143.48L66.727,133.17L68.773,123.89L70.818,230.11L72.863,211.14L74.908,194.06L76.953,178.69L78.999,164.86L81.044,152.41L83.089,255.78L85.134,234.24L87.179,214.85L89.225,197.4L91.27,181.7L93.315,167.57L95.36,154.85L97.405,143.4L99.451,133.1L101.5,123.82L103.54,115.48L105.59,222.54L107.63,204.32L109.68,187.93L111.72,173.17L113.77,159.89L115.81,147.94L117.86,137.18L119.9,242.07L121.95,221.9L123.99,203.75L126.04,301.98L128.08,275.82L130.13,252.27L132.17,231.08L134.22,212.01L136.26,194.85L138.31,179.4L140.35,165.5L142.4,267.55L144.44,244.84L146.49,224.39L148.54,205.99L150.58,189.43L152.63,174.52L154.67,161.11L156.72,263.6L158.76,241.28L160.81,221.19L162.85,317.68L164.9,289.95L166.94,264.99L168.99,242.53L171.03,222.31L173.08,204.12L175.12,187.74L177.17,173.01L179.21,159.74L181.26,147.8L183.3,137.06L185.35,127.39L187.39,118.69L189.44,110.86L191.48,103.81L193.53,212.04L195.57,194.87L197.62,179.42L199.67,165.51L201.71,153L203.76,141.74L205.8,246.17L207.85,225.59L209.89,207.07L211.94,190.4L213.98,289.97L216.03,265.01L218.07,242.54L220.12,222.33L222.16,204.13L224.21,187.75L226.25,173.02L228.3,274.32L230.34,250.93L232.39,229.87L234.43,210.92L236.48,193.87L238.52,178.52L240.57,164.7L242.61,152.27L244.66,141.08L246.7,131.01L248.75,121.94L250.8,113.79L252.84,106.45L254.89,99.838L256.93,93.891L258.98,88.539L261.02,83.722L263.07,79.387L265.11,75.486L267.16,71.974L269.2,68.814L271.25,65.97L273.29,63.41L275.34,61.106L277.38,59.032L279.43,171.74L281.47,158.6L283.52,146.78L285.56,136.14L287.61,126.56L289.65,117.94L291.7,224.75L293.74,206.32L295.79,189.72L297.83,174.79L299.88,161.34L301.92,149.25L303.97,138.36L306.02,128.56L308.06,119.74L310.11,111.8L312.15,219.23L314.2,201.34L316.24,185.25L318.29,170.76L320.33,157.72L322.38,145.99L324.42,135.42L326.47,125.92L328.51,117.36L330.56,109.67L332.6,102.74L334.65,96.499L336.69,90.886L338.74,85.835L340.78,81.288L342.83,77.197L344.87,73.514L346.92,70.2L348.96,67.217L351.01,64.532L353.05,62.116L355.1,59.942L357.15,57.985L359.19,56.223L361.24,54.638L363.28,53.211L365.33,51.927L367.37,165.34L369.42,152.84L371.46,141.6L373.51,131.47L375.55,236.93L377.6,217.28L379.64,199.59L381.69,183.67L383.73,169.34L385.78,156.44L387.82,259.4L389.87,237.5L391.91,217.79L393.96,200.04L396,184.08L398.05,169.71L400.09,156.77L402.14,145.13L404.18,134.66L406.23,125.23L408.28,116.74L410.32,109.11L412.37,102.23L414.41,96.046L416.46,90.478L418.5,85.468L420.55,80.958L422.59,76.899L424.64,73.246L426.68,69.959L428.73,181.57L430.77,167.45L432.82,154.74L434.86,143.3L436.91,123.75L438.95,115.41L441,107.91L443.04,101.15L445.09,95.074L447.13,89.604L449.18,84.681L451.22,80.25L453.27,76.262L455.31,72.673L457.36,69.443L459.4,66.535L461.45,63.919L463.5,61.564L465.54,59.445L467.59,57.538L469.63,55.821L471.68,54.276L473.72,52.885L475.77,51.634L477.81,50.508L479.86,49.494L481.9,48.582L483.95,47.761L485.99,47.022L488.04,46.357L490.08,45.758L492.13,45.219L494.17,44.735L496.22,44.298L498.26,43.906L500.31,43.552L502.35,43.234L504.4,42.948L506.44,42.69L508.49,42.458L510.53,42.249L512.58,42.062L514.63,41.893L516.67,41.74L518.72,41.603L520.76,41.48L522.81,41.369L524.85,41.269L526.9,41.18L528.94,41.099L530.99,41.026L533.03,40.961L535.08,40.902L537.12,40.849L539.17,40.801L541.21,40.758L543.26,40.719L545.3,40.684L547.35,40.653L549.39,40.625" style="fill:none;stroke:#FFC0CB" />
<path d="M40.14,40.371L42.185,40.371L44.23,40.371L46.275,40.371L48.321,40.371L50.366,40.371L52.411,40.371L54.456,40.371L56.501,40.371L58.547,40.371L60.592,40.371L62.637,40.371L64.682,40.371L66.727,40.371L68.773,40.371L70.818,78.561L72.863,40.371L74.908,40.371L76.953,40.371L78.999,40.371L81.044,40.371L83.089,40.371L85.134,40.371L87.179,40.371L89.225,40.371L91.27,40.371L93.315,40.371L95.36,40.371L97.405,40.371L99.451,40.371L101.5,40.371L103.54,40.371L105.59,40.371L107.63,40.371L109.68,40.371L111.72,40.371L113.77,40.371L115.81,40.371L117.86,40.371L119.9,78.561L121.95,40.371L123.99,40.371L126.04,40.371L128.08,40.371L130.13,40.371L132.17,40.371L134.22,40.371L136.26,40.371L138.31,40.371L140.35,40.371L142.4,40.371L144.44,40.371L146.49,40.371L148.54,40.371L150.58,40.371L152.63,40.371L154.67,40.371L156.72,78.561L158.76,40.371L160.81,40.371L162.85,40.371L164.9,40.371L166.94,40.371L168.99,40.371L171.03,40.371L173.08,40.371L175.12,40.371L177.17,40.371L179.21,40.371L181.26,40.371L183.3,40.371L185.35,40.371L187.39,40.371L189.44,40.371L191.48,40.371L193.53,40.371L195.57,40.371L197.62,40.371L199.67,40.371L201.71,40.371L203.76,40.371L205.8,78.561L207.85,40.371L209.89,40.371L211.94,40.371L213.98,40.371L216.03,40.371L218.07,40.371L220.12,40.371L222.16,40.371L224.21,40.371L226.25,40.371L228.3,78.561L230.34,40.371L232.39,40.371L234.43,40.371L236.48,40.371L238.52,40.371L240.57,40.371L242.61,40.371L244.66,40.371L246.7,40.371L248.75,40.371L250.8,40.371L252.84,40.371L254.89,40.371L256.93,40.371L258.98,40.371L261.02,40.371L263.07,40.371L265.11,40.371L267.16,40.371L269.2,40.371L271.25,40.371L273.29,40.371L275.34,40.371L277.38,40.371L279.43,78.561L281.47,40.371L283.52,40.371L285.56,40.371L287.61,40.371L289.65,40.371L291.7,40.371L293.74,40.371L295.79,40.371L297.83,40.371L299.88,40.371L301.92,40.371L303.97,40.371L306.02,40.371L308.06,40.371L310.11,40.371L312.15,40.371L314.2,40.371L316.24,40.371L318.29,40.371L320.33,40.371L322.38,40.371L324.42,40.371L326.47,40.371L328.51,40.371L330.56,40.371L332.6,40.371L334.65,40.371L336.69,40.371L338.74,40.371L340.78,40.371L342.83,40.371L344.87,40.371L346.92,40.371L348.96,40.371L351.01,40.371L353.05,40.371L355.1,40.371L357.15,40.371L359.19,40.371L361.24,40.371L363.28,40.371L365.33,40.371L367.37,40.371L369.42,40.371L371.46,40.371L373.51,40.371L375.55,78.561L377.6,40.371L379.64,40.371L381.69,40.371L383.73,40.371L385.78,40.371L387.82,40.371L389.87,40.371L391.91,40.371L393.96,40.371L396,40.371L398.05,40.371L400.09,40.371L402.14,40.371L404.18,40.371L406.23,40.371L408.28,40.371L410.32,40.371L412.37,40.371L414.41,40.371L416.46,40.371L418.5,40.371L420.55,40.371L422.59,40.371L424.64,40.371L426.68,40.371L428.73,78.561L430.77,40.371L432.82,40.371L434.86,40.371L436.91,40.371L438.95,40.371L441,40.371L443.04,40.371L445.09,40.371L447.13,40.371L449.18,40.371L451.22,40.371L453.27,40.371L455.31,40.371L457.36,40.371L459.4,40.371L461.45,40.371L463.5,40.371L465.54,40.371L467.59,40.371L469.63,40.371L471.68,40.371L473.72,40.371L475.77,40.371L477.81,40.371L479.86,40.371L481.9,40.371L483.95,40.371L485.99,40.371L488.04,40.371L490.08,40.371L492.13,40.371L494.17,40.371L496.22,40.371L498.26,40.371L500.31,40.371L502.35,40.371L504.4,40.371L506.44,40.371L508.49,40.371L510.53,40.371L512.58,40.371L514.63,40.371L516.67,40.371L518.72,40.371L520.76,40.371L522.81,40.371L524.85,40.371L526.9,40.371L528.94,40.371L530.99,40.371L533.03,40.371L535.08,40.371L537.12,40.371L539.17,40.371L541.21,40.371L543.26,40.371L545.3,40.371L547.35,40.371L549.39,40.371" style="fill:none;stroke:#FA8072" />
<path d="M40.14,43.679L42.185,43.67L44.23,43.662L46.275,43.654L48.321,43.647L50.366,43.639L52.411,43.632L54.456,43.625L56.501,43.618L58.547,43.612L60.592,43.606L62.637,43.6L64.682,46.583L66.727,46.869L68.773,79.589L70.818,374.44L72.863,308.19L74.908,243.38L76.953,203.88L78.999,169.91L81.044,210.82L83.089,261.52L85.134,246.54L87.179,243.42L89.225,232.29L91.27,378.47L93.315,278.18L95.36,203.95L97.405,162.59L99.451,134.05L101.5,120.8L103.54,110.59L105.59,102.39L107.63,150.87L109.68,151.27L111.72,157.83L113.77,307.62L115.81,224.62L117.86,162.87L119.9,153.87L121.95,131.71L123.99,149.85L126.04,170.07L128.08,169.46L130.13,167.39L132.17,167.69L134.22,295.36L136.26,218.88L138.31,162.51L140.35,131.21L142.4,110.46L144.44,136.78L146.49,135.13L148.54,140.51L150.58,265.79L152.63,196.67L154.67,145.45L156.72,138.21L158.76,119.57L160.81,133.6L162.85,147.27L164.9,150.32L166.94,148.65L168.99,149.77L171.03,261.65L173.08,195.47L175.12,147.07L177.17,120L179.21,102.04L181.26,92.371L183.3,85.294L185.35,79.774L187.39,75.297L189.44,71.58L191.48,68.451L193.53,65.792L195.57,94.681L197.62,95.438L199.67,108.83L201.71,242.99L203.76,176.49L205.8,153.97L207.85,129.29L209.89,109.93L211.94,120.74L213.98,130.32L216.03,136.19L218.07,134.83L220.12,139.23L222.16,257.6L224.21,191.14L226.25,142.55L228.3,131.58L230.34,113.67L232.39,103.61L234.43,95.636L236.48,89.193L238.52,83.863L240.57,79.391L242.61,75.602L244.66,72.368L246.7,69.594L248.75,67.2L250.8,65.125L252.84,63.316L254.89,61.732L256.93,60.337L258.98,59.103L261.02,58.005L263.07,57.023L265.11,56.142L267.16,55.346L269.2,54.625L271.25,53.968L273.29,53.367L275.34,52.816L277.38,52.309L279.43,66.183L281.47,70.043L283.52,71.388L285.56,71.724L287.61,71.533L289.65,71.048L291.7,70.399L293.74,152.46L295.79,157.28L297.83,165.45L299.88,327.21L301.92,237.32L303.97,171.46L306.02,135.9L308.06,113.17L310.11,120.35L312.15,128.64L314.2,132.17L316.24,129.8L318.29,139.34L320.33,286.19L322.38,208.59L324.42,151L326.47,119.73L328.51,100.77L330.56,90.185L332.6,82.801L334.65,77.224L336.69,72.801L338.74,69.186L340.78,66.177L342.83,63.642L344.87,61.489L346.92,59.649L348.96,58.068L351.01,56.703L353.05,55.52L355.1,54.489L357.15,53.586L359.19,52.794L361.24,52.094L363.28,51.474L365.33,50.923L367.37,50.43L369.42,67.867L371.46,68.76L373.51,92.641L375.55,316.97L377.6,243.54L379.64,183.42L381.69,149.67L383.73,125.54L385.78,141.65L387.82,156.79L389.87,162.71L391.91,161.26L393.96,164.51L396,304.1L398.05,223.47L400.09,163.9L402.14,131.16L404.18,110.01L406.23,98.703L408.28,90.503L410.32,84.169L412.37,79.08L414.41,74.89L416.46,71.389L418.5,68.432L420.55,65.917L422.59,63.764L424.64,61.911L426.68,60.308L428.73,71.953L430.77,73.156L432.82,72.549L434.86,71.507L436.91,69.149L438.95,67.99L441,66.88L443.04,65.83L445.09,64.839L447.13,63.907L449.18,63.029L451.22,62.203L453.27,61.423L455.31,60.687L457.36,59.99L459.4,59.33L461.45,58.703L463.5,58.108L465.54,57.542L467.59,57.003L469.63,56.489L471.68,55.999L473.72,55.531L475.77,55.084L477.81,54.656L479.86,54.246L481.9,53.854L483.95,53.479L485.99,53.119L488.04,52.773L490.08,52.442L492.13,52.125L494.17,51.82L496.22,51.527L498.26,51.245L500.31,50.975L502.35,50.715L504.4,50.465L506.44,50.225L508.49,49.994L510.53,49.772L512.58,49.558L514.63,49.353L516.67,49.155L518.72,48.964L520.76,48.78L522.81,48.604L524.85,48.433L526.9,48.269L528.94,48.111L530.99,47.959L533.03,47.812L535.08,47.671L537.12,47.534L539.17,47.403L541.21,47.276L543.26,47.154L545.3,47.036L547.35,46.922L549.39,46.813" style="fill:none;stroke:#A52A2A" />
<path d="M539.12,370.69L559.12,370.69" style="fill:none;stroke:#800080" />
<text x="505.77" y="-367.86" transform="scale(1, -1)"
	style="font-family:Liberation Sans;font-variant:normal;font-weight:normal;font-style:normal;font-size:12px">Spike</text>
<path d="M539.12,360.22L559.12,360.22" style="fill:none;stroke:#FFC0CB" />
<text x="510.46" y="-357.39" transform="scale(1, -1)"
	style="font-family:Liberation Sans;font-variant:normal;font-weight:normal;font-style:normal;font-size:12px">CaM</text>
<path d="M539.12,349.75L559.12,349.75" style="fill:none;stroke:#FA8072" />
<text x="487.1" y="-346.92" transform="scale(1, -1)"
	style="font-family:Liberation Sans;font-variant:normal;font-weight:normal;font-style:normal;font-size:12px">PreSpike</text>
<path d="M539.12,339.28L559.12,339.28" style="fill:none;stroke:#A52A2A" />
<text x="489.1" y="-336.45" transform="scale(1, -1)"
	style="font-family:Liberation Sans;font-variant:normal;font-weight:normal;font-style:normal;font-size:12px">PSD_Ca</text>
</g>
</svg>
