<?xml version="1.0"?>
<!-- Generated by SVGo and Plotinum VG -->
<svg width="560.62pt" height="265.88pt" viewBox="0 0 560.62 265.88"
	xmlns="http://www.w3.org/2000/svg"
	xmlns:xlink="http://www.w3.org/1999/xlink">
<g transform="scale(1, -1) translate(0, -265.88)">
<text x="235.29" y="-256.15" transform="scale(1, -1)"
	style="font-family:Liberation Sans;font-variant:normal;font-weight:normal;font-style:normal;font-size:12px">Kinase Time Plot</text>
<text x="293.2" y="-3.6797" transform="scale(1, -1)"
	style="font-family:Liberation Sans;font-variant:normal;font-weight:normal;font-style:normal;font-size:12px">Time</text>
<text x="45.045" y="-16.473" transform="scale(1, -1)"
	style="font-family:Liberation Sans;font-variant:normal;font-weight:normal;font-style:normal;font-size:10px">0.0</text>
<text x="272.62" y="-16.473" transform="scale(1, -1)"
	style="font-family:Liberation Sans;font-variant:normal;font-weight:normal;font-style:normal;font-size:10px">0.4</text>
<text x="500.19" y="-16.473" transform="scale(1, -1)"
	style="font-family:Liberation Sans;font-variant:normal;font-weight:normal;font-style:normal;font-size:10px">0.8</text>
<path d="M51.996,24.578L51.996,32.578" style="fill:none;stroke:#000000;stroke-width:0.5" />
<path d="M279.57,24.578L279.57,32.578" style="fill:none;stroke:#000000;stroke-width:0.5" />
<path d="M507.15,24.578L507.15,32.578" style="fill:none;stroke:#000000;stroke-width:0.5" />
<path d="M108.89,28.578L108.89,32.578" style="fill:none;stroke:#000000;stroke-width:0.5" />
<path d="M165.78,28.578L165.78,32.578" style="fill:none;stroke:#000000;stroke-width:0.5" />
<path d="M222.68,28.578L222.68,32.578" style="fill:none;stroke:#000000;stroke-width:0.5" />
<path d="M336.46,28.578L336.46,32.578" style="fill:none;stroke:#000000;stroke-width:0.5" />
<path d="M393.36,28.578L393.36,32.578" style="fill:none;stroke:#000000;stroke-width:0.5" />
<path d="M450.25,28.578L450.25,32.578" style="fill:none;stroke:#000000;stroke-width:0.5" />
<path d="M51.996,32.578L560.62,32.578" style="fill:none;stroke:#000000;stroke-width:0.5" />
<g transform="rotate(90)">
<text x="128.62" y="9.7266" transform="scale(1, -1)"
	style="font-family:Liberation Sans;font-variant:normal;font-weight:normal;font-style:normal;font-size:12px">Spike</text>
</g>
<text x="15.949" y="-37.852" transform="scale(1, -1)"
	style="font-family:Liberation Sans;font-variant:normal;font-weight:normal;font-style:normal;font-size:10px">0.00</text>
<text x="15.949" y="-141.11" transform="scale(1, -1)"
	style="font-family:Liberation Sans;font-variant:normal;font-weight:normal;font-style:normal;font-size:10px">2.50</text>
<text x="15.949" y="-244.36" transform="scale(1, -1)"
	style="font-family:Liberation Sans;font-variant:normal;font-weight:normal;font-style:normal;font-size:10px">5.00</text>
<path d="M38.19,40.371L46.19,40.371" style="fill:none;stroke:#000000;stroke-width:0.5" />
<path d="M38.19,143.63L46.19,143.63" style="fill:none;stroke:#000000;stroke-width:0.5" />
<path d="M38.19,246.88L46.19,246.88" style="fill:none;stroke:#000000;stroke-width:0.5" />
<path d="M42.19,61.022L46.19,61.022" style="fill:none;stroke:#000000;stroke-width:0.5" />
<path d="M42.19,81.673L46.19,81.673" style="fill:none;stroke:#000000;stroke-width:0.5" />
<path d="M42.19,102.32L46.19,102.32" style="fill:none;stroke:#000000;stroke-width:0.5" />
<path d="M42.19,122.98L46.19,122.98" style="fill:none;stroke:#000000;stroke-width:0.5" />
<path d="M42.19,164.28L46.19,164.28" style="fill:none;stroke:#000000;stroke-width:0.5" />
<path d="M42.19,184.93L46.19,184.93" style="fill:none;stroke:#000000;stroke-width:0.5" />
<path d="M42.19,205.58L46.19,205.58" style="fill:none;stroke:#000000;stroke-width:0.5" />
<path d="M42.19,226.23L46.19,226.23" style="fill:none;stroke:#000000;stroke-width:0.5" />
<path d="M46.19,40.371L46.19,246.88" style="fill:none;stroke:#000000;stroke-width:0.5" />
<path d="M51.996,40.371L52.565,40.371L53.134,40.371L53.703,40.371L54.272,40.371L54.841,40.371L55.41,40.371L55.979,40.371L56.548,40.371L57.117,40.371L57.685,40.371L58.254,40.371L58.823,40.371L59.392,40.371L59.961,40.371L60.53,40.371L61.099,40.371L61.668,40.371L62.237,40.371L62.806,40.371L63.375,40.371L63.944,40.371L64.513,81.673L65.082,40.371L65.651,40.371L66.219,40.371L66.788,40.371L67.357,40.371L67.926,40.371L68.495,40.371L69.064,40.371L69.633,40.371L70.202,81.673L70.771,40.371L71.34,40.371L71.909,40.371L72.478,40.371L73.047,40.371L73.616,40.371L74.185,40.371L74.754,40.371L75.322,40.371L75.891,81.673L76.46,40.371L77.029,40.371L77.598,40.371L78.167,40.371L78.736,40.371L79.305,40.371L79.874,40.371L80.443,40.371L81.012,40.371L81.581,81.673L82.15,40.371L82.719,40.371L83.288,40.371L83.857,40.371L84.425,40.371L84.994,40.371L85.563,40.371L86.132,40.371L86.701,40.371L87.27,40.371L87.839,40.371L88.408,81.673L88.977,40.371L89.546,40.371L90.115,40.371L90.684,40.371L91.253,40.371L91.822,40.371L92.391,40.371L92.959,40.371L93.528,40.371L94.097,81.673L94.666,40.371L95.235,40.371L95.804,40.371L96.373,40.371L96.942,40.371L97.511,40.371L98.08,40.371L98.649,40.371L99.218,40.371L99.787,40.371L100.36,40.371L100.92,40.371L101.49,81.673L102.06,40.371L102.63,40.371L103.2,40.371L103.77,40.371L104.34,40.371L104.91,40.371L105.48,40.371L106.05,40.371L106.61,40.371L107.18,81.673L107.75,40.371L108.32,40.371L108.89,40.371L109.46,40.371L110.03,40.371L110.6,40.371L111.17,40.371L111.73,40.371L112.3,40.371L112.87,40.371L113.44,40.371L114.01,40.371L114.58,40.371L115.15,40.371L115.72,40.371L116.29,40.371L116.85,40.371L117.42,40.371L117.99,40.371L118.56,40.371L119.13,40.371L119.7,40.371L120.27,40.371L120.84,40.371L121.41,40.371L121.98,40.371L122.54,40.371L123.11,40.371L123.68,40.371L124.25,40.371L124.82,40.371L125.39,40.371L125.96,40.371L126.53,40.371L127.1,40.371L127.66,40.371L128.23,81.673L128.8,40.371L129.37,40.371L129.94,40.371L130.51,40.371L131.08,40.371L131.65,40.371L132.22,40.371L132.79,40.371L133.35,40.371L133.92,81.673L134.49,40.371L135.06,40.371L135.63,40.371L136.2,40.371L136.77,40.371L137.34,40.371L137.91,40.371L138.47,40.371L139.04,40.371L139.61,40.371L140.18,40.371L140.75,40.371L141.32,40.371L141.89,40.371L142.46,40.371L143.03,40.371L143.59,40.371L144.16,40.371L144.73,40.371L145.3,40.371L145.87,40.371L146.44,40.371L147.01,40.371L147.58,40.371L148.15,40.371L148.72,40.371L149.28,40.371L149.85,40.371L150.42,40.371L150.99,81.673L151.56,40.371L152.13,40.371L152.7,40.371L153.27,40.371L153.84,40.371L154.4,40.371L154.97,40.371L155.54,40.371L156.11,40.371L156.68,81.673L157.25,40.371L157.82,40.371L158.39,40.371L158.96,40.371L159.53,40.371L160.09,40.371L160.66,40.371L161.23,40.371L161.8,40.371L162.37,40.371L162.94,40.371L163.51,40.371L164.08,40.371L164.65,40.371L165.21,40.371L165.78,40.371L166.35,40.371L166.92,40.371L167.49,40.371L168.06,40.371L168.63,40.371L169.2,40.371L169.77,40.371L170.33,40.371L170.9,40.371L171.47,40.371L172.04,40.371L172.61,40.371L173.18,40.371L173.75,40.371L174.32,40.371L174.89,40.371L175.46,40.371L176.02,40.371L176.59,40.371L177.16,40.371L177.73,40.371L178.3,40.371L178.87,40.371L179.44,40.371L180.01,40.371L180.58,40.371L181.14,40.371L181.71,40.371L182.28,40.371L182.85,40.371L183.42,40.371L183.99,40.371L184.56,40.371L185.13,40.371L185.7,40.371L186.27,40.371L186.83,40.371L187.4,40.371L187.97,40.371L188.54,40.371L189.11,40.371L189.68,40.371L190.25,40.371L190.82,40.371L191.39,40.371L191.95,40.371L192.52,40.371L193.09,40.371L193.66,40.371L194.23,40.371L194.8,40.371L195.37,40.371L195.94,40.371L196.51,40.371L197.07,40.371L197.64,40.371L198.21,40.371L198.78,40.371L199.35,40.371L199.92,40.371L200.49,40.371L201.06,40.371L201.63,40.371L202.2,40.371L202.76,40.371L203.33,40.371L203.9,40.371L204.47,40.371L205.04,40.371L205.61,40.371L206.18,40.371L206.75,40.371L207.32,40.371L207.88,40.371L208.45,40.371L209.02,40.371L209.59,40.371L210.16,40.371L210.73,40.371L211.3,40.371L211.87,40.371L212.44,40.371L213.01,40.371L213.57,40.371L214.14,40.371L214.71,40.371L215.28,40.371L215.85,40.371L216.42,40.371L216.99,40.371L217.56,40.371L218.13,40.371L218.69,40.371L219.26,40.371L219.83,40.371L220.4,40.371L220.97,40.371L221.54,40.371L222.11,40.371L222.68,40.371L223.25,40.371L223.81,40.371L224.38,40.371L224.95,40.371L225.52,40.371L226.09,40.371L226.66,40.371L227.23,40.371L227.8,40.371L228.37,40.371L228.94,40.371L229.5,40.371L230.07,40.371L230.64,40.371L231.21,81.673L231.78,40.371L232.35,40.371L232.92,40.371L233.49,40.371L234.06,40.371L234.62,40.371L235.19,40.371L235.76,40.371L236.33,40.371L236.9,81.673L237.47,40.371L238.04,40.371L238.61,40.371L239.18,40.371L239.75,40.371L240.31,40.371L240.88,40.371L241.45,81.673L242.02,40.371L242.59,40.371L243.16,40.371L243.73,40.371L244.3,40.371L244.87,40.371L245.43,40.371L246,40.371L246.57,40.371L247.14,81.673L247.71,40.371L248.28,40.371L248.85,40.371L249.42,40.371L249.99,40.371L250.55,40.371L251.12,40.371L251.69,81.673L252.26,40.371L252.83,40.371L253.4,40.371L253.97,40.371L254.54,40.371L255.11,40.371L255.68,40.371L256.24,40.371L256.81,40.371L257.38,81.673L257.95,40.371L258.52,40.371L259.09,40.371L259.66,40.371L260.23,40.371L260.8,40.371L261.36,40.371L261.93,40.371L262.5,40.371L263.07,40.371L263.64,40.371L264.21,40.371L264.78,40.371L265.35,40.371L265.92,40.371L266.49,40.371L267.05,40.371L267.62,81.673L268.19,40.371L268.76,40.371L269.33,40.371L269.9,40.371L270.47,40.371L271.04,40.371L271.61,40.371L272.17,40.371L272.74,40.371L273.31,81.673L273.88,40.371L274.45,40.371L275.02,40.371L275.59,40.371L276.16,40.371L276.73,40.371L277.29,40.371L277.86,40.371L278.43,40.371L279,40.371L279.57,40.371L280.14,40.371L280.71,40.371L281.28,40.371L281.85,40.371L282.42,40.371L282.98,40.371L283.55,40.371L284.12,40.371L284.69,40.371L285.26,40.371L285.83,40.371L286.4,40.371L286.97,40.371L287.54,40.371L288.1,40.371L288.67,40.371L289.24,40.371L289.81,40.371L290.38,40.371L290.95,40.371L291.52,40.371L292.09,40.371L292.66,81.673L293.23,40.371L293.79,40.371L294.36,40.371L294.93,40.371L295.5,40.371L296.07,40.371L296.64,40.371L297.21,40.371L297.78,40.371L298.35,81.673L298.91,40.371L299.48,40.371L300.05,40.371L300.62,40.371L301.19,40.371L301.76,40.371L302.33,40.371L302.9,40.371L303.47,40.371L304.03,40.371L304.6,40.371L305.17,40.371L305.74,40.371L306.31,40.371L306.88,40.371L307.45,40.371L308.02,40.371L308.59,40.371L309.16,40.371L309.72,40.371L310.29,40.371L310.86,40.371L311.43,40.371L312,40.371L312.57,40.371L313.14,40.371L313.71,40.371L314.28,40.371L314.84,40.371L315.41,40.371L315.98,40.371L316.55,40.371L317.12,40.371L317.69,40.371L318.26,40.371L318.83,40.371L319.4,81.673L319.97,40.371L320.53,40.371L321.1,40.371L321.67,40.371L322.24,40.371L322.81,40.371L323.38,40.371L323.95,40.371L324.52,40.371L325.09,81.673L325.65,40.371L326.22,40.371L326.79,40.371L327.36,40.371L327.93,40.371L328.5,40.371L329.07,40.371L329.64,40.371L330.21,40.371L330.77,40.371L331.34,40.371L331.91,40.371L332.48,40.371L333.05,40.371L333.62,40.371L334.19,40.371L334.76,40.371L335.33,40.371L335.9,40.371L336.46,40.371L337.03,40.371L337.6,40.371L338.17,40.371L338.74,40.371L339.31,40.371L339.88,40.371L340.45,40.371L341.02,40.371L341.58,40.371L342.15,40.371L342.72,40.371L343.29,40.371L343.86,40.371L344.43,40.371L345,40.371L345.57,40.371L346.14,40.371L346.71,40.371L347.27,40.371L347.84,40.371L348.41,40.371L348.98,40.371L349.55,40.371L350.12,40.371L350.69,40.371L351.26,40.371L351.83,40.371L352.39,40.371L352.96,40.371L353.53,40.371L354.1,40.371L354.67,40.371L355.24,40.371L355.81,40.371L356.38,40.371L356.95,40.371L357.51,40.371L358.08,40.371L358.65,40.371L359.22,40.371L359.79,40.371L360.36,40.371L360.93,40.371L361.5,40.371L362.07,40.371L362.64,40.371L363.2,40.371L363.77,40.371L364.34,40.371L364.91,40.371L365.48,40.371L366.05,40.371L366.62,40.371L367.19,40.371L367.76,40.371L368.32,40.371L368.89,40.371L369.46,40.371L370.03,40.371L370.6,40.371L371.17,40.371L371.74,40.371L372.31,40.371L372.88,40.371L373.45,40.371L374.01,40.371L374.58,40.371L375.15,40.371L375.72,40.371L376.29,40.371L376.86,40.371L377.43,40.371L378,40.371L378.57,40.371L379.13,40.371L379.7,40.371L380.27,40.371L380.84,40.371L381.41,40.371L381.98,40.371L382.55,40.371L383.12,40.371L383.69,40.371L384.25,40.371L384.82,40.371L385.39,40.371L385.96,40.371L386.53,40.371L387.1,40.371L387.67,40.371L388.24,40.371L388.81,40.371L389.38,40.371L389.94,40.371L390.51,40.371L391.08,40.371L391.65,40.371L392.22,40.371L392.79,40.371L393.36,40.371L393.93,40.371L394.5,40.371L395.06,40.371L395.63,40.371L396.2,40.371L396.77,40.371L397.34,40.371L397.91,40.371L398.48,40.371L399.05,40.371L399.62,40.371L400.19,40.371L400.75,40.371L401.32,40.371L401.89,40.371L402.46,40.371L403.03,40.371L403.6,40.371L404.17,40.371L404.74,40.371L405.31,81.673L405.87,40.371L406.44,40.371L407.01,40.371L407.58,40.371L408.15,40.371L408.72,40.371L409.29,40.371L409.86,40.371L410.43,40.371L410.99,81.673L411.56,40.371L412.13,40.371L412.7,40.371L413.27,40.371L413.84,40.371L414.41,40.371L414.98,40.371L415.55,40.371L416.12,40.371L416.68,40.371L417.25,40.371L417.82,40.371L418.39,40.371L418.96,40.371L419.53,40.371L420.1,81.673L420.67,40.371L421.24,40.371L421.8,40.371L422.37,40.371L422.94,40.371L423.51,40.371L424.08,40.371L424.65,40.371L425.22,40.371L425.79,81.673L426.36,40.371L426.93,40.371L427.49,40.371L428.06,40.371L428.63,40.371L429.2,40.371L429.77,40.371L430.34,40.371L430.91,40.371L431.48,40.371L432.05,40.371L432.61,40.371L433.18,40.371L433.75,40.371L434.32,40.371L434.89,40.371L435.46,40.371L436.03,81.673L436.6,40.371L437.17,40.371L437.73,40.371L438.3,40.371L438.87,40.371L439.44,40.371L440.01,40.371L440.58,40.371L441.15,40.371L441.72,81.673L442.29,40.371L442.86,40.371L443.42,40.371L443.99,40.371L444.56,40.371L445.13,40.371L445.7,40.371L446.27,81.673L446.84,40.371L447.41,40.371L447.98,40.371L448.54,40.371L449.11,40.371L449.68,40.371L450.25,40.371L450.82,40.371L451.39,40.371L451.96,81.673L452.53,40.371L453.1,40.371L453.67,40.371L454.23,40.371L454.8,40.371L455.37,40.371L455.94,40.371L456.51,40.371L457.08,40.371L457.65,40.371L458.22,40.371L458.79,40.371L459.35,40.371L459.92,40.371L460.49,40.371L461.06,40.371L461.63,40.371L462.2,40.371L462.77,40.371L463.34,40.371L463.91,40.371L464.47,40.371L465.04,40.371L465.61,40.371L466.18,40.371L466.75,40.371L467.32,40.371L467.89,40.371L468.46,40.371L469.03,40.371L469.6,81.673L470.16,40.371L470.73,40.371L471.3,40.371L471.87,40.371L472.44,40.371L473.01,40.371L473.58,40.371L474.15,40.371L474.72,40.371L475.28,81.673L475.85,40.371L476.42,40.371L476.99,40.371L477.56,40.371L478.13,40.371L478.7,40.371L479.27,40.371L479.84,40.371L480.41,40.371L480.97,40.371L481.54,40.371L482.11,40.371L482.68,40.371L483.25,40.371L483.82,40.371L484.39,40.371L484.96,40.371L485.53,40.371L486.09,40.371L486.66,40.371L487.23,40.371L487.8,40.371L488.37,40.371L488.94,40.371L489.51,40.371L490.08,40.371L490.65,40.371L491.21,40.371L491.78,40.371L492.35,40.371L492.92,81.673L493.49,40.371L494.06,40.371L494.63,40.371L495.2,40.371L495.77,40.371L496.34,40.371L496.9,40.371L497.47,40.371L498.04,40.371L498.61,81.673L499.18,40.371L499.75,40.371L500.32,40.371L500.89,40.371L501.46,40.371L502.02,40.371L502.59,40.371L503.16,40.371L503.73,40.371L504.3,40.371L504.87,40.371L505.44,40.371L506.01,40.371L506.58,40.371L507.15,40.371L507.71,40.371L508.28,40.371L508.85,40.371L509.42,40.371L509.99,40.371L510.56,40.371L511.13,40.371L511.7,40.371L512.27,40.371L512.83,40.371L513.4,40.371L513.97,40.371L514.54,40.371L515.11,40.371L515.68,40.371L516.25,40.371L516.82,40.371L517.39,40.371L517.95,40.371L518.52,40.371L519.09,40.371L519.66,40.371L520.23,40.371L520.8,40.371L521.37,40.371L521.94,40.371L522.51,40.371L523.08,40.371L523.64,40.371L524.21,40.371L524.78,40.371L525.35,40.371L525.92,40.371L526.49,40.371L527.06,40.371L527.63,40.371L528.2,40.371L528.76,40.371L529.33,40.371L529.9,40.371L530.47,40.371L531.04,40.371L531.61,40.371L532.18,40.371L532.75,40.371L533.32,40.371L533.89,40.371L534.45,40.371L535.02,40.371L535.59,40.371L536.16,40.371L536.73,40.371L537.3,40.371L537.87,40.371L538.44,40.371L539.01,40.371L539.57,40.371L540.14,40.371L540.71,40.371L541.28,40.371L541.85,40.371L542.42,40.371L542.99,40.371L543.56,40.371L544.13,40.371L544.69,40.371L545.26,40.371L545.83,40.371L546.4,40.371L546.97,40.371L547.54,40.371L548.11,40.371L548.68,40.371L549.25,40.371L549.82,40.371L550.38,40.371L550.95,40.371L551.52,40.371L552.09,40.371L552.66,40.371L553.23,40.371L553.8,40.371L554.37,40.371L554.94,40.371L555.5,40.371L556.07,40.371L556.64,40.371L557.21,40.371L557.78,40.371L558.35,40.371L558.92,40.371L559.49,40.371L560.06,40.371L560.62,40.371" style="fill:none;stroke:#800080" />
<path d="M51.996,40.371L52.565,40.371L53.134,40.371L53.703,40.371L54.272,40.371L54.841,40.371L55.41,40.371L55.979,40.371L56.548,40.371L57.117,40.371L57.685,40.371L58.254,40.371L58.823,40.371L59.392,40.371L59.961,40.371L60.53,40.371L61.099,40.371L61.668,40.371L62.237,40.371L62.806,40.371L63.375,40.371L63.944,95.441L64.513,146.84L65.082,139.74L65.651,133.12L66.219,126.93L66.788,121.16L67.357,115.78L67.926,110.75L68.495,106.06L69.064,101.68L69.633,97.592L70.202,148.85L70.771,141.61L71.34,134.87L71.909,128.57L72.478,122.69L73.047,172.27L73.616,163.48L74.185,155.27L74.754,147.61L75.322,140.46L75.891,188.86L76.46,178.96L77.029,169.72L77.598,161.1L78.167,153.05L78.736,145.54L79.305,138.52L79.874,131.98L80.443,125.87L81.012,120.17L81.581,169.92L82.15,161.29L82.719,153.23L83.288,145.7L83.857,193.75L84.425,183.52L84.994,173.98L85.563,165.07L86.132,156.76L86.701,149L87.27,141.76L87.839,135L88.408,183.76L88.977,174.2L89.546,165.28L90.115,156.95L90.684,149.18L91.253,141.93L91.822,135.16L92.391,128.84L92.959,122.94L93.528,117.43L94.097,167.37L94.666,158.9L95.235,151L95.804,198.69L96.373,188.14L96.942,178.29L97.511,169.09L98.08,160.51L98.649,152.5L99.218,145.03L99.787,138.05L100.36,131.54L100.92,125.46L101.49,174.86L102.06,165.89L102.63,157.52L103.2,149.71L103.77,142.42L104.34,135.62L104.91,129.27L105.48,123.34L106.05,117.81L106.61,112.65L107.18,162.9L107.75,154.73L108.32,147.11L108.89,139.99L109.46,133.35L110.03,127.15L110.6,121.37L111.17,115.97L111.73,110.93L112.3,106.22L112.87,101.83L113.44,97.736L114.01,93.912L114.58,90.342L115.15,87.011L115.72,83.901L116.29,80.999L116.85,78.291L117.42,75.763L117.99,73.403L118.56,71.201L119.13,69.146L119.7,67.228L120.27,65.437L120.84,63.766L121.41,62.206L121.98,60.751L122.54,59.392L123.11,58.124L123.68,56.941L124.25,55.836L124.82,54.805L125.39,53.843L125.96,52.945L126.53,52.106L127.1,51.324L127.66,50.594L128.23,104.98L128.8,100.67L129.37,96.654L129.94,92.902L130.51,89.4L131.08,86.132L131.65,83.081L132.22,80.234L132.79,77.576L133.35,75.096L133.92,127.85L134.49,122.02L135.06,116.58L135.63,111.5L136.2,106.75L136.77,102.33L137.34,98.198L137.91,94.342L138.47,90.744L139.04,87.386L139.61,84.252L140.18,81.326L140.75,78.596L141.32,76.048L141.89,73.669L142.46,71.449L143.03,69.378L143.59,67.444L144.16,65.639L144.73,63.954L145.3,62.382L145.87,60.915L146.44,59.545L147.01,58.267L147.58,57.074L148.15,55.96L148.72,54.921L149.28,53.951L149.85,53.046L150.42,52.201L150.99,106.48L151.56,102.07L152.13,97.961L152.7,94.122L153.27,90.538L153.84,87.194L154.4,84.072L154.97,81.159L155.54,78.44L156.11,75.902L156.68,128.6L157.25,122.72L157.82,117.23L158.39,112.11L158.96,107.32L159.53,102.86L160.09,98.695L160.66,94.807L161.23,91.178L161.8,87.79L162.37,84.629L162.94,81.679L163.51,78.925L164.08,76.355L164.65,73.956L165.21,69.627L165.78,67.677L166.35,65.856L166.92,64.157L167.49,62.571L168.06,61.091L168.63,59.71L169.2,58.421L169.77,57.218L170.33,56.094L170.9,55.046L171.47,54.068L172.04,53.155L172.61,52.302L173.18,51.507L173.75,50.765L174.32,50.072L174.89,49.425L175.46,48.821L176.02,48.258L176.59,47.732L177.16,47.242L177.73,46.784L178.3,46.356L178.87,45.957L179.44,45.585L180.01,45.237L180.58,44.913L181.14,44.61L181.71,44.327L182.28,44.064L182.85,43.817L183.42,43.588L183.99,43.373L184.56,43.173L185.13,42.986L185.7,42.812L186.27,42.649L186.83,42.497L187.4,42.356L187.97,42.223L188.54,42.1L189.11,41.985L189.68,41.877L190.25,41.777L190.82,41.683L191.39,41.595L191.95,41.514L192.52,41.438L193.09,41.367L193.66,41.3L194.23,41.238L194.8,41.18L195.37,41.126L195.94,41.076L196.51,41.029L197.07,40.985L197.64,40.944L198.21,40.906L198.78,40.87L199.35,40.837L199.92,40.806L200.49,40.777L201.06,40.75L201.63,40.725L202.2,40.701L202.76,40.679L203.33,40.659L203.9,40.639L204.47,40.622L205.04,40.605L205.61,40.589L206.18,40.575L206.75,40.561L207.32,40.548L207.88,40.537L208.45,40.526L209.02,40.515L209.59,40.506L210.16,40.497L210.73,40.488L211.3,40.481L211.87,40.473L212.44,40.466L213.01,40.46L213.57,40.454L214.14,40.449L214.71,40.443L215.28,40.439L215.85,40.434L216.42,40.43L216.99,40.426L217.56,40.422L218.13,40.419L218.69,40.416L219.26,40.413L219.83,40.41L220.4,40.407L220.97,40.405L221.54,40.401L222.11,40.399L222.68,40.397L223.25,40.395L223.81,40.393L224.38,40.392L224.95,40.391L225.52,40.389L226.09,40.388L226.66,40.387L227.23,40.386L227.8,40.385L228.37,40.384L228.94,40.383L229.5,40.382L230.07,40.382L230.64,40.381L231.21,95.45L231.78,91.778L232.35,88.351L232.92,85.152L233.49,82.167L234.06,79.381L234.62,76.78L235.19,74.353L235.76,72.087L236.33,69.973L236.9,123.07L237.47,117.56L238.04,112.41L238.61,107.61L239.18,103.13L239.75,98.942L240.31,95.037L240.88,146.46L241.45,194.46L242.02,184.19L242.59,174.6L243.16,165.65L243.73,157.3L244.3,149.5L244.87,142.23L245.43,135.44L246,129.1L246.57,123.18L247.14,172.73L247.71,163.91L248.28,155.67L248.85,147.99L249.42,140.81L249.99,134.12L250.55,182.94L251.12,173.43L251.69,219.63L252.26,207.68L252.83,196.53L253.4,186.12L253.97,176.4L254.54,167.33L255.11,158.87L255.68,150.97L256.24,143.59L256.81,136.71L257.38,185.36L257.95,175.69L258.52,166.67L259.09,158.25L259.66,150.39L260.23,143.06L260.8,136.21L261.36,184.89L261.93,175.26L262.5,166.27L263.07,157.87L263.64,150.04L264.21,142.73L264.78,135.9L265.35,129.54L265.92,123.59L266.49,118.04L267.05,112.87L267.62,163.1L268.19,154.92L268.76,147.28L269.33,140.16L269.9,133.5L270.47,127.29L271.04,121.5L271.61,116.09L272.17,111.04L272.74,106.33L273.31,157L273.88,149.23L274.45,141.97L275.02,135.2L275.59,128.88L276.16,122.98L276.73,117.47L277.29,112.33L277.86,107.53L278.43,103.05L279,98.876L279.57,94.975L280.14,91.335L280.71,87.937L281.28,84.766L281.85,81.807L282.42,79.044L282.98,76.466L283.55,74.06L284.12,71.814L284.69,69.718L285.26,67.761L285.83,65.935L286.4,64.231L286.97,62.64L287.54,61.156L288.1,59.77L288.67,58.477L289.24,57.27L289.81,56.143L290.38,55.092L290.95,54.11L291.52,53.194L292.09,52.339L292.66,106.61L293.23,102.2L293.79,98.074L294.36,94.227L294.93,90.637L295.5,87.285L296.07,84.158L296.64,81.239L297.21,78.514L297.78,75.971L298.35,128.67L298.91,122.78L299.48,117.29L300.05,112.16L300.62,107.37L301.19,102.91L301.76,98.738L302.33,94.847L302.9,91.215L303.47,87.825L304.03,84.662L304.6,81.709L305.17,78.953L305.74,76.381L306.31,73.98L306.88,71.74L307.45,69.649L308.02,67.697L308.59,65.875L309.16,64.175L309.72,62.588L310.29,61.107L310.86,59.724L311.43,58.434L312,57.23L312.57,56.106L313.14,55.057L313.71,54.078L314.28,108.23L314.84,103.71L315.41,99.487L315.98,95.546L316.55,91.868L317.12,88.435L317.69,85.23L318.26,82.24L318.83,79.449L319.4,131.91L319.97,125.81L320.53,120.11L321.1,114.8L321.67,109.84L322.24,105.21L322.81,100.88L323.38,96.849L323.95,93.084L324.52,89.57L325.09,141.36L325.65,134.63L326.22,128.34L326.79,122.48L327.36,117L327.93,111.9L328.5,107.13L329.07,102.68L329.64,98.523L330.21,94.646L330.77,91.028L331.34,87.651L331.91,84.499L332.48,81.557L333.05,78.811L333.62,76.249L334.19,73.857L334.76,69.541L335.33,67.596L335.9,65.781L336.46,64.087L337.03,62.506L337.6,61.03L338.17,59.653L338.74,58.368L339.31,57.168L339.88,56.048L340.45,55.003L341.02,54.028L341.58,53.117L342.15,52.267L342.72,51.474L343.29,50.734L343.86,50.043L344.43,49.398L345,48.797L345.57,48.235L346.14,47.711L346.71,47.221L347.27,46.765L347.84,46.338L348.41,45.941L348.98,45.569L349.55,45.223L350.12,44.899L350.69,44.597L351.26,44.316L351.83,44.053L352.39,43.807L352.96,43.578L353.53,43.364L354.1,43.165L354.67,42.979L355.24,42.805L355.81,42.642L356.38,42.491L356.95,42.35L357.51,42.218L358.08,42.095L358.65,41.98L359.22,41.873L359.79,41.772L360.36,41.679L360.93,41.592L361.5,41.51L362.07,41.434L362.64,41.364L363.2,41.297L363.77,41.236L364.34,41.178L364.91,41.124L365.48,41.074L366.05,41.027L366.62,40.983L367.19,40.943L367.76,40.905L368.32,40.869L368.89,40.836L369.46,40.805L370.03,40.776L370.6,40.749L371.17,40.724L371.74,40.7L372.31,40.678L372.88,40.658L373.45,40.639L374.01,40.621L374.58,40.604L375.15,40.589L375.72,40.574L376.29,40.561L376.86,40.548L377.43,40.536L378,40.525L378.57,40.515L379.13,40.505L379.7,40.496L380.27,40.488L380.84,40.48L381.41,40.473L381.98,40.466L382.55,40.46L383.12,40.454L383.69,40.448L384.25,40.443L384.82,40.438L385.39,40.434L385.96,40.43L386.53,40.426L387.1,40.422L387.67,40.419L388.24,40.416L388.81,40.413L389.38,40.41L389.94,40.407L390.51,40.405L391.08,40.401L391.65,40.399L392.22,40.397L392.79,40.395L393.36,40.393L393.93,40.392L394.5,40.391L395.06,40.389L395.63,40.388L396.2,40.387L396.77,40.386L397.34,40.385L397.91,40.384L398.48,40.383L399.05,40.382L399.62,40.382L400.19,95.451L400.75,91.779L401.32,88.352L401.89,85.153L402.46,82.167L403.03,79.381L403.6,76.78L404.17,74.353L404.74,72.088L405.31,125.04L405.87,119.4L406.44,114.13L407.01,109.21L407.58,104.62L408.15,100.34L408.72,96.342L409.29,92.61L409.86,89.128L410.43,85.877L410.99,137.91L411.56,131.41L412.13,125.34L412.7,119.68L413.27,114.39L413.84,109.45L414.41,104.85L414.98,100.55L415.55,96.539L416.12,147.86L416.68,140.7L417.25,134.01L417.82,127.77L418.39,121.94L418.96,116.5L419.53,111.43L420.1,161.76L420.67,153.67L421.24,146.11L421.8,139.06L422.37,132.49L422.94,126.34L423.51,120.61L424.08,115.26L424.65,110.27L425.22,105.61L425.79,156.33L426.36,148.6L426.93,196.45L427.49,186.05L428.06,176.34L428.63,167.27L429.2,158.81L429.77,150.92L430.34,143.55L430.91,136.67L431.48,130.25L432.05,124.26L432.61,118.66L433.18,113.44L433.75,108.57L434.32,104.03L434.89,99.783L435.46,95.822L436.03,147.2L436.6,140.07L437.17,133.43L437.73,127.22L438.3,121.43L438.87,116.03L439.44,166.05L440.01,157.68L440.58,149.86L441.15,142.56L441.72,190.81L442.29,180.78L442.86,171.42L443.42,162.69L443.99,154.53L444.56,146.92L445.13,139.82L445.7,188.26L446.27,233.47L446.84,220.6L447.41,208.58L447.98,197.37L448.54,186.9L449.11,177.13L449.68,168.01L450.25,159.5L450.82,151.56L451.39,144.15L451.96,192.3L452.53,182.17L453.1,172.72L453.67,163.9L454.23,155.66L454.8,147.97L455.37,140.8L455.94,134.11L456.51,127.86L457.08,122.02L457.65,116.58L458.22,111.5L458.79,106.76L459.35,102.33L459.92,98.202L460.49,94.346L461.06,90.748L461.63,87.39L462.2,84.255L462.77,81.329L463.34,133.67L463.91,127.45L464.47,121.64L465.04,116.23L465.61,111.17L466.18,106.45L466.75,102.04L467.32,97.932L467.89,94.095L468.46,90.513L469.03,87.17L469.6,139.12L470.16,132.54L470.73,126.39L471.3,120.66L471.87,115.31L472.44,110.31L473.01,105.65L473.58,101.3L474.15,97.234L474.72,93.443L475.28,144.97L475.85,138L476.42,131.49L476.99,125.42L477.56,119.75L478.13,114.46L478.7,109.52L479.27,104.91L479.84,100.6L480.41,96.589L480.97,92.841L481.54,89.343L482.11,86.079L482.68,138.1L483.25,131.59L483.82,125.5L484.39,119.83L484.96,114.53L485.53,109.59L486.09,104.97L486.66,100.67L487.23,96.647L487.8,92.895L488.37,89.394L488.94,86.125L489.51,83.075L490.08,80.228L490.65,77.571L491.21,75.091L491.78,72.776L492.35,70.616L492.92,123.67L493.49,118.12L494.06,112.93L494.63,108.1L495.2,103.58L495.77,99.367L496.34,95.434L496.9,91.763L497.47,88.337L498.04,85.139L498.61,137.22L499.18,130.77L499.75,124.74L500.32,119.12L500.89,113.87L501.46,108.97L502.02,104.39L502.59,100.13L503.16,96.142L503.73,92.424L504.3,85.715L504.87,82.692L505.44,79.871L506.01,77.237L506.58,74.78L507.15,72.486L507.71,70.345L508.28,68.346L508.85,66.481L509.42,64.741L509.99,63.116L510.56,61.6L511.13,60.185L511.7,58.864L512.27,57.631L512.83,56.48L513.4,55.406L513.97,54.404L514.54,53.468L515.11,52.595L515.68,51.78L516.25,51.02L516.82,50.31L517.39,49.647L517.95,49.029L518.52,48.452L519.09,47.913L519.66,47.41L520.23,46.941L520.8,46.503L521.37,46.094L521.94,45.713L522.51,45.356L523.08,45.024L523.64,44.714L524.21,44.424L524.78,44.154L525.35,43.902L525.92,43.667L526.49,43.447L527.06,43.242L527.63,43.05L528.2,42.872L528.76,42.705L529.33,42.549L529.9,42.404L530.47,42.269L531.04,42.142L531.61,42.024L532.18,41.914L532.75,41.811L533.32,41.715L533.89,41.625L534.45,41.542L535.02,41.464L535.59,41.391L536.16,41.323L536.73,41.26L537.3,41.2L537.87,41.145L538.44,41.093L539.01,41.045L539.57,41L540.14,40.958L540.71,40.919L541.28,40.883L541.85,40.849L542.42,40.817L542.99,40.787L543.56,40.759L544.13,40.733L544.69,40.709L545.26,40.687L545.83,40.666L546.4,40.646L546.97,40.628L547.54,40.611L548.11,40.595L548.68,40.58L549.25,40.566L549.82,40.553L550.38,40.541L550.95,40.529L551.52,40.519L552.09,40.509L552.66,40.5L553.23,40.491L553.8,40.483L554.37,40.476L554.94,40.469L555.5,40.462L556.07,40.456L556.64,40.451L557.21,40.445L557.78,40.44L558.35,40.436L558.92,40.431L559.49,40.427L560.06,40.424L560.62,40.42" style="fill:none;stroke:#FFC0CB" />
<path d="M51.996,40.371L52.565,40.371L53.134,40.371L53.703,40.371L54.272,40.371L54.841,40.371L55.41,40.371L55.979,40.371L56.548,40.371L57.117,40.371L57.685,40.371L58.254,40.371L58.823,40.371L59.392,40.371L59.961,40.371L60.53,40.371L61.099,40.371L61.668,40.371L62.237,40.371L62.806,40.371L63.375,40.371L63.944,81.673L64.513,40.371L65.082,40.371L65.651,40.371L66.219,40.371L66.788,40.371L67.357,40.371L67.926,40.371L68.495,40.371L69.064,40.371L69.633,40.371L70.202,40.371L70.771,40.371L71.34,40.371L71.909,40.371L72.478,40.371L73.047,81.673L73.616,40.371L74.185,40.371L74.754,40.371L75.322,40.371L75.891,40.371L76.46,40.371L77.029,40.371L77.598,40.371L78.167,40.371L78.736,40.371L79.305,40.371L79.874,40.371L80.443,40.371L81.012,40.371L81.581,40.371L82.15,40.371L82.719,40.371L83.288,40.371L83.857,81.673L84.425,40.371L84.994,40.371L85.563,40.371L86.132,40.371L86.701,40.371L87.27,40.371L87.839,40.371L88.408,40.371L88.977,40.371L89.546,40.371L90.115,40.371L90.684,40.371L91.253,40.371L91.822,40.371L92.391,40.371L92.959,40.371L93.528,40.371L94.097,40.371L94.666,40.371L95.235,40.371L95.804,81.673L96.373,40.371L96.942,40.371L97.511,40.371L98.08,40.371L98.649,40.371L99.218,40.371L99.787,40.371L100.36,40.371L100.92,40.371L101.49,40.371L102.06,40.371L102.63,40.371L103.2,40.371L103.77,40.371L104.34,40.371L104.91,40.371L105.48,40.371L106.05,40.371L106.61,40.371L107.18,40.371L107.75,40.371L108.32,40.371L108.89,40.371L109.46,40.371L110.03,40.371L110.6,40.371L111.17,40.371L111.73,40.371L112.3,40.371L112.87,40.371L113.44,40.371L114.01,40.371L114.58,40.371L115.15,40.371L115.72,40.371L116.29,40.371L116.85,40.371L117.42,40.371L117.99,40.371L118.56,40.371L119.13,40.371L119.7,40.371L120.27,40.371L120.84,40.371L121.41,40.371L121.98,40.371L122.54,40.371L123.11,40.371L123.68,40.371L124.25,40.371L124.82,40.371L125.39,40.371L125.96,40.371L126.53,40.371L127.1,40.371L127.66,40.371L128.23,81.673L128.8,40.371L129.37,40.371L129.94,40.371L130.51,40.371L131.08,40.371L131.65,40.371L132.22,40.371L132.79,40.371L133.35,40.371L133.92,40.371L134.49,40.371L135.06,40.371L135.63,40.371L136.2,40.371L136.77,40.371L137.34,40.371L137.91,40.371L138.47,40.371L139.04,40.371L139.61,40.371L140.18,40.371L140.75,40.371L141.32,40.371L141.89,40.371L142.46,40.371L143.03,40.371L143.59,40.371L144.16,40.371L144.73,40.371L145.3,40.371L145.87,40.371L146.44,40.371L147.01,40.371L147.58,40.371L148.15,40.371L148.72,40.371L149.28,40.371L149.85,40.371L150.42,40.371L150.99,81.673L151.56,40.371L152.13,40.371L152.7,40.371L153.27,40.371L153.84,40.371L154.4,40.371L154.97,40.371L155.54,40.371L156.11,40.371L156.68,40.371L157.25,40.371L157.82,40.371L158.39,40.371L158.96,40.371L159.53,40.371L160.09,40.371L160.66,40.371L161.23,40.371L161.8,40.371L162.37,40.371L162.94,40.371L163.51,40.371L164.08,40.371L164.65,40.371L165.21,40.371L165.78,40.371L166.35,40.371L166.92,40.371L167.49,40.371L168.06,40.371L168.63,40.371L169.2,40.371L169.77,40.371L170.33,40.371L170.9,40.371L171.47,40.371L172.04,40.371L172.61,40.371L173.18,40.371L173.75,40.371L174.32,40.371L174.89,40.371L175.46,40.371L176.02,40.371L176.59,40.371L177.16,40.371L177.73,40.371L178.3,40.371L178.87,40.371L179.44,40.371L180.01,40.371L180.58,40.371L181.14,40.371L181.71,40.371L182.28,40.371L182.85,40.371L183.42,40.371L183.99,40.371L184.56,40.371L185.13,40.371L185.7,40.371L186.27,40.371L186.83,40.371L187.4,40.371L187.97,40.371L188.54,40.371L189.11,40.371L189.68,40.371L190.25,40.371L190.82,40.371L191.39,40.371L191.95,40.371L192.52,40.371L193.09,40.371L193.66,40.371L194.23,40.371L194.8,40.371L195.37,40.371L195.94,40.371L196.51,40.371L197.07,40.371L197.64,40.371L198.21,40.371L198.78,40.371L199.35,40.371L199.92,40.371L200.49,40.371L201.06,40.371L201.63,40.371L202.2,40.371L202.76,40.371L203.33,40.371L203.9,40.371L204.47,40.371L205.04,40.371L205.61,40.371L206.18,40.371L206.75,40.371L207.32,40.371L207.88,40.371L208.45,40.371L209.02,40.371L209.59,40.371L210.16,40.371L210.73,40.371L211.3,40.371L211.87,40.371L212.44,40.371L213.01,40.371L213.57,40.371L214.14,40.371L214.71,40.371L215.28,40.371L215.85,40.371L216.42,40.371L216.99,40.371L217.56,40.371L218.13,40.371L218.69,40.371L219.26,40.371L219.83,40.371L220.4,40.371L220.97,40.371L221.54,40.371L222.11,40.371L222.68,40.371L223.25,40.371L223.81,40.371L224.38,40.371L224.95,40.371L225.52,40.371L226.09,40.371L226.66,40.371L227.23,40.371L227.8,40.371L228.37,40.371L228.94,40.371L229.5,40.371L230.07,40.371L230.64,40.371L231.21,81.673L231.78,40.371L232.35,40.371L232.92,40.371L233.49,40.371L234.06,40.371L234.62,40.371L235.19,40.371L235.76,40.371L236.33,40.371L236.9,40.371L237.47,40.371L238.04,40.371L238.61,40.371L239.18,40.371L239.75,40.371L240.31,40.371L240.88,81.673L241.45,40.371L242.02,40.371L242.59,40.371L243.16,40.371L243.73,40.371L244.3,40.371L244.87,40.371L245.43,40.371L246,40.371L246.57,40.371L247.14,40.371L247.71,40.371L248.28,40.371L248.85,40.371L249.42,40.371L249.99,40.371L250.55,81.673L251.12,40.371L251.69,40.371L252.26,40.371L252.83,40.371L253.4,40.371L253.97,40.371L254.54,40.371L255.11,40.371L255.68,40.371L256.24,40.371L256.81,40.371L257.38,40.371L257.95,40.371L258.52,40.371L259.09,40.371L259.66,40.371L260.23,40.371L260.8,40.371L261.36,81.673L261.93,40.371L262.5,40.371L263.07,40.371L263.64,40.371L264.21,40.371L264.78,40.371L265.35,40.371L265.92,40.371L266.49,40.371L267.05,40.371L267.62,40.371L268.19,40.371L268.76,40.371L269.33,40.371L269.9,40.371L270.47,40.371L271.04,40.371L271.61,40.371L272.17,40.371L272.74,40.371L273.31,81.673L273.88,40.371L274.45,40.371L275.02,40.371L275.59,40.371L276.16,40.371L276.73,40.371L277.29,40.371L277.86,40.371L278.43,40.371L279,40.371L279.57,40.371L280.14,40.371L280.71,40.371L281.28,40.371L281.85,40.371L282.42,40.371L282.98,40.371L283.55,40.371L284.12,40.371L284.69,40.371L285.26,40.371L285.83,40.371L286.4,40.371L286.97,40.371L287.54,40.371L288.1,40.371L288.67,40.371L289.24,40.371L289.81,40.371L290.38,40.371L290.95,40.371L291.52,40.371L292.09,40.371L292.66,81.673L293.23,40.371L293.79,40.371L294.36,40.371L294.93,40.371L295.5,40.371L296.07,40.371L296.64,40.371L297.21,40.371L297.78,40.371L298.35,40.371L298.91,40.371L299.48,40.371L300.05,40.371L300.62,40.371L301.19,40.371L301.76,40.371L302.33,40.371L302.9,40.371L303.47,40.371L304.03,40.371L304.6,40.371L305.17,40.371L305.74,40.371L306.31,40.371L306.88,40.371L307.45,40.371L308.02,40.371L308.59,40.371L309.16,40.371L309.72,40.371L310.29,40.371L310.86,40.371L311.43,40.371L312,40.371L312.57,40.371L313.14,40.371L313.71,40.371L314.28,81.673L314.84,40.371L315.41,40.371L315.98,40.371L316.55,40.371L317.12,40.371L317.69,40.371L318.26,40.371L318.83,40.371L319.4,40.371L319.97,40.371L320.53,40.371L321.1,40.371L321.67,40.371L322.24,40.371L322.81,40.371L323.38,40.371L323.95,40.371L324.52,40.371L325.09,40.371L325.65,40.371L326.22,40.371L326.79,40.371L327.36,40.371L327.93,40.371L328.5,40.371L329.07,40.371L329.64,40.371L330.21,40.371L330.77,40.371L331.34,40.371L331.91,40.371L332.48,40.371L333.05,40.371L333.62,40.371L334.19,40.371L334.76,40.371L335.33,40.371L335.9,40.371L336.46,40.371L337.03,40.371L337.6,40.371L338.17,40.371L338.74,40.371L339.31,40.371L339.88,40.371L340.45,40.371L341.02,40.371L341.58,40.371L342.15,40.371L342.72,40.371L343.29,40.371L343.86,40.371L344.43,40.371L345,40.371L345.57,40.371L346.14,40.371L346.71,40.371L347.27,40.371L347.84,40.371L348.41,40.371L348.98,40.371L349.55,40.371L350.12,40.371L350.69,40.371L351.26,40.371L351.83,40.371L352.39,40.371L352.96,40.371L353.53,40.371L354.1,40.371L354.67,40.371L355.24,40.371L355.81,40.371L356.38,40.371L356.95,40.371L357.51,40.371L358.08,40.371L358.65,40.371L359.22,40.371L359.79,40.371L360.36,40.371L360.93,40.371L361.5,40.371L362.07,40.371L362.64,40.371L363.2,40.371L363.77,40.371L364.34,40.371L364.91,40.371L365.48,40.371L366.05,40.371L366.62,40.371L367.19,40.371L367.76,40.371L368.32,40.371L368.89,40.371L369.46,40.371L370.03,40.371L370.6,40.371L371.17,40.371L371.74,40.371L372.31,40.371L372.88,40.371L373.45,40.371L374.01,40.371L374.58,40.371L375.15,40.371L375.72,40.371L376.29,40.371L376.86,40.371L377.43,40.371L378,40.371L378.57,40.371L379.13,40.371L379.7,40.371L380.27,40.371L380.84,40.371L381.41,40.371L381.98,40.371L382.55,40.371L383.12,40.371L383.69,40.371L384.25,40.371L384.82,40.371L385.39,40.371L385.96,40.371L386.53,40.371L387.1,40.371L387.67,40.371L388.24,40.371L388.81,40.371L389.38,40.371L389.94,40.371L390.51,40.371L391.08,40.371L391.65,40.371L392.22,40.371L392.79,40.371L393.36,40.371L393.93,40.371L394.5,40.371L395.06,40.371L395.63,40.371L396.2,40.371L396.77,40.371L397.34,40.371L397.91,40.371L398.48,40.371L399.05,40.371L399.62,40.371L400.19,81.673L400.75,40.371L401.32,40.371L401.89,40.371L402.46,40.371L403.03,40.371L403.6,40.371L404.17,40.371L404.74,40.371L405.31,40.371L405.87,40.371L406.44,40.371L407.01,40.371L407.58,40.371L408.15,40.371L408.72,40.371L409.29,40.371L409.86,40.371L410.43,40.371L410.99,40.371L411.56,40.371L412.13,40.371L412.7,40.371L413.27,40.371L413.84,40.371L414.41,40.371L414.98,40.371L415.55,40.371L416.12,81.673L416.68,40.371L417.25,40.371L417.82,40.371L418.39,40.371L418.96,40.371L419.53,40.371L420.1,40.371L420.67,40.371L421.24,40.371L421.8,40.371L422.37,40.371L422.94,40.371L423.51,40.371L424.08,40.371L424.65,40.371L425.22,40.371L425.79,40.371L426.36,40.371L426.93,81.673L427.49,40.371L428.06,40.371L428.63,40.371L429.2,40.371L429.77,40.371L430.34,40.371L430.91,40.371L431.48,40.371L432.05,40.371L432.61,40.371L433.18,40.371L433.75,40.371L434.32,40.371L434.89,40.371L435.46,40.371L436.03,40.371L436.6,40.371L437.17,40.371L437.73,40.371L438.3,40.371L438.87,40.371L439.44,81.673L440.01,40.371L440.58,40.371L441.15,40.371L441.72,40.371L442.29,40.371L442.86,40.371L443.42,40.371L443.99,40.371L444.56,40.371L445.13,40.371L445.7,81.673L446.27,40.371L446.84,40.371L447.41,40.371L447.98,40.371L448.54,40.371L449.11,40.371L449.68,40.371L450.25,40.371L450.82,40.371L451.39,40.371L451.96,40.371L452.53,40.371L453.1,40.371L453.67,40.371L454.23,40.371L454.8,40.371L455.37,40.371L455.94,40.371L456.51,40.371L457.08,40.371L457.65,40.371L458.22,40.371L458.79,40.371L459.35,40.371L459.92,40.371L460.49,40.371L461.06,40.371L461.63,40.371L462.2,40.371L462.77,40.371L463.34,81.673L463.91,40.371L464.47,40.371L465.04,40.371L465.61,40.371L466.18,40.371L466.75,40.371L467.32,40.371L467.89,40.371L468.46,40.371L469.03,40.371L469.6,40.371L470.16,40.371L470.73,40.371L471.3,40.371L471.87,40.371L472.44,40.371L473.01,40.371L473.58,40.371L474.15,40.371L474.72,40.371L475.28,40.371L475.85,40.371L476.42,40.371L476.99,40.371L477.56,40.371L478.13,40.371L478.7,40.371L479.27,40.371L479.84,40.371L480.41,40.371L480.97,40.371L481.54,40.371L482.11,40.371L482.68,81.673L483.25,40.371L483.82,40.371L484.39,40.371L484.96,40.371L485.53,40.371L486.09,40.371L486.66,40.371L487.23,40.371L487.8,40.371L488.37,40.371L488.94,40.371L489.51,40.371L490.08,40.371L490.65,40.371L491.21,40.371L491.78,40.371L492.35,40.371L492.92,40.371L493.49,40.371L494.06,40.371L494.63,40.371L495.2,40.371L495.77,40.371L496.34,40.371L496.9,40.371L497.47,40.371L498.04,40.371L498.61,40.371L499.18,40.371L499.75,40.371L500.32,40.371L500.89,40.371L501.46,40.371L502.02,40.371L502.59,40.371L503.16,40.371L503.73,40.371L504.3,40.371L504.87,40.371L505.44,40.371L506.01,40.371L506.58,40.371L507.15,40.371L507.71,40.371L508.28,40.371L508.85,40.371L509.42,40.371L509.99,40.371L510.56,40.371L511.13,40.371L511.7,40.371L512.27,40.371L512.83,40.371L513.4,40.371L513.97,40.371L514.54,40.371L515.11,40.371L515.68,40.371L516.25,40.371L516.82,40.371L517.39,40.371L517.95,40.371L518.52,40.371L519.09,40.371L519.66,40.371L520.23,40.371L520.8,40.371L521.37,40.371L521.94,40.371L522.51,40.371L523.08,40.371L523.64,40.371L524.21,40.371L524.78,40.371L525.35,40.371L525.92,40.371L526.49,40.371L527.06,40.371L527.63,40.371L528.2,40.371L528.76,40.371L529.33,40.371L529.9,40.371L530.47,40.371L531.04,40.371L531.61,40.371L532.18,40.371L532.75,40.371L533.32,40.371L533.89,40.371L534.45,40.371L535.02,40.371L535.59,40.371L536.16,40.371L536.73,40.371L537.3,40.371L537.87,40.371L538.44,40.371L539.01,40.371L539.57,40.371L540.14,40.371L540.71,40.371L541.28,40.371L541.85,40.371L542.42,40.371L542.99,40.371L543.56,40.371L544.13,40.371L544.69,40.371L545.26,40.371L545.83,40.371L546.4,40.371L546.97,40.371L547.54,40.371L548.11,40.371L548.68,40.371L549.25,40.371L549.82,40.371L550.38,40.371L550.95,40.371L551.52,40.371L552.09,40.371L552.66,40.371L553.23,40.371L553.8,40.371L554.37,40.371L554.94,40.371L555.5,40.371L556.07,40.371L556.64,40.371L557.21,40.371L557.78,40.371L558.35,40.371L558.92,40.371L559.49,40.371L560.06,40.371L560.62,40.371" style="fill:none;stroke:#FA8072" />
<path d="M51.996,42.436L52.565,42.436L53.134,42.436L53.703,42.436L54.272,42.436L54.841,42.436L55.41,42.436L55.979,42.436L56.548,42.436L57.117,42.436L57.685,42.436L58.254,42.436L58.823,42.436L59.392,42.436L59.961,42.436L60.53,42.436L61.099,42.436L61.668,42.436L62.237,42.436L62.806,42.436L63.375,42.436L63.944,116.78L64.513,159.54L69.064,219.98L72.478,243.53L73.047,236.79L73.616,211.72L74.185,191.55L74.754,163.91L75.322,158.53L75.891,151.48L77.598,229.71L78.167,191.4L78.736,164.91L79.305,147.13L79.874,134.89L80.443,118.37L81.012,153.29L81.581,191.16L82.15,185.65L82.719,187.99L83.288,161.68L83.857,177.27L84.425,160.07L84.994,144.84L85.563,133.7L86.132,117.57L86.701,113.21L87.27,108.35L87.839,103.58L88.408,99.054L88.977,173.22L89.546,177.65L90.115,153.76L90.684,131.95L91.253,116.72L91.822,106.44L92.391,99.319L92.959,89.35L93.528,110.41L94.097,129.44L94.666,132.21L95.235,134.26L95.804,170.15L96.373,153.09L96.942,136.11L97.511,123.82L98.08,115.1L98.649,102.29L99.218,98.195L99.787,93.949L100.36,89.924L100.92,86.199L101.49,82.809L102.06,143.79L102.63,147.34L103.2,128.89L103.77,112.04L104.34,100.28L104.91,92.329L105.48,86.829L106.05,79.055L106.61,95.189L107.18,108.03L107.75,112.82L108.32,114.53L108.89,101.84L109.46,90.357L110.03,82.346L110.6,76.927L111.17,73.168L111.73,67.86L112.3,65.731L112.87,63.744L113.44,61.947L114.01,60.339L114.58,58.913L115.15,57.653L115.72,56.542L116.29,55.563L116.85,54.698L117.42,53.932L117.99,53.251L118.56,52.643L119.13,52.099L119.7,51.608L120.27,51.163L120.84,50.759L121.41,50.389L121.98,50.049L122.54,49.736L123.11,49.445L123.68,49.175L124.25,48.923L124.82,48.686L125.39,48.464L125.96,48.255L126.53,48.058L127.1,47.87L127.66,47.693L128.23,80.688L130.51,234.58L131.08,203.97L131.65,182.4L132.22,167.2L132.79,144.84L133.35,195.3L133.92,239.98L134.49,245.83L135.63,210.85L136.2,176.49L136.77,152.83L137.34,137.04L137.91,126.22L138.47,111.38L139.04,106.15L139.61,101.02L140.18,96.299L140.75,92.026L141.32,88.199L141.89,84.796L142.46,81.784L143.03,79.12L143.59,76.764L144.16,74.677L144.73,72.823L145.3,71.169L145.87,69.687L146.44,68.353L147.01,67.146L147.58,66.049L148.15,65.046L148.72,64.126L149.28,63.276L149.85,62.488L150.42,61.754L150.99,82.004L151.56,218.73L152.13,238.68L152.7,209.18L153.27,178.43L153.84,156.1L154.4,140.79L154.97,130.16L155.54,114.65L156.11,148.95L156.68,177.13L157.25,185.68L157.82,189.14L158.39,162.77L158.96,139L159.53,122.5L160.09,111.42L160.66,103.8L161.23,93.095L161.8,89.061L162.37,85.204L162.94,81.693L163.51,78.537L164.08,75.725L164.65,73.236L165.21,69.1L165.78,67.387L166.35,65.871L166.92,64.524L167.49,63.322L168.06,62.245L168.63,61.275L169.2,60.397L169.77,59.598L170.33,58.868L170.9,58.196L171.47,57.577L172.04,57.002L172.61,56.466L173.18,55.966L173.75,55.496L174.32,55.054L174.89,54.636L175.46,54.241L176.02,53.865L176.59,53.508L177.16,53.168L177.73,52.843L178.3,52.533L178.87,52.235L179.44,51.95L180.01,51.676L180.58,51.413L181.14,51.16L181.71,50.917L182.28,50.682L182.85,50.456L183.42,50.239L183.99,50.029L184.56,49.826L185.13,49.63L185.7,49.442L186.27,49.259L186.83,49.083L187.4,48.912L187.97,48.747L188.54,48.588L189.11,48.433L189.68,48.284L190.25,48.14L190.82,48L191.39,47.865L191.95,47.734L192.52,47.607L193.09,47.484L193.66,47.365L194.23,47.249L194.8,47.138L195.37,47.029L195.94,46.925L196.51,46.823L197.07,46.724L197.64,46.629L198.21,46.536L198.78,46.446L199.35,46.359L199.92,46.275L200.49,46.193L201.06,46.114L201.63,46.037L202.2,45.962L202.76,45.889L203.33,45.819L203.9,45.751L204.47,45.685L205.04,45.62L205.61,45.558L206.18,45.498L206.75,45.439L207.32,45.382L207.88,45.327L208.45,45.273L209.02,45.221L209.59,45.171L210.16,45.122L210.73,45.074L211.3,45.028L211.87,44.983L212.44,44.94L213.01,44.897L213.57,44.856L214.14,44.816L214.71,44.778L215.28,44.74L215.85,44.704L216.42,44.668L216.99,44.634L217.56,44.6L218.13,44.568L218.69,44.536L219.26,44.506L219.83,44.476L220.4,44.447L220.97,44.419L221.54,44.366L222.11,44.34L222.68,44.315L223.25,44.291L223.81,44.267L224.38,44.244L224.95,44.222L225.52,44.201L226.09,44.18L226.66,44.159L227.23,44.139L227.8,44.12L228.37,44.102L228.94,44.083L229.5,44.066L230.07,44.049L230.64,44.032L231.21,90.891L234.62,234.65L235.19,212.36L235.76,180.77L239.18,213.95L239.75,182.33L240.31,161.39L240.88,170.39L241.45,150.6L243.16,232.6L243.73,193.75L244.3,166.88L244.87,148.88L245.43,136.5L246,119.66L246.57,154.5L247.14,186.17L247.71,189.18L248.28,191.9L248.85,164.88L249.42,140.64L249.99,123.81L250.55,136.67L251.12,130.43L251.69,115.69L252.26,195.76L252.83,200.88L253.4,172.69L253.97,146.99L254.54,129.07L255.11,116.98L255.68,108.63L256.24,96.964L256.81,120.89L257.38,139.38L257.95,146.83L258.52,149.25L259.09,130.31L259.66,113.19L260.23,101.27L260.8,93.208L261.36,112.02L261.93,103.87L262.5,100.17L263.07,95.826L263.64,91.588L264.21,87.651L264.78,84.084L265.35,80.898L265.92,78.072L266.49,75.573L267.05,73.363L267.62,71.405L268.19,133.79L268.76,137.35L269.33,120.73L269.9,105.51L270.47,94.912L271.04,87.776L271.61,82.86L272.17,75.799L272.74,90.333L273.31,146.16L273.88,172.83L274.45,181.35L275.02,158.22L275.59,136.08L276.16,120.41L276.73,109.78L277.29,102.41L277.86,91.84L278.43,87.48L279,83.43L279.57,79.819L280.14,76.628L280.71,73.825L281.28,71.37L281.85,69.222L282.42,67.339L282.98,65.684L283.55,64.224L284.12,62.93L284.69,61.778L285.26,60.747L285.83,59.818L286.4,58.977L286.97,58.212L287.54,57.511L288.1,56.867L288.67,56.273L289.24,55.721L289.81,55.207L290.38,54.726L290.95,54.275L291.52,53.85L292.09,53.45L292.66,72.981L293.23,199.13L293.79,222.52L294.36,198.11L294.93,170.71L295.5,150.35L296.07,136.24L296.64,126.39L297.21,111.65L297.78,144.37L298.35,168.53L298.91,181.21L299.48,184.89L300.05,159.38L300.62,136.34L301.19,120.36L301.76,109.64L302.33,102.27L302.9,91.849L303.47,87.618L304.03,83.686L304.6,80.173L305.17,77.061L305.74,74.323L306.31,71.92L306.88,69.815L307.45,67.969L308.02,66.346L308.59,64.915L309.16,63.647L309.72,62.519L310.29,61.51L310.86,60.602L311.43,59.781L312,59.035L312.57,58.354L313.14,57.727L313.71,57.149L314.28,75.161L314.84,80.491L315.41,82.534L315.98,83.185L316.55,83.084L317.12,82.552L317.69,81.775L318.26,80.86L318.83,79.872L319.4,78.85L319.97,179.77L320.53,186.09L321.1,161L321.67,137.87L322.24,121.77L322.81,110.99L323.38,103.63L323.95,92.932L324.52,116.14L325.09,133.22L325.65,142.9L326.22,145.82L326.79,127.68L327.36,111.21L327.93,99.755L328.5,92.058L329.07,86.768L329.64,79.164L330.21,76.052L330.77,73.179L331.34,70.612L331.91,68.338L332.48,66.336L333.05,64.579L333.62,63.039L334.19,61.688L334.76,59.452L335.33,58.524L335.9,57.698L336.46,56.959L337.03,56.295L337.6,55.694L338.17,55.148L338.74,54.649L339.31,54.191L339.88,53.768L340.45,53.376L341.02,53.011L341.58,52.669L342.15,52.348L342.72,52.046L343.29,51.76L343.86,51.49L344.43,51.232L345,50.987L345.57,50.754L346.14,50.53L346.71,50.316L347.27,50.111L347.84,49.914L348.41,49.725L348.98,49.543L349.55,49.368L350.12,49.199L350.69,49.036L351.26,48.879L351.83,48.727L352.39,48.58L352.96,48.439L353.53,48.302L354.1,48.17L354.67,48.042L355.24,47.918L355.81,47.798L356.38,47.682L356.95,47.569L357.51,47.46L358.08,47.355L358.65,47.252L359.22,47.153L359.79,47.057L360.36,46.964L360.93,46.874L361.5,46.787L362.07,46.702L362.64,46.62L363.2,46.54L363.77,46.463L364.34,46.388L364.91,46.315L365.48,46.244L366.05,46.176L366.62,46.109L367.19,46.045L367.76,45.982L368.32,45.922L368.89,45.863L369.46,45.806L370.03,45.75L370.6,45.696L371.17,45.644L371.74,45.593L372.31,45.544L372.88,45.496L373.45,45.45L374.01,45.405L374.58,45.361L375.15,45.319L375.72,45.277L376.29,45.237L376.86,45.198L377.43,45.161L378,45.124L378.57,45.089L379.13,45.054L379.7,45.02L380.27,44.988L380.84,44.956L381.41,44.926L381.98,44.896L382.55,44.867L383.12,44.839L383.69,44.811L384.25,44.785L384.82,44.759L385.39,44.734L385.96,44.71L386.53,44.686L387.1,44.663L387.67,44.641L388.24,44.62L388.81,44.599L389.38,44.578L389.94,44.559L390.51,44.539L391.08,44.503L391.65,44.485L392.22,44.468L392.79,44.451L393.36,44.435L393.93,44.42L394.5,44.404L395.06,44.39L395.63,44.375L396.2,44.361L396.77,44.348L397.34,44.335L397.91,44.322L398.48,44.31L399.05,44.298L399.62,44.286L400.19,84.497L400.75,105.45L401.32,117.22L401.89,123.89L402.46,127.4L403.03,128.88L403.6,129.05L404.17,128.35L404.74,127.08L405.31,125.42L407.58,230.59L408.15,196.49L408.72,173.84L409.29,158.44L409.86,137.33L410.43,183.2L410.99,228.58L411.56,227.18L412.13,230.21L412.7,195.4L413.27,164.45L413.84,143.14L414.41,128.9L414.98,119.15L415.55,105.7L416.12,122.51L416.68,120.69L417.25,116.28L417.82,111.44L418.39,106.71L418.96,102.27L419.53,98.207L420.1,94.523L420.67,186.47L421.24,192.13L421.8,165.76L422.37,141.6L422.94,124.76L423.51,113.45L424.08,105.67L424.65,94.618L425.22,118.33L425.79,137.88L426.36,144.21L426.93,194.71L427.49,175.04L428.06,150.51L428.63,132.62L429.2,120.37L429.77,111.86L430.34,99.64L430.91,95.282L431.48,90.993L432.05,87.04L432.61,83.454L433.18,80.242L433.75,77.386L434.32,74.857L434.89,72.62L435.46,70.642L436.03,68.888L436.6,123.43L437.17,126.69L437.73,112.09L438.3,98.696L438.87,89.359L439.44,110.08L440.01,108.32L440.58,98.134L441.15,126.27L441.72,147.55L442.29,157.94L442.86,161.36L443.42,140.23L443.99,121.06L444.56,107.73L445.13,98.76L445.7,109.29L446.27,100.28L446.84,166.96L447.41,171.95L447.98,149.29L448.54,128.45L449.11,113.88L449.68,104.04L450.25,97.249L450.82,87.611L451.39,107.37L451.96,121.14L452.53,129.82L453.1,132.04L453.67,116.22L454.23,101.91L454.8,91.932L455.37,85.197L455.94,80.538L456.51,73.941L457.08,70.991L457.65,68.34L458.22,66.01L458.79,63.974L459.35,62.199L459.92,60.654L460.49,59.309L461.06,58.134L461.63,57.105L462.2,56.2L462.77,55.4L463.34,71.67L463.91,75.854L464.47,77.108L465.04,77.219L465.61,76.76L466.18,76.006L466.75,75.106L467.32,74.141L467.89,73.159L468.46,72.185L469.03,71.231L469.6,70.305L470.16,148.75L470.73,153.56L471.3,134.24L471.87,116.47L472.44,104.1L473.01,95.824L473.58,90.163L474.15,81.869L474.72,99.681L475.28,111.77L475.85,121.09L476.42,123.53L476.99,109.42L477.56,96.583L478.13,87.65L478.7,81.646L479.27,77.519L479.84,71.532L480.41,68.932L480.97,66.588L481.54,64.521L482.11,62.711L482.68,80.743L483.25,83.236L483.82,82.792L484.39,81.475L484.96,79.851L485.53,78.153L486.09,76.492L486.66,74.916L487.23,73.444L487.8,72.079L488.37,70.815L488.94,69.643L489.51,68.556L490.08,67.544L490.65,66.598L491.21,65.712L491.78,64.879L492.35,64.093L492.92,63.35L493.49,121.32L494.06,124.9L494.63,110.69L495.2,97.605L495.77,88.507L496.34,82.416L496.9,78.253L497.47,72.092L498.04,85.489L498.61,94.581L499.18,101.84L499.75,103.81L500.32,93.235L500.89,83.597L501.46,76.891L502.02,72.386L502.59,69.294L503.16,64.754L503.73,62.78L504.3,59.442L504.87,58.073L505.44,56.879L506.01,55.838L506.58,54.93L507.15,54.138L507.71,53.444L508.28,52.833L508.85,52.294L509.42,51.815L509.99,51.388L510.56,51.004L511.13,50.659L511.7,50.345L512.27,50.059L512.83,49.797L513.4,49.555L513.97,49.332L514.54,49.124L515.11,48.93L515.68,48.748L516.25,48.577L516.82,48.415L517.39,48.262L517.95,48.117L518.52,47.98L519.09,47.848L519.66,47.723L520.23,47.603L520.8,47.488L521.37,47.377L521.94,47.272L522.51,47.17L523.08,47.072L523.64,46.978L524.21,46.887L524.78,46.799L525.35,46.715L525.92,46.633L526.49,46.555L527.06,46.479L527.63,46.405L528.2,46.334L528.76,46.265L529.33,46.199L529.9,46.134L530.47,46.072L531.04,46.012L531.61,45.954L532.18,45.897L532.75,45.843L533.32,45.79L533.89,45.738L534.45,45.689L535.02,45.64L535.59,45.594L536.16,45.549L536.73,45.505L537.3,45.462L537.87,45.421L538.44,45.381L539.01,45.343L539.57,45.305L540.14,45.269L540.71,45.233L541.28,45.199L541.85,45.166L542.42,45.134L542.99,45.103L543.56,45.072L544.13,45.043L544.69,45.015L545.26,44.987L545.83,44.96L546.4,44.934L546.97,44.909L547.54,44.885L548.11,44.861L548.68,44.838L549.25,44.816L549.82,44.794L550.38,44.773L550.95,44.753L551.52,44.733L552.09,44.714L552.66,44.695L553.23,44.677L553.8,44.66L554.37,44.643L554.94,44.626L555.5,44.61L556.07,44.595L556.64,44.58L557.21,44.565L557.78,44.551L558.35,44.537L558.92,44.524L559.49,44.511L560.06,44.499L560.62,44.486" style="fill:none;stroke:#A52A2A" />
<path d="M540.62,244.69L560.62,244.69" style="fill:none;stroke:#800080" />
<text x="507.27" y="-241.86" transform="scale(1, -1)"
	style="font-family:Liberation Sans;font-variant:normal;font-weight:normal;font-style:normal;font-size:12px">Spike</text>
<path d="M540.62,234.22L560.62,234.22" style="fill:none;stroke:#FFC0CB" />
<text x="511.96" y="-231.39" transform="scale(1, -1)"
	style="font-family:Liberation Sans;font-variant:normal;font-weight:normal;font-style:normal;font-size:12px">CaM</text>
<path d="M540.62,223.75L560.62,223.75" style="fill:none;stroke:#FA8072" />
<text x="488.6" y="-220.92" transform="scale(1, -1)"
	style="font-family:Liberation Sans;font-variant:normal;font-weight:normal;font-style:normal;font-size:12px">PreSpike</text>
<path d="M540.62,213.28L560.62,213.28" style="fill:none;stroke:#A52A2A" />
<text x="490.6" y="-210.45" transform="scale(1, -1)"
	style="font-family:Liberation Sans;font-variant:normal;font-weight:normal;font-style:normal;font-size:12px">PSD_Ca</text>
</g>
</svg>
