<?xml version="1.0"?>
<!-- Generated by SVGo and Plotinum VG -->
<svg width="643.88pt" height="316.5pt" viewBox="0 0 643.88 316.5"
	xmlns="http://www.w3.org/2000/svg"
	xmlns:xlink="http://www.w3.org/1999/xlink">
<g transform="scale(1, -1) translate(0, -316.5)">
<text x="273.92" y="-306.77" transform="scale(1, -1)"
	style="font-family:Helvetica;font-weight:normal;font-style:normal;font-size:12px">Urakubo DWt Plot</text>
<text x="340.04" y="-3.6797" transform="scale(1, -1)"
	style="font-family:Helvetica;font-weight:normal;font-style:normal;font-size:12px">X</text>
<text x="42.538" y="-16.473" transform="scale(1, -1)"
	style="font-family:Helvetica;font-weight:normal;font-style:normal;font-size:10px">-50</text>
<text x="341.26" y="-16.473" transform="scale(1, -1)"
	style="font-family:Helvetica;font-weight:normal;font-style:normal;font-size:10px">0</text>
<text x="632.75" y="-16.473" transform="scale(1, -1)"
	style="font-family:Helvetica;font-weight:normal;font-style:normal;font-size:10px">50</text>
<path d="M49.765,24.578L49.765,32.578" style="fill:none;stroke:#000000;stroke-width:0.5" />
<path d="M344.04,24.578L344.04,32.578" style="fill:none;stroke:#000000;stroke-width:0.5" />
<path d="M638.31,24.578L638.31,32.578" style="fill:none;stroke:#000000;stroke-width:0.5" />
<path d="M108.62,28.578L108.62,32.578" style="fill:none;stroke:#000000;stroke-width:0.5" />
<path d="M167.47,28.578L167.47,32.578" style="fill:none;stroke:#000000;stroke-width:0.5" />
<path d="M226.33,28.578L226.33,32.578" style="fill:none;stroke:#000000;stroke-width:0.5" />
<path d="M285.18,28.578L285.18,32.578" style="fill:none;stroke:#000000;stroke-width:0.5" />
<path d="M402.89,28.578L402.89,32.578" style="fill:none;stroke:#000000;stroke-width:0.5" />
<path d="M461.75,28.578L461.75,32.578" style="fill:none;stroke:#000000;stroke-width:0.5" />
<path d="M520.6,28.578L520.6,32.578" style="fill:none;stroke:#000000;stroke-width:0.5" />
<path d="M579.46,28.578L579.46,32.578" style="fill:none;stroke:#000000;stroke-width:0.5" />
<path d="M49.765,32.578L638.31,32.578" style="fill:none;stroke:#000000;stroke-width:0.5" />
<g transform="rotate(90)">
<text x="158.5" y="9.7266" transform="scale(1, -1)"
	style="font-family:Helvetica;font-weight:normal;font-style:normal;font-size:12px">DWt</text>
</g>
<text x="15.949" y="-37.852" transform="scale(1, -1)"
	style="font-family:Helvetica;font-weight:normal;font-style:normal;font-size:10px">-0.5</text>
<text x="19.279" y="-167.64" transform="scale(1, -1)"
	style="font-family:Helvetica;font-weight:normal;font-style:normal;font-size:10px">0.0</text>
<text x="19.279" y="-297.43" transform="scale(1, -1)"
	style="font-family:Helvetica;font-weight:normal;font-style:normal;font-size:10px">0.5</text>
<path d="M35.959,40.371L43.959,40.371" style="fill:none;stroke:#000000;stroke-width:0.5" />
<path d="M35.959,170.16L43.959,170.16" style="fill:none;stroke:#000000;stroke-width:0.5" />
<path d="M35.959,299.95L43.959,299.95" style="fill:none;stroke:#000000;stroke-width:0.5" />
<path d="M39.959,66.329L43.959,66.329" style="fill:none;stroke:#000000;stroke-width:0.5" />
<path d="M39.959,92.288L43.959,92.288" style="fill:none;stroke:#000000;stroke-width:0.5" />
<path d="M39.959,118.25L43.959,118.25" style="fill:none;stroke:#000000;stroke-width:0.5" />
<path d="M39.959,144.2L43.959,144.2" style="fill:none;stroke:#000000;stroke-width:0.5" />
<path d="M39.959,196.12L43.959,196.12" style="fill:none;stroke:#000000;stroke-width:0.5" />
<path d="M39.959,222.08L43.959,222.08" style="fill:none;stroke:#000000;stroke-width:0.5" />
<path d="M39.959,248.04L43.959,248.04" style="fill:none;stroke:#000000;stroke-width:0.5" />
<path d="M39.959,274L43.959,274" style="fill:none;stroke:#000000;stroke-width:0.5" />
<path d="M43.959,40.371L43.959,299.95" style="fill:none;stroke:#000000;stroke-width:0.5" />
<path d="M49.765,164.27L79.192,159.59L108.62,153.71L138.05,146.28L167.47,136.82L196.9,124.74L226.33,109.78L255.76,93.613L285.18,81.961L314.61,82.389L344.04,180.22L373.47,278.34L402.89,286.56L432.32,267.96L461.75,246.76L491.18,229.48L520.6,216.92L550.03,208.08L579.46,201.9L608.89,197.54L638.31,194.44" style="fill:none;stroke:#FF0000" />
<path d="M623.88,297.86L643.88,297.86" style="fill:none;stroke:#FF0000" />
<text x="587.21" y="-295.03" transform="scale(1, -1)"
	style="font-family:Helvetica;font-weight:normal;font-style:normal;font-size:12px">0 DWt</text>
</g>
</svg>
