<?xml version="1.0"?>
<!-- Generated by SVGo and Plotinum VG -->
<svg width="617.25pt" height="316.5pt" viewBox="0 0 617.25 316.5"
	xmlns="http://www.w3.org/2000/svg"
	xmlns:xlink="http://www.w3.org/1999/xlink">
<g transform="scale(1, -1) translate(0, -316.5)">
<text x="260.61" y="-306.77" transform="scale(1, -1)"
	style="font-family:Helvetica;font-weight:normal;font-style:normal;font-size:12px">Urakubo DWt Plot</text>
<text x="329.51" y="-3.6797" transform="scale(1, -1)"
	style="font-family:Helvetica;font-weight:normal;font-style:normal;font-size:12px">X</text>
<text x="98.249" y="-16.473" transform="scale(1, -1)"
	style="font-family:Helvetica;font-weight:normal;font-style:normal;font-size:10px">20</text>
<text x="314.43" y="-16.473" transform="scale(1, -1)"
	style="font-family:Helvetica;font-weight:normal;font-style:normal;font-size:10px">60</text>
<text x="527.84" y="-16.473" transform="scale(1, -1)"
	style="font-family:Helvetica;font-weight:normal;font-style:normal;font-size:10px">100</text>
<path d="M103.81,24.578L103.81,32.578" style="fill:none;stroke:#000000;stroke-width:0.5" />
<path d="M320,24.578L320,32.578" style="fill:none;stroke:#000000;stroke-width:0.5" />
<path d="M536.18,24.578L536.18,32.578" style="fill:none;stroke:#000000;stroke-width:0.5" />
<path d="M157.86,28.578L157.86,32.578" style="fill:none;stroke:#000000;stroke-width:0.5" />
<path d="M211.9,28.578L211.9,32.578" style="fill:none;stroke:#000000;stroke-width:0.5" />
<path d="M265.95,28.578L265.95,32.578" style="fill:none;stroke:#000000;stroke-width:0.5" />
<path d="M374.04,28.578L374.04,32.578" style="fill:none;stroke:#000000;stroke-width:0.5" />
<path d="M428.09,28.578L428.09,32.578" style="fill:none;stroke:#000000;stroke-width:0.5" />
<path d="M482.13,28.578L482.13,32.578" style="fill:none;stroke:#000000;stroke-width:0.5" />
<path d="M590.23,28.578L590.23,32.578" style="fill:none;stroke:#000000;stroke-width:0.5" />
<path d="M49.765,32.578L617.25,32.578" style="fill:none;stroke:#000000;stroke-width:0.5" />
<g transform="rotate(90)">
<text x="158.5" y="9.7266" transform="scale(1, -1)"
	style="font-family:Helvetica;font-weight:normal;font-style:normal;font-size:12px">DWt</text>
</g>
<text x="15.949" y="-37.852" transform="scale(1, -1)"
	style="font-family:Helvetica;font-weight:normal;font-style:normal;font-size:10px">-0.2</text>
<text x="19.279" y="-167.64" transform="scale(1, -1)"
	style="font-family:Helvetica;font-weight:normal;font-style:normal;font-size:10px">0.0</text>
<text x="19.279" y="-297.43" transform="scale(1, -1)"
	style="font-family:Helvetica;font-weight:normal;font-style:normal;font-size:10px">0.2</text>
<path d="M35.959,40.371L43.959,40.371" style="fill:none;stroke:#000000;stroke-width:0.5" />
<path d="M35.959,170.16L43.959,170.16" style="fill:none;stroke:#000000;stroke-width:0.5" />
<path d="M35.959,299.95L43.959,299.95" style="fill:none;stroke:#000000;stroke-width:0.5" />
<path d="M39.959,105.27L43.959,105.27" style="fill:none;stroke:#000000;stroke-width:0.5" />
<path d="M39.959,235.06L43.959,235.06" style="fill:none;stroke:#000000;stroke-width:0.5" />
<path d="M43.959,40.371L43.959,299.95" style="fill:none;stroke:#000000;stroke-width:0.5" />
<path d="M49.765,85.205L103.81,81.548L157.86,81.262L211.9,85.341L265.95,91.955L320,104.93L374.04,118.32L428.09,132.07L482.13,140.01L536.18,155.89" style="fill:none;stroke:#000000" />
<path d="M49.765,80.488L103.81,79.696L157.86,83.915L211.9,92.424L265.95,101.07L320,117.8L374.04,132.81L428.09,147.66L482.13,157.31L536.18,173.92" style="fill:none;stroke:#FF0000" />
<path d="M49.765,78.237L103.81,80.747L157.86,89.038L211.9,100.34L265.95,109.83L320,128.87L374.04,143.45L428.09,159.01L482.13,169.95L536.18,188.56" style="fill:none;stroke:#0000FF" />
<path d="M49.765,77.445L103.81,83.25L157.86,94.841L211.9,107.95L265.95,117.78L320,138.33L374.04,153.91L428.09,170L482.13,180.56L536.18,200.93" style="fill:none;stroke:#228B22" />
<path d="M49.765,77.595L103.81,86.501L157.86,100.67L211.9,115L265.95,124.94L320,146.62L374.04,162.85L428.09,179.62L482.13,191.08L536.18,211.72" style="fill:none;stroke:#800080" />
<path d="M49.765,78.394L103.81,90.131L157.86,106.25L211.9,121.48L265.95,131.43L320,153.93L374.04,169.94L428.09,187.2L482.13,199.51L536.18,221.35" style="fill:none;stroke:#FFA500" />
<path d="M49.765,79.658L103.81,93.932L157.86,111.58L211.9,127.44L265.95,137.36L320,160.64L374.04,177.44L428.09,195.06L482.13,207.1L536.18,230.1" style="fill:none;stroke:#A52A2A" />
<path d="M49.765,81.265L103.81,97.777L157.86,116.74L211.9,132.96L265.95,142.84L320,166.02L374.04,184.22L428.09,202.41L482.13,215.06L536.18,238.14" style="fill:none;stroke:#7FFF00" />
<path d="M49.765,83.119L103.81,101.59L157.86,121.58L211.9,138.08L265.95,147.93L320,171.85L374.04,189.8L428.09,208.4L482.13,221.7L536.18,245.59" style="fill:none;stroke:#000080" />
<path d="M597.25,297.86L617.25,297.86" style="fill:none;stroke:#000000" />
<text x="547.23" y="-295.03" transform="scale(1, -1)"
	style="font-family:Helvetica;font-weight:normal;font-style:normal;font-size:12px">200 DWt</text>
<path d="M597.25,287.39L617.25,287.39" style="fill:none;stroke:#FF0000" />
<text x="547.23" y="-284.56" transform="scale(1, -1)"
	style="font-family:Helvetica;font-weight:normal;font-style:normal;font-size:12px">300 DWt</text>
<path d="M597.25,276.92L617.25,276.92" style="fill:none;stroke:#0000FF" />
<text x="547.23" y="-274.09" transform="scale(1, -1)"
	style="font-family:Helvetica;font-weight:normal;font-style:normal;font-size:12px">400 DWt</text>
<path d="M597.25,266.45L617.25,266.45" style="fill:none;stroke:#228B22" />
<text x="547.23" y="-263.62" transform="scale(1, -1)"
	style="font-family:Helvetica;font-weight:normal;font-style:normal;font-size:12px">500 DWt</text>
<path d="M597.25,255.98L617.25,255.98" style="fill:none;stroke:#800080" />
<text x="547.23" y="-253.15" transform="scale(1, -1)"
	style="font-family:Helvetica;font-weight:normal;font-style:normal;font-size:12px">600 DWt</text>
<path d="M597.25,245.5L617.25,245.5" style="fill:none;stroke:#FFA500" />
<text x="547.23" y="-242.68" transform="scale(1, -1)"
	style="font-family:Helvetica;font-weight:normal;font-style:normal;font-size:12px">700 DWt</text>
<path d="M597.25,235.03L617.25,235.03" style="fill:none;stroke:#A52A2A" />
<text x="547.23" y="-232.21" transform="scale(1, -1)"
	style="font-family:Helvetica;font-weight:normal;font-style:normal;font-size:12px">800 DWt</text>
<path d="M597.25,224.56L617.25,224.56" style="fill:none;stroke:#7FFF00" />
<text x="547.23" y="-221.74" transform="scale(1, -1)"
	style="font-family:Helvetica;font-weight:normal;font-style:normal;font-size:12px">900 DWt</text>
<path d="M597.25,214.09L617.25,214.09" style="fill:none;stroke:#000080" />
<text x="540.56" y="-211.27" transform="scale(1, -1)"
	style="font-family:Helvetica;font-weight:normal;font-style:normal;font-size:12px">1000 DWt</text>
</g>
</svg>
